<svg width="143" height="134" viewBox="0 0 143 134" fill="none" xmlns="http://www.w3.org/2000/svg">
<g clip-path="url(#clip0_763_289)">
<path d="M1.59998 28.37L31.79 3.27002L61.36 28.37" stroke="#315C63" stroke-width="5" stroke-miterlimit="10"/>
<path d="M1.59998 48.56L31.79 23.46L61.36 48.56" stroke="#315C63" stroke-width="5" stroke-miterlimit="10"/>
<path d="M1.59998 68.7499L31.79 43.6499L61.36 68.7499" stroke="#315C63" stroke-width="5" stroke-miterlimit="10"/>
<path d="M1.59998 88.9398L31.79 63.8398L61.36 88.9398" stroke="#315C63" stroke-width="5" stroke-miterlimit="10"/>
<path d="M80.78 28.37L110.96 3.27002L140.53 28.37" stroke="#315C63" stroke-width="5" stroke-miterlimit="10"/>
<path d="M80.78 48.56L110.96 23.46L140.53 48.56" stroke="#315C63" stroke-width="5" stroke-miterlimit="10"/>
<path d="M80.78 68.7499L110.96 43.6499L140.53 68.7499" stroke="#315C63" stroke-width="5" stroke-miterlimit="10"/>
<path d="M80.78 88.9398L110.96 63.8398L140.53 88.9398" stroke="#315C63" stroke-width="5" stroke-miterlimit="10"/>
<path d="M1.59998 111.47L31.79 86.3701L61.36 111.47" stroke="#315C63" stroke-width="5" stroke-miterlimit="10"/>
<path d="M1.59998 131.66L31.79 106.56L61.36 131.66" stroke="#315C63" stroke-width="5" stroke-miterlimit="10"/>
<path d="M80.78 111.47L110.96 86.3701L140.53 111.47" stroke="#315C63" stroke-width="5" stroke-miterlimit="10"/>
<path d="M80.78 131.66L110.96 106.56L140.53 131.66" stroke="#315C63" stroke-width="5" stroke-miterlimit="10"/>
</g>
<defs>
<clipPath id="clip0_763_289">
<rect width="142.15" height="133.59" fill="white"/>
</clipPath>
</defs>
</svg>
