<svg width="141" height="70" viewBox="0 0 141 70" fill="none" xmlns="http://www.w3.org/2000/svg">
<g clip-path="url(#clip0_763_2)">
<path d="M139.72 35.21L122.5 23.52L105.71 34.74L87.95 23.5L69.8 35.13L53.01 23.5L36.37 34.98L18.86 23.5L1.09998 35.21" stroke="#0E8674" stroke-width="4" stroke-miterlimit="10"/>
<path d="M139.72 25.0701L122.5 13.3801L105.71 24.6001L87.95 13.3601L69.8 24.9901L53.01 13.3601L36.37 24.8301L18.86 13.3601L1.09998 25.0701" stroke="#0E8674" stroke-width="4" stroke-miterlimit="10"/>
<path d="M139.72 14.1401L122.5 2.45005L105.71 13.6701L87.95 2.43005L69.8 14.0601L53.01 2.43005L36.37 13.9001L18.86 2.43005L1.09998 14.1401" stroke="#0E8674" stroke-width="4" stroke-miterlimit="10"/>
<path d="M139.72 66.8899L122.5 55.1999L105.71 66.4199L87.95 55.1799L69.8 66.8099L53.01 55.1799L36.37 66.6599L18.86 55.1799L1.09998 66.8899" stroke="#0E8674" stroke-width="4" stroke-miterlimit="10"/>
<path d="M139.72 56.75L122.5 45.06L105.71 56.28L87.95 45.04L69.8 56.67L53.01 45.04L36.37 56.51L18.86 45.04L1.09998 56.75" stroke="#0E8674" stroke-width="4" stroke-miterlimit="10"/>
<path d="M139.72 45.82L122.5 34.13L105.71 45.35L87.95 34.11L69.8 45.74L53.01 34.11L36.37 45.58L18.86 34.11L1.09998 45.82" stroke="#0E8674" stroke-width="4" stroke-miterlimit="10"/>
</g>
<defs>
<clipPath id="clip0_763_2">
<rect width="140.85" height="69.22" fill="white"/>
</clipPath>
</defs>
</svg>
