<svg width="141" height="92" viewBox="0 0 141 92" fill="none" xmlns="http://www.w3.org/2000/svg">
<g clip-path="url(#clip0_763_11)">
<path d="M1.10001 5.23996C1.10001 5.23996 11.35 12.03 23.28 5.23996C35.11 -1.49004 45.46 5.22996 45.46 5.22996C45.46 5.22996 57.52 11.84 67.64 5.22996C78.81 -2.07004 89.82 5.26996 89.82 5.26996C89.82 5.26996 99.98 12.11 112 5.26996C112 5.26996 123.78 -1.57004 139.72 5.26996" stroke="#4892A8" stroke-width="4" stroke-miterlimit="10"/>
<path d="M1.10001 21.56C1.10001 21.56 11.35 28.35 23.28 21.56C35.11 14.83 45.46 21.55 45.46 21.55C45.46 21.55 57.52 28.16 67.64 21.55C78.81 14.25 89.82 21.59 89.82 21.59C89.82 21.59 99.98 28.43 112 21.59C112 21.59 123.78 14.75 139.72 21.59" stroke="#4892A8" stroke-width="4" stroke-miterlimit="10"/>
<path d="M1.10001 37.8801C1.10001 37.8801 11.35 44.6701 23.28 37.8801C35.11 31.1501 45.46 37.8701 45.46 37.8701C45.46 37.8701 57.52 44.4801 67.64 37.8701C78.81 30.5701 89.82 37.9101 89.82 37.9101C89.82 37.9101 99.98 44.7501 112 37.9101C112 37.9101 123.78 31.0701 139.72 37.9101" stroke="#4892A8" stroke-width="4" stroke-miterlimit="10"/>
<path d="M1.10001 54.1999C1.10001 54.1999 11.35 60.9899 23.28 54.1999C35.11 47.4699 45.46 54.1899 45.46 54.1899C45.46 54.1899 57.52 60.7999 67.64 54.1899C78.81 46.8899 89.82 54.2299 89.82 54.2299C89.82 54.2299 99.98 61.0699 112 54.2299C112 54.2299 123.78 47.3899 139.72 54.2299" stroke="#4892A8" stroke-width="4" stroke-miterlimit="10"/>
<path d="M1.10001 70.52C1.10001 70.52 11.35 77.31 23.28 70.52C35.11 63.79 45.46 70.51 45.46 70.51C45.46 70.51 57.52 77.12 67.64 70.51C78.81 63.21 89.82 70.55 89.82 70.55C89.82 70.55 99.98 77.39 112 70.55C112 70.55 123.78 63.71 139.72 70.55" stroke="#4892A8" stroke-width="4" stroke-miterlimit="10"/>
<path d="M1.10001 86.84C1.10001 86.84 11.35 93.63 23.28 86.84C35.11 80.11 45.46 86.8301 45.46 86.8301C45.46 86.8301 57.52 93.4401 67.64 86.8301C78.81 79.5301 89.82 86.8701 89.82 86.8701C89.82 86.8701 99.98 93.7101 112 86.8701C112 86.8701 123.78 80.0301 139.72 86.8701" stroke="#4892A8" stroke-width="4" stroke-miterlimit="10"/>
</g>
<defs>
<clipPath id="clip0_763_11">
<rect width="140.51" height="91.91" fill="white"/>
</clipPath>
</defs>
</svg>
