<svg width="140" height="97" viewBox="0 0 140 97" fill="none" xmlns="http://www.w3.org/2000/svg">
<g clip-path="url(#clip0_763_170)">
<path d="M2.87 26.6399C4.45506 26.6399 5.74 25.355 5.74 23.7699C5.74 22.1848 4.45506 20.8999 2.87 20.8999C1.28494 20.8999 0 22.1848 0 23.7699C0 25.355 1.28494 26.6399 2.87 26.6399Z" fill="#F6921E"/>
<path d="M19.62 26.6399C21.2051 26.6399 22.49 25.355 22.49 23.7699C22.49 22.1848 21.2051 20.8999 19.62 20.8999C18.0349 20.8999 16.75 22.1848 16.75 23.7699C16.75 25.355 18.0349 26.6399 19.62 26.6399Z" fill="#F6921E"/>
<path d="M36.37 26.6399C37.9551 26.6399 39.24 25.355 39.24 23.7699C39.24 22.1848 37.9551 20.8999 36.37 20.8999C34.7849 20.8999 33.5 22.1848 33.5 23.7699C33.5 25.355 34.7849 26.6399 36.37 26.6399Z" fill="#F6921E"/>
<path d="M53.12 26.6399C54.7051 26.6399 55.99 25.355 55.99 23.7699C55.99 22.1848 54.7051 20.8999 53.12 20.8999C51.5349 20.8999 50.25 22.1848 50.25 23.7699C50.25 25.355 51.5349 26.6399 53.12 26.6399Z" fill="#F6921E"/>
<path d="M69.87 26.6399C71.4551 26.6399 72.74 25.355 72.74 23.7699C72.74 22.1848 71.4551 20.8999 69.87 20.8999C68.2849 20.8999 67 22.1848 67 23.7699C67 25.355 68.2849 26.6399 69.87 26.6399Z" fill="#F6921E"/>
<path d="M86.62 26.6399C88.2051 26.6399 89.49 25.355 89.49 23.7699C89.49 22.1848 88.2051 20.8999 86.62 20.8999C85.0349 20.8999 83.75 22.1848 83.75 23.7699C83.75 25.355 85.0349 26.6399 86.62 26.6399Z" fill="#F6921E"/>
<path d="M103.38 26.6399C104.965 26.6399 106.25 25.355 106.25 23.7699C106.25 22.1848 104.965 20.8999 103.38 20.8999C101.795 20.8999 100.51 22.1848 100.51 23.7699C100.51 25.355 101.795 26.6399 103.38 26.6399Z" fill="#F6921E"/>
<path d="M120.13 26.6399C121.715 26.6399 123 25.355 123 23.7699C123 22.1848 121.715 20.8999 120.13 20.8999C118.545 20.8999 117.26 22.1848 117.26 23.7699C117.26 25.355 118.545 26.6399 120.13 26.6399Z" fill="#F6921E"/>
<path d="M136.88 26.6399C138.465 26.6399 139.75 25.355 139.75 23.7699C139.75 22.1848 138.465 20.8999 136.88 20.8999C135.295 20.8999 134.01 22.1848 134.01 23.7699C134.01 25.355 135.295 26.6399 136.88 26.6399Z" fill="#F6921E"/>
<path d="M11.25 16.1902C12.8351 16.1902 14.12 14.9053 14.12 13.3202C14.12 11.7351 12.8351 10.4502 11.25 10.4502C9.66495 10.4502 8.38 11.7351 8.38 13.3202C8.38 14.9053 9.66495 16.1902 11.25 16.1902Z" fill="#F6921E"/>
<path d="M28 16.1902C29.5851 16.1902 30.87 14.9053 30.87 13.3202C30.87 11.7351 29.5851 10.4502 28 10.4502C26.4149 10.4502 25.13 11.7351 25.13 13.3202C25.13 14.9053 26.4149 16.1902 28 16.1902Z" fill="#F6921E"/>
<path d="M44.75 16.1902C46.3351 16.1902 47.62 14.9053 47.62 13.3202C47.62 11.7351 46.3351 10.4502 44.75 10.4502C43.1649 10.4502 41.88 11.7351 41.88 13.3202C41.88 14.9053 43.1649 16.1902 44.75 16.1902Z" fill="#F6921E"/>
<path d="M61.5 16.1902C63.0851 16.1902 64.37 14.9053 64.37 13.3202C64.37 11.7351 63.0851 10.4502 61.5 10.4502C59.9149 10.4502 58.63 11.7351 58.63 13.3202C58.63 14.9053 59.9149 16.1902 61.5 16.1902Z" fill="#F6921E"/>
<path d="M78.25 16.1902C79.8351 16.1902 81.12 14.9053 81.12 13.3202C81.12 11.7351 79.8351 10.4502 78.25 10.4502C76.665 10.4502 75.38 11.7351 75.38 13.3202C75.38 14.9053 76.665 16.1902 78.25 16.1902Z" fill="#F6921E"/>
<path d="M95 16.1902C96.5851 16.1902 97.87 14.9053 97.87 13.3202C97.87 11.7351 96.5851 10.4502 95 10.4502C93.415 10.4502 92.13 11.7351 92.13 13.3202C92.13 14.9053 93.415 16.1902 95 16.1902Z" fill="#F6921E"/>
<path d="M111.75 16.1902C113.335 16.1902 114.62 14.9053 114.62 13.3202C114.62 11.7351 113.335 10.4502 111.75 10.4502C110.165 10.4502 108.88 11.7351 108.88 13.3202C108.88 14.9053 110.165 16.1902 111.75 16.1902Z" fill="#F6921E"/>
<path d="M128.5 16.1902C130.085 16.1902 131.37 14.9053 131.37 13.3202C131.37 11.7351 130.085 10.4502 128.5 10.4502C126.915 10.4502 125.63 11.7351 125.63 13.3202C125.63 14.9053 126.915 16.1902 128.5 16.1902Z" fill="#F6921E"/>
<path d="M2.87 5.74C4.45506 5.74 5.74 4.45506 5.74 2.87C5.74 1.28494 4.45506 0 2.87 0C1.28494 0 0 1.28494 0 2.87C0 4.45506 1.28494 5.74 2.87 5.74Z" fill="#F6921E"/>
<path d="M19.62 5.74C21.2051 5.74 22.49 4.45506 22.49 2.87C22.49 1.28494 21.2051 0 19.62 0C18.0349 0 16.75 1.28494 16.75 2.87C16.75 4.45506 18.0349 5.74 19.62 5.74Z" fill="#F6921E"/>
<path d="M36.37 5.74C37.9551 5.74 39.24 4.45506 39.24 2.87C39.24 1.28494 37.9551 0 36.37 0C34.7849 0 33.5 1.28494 33.5 2.87C33.5 4.45506 34.7849 5.74 36.37 5.74Z" fill="#F6921E"/>
<path d="M53.12 5.74C54.7051 5.74 55.99 4.45506 55.99 2.87C55.99 1.28494 54.7051 0 53.12 0C51.5349 0 50.25 1.28494 50.25 2.87C50.25 4.45506 51.5349 5.74 53.12 5.74Z" fill="#F6921E"/>
<path d="M69.87 5.74C71.4551 5.74 72.74 4.45506 72.74 2.87C72.74 1.28494 71.4551 0 69.87 0C68.2849 0 67 1.28494 67 2.87C67 4.45506 68.2849 5.74 69.87 5.74Z" fill="#F6921E"/>
<path d="M86.62 5.74C88.2051 5.74 89.49 4.45506 89.49 2.87C89.49 1.28494 88.2051 0 86.62 0C85.0349 0 83.75 1.28494 83.75 2.87C83.75 4.45506 85.0349 5.74 86.62 5.74Z" fill="#F6921E"/>
<path d="M103.38 5.74C104.965 5.74 106.25 4.45506 106.25 2.87C106.25 1.28494 104.965 0 103.38 0C101.795 0 100.51 1.28494 100.51 2.87C100.51 4.45506 101.795 5.74 103.38 5.74Z" fill="#F6921E"/>
<path d="M120.13 5.74C121.715 5.74 123 4.45506 123 2.87C123 1.28494 121.715 0 120.13 0C118.545 0 117.26 1.28494 117.26 2.87C117.26 4.45506 118.545 5.74 120.13 5.74Z" fill="#F6921E"/>
<path d="M136.88 5.74C138.465 5.74 139.75 4.45506 139.75 2.87C139.75 1.28494 138.465 0 136.88 0C135.295 0 134.01 1.28494 134.01 2.87C134.01 4.45506 135.295 5.74 136.88 5.74Z" fill="#F6921E"/>
<path d="M2.87 61.72C4.45506 61.72 5.74 60.435 5.74 58.85C5.74 57.2649 4.45506 55.98 2.87 55.98C1.28494 55.98 0 57.2649 0 58.85C0 60.435 1.28494 61.72 2.87 61.72Z" fill="#F6921E"/>
<path d="M19.62 61.72C21.2051 61.72 22.49 60.435 22.49 58.85C22.49 57.2649 21.2051 55.98 19.62 55.98C18.0349 55.98 16.75 57.2649 16.75 58.85C16.75 60.435 18.0349 61.72 19.62 61.72Z" fill="#F6921E"/>
<path d="M36.37 61.72C37.9551 61.72 39.24 60.435 39.24 58.85C39.24 57.2649 37.9551 55.98 36.37 55.98C34.7849 55.98 33.5 57.2649 33.5 58.85C33.5 60.435 34.7849 61.72 36.37 61.72Z" fill="#F6921E"/>
<path d="M53.12 61.72C54.7051 61.72 55.99 60.435 55.99 58.85C55.99 57.2649 54.7051 55.98 53.12 55.98C51.5349 55.98 50.25 57.2649 50.25 58.85C50.25 60.435 51.5349 61.72 53.12 61.72Z" fill="#F6921E"/>
<path d="M69.87 61.72C71.4551 61.72 72.74 60.435 72.74 58.85C72.74 57.2649 71.4551 55.98 69.87 55.98C68.2849 55.98 67 57.2649 67 58.85C67 60.435 68.2849 61.72 69.87 61.72Z" fill="#F6921E"/>
<path d="M86.62 61.72C88.2051 61.72 89.49 60.435 89.49 58.85C89.49 57.2649 88.2051 55.98 86.62 55.98C85.0349 55.98 83.75 57.2649 83.75 58.85C83.75 60.435 85.0349 61.72 86.62 61.72Z" fill="#F6921E"/>
<path d="M103.38 61.72C104.965 61.72 106.25 60.435 106.25 58.85C106.25 57.2649 104.965 55.98 103.38 55.98C101.795 55.98 100.51 57.2649 100.51 58.85C100.51 60.435 101.795 61.72 103.38 61.72Z" fill="#F6921E"/>
<path d="M120.13 61.72C121.715 61.72 123 60.435 123 58.85C123 57.2649 121.715 55.98 120.13 55.98C118.545 55.98 117.26 57.2649 117.26 58.85C117.26 60.435 118.545 61.72 120.13 61.72Z" fill="#F6921E"/>
<path d="M136.88 61.72C138.465 61.72 139.75 60.435 139.75 58.85C139.75 57.2649 138.465 55.98 136.88 55.98C135.295 55.98 134.01 57.2649 134.01 58.85C134.01 60.435 135.295 61.72 136.88 61.72Z" fill="#F6921E"/>
<path d="M11.25 51.2703C12.8351 51.2703 14.12 49.9853 14.12 48.4003C14.12 46.8152 12.8351 45.5303 11.25 45.5303C9.66495 45.5303 8.38 46.8152 8.38 48.4003C8.38 49.9853 9.66495 51.2703 11.25 51.2703Z" fill="#F6921E"/>
<path d="M28 51.2703C29.5851 51.2703 30.87 49.9853 30.87 48.4003C30.87 46.8152 29.5851 45.5303 28 45.5303C26.4149 45.5303 25.13 46.8152 25.13 48.4003C25.13 49.9853 26.4149 51.2703 28 51.2703Z" fill="#F6921E"/>
<path d="M44.75 51.2703C46.3351 51.2703 47.62 49.9853 47.62 48.4003C47.62 46.8152 46.3351 45.5303 44.75 45.5303C43.1649 45.5303 41.88 46.8152 41.88 48.4003C41.88 49.9853 43.1649 51.2703 44.75 51.2703Z" fill="#F6921E"/>
<path d="M61.5 51.2703C63.0851 51.2703 64.37 49.9853 64.37 48.4003C64.37 46.8152 63.0851 45.5303 61.5 45.5303C59.9149 45.5303 58.63 46.8152 58.63 48.4003C58.63 49.9853 59.9149 51.2703 61.5 51.2703Z" fill="#F6921E"/>
<path d="M78.25 51.2703C79.8351 51.2703 81.12 49.9853 81.12 48.4003C81.12 46.8152 79.8351 45.5303 78.25 45.5303C76.665 45.5303 75.38 46.8152 75.38 48.4003C75.38 49.9853 76.665 51.2703 78.25 51.2703Z" fill="#F6921E"/>
<path d="M95 51.2703C96.5851 51.2703 97.87 49.9853 97.87 48.4003C97.87 46.8152 96.5851 45.5303 95 45.5303C93.415 45.5303 92.13 46.8152 92.13 48.4003C92.13 49.9853 93.415 51.2703 95 51.2703Z" fill="#F6921E"/>
<path d="M111.75 51.2703C113.335 51.2703 114.62 49.9853 114.62 48.4003C114.62 46.8152 113.335 45.5303 111.75 45.5303C110.165 45.5303 108.88 46.8152 108.88 48.4003C108.88 49.9853 110.165 51.2703 111.75 51.2703Z" fill="#F6921E"/>
<path d="M128.5 51.2703C130.085 51.2703 131.37 49.9853 131.37 48.4003C131.37 46.8152 130.085 45.5303 128.5 45.5303C126.915 45.5303 125.63 46.8152 125.63 48.4003C125.63 49.9853 126.915 51.2703 128.5 51.2703Z" fill="#F6921E"/>
<path d="M2.87 40.8201C4.45506 40.8201 5.74 39.5351 5.74 37.9501C5.74 36.365 4.45506 35.0801 2.87 35.0801C1.28494 35.0801 0 36.365 0 37.9501C0 39.5351 1.28494 40.8201 2.87 40.8201Z" fill="#F6921E"/>
<path d="M19.62 40.8201C21.2051 40.8201 22.49 39.5351 22.49 37.9501C22.49 36.365 21.2051 35.0801 19.62 35.0801C18.0349 35.0801 16.75 36.365 16.75 37.9501C16.75 39.5351 18.0349 40.8201 19.62 40.8201Z" fill="#F6921E"/>
<path d="M36.37 40.8201C37.9551 40.8201 39.24 39.5351 39.24 37.9501C39.24 36.365 37.9551 35.0801 36.37 35.0801C34.7849 35.0801 33.5 36.365 33.5 37.9501C33.5 39.5351 34.7849 40.8201 36.37 40.8201Z" fill="#F6921E"/>
<path d="M53.12 40.8201C54.7051 40.8201 55.99 39.5351 55.99 37.9501C55.99 36.365 54.7051 35.0801 53.12 35.0801C51.5349 35.0801 50.25 36.365 50.25 37.9501C50.25 39.5351 51.5349 40.8201 53.12 40.8201Z" fill="#F6921E"/>
<path d="M69.87 40.8201C71.4551 40.8201 72.74 39.5351 72.74 37.9501C72.74 36.365 71.4551 35.0801 69.87 35.0801C68.2849 35.0801 67 36.365 67 37.9501C67 39.5351 68.2849 40.8201 69.87 40.8201Z" fill="#F6921E"/>
<path d="M86.62 40.8201C88.2051 40.8201 89.49 39.5351 89.49 37.9501C89.49 36.365 88.2051 35.0801 86.62 35.0801C85.0349 35.0801 83.75 36.365 83.75 37.9501C83.75 39.5351 85.0349 40.8201 86.62 40.8201Z" fill="#F6921E"/>
<path d="M103.38 40.8201C104.965 40.8201 106.25 39.5351 106.25 37.9501C106.25 36.365 104.965 35.0801 103.38 35.0801C101.795 35.0801 100.51 36.365 100.51 37.9501C100.51 39.5351 101.795 40.8201 103.38 40.8201Z" fill="#F6921E"/>
<path d="M120.13 40.8201C121.715 40.8201 123 39.5351 123 37.9501C123 36.365 121.715 35.0801 120.13 35.0801C118.545 35.0801 117.26 36.365 117.26 37.9501C117.26 39.5351 118.545 40.8201 120.13 40.8201Z" fill="#F6921E"/>
<path d="M136.88 40.8201C138.465 40.8201 139.75 39.5351 139.75 37.9501C139.75 36.365 138.465 35.0801 136.88 35.0801C135.295 35.0801 134.01 36.365 134.01 37.9501C134.01 39.5351 135.295 40.8201 136.88 40.8201Z" fill="#F6921E"/>
<path d="M2.87 96.8098C4.45506 96.8098 5.74 95.5249 5.74 93.9398C5.74 92.3548 4.45506 91.0698 2.87 91.0698C1.28494 91.0698 0 92.3548 0 93.9398C0 95.5249 1.28494 96.8098 2.87 96.8098Z" fill="#F6921E"/>
<path d="M19.62 96.8098C21.2051 96.8098 22.49 95.5249 22.49 93.9398C22.49 92.3548 21.2051 91.0698 19.62 91.0698C18.0349 91.0698 16.75 92.3548 16.75 93.9398C16.75 95.5249 18.0349 96.8098 19.62 96.8098Z" fill="#F6921E"/>
<path d="M36.37 96.8098C37.9551 96.8098 39.24 95.5249 39.24 93.9398C39.24 92.3548 37.9551 91.0698 36.37 91.0698C34.7849 91.0698 33.5 92.3548 33.5 93.9398C33.5 95.5249 34.7849 96.8098 36.37 96.8098Z" fill="#F6921E"/>
<path d="M53.12 96.8098C54.7051 96.8098 55.99 95.5249 55.99 93.9398C55.99 92.3548 54.7051 91.0698 53.12 91.0698C51.5349 91.0698 50.25 92.3548 50.25 93.9398C50.25 95.5249 51.5349 96.8098 53.12 96.8098Z" fill="#F6921E"/>
<path d="M69.87 96.8098C71.4551 96.8098 72.74 95.5249 72.74 93.9398C72.74 92.3548 71.4551 91.0698 69.87 91.0698C68.2849 91.0698 67 92.3548 67 93.9398C67 95.5249 68.2849 96.8098 69.87 96.8098Z" fill="#F6921E"/>
<path d="M86.62 96.8098C88.2051 96.8098 89.49 95.5249 89.49 93.9398C89.49 92.3548 88.2051 91.0698 86.62 91.0698C85.0349 91.0698 83.75 92.3548 83.75 93.9398C83.75 95.5249 85.0349 96.8098 86.62 96.8098Z" fill="#F6921E"/>
<path d="M103.38 96.8098C104.965 96.8098 106.25 95.5249 106.25 93.9398C106.25 92.3548 104.965 91.0698 103.38 91.0698C101.795 91.0698 100.51 92.3548 100.51 93.9398C100.51 95.5249 101.795 96.8098 103.38 96.8098Z" fill="#F6921E"/>
<path d="M120.13 96.8098C121.715 96.8098 123 95.5249 123 93.9398C123 92.3548 121.715 91.0698 120.13 91.0698C118.545 91.0698 117.26 92.3548 117.26 93.9398C117.26 95.5249 118.545 96.8098 120.13 96.8098Z" fill="#F6921E"/>
<path d="M136.88 96.8098C138.465 96.8098 139.75 95.5249 139.75 93.9398C139.75 92.3548 138.465 91.0698 136.88 91.0698C135.295 91.0698 134.01 92.3548 134.01 93.9398C134.01 95.5249 135.295 96.8098 136.88 96.8098Z" fill="#F6921E"/>
<path d="M11.25 86.3601C12.8351 86.3601 14.12 85.0752 14.12 83.4901C14.12 81.9051 12.8351 80.6201 11.25 80.6201C9.66495 80.6201 8.38 81.9051 8.38 83.4901C8.38 85.0752 9.66495 86.3601 11.25 86.3601Z" fill="#F6921E"/>
<path d="M28 86.3601C29.5851 86.3601 30.87 85.0752 30.87 83.4901C30.87 81.9051 29.5851 80.6201 28 80.6201C26.4149 80.6201 25.13 81.9051 25.13 83.4901C25.13 85.0752 26.4149 86.3601 28 86.3601Z" fill="#F6921E"/>
<path d="M44.75 86.3601C46.3351 86.3601 47.62 85.0752 47.62 83.4901C47.62 81.9051 46.3351 80.6201 44.75 80.6201C43.1649 80.6201 41.88 81.9051 41.88 83.4901C41.88 85.0752 43.1649 86.3601 44.75 86.3601Z" fill="#F6921E"/>
<path d="M61.5 86.3601C63.0851 86.3601 64.37 85.0752 64.37 83.4901C64.37 81.9051 63.0851 80.6201 61.5 80.6201C59.9149 80.6201 58.63 81.9051 58.63 83.4901C58.63 85.0752 59.9149 86.3601 61.5 86.3601Z" fill="#F6921E"/>
<path d="M78.25 86.3601C79.8351 86.3601 81.12 85.0752 81.12 83.4901C81.12 81.9051 79.8351 80.6201 78.25 80.6201C76.665 80.6201 75.38 81.9051 75.38 83.4901C75.38 85.0752 76.665 86.3601 78.25 86.3601Z" fill="#F6921E"/>
<path d="M95 86.3601C96.5851 86.3601 97.87 85.0752 97.87 83.4901C97.87 81.9051 96.5851 80.6201 95 80.6201C93.415 80.6201 92.13 81.9051 92.13 83.4901C92.13 85.0752 93.415 86.3601 95 86.3601Z" fill="#F6921E"/>
<path d="M111.75 86.3601C113.335 86.3601 114.62 85.0752 114.62 83.4901C114.62 81.9051 113.335 80.6201 111.75 80.6201C110.165 80.6201 108.88 81.9051 108.88 83.4901C108.88 85.0752 110.165 86.3601 111.75 86.3601Z" fill="#F6921E"/>
<path d="M128.5 86.3601C130.085 86.3601 131.37 85.0752 131.37 83.4901C131.37 81.9051 130.085 80.6201 128.5 80.6201C126.915 80.6201 125.63 81.9051 125.63 83.4901C125.63 85.0752 126.915 86.3601 128.5 86.3601Z" fill="#F6921E"/>
<path d="M2.87 75.9099C4.45506 75.9099 5.74 74.625 5.74 73.0399C5.74 71.4549 4.45506 70.1699 2.87 70.1699C1.28494 70.1699 0 71.4549 0 73.0399C0 74.625 1.28494 75.9099 2.87 75.9099Z" fill="#F6921E"/>
<path d="M19.62 75.9099C21.2051 75.9099 22.49 74.625 22.49 73.0399C22.49 71.4549 21.2051 70.1699 19.62 70.1699C18.0349 70.1699 16.75 71.4549 16.75 73.0399C16.75 74.625 18.0349 75.9099 19.62 75.9099Z" fill="#F6921E"/>
<path d="M36.37 75.9099C37.9551 75.9099 39.24 74.625 39.24 73.0399C39.24 71.4549 37.9551 70.1699 36.37 70.1699C34.7849 70.1699 33.5 71.4549 33.5 73.0399C33.5 74.625 34.7849 75.9099 36.37 75.9099Z" fill="#F6921E"/>
<path d="M53.12 75.9099C54.7051 75.9099 55.99 74.625 55.99 73.0399C55.99 71.4549 54.7051 70.1699 53.12 70.1699C51.5349 70.1699 50.25 71.4549 50.25 73.0399C50.25 74.625 51.5349 75.9099 53.12 75.9099Z" fill="#F6921E"/>
<path d="M69.87 75.9099C71.4551 75.9099 72.74 74.625 72.74 73.0399C72.74 71.4549 71.4551 70.1699 69.87 70.1699C68.2849 70.1699 67 71.4549 67 73.0399C67 74.625 68.2849 75.9099 69.87 75.9099Z" fill="#F6921E"/>
<path d="M86.62 75.9099C88.2051 75.9099 89.49 74.625 89.49 73.0399C89.49 71.4549 88.2051 70.1699 86.62 70.1699C85.0349 70.1699 83.75 71.4549 83.75 73.0399C83.75 74.625 85.0349 75.9099 86.62 75.9099Z" fill="#F6921E"/>
<path d="M103.38 75.9099C104.965 75.9099 106.25 74.625 106.25 73.0399C106.25 71.4549 104.965 70.1699 103.38 70.1699C101.795 70.1699 100.51 71.4549 100.51 73.0399C100.51 74.625 101.795 75.9099 103.38 75.9099Z" fill="#F6921E"/>
<path d="M120.13 75.9099C121.715 75.9099 123 74.625 123 73.0399C123 71.4549 121.715 70.1699 120.13 70.1699C118.545 70.1699 117.26 71.4549 117.26 73.0399C117.26 74.625 118.545 75.9099 120.13 75.9099Z" fill="#F6921E"/>
<path d="M136.88 75.9099C138.465 75.9099 139.75 74.625 139.75 73.0399C139.75 71.4549 138.465 70.1699 136.88 70.1699C135.295 70.1699 134.01 71.4549 134.01 73.0399C134.01 74.625 135.295 75.9099 136.88 75.9099Z" fill="#F6921E"/>
</g>
<defs>
<clipPath id="clip0_763_170">
<rect width="139.75" height="96.81" fill="white"/>
</clipPath>
</defs>
</svg>
