<svg width="321" height="86" viewBox="0 0 321 86" fill="none" xmlns="http://www.w3.org/2000/svg">
<path d="M25.3853 84.5412L24.7823 83.9481L25.4487 83.3856C27.4056 81.7495 29.4895 80.3486 31.383 79.4078C32.811 78.7022 32.8745 78.5999 31.9013 78.5999C30.9704 78.6102 30.1453 78.9885 27.8605 80.4917C24.5284 82.6698 23.3543 83.1198 20.9319 83.1402C19.8107 83.1402 19.3875 83.0993 18.6682 82.9152C17.42 82.588 16.4363 82.1585 15.442 81.5245C14.5534 80.9519 13.8447 80.3281 14.2678 80.4917C17.5364 81.729 19.9905 81.412 25.1102 79.0806C26.1892 78.5897 27.4268 78.1807 28.4423 77.9659C29.4366 77.7614 32.1657 77.7921 33.3293 78.0273C34.239 78.2011 34.3554 78.2011 35.1805 78.058C37.1691 77.6898 39.0626 77.7512 40.9454 78.242C41.4849 78.375 42.7437 78.8556 43.7486 79.3055C45.8113 80.2156 47.8105 80.911 49.0059 81.1155C50.5291 81.3711 52.1264 81.2382 53.5967 80.7167C53.9881 80.5838 54.3054 80.4917 54.3054 80.5326C54.3054 80.6451 53.1207 81.5143 52.4543 81.8927C51.7244 82.3119 50.7512 82.6903 49.7569 82.9562C48.6885 83.2425 46.2767 83.222 45.1766 82.9152C43.9602 82.5778 42.7225 81.9336 40.5117 80.5019C39.4328 79.7964 38.3644 79.1317 38.1317 79.0192C37.6451 78.7738 36.7354 78.6204 36.1748 78.6817C35.7728 78.7226 35.7728 78.7329 37.021 79.3566C38.6077 80.144 40.7762 81.5654 42.3523 82.8334C43.0187 83.3754 43.5794 83.8458 43.6005 83.8969C43.6111 83.9378 43.3361 84.2446 42.9976 84.5718L42.3629 85.1752L40.5117 83.4265C39.4857 82.4653 38.1423 81.3098 37.5182 80.8599C36.4181 80.052 34.6621 79.1112 34.2813 79.1112C34.038 79.1112 32.811 79.6532 32.1446 80.052C30.8223 80.8599 29.5001 81.9336 27.4268 83.8867C26.6969 84.5821 26.0728 85.1445 26.0517 85.1445C26.0199 85.1445 25.7238 84.8786 25.3853 84.5412Z" fill="#0073B5"/>
<path d="M50.2069 79.4932C47.6273 79.2437 44.1589 78.5384 42.6199 77.9308C42.2947 77.8006 42.3055 77.8006 43.2268 77.4968C45.1453 76.8675 47.2371 75.6089 48.5811 74.2852C48.8846 73.9922 49.6216 73.2002 50.2394 72.5383C51.1824 71.5076 53.0574 69.9017 53.3176 69.9017C53.5018 69.9017 51.9844 73.0266 51.2582 74.1441C50.6513 75.0772 49.6975 75.9778 48.6895 76.5637C47.9091 77.0303 47.7465 77.3449 48.3426 77.2364C49.1664 77.0954 50.7922 76.9543 52.9707 76.8458C55.507 76.7265 56.7859 76.5095 58.0107 76.0321C58.8127 75.7174 59.7882 75.2074 60.2217 74.8711C60.6011 74.5781 60.6336 74.7192 60.2868 75.1857C58.5526 77.4968 56.7209 78.7554 54.3472 79.2437C53.4043 79.4281 51.0631 79.58 50.2069 79.4932Z" fill="#0073B5"/>
<path d="M15.3049 79.462C13.2871 79.1773 11.6874 78.3888 10.2969 77.0309C9.64872 76.3848 8.41504 74.8407 8.48822 74.7531C8.51959 74.7312 8.81233 74.8845 9.14689 75.1144C10.3597 75.9248 11.7711 76.4614 13.3498 76.6914C13.768 76.7461 15.1062 76.8557 16.3294 76.9104C17.5527 76.9761 18.985 77.0856 19.5182 77.1623C20.0514 77.2499 20.5114 77.2828 20.5323 77.2499C20.6578 77.1294 20.5428 77.009 19.9573 76.6366C18.295 75.5853 17.5213 74.5778 16.2354 71.8072C15.4931 70.2193 15.378 69.9017 15.5349 69.9017C15.744 69.9017 17.3122 71.2816 18.1277 72.1905C20.0723 74.3479 20.9715 75.2349 21.7869 75.7934C22.8011 76.5052 24.0034 77.1185 25.1639 77.5127C25.6344 77.677 26.0212 77.8303 26.0212 77.8522C26.0212 77.9289 23.9511 78.564 22.7906 78.8378C20.6683 79.3306 19.0059 79.5387 17.239 79.5168C16.3504 79.5168 15.4826 79.4839 15.3049 79.462Z" fill="#0073B5"/>
<path d="M16.5982 75.9544C16.0982 75.8488 14.8853 75.6483 13.8851 75.5005C11.704 75.1734 10.7677 74.9306 9.60803 74.3924C7.75674 73.5269 6.19272 72.176 4.76702 70.1708C4.04353 69.1576 2.68166 66.688 2.84126 66.688C2.89445 66.688 3.21364 66.9729 3.56475 67.3318C4.28824 68.06 5.59691 69.1048 6.53319 69.6853C6.8843 69.9069 8.17169 70.5718 9.40588 71.1734C11.4274 72.1549 13.0659 73.1259 14.3426 74.0758C14.9172 74.4979 14.9172 74.3502 14.3533 73.8119C13.7681 73.242 12.9701 72.2394 12.5658 71.5639C11.8743 70.3924 11.704 69.8014 11.2252 66.9624C10.9699 65.4426 10.7358 64.0706 10.6933 63.8912C10.6294 63.5851 10.6401 63.5851 11.0869 64.06C12.2786 65.3054 13.5021 67.585 14.481 70.3291C15.364 72.8304 16.1088 74.3185 17.0983 75.5111C17.3537 75.8383 17.5558 76.1127 17.5345 76.1232C17.5132 76.1338 17.0983 76.0599 16.5982 75.9544Z" fill="#0073B5"/>
<path d="M51.5261 76.0081C52.7194 74.4733 53.5824 72.8836 54.2749 70.9212C54.488 70.3182 54.8076 69.4083 54.9887 68.893C55.4149 67.709 56.2246 66.0316 56.7999 65.1436C57.3646 64.2884 58.2915 63.0605 58.3448 63.1154C58.4194 63.1811 57.4285 69.0465 57.2474 69.6056C56.8425 70.9102 56.0222 72.2478 54.8289 73.5853C54.488 73.958 54.2429 74.265 54.2749 74.265C54.3175 74.265 54.6904 74.0019 55.1166 73.673C56.3205 72.7521 57.6309 71.9627 60.1027 70.7129C62.6171 69.4412 63.7251 68.6847 65.2913 67.1937C65.9625 66.5469 66.2395 66.3276 66.1756 66.514C65.7387 67.687 64.3217 70.0112 63.2137 71.3488C62.8728 71.7654 62.2016 72.4341 61.7328 72.8288C60.0281 74.254 58.2809 74.9776 55.6706 75.3613C54.1471 75.5915 52.4104 75.9095 51.7286 76.0849C51.4622 76.1507 51.4303 76.1397 51.5261 76.0081Z" fill="#0073B5"/>
<path d="M31.9124 73.1993C27.9526 72.7553 23.9715 71.0956 20.8421 68.5901C19.7457 67.7126 17.8296 65.7146 17.0845 64.6786C14.9982 61.7608 13.7954 58.917 13.1567 55.3438C12.9332 54.0964 12.9757 49.9628 13.2206 48.6308C14.3276 42.6156 17.5635 37.6469 22.492 34.3908C23.7587 33.5557 26.1537 32.4033 27.5694 31.9382C29.1129 31.4308 31.0182 31.0607 32.7852 30.9233C35.3506 30.7225 38.3842 31.0925 40.9389 31.9382C42.3653 32.4033 44.7603 33.5557 46.0164 34.3802C50.189 37.1183 53.2759 41.273 54.681 46.0619L54.9897 47.1085L54.7662 47.2459C52.4137 48.652 49.7526 50.4809 45.8567 53.3669C42.8869 55.5658 42.0247 56.2635 40.279 57.8493L39.1187 58.9065L37.3517 58.103C36.3831 57.659 35.4783 57.2467 35.3399 57.1938C35.1164 57.0987 35.3506 56.8873 38.2672 54.5404C44.6858 49.4025 47.3469 47.4151 48.5498 46.8442C49.4865 46.4108 51.1683 45.861 51.8922 45.7659C52.7437 45.6602 52.7437 45.6602 52.2541 44.4973C49.8058 38.6829 44.5687 34.3802 38.2991 33.0588C29.6131 31.2088 20.7356 35.4586 16.8078 43.345C15.7753 45.4065 15.0834 47.7005 14.8279 49.8677C14.7534 50.576 14.5511 50.4703 16.563 50.7346C18.1277 50.946 19.9373 51.39 21.4062 51.9397C23.269 52.6375 28.24 54.9632 33.3813 57.5321C36.085 58.8853 38.6929 60.1645 39.1826 60.3548C40.8218 61.0314 42.3547 61.1899 44.7923 60.9468C45.3883 60.8834 45.9099 60.8622 45.9419 60.8939C46.0483 60.9891 44.3665 62.5642 43.6426 63.0505C41.9289 64.2028 40.3961 64.668 38.3523 64.6786C36.6811 64.6891 36.1276 64.5623 33.9029 63.706C31.8911 62.9237 31.3163 62.7334 29.2619 62.1519C27.1968 61.5705 26.0047 61.3908 25.5682 61.5917C25.0999 61.8137 25.1212 62.1308 25.6427 62.6911C26.5795 63.706 28.2081 64.6891 29.9751 65.3234C32.7001 66.296 36.7982 66.3806 40.0554 65.5454C43.2594 64.7209 45.5054 63.2514 48.7946 59.8262C51.1151 57.4159 52.946 55.957 54.7662 55.0372L55.4368 54.7095L55.3729 55.0478C54.9152 57.7119 54.3617 59.4879 53.3398 61.5282C52.7224 62.7545 51.9028 64.0654 51.0832 65.1226C50.4019 66.0212 48.6136 67.8289 47.6663 68.5901C44.5155 71.1167 40.5877 72.7447 36.5427 73.2099C35.4357 73.3262 33.062 73.3262 31.9124 73.1993Z" fill="#0073B5"/>
<path d="M9.69112 69.7967C9.13065 69.4182 8.04205 68.7585 7.26602 68.3367C5.07804 67.1364 5.01337 67.1039 4.31278 66.5091C2.03858 64.6058 0.292504 60.8424 0.0338268 57.2629C-0.00928611 56.733 -0.0092861 56.3221 0.0230486 56.3545C0.0553833 56.387 0.206278 56.7546 0.367952 57.1656C0.993089 58.831 1.90924 60.2044 3.29963 61.5454C5.25049 63.4271 6.84567 65.0925 7.26602 65.6872C7.50314 66.0225 7.72948 66.3037 7.76182 66.3037C7.80493 66.3037 7.7187 66.0225 7.58937 65.6872C7.25524 64.8437 6.99656 63.546 6.99656 62.6809C6.99656 62.0969 7.6217 57.8361 7.94505 56.1923L8.03127 55.7597L8.37618 56.8412C9.01209 58.8526 9.25999 60.5937 9.25999 62.9729C9.25999 65.3844 9.62645 67.4392 10.4025 69.483C10.6073 70.0129 10.7582 70.4563 10.7474 70.4671C10.7258 70.478 10.2516 70.1752 9.69112 69.7967Z" fill="#0073B5"/>
<path d="M58.2651 70.4569C58.2651 70.4147 58.3295 70.2564 58.4154 70.0981C58.6836 69.5811 59.2201 67.882 59.4454 66.8373C59.6064 66.0775 59.6922 65.1172 59.7673 63.2704C59.8854 60.1468 60.0678 59.007 60.7545 56.907C60.9798 56.2211 61.1622 56.1261 61.1622 56.7065C61.1622 56.8965 61.3554 58.1628 61.5914 59.5241C61.8597 61.0649 62.0206 62.3418 62.0206 62.9011C62.0206 63.8086 61.7631 65.1172 61.4305 65.8981C61.3339 66.1197 61.2803 66.3202 61.3017 66.3413C61.3232 66.373 61.5378 66.1408 61.7738 65.8348C62.6215 64.7373 63.5657 63.7347 64.7353 62.7217C66.7096 61.0015 67.8148 59.5558 68.5766 57.6668C68.7591 57.2131 68.9415 56.812 68.9737 56.7804C69.1131 56.6432 68.8556 58.8488 68.6196 59.8091C67.9543 62.5106 66.7847 64.6634 65.1109 66.2358C64.3276 66.985 63.7482 67.3544 61.9241 68.3253C60.7759 68.9373 60.1751 69.2961 58.5119 70.362C58.3724 70.4464 58.2651 70.4886 58.2651 70.4569Z" fill="#0073B5"/>
<path d="M4.92271 61.5967C2.9836 59.6731 1.23505 57.1364 0.562527 55.2445C-0.00911659 53.6591 -0.15483 51.1542 0.170222 48.7655C0.428022 46.8947 0.461648 46.8736 0.820326 48.2053C1.20142 49.5899 1.58252 50.5834 2.45679 52.4754C3.08448 53.8388 3.54404 55.1705 4.00359 56.9145C4.26139 57.908 4.51919 58.0031 4.55282 57.1259C4.63128 54.8112 4.97875 53.9234 7.26532 50.2558C7.82576 49.3574 8.30773 48.5753 8.33015 48.5119C8.35256 48.459 8.40861 48.4379 8.45344 48.4801C8.57674 48.5964 8.31894 51.3444 8.06114 52.6339C7.92663 53.2786 7.5007 54.7055 7.1084 55.8047C6.26775 58.1617 6.04357 59.208 5.9427 61.1316L5.87544 62.5479L4.92271 61.5967Z" fill="#0073B5"/>
<path d="M62.8142 60.9942C62.74 59.1974 62.4753 57.8974 61.7975 56.0161C60.9397 53.6168 60.4526 51.0696 60.5373 49.3362L60.5691 48.5435L61.6281 50.3403C63.5872 53.6697 64.0426 54.8217 64.1802 56.8088C64.2332 57.4746 64.2967 57.7917 64.3815 57.7917C64.4556 57.7917 64.5403 57.6332 64.5827 57.4535C64.8156 56.2486 65.504 54.0607 65.9911 52.9298C66.8277 51.0168 67.3255 49.6533 67.6643 48.3639C67.8232 47.7403 67.9926 47.2541 68.035 47.2752C68.0773 47.3069 68.1938 47.9622 68.2997 48.7444C68.5433 50.6363 68.4797 53.2997 68.1515 54.6103C67.7596 56.164 66.6689 58.1722 65.1863 60.0853C64.4026 61.0894 63.0895 62.5479 62.9624 62.5479C62.9095 62.5479 62.8459 61.8503 62.8142 60.9942Z" fill="#0073B5"/>
<path d="M42.9195 59.6867C42.7735 59.6655 42.2206 59.57 41.6991 59.4746C41.1671 59.3791 40.729 59.273 40.729 59.2305C40.729 59.082 44.9118 55.5384 47.2484 53.6924C48.7296 52.5253 51.0453 50.849 52.3074 50.0215C53.3818 49.3213 55.1133 48.3452 55.1655 48.4088C55.2594 48.5149 55.4367 50.6156 55.4367 51.5705V52.6314L55.1029 52.8118C53.8199 53.4802 51.1809 55.5809 48.6357 57.968C47.2171 59.2942 47.2066 59.3048 46.4452 59.4852C45.715 59.6549 43.4619 59.7822 42.9195 59.6867Z" fill="#0073B5"/>
<path d="M32.1463 55.5332L30.5469 54.7409L31.1993 54.2302C32.1779 53.4796 36.9236 50.1336 38.4809 49.0912C40.6275 47.6631 42.6163 46.777 44.563 46.3914C45.5731 46.1933 46.9516 46.0682 46.9516 46.1933C46.9516 46.235 46.6254 46.4852 46.2256 46.7249C44.4893 47.7882 42.2059 49.529 38.2494 52.8229C35.9239 54.7514 33.9562 56.3358 33.8825 56.3254C33.8089 56.3254 33.0302 55.9605 32.1463 55.5332Z" fill="#0073B5"/>
<path d="M28.8402 53.1572C28.5047 52.9554 28.2746 52.7536 28.2842 52.6581C28.2842 52.5731 28.428 51.9465 28.5814 51.2775C28.9457 49.7589 29.0799 48.7394 29.1662 46.9871L29.2237 45.6171L29.8852 45.3092L30.5467 45.0118L30.4891 46.9552C30.4604 48.0172 30.3741 49.3234 30.2878 49.8438C30.1057 50.9483 29.6935 52.7643 29.5305 53.1997L29.4154 53.497L28.8402 53.1572Z" fill="#0073B5"/>
<path d="M64.0963 52.3171C63.3411 50.7441 62.4022 49.1392 61.4021 47.6618C60.3816 46.1632 59.8509 45.1747 59.3916 43.9843C59.0549 43.0915 58.7487 41.8692 58.8508 41.7736C58.8712 41.7417 59.0753 41.9755 59.2998 42.2838C59.8917 43.0809 60.3816 43.6017 61.3817 44.4732C62.5553 45.4936 63.3819 46.6308 63.882 47.8956C64.0045 48.2145 64.178 48.4908 64.2596 48.5121C64.3821 48.5333 64.4127 48.172 64.4637 46.1738C64.4943 44.8665 64.5964 43.2084 64.6882 42.4751C64.8719 41.0615 64.8413 39.9242 64.5964 38.8295C64.5249 38.5 64.4841 38.2237 64.5249 38.2237C64.6678 38.2237 65.6679 39.9136 65.9435 40.6257C66.7497 42.6664 66.9742 45.196 66.515 47.0879C66.4333 47.4492 66.0659 48.6503 65.7088 49.7556C65.3516 50.8716 64.9842 52.1577 64.8923 52.6253C64.8005 53.093 64.7188 53.4756 64.7086 53.4969C64.6984 53.5075 64.4229 52.9761 64.0963 52.3171Z" fill="#0073B5"/>
<path d="M3.71117 52.7854C3.63415 52.3819 3.21606 51.0118 2.77596 49.7267C1.79674 46.8803 1.68671 46.4343 1.69771 44.9474C1.69771 42.7701 2.29185 40.7522 3.4141 39.1378C3.76618 38.6174 4.08525 38.2032 4.09626 38.2244C4.11826 38.2457 4.08525 38.4793 4.03024 38.7342C3.74418 39.9238 3.72217 40.8902 3.94222 42.8976C4.05225 44.0021 4.17327 45.7227 4.19528 46.721C4.25029 48.7814 4.32731 48.9514 4.77841 47.9212C5.39455 46.5086 6.09871 45.6802 8.2662 43.7897C8.79432 43.3224 9.44347 42.6851 9.68552 42.3665C10.2466 41.6549 10.3127 41.793 9.98259 42.94C9.54249 44.4907 8.77232 45.9457 7.49603 47.6132C6.68184 48.6858 5.57059 50.4383 4.67939 52.0845C4.26129 52.8598 3.89821 53.497 3.87621 53.497C3.8652 53.497 3.78819 53.1784 3.71117 52.7854Z" fill="#0073B5"/>
<path d="M27.589 48.0909C25.1499 46.7546 23.5418 44.3864 23.2396 41.6704C23.1425 40.8339 23.2073 39.4325 23.3368 39.3565C23.4123 39.3021 25.2039 40.8013 26.0889 41.6596C27.1357 42.6916 27.7941 43.8214 28.0423 45.0382C28.2366 45.9833 28.3553 47.8627 28.2366 48.1669L28.1502 48.4059L27.589 48.0909Z" fill="#0073B5"/>
<path d="M62.8254 44.4697C62.2459 43.8556 60.9866 42.7149 60.0394 41.9252C58.0111 40.2471 57.0973 39.3588 56.5066 38.4813C56.0497 37.8013 55.6485 36.8142 55.5148 36.0465L55.4368 35.5749L56.5289 36.6607C57.1418 37.2639 58.0557 38.0426 58.5795 38.3936C59.6605 39.1284 60.8083 40.1704 61.6107 41.1684C62.1791 41.8594 62.3685 41.991 62.3685 41.673C62.3685 41.5743 62.0453 40.1375 61.6441 38.4923C60.9198 35.4542 60.6635 34.7413 59.9056 33.6555C59.7273 33.4033 59.5825 33.1729 59.5825 33.14C59.5825 33.0962 59.9502 33.2497 60.396 33.4691C61.4881 34.0174 62.7029 35.202 63.1375 36.1671C63.7839 37.582 63.8507 38.0097 63.8953 41.4646C63.9287 43.2194 63.9287 44.8536 63.9064 45.1059L63.873 45.5775L62.8254 44.4697Z" fill="#0073B5"/>
<path d="M5.09927 41.6187C5.15159 37.9199 5.22484 37.3825 5.86311 35.9704C6.32351 34.9588 7.99767 33.473 9.03356 33.1569C9.26376 33.0936 9.2533 33.1253 8.91846 33.5995C8.41621 34.3055 8.06045 35.0431 7.81979 35.8967C7.40125 37.3193 6.51185 41.429 6.5851 41.5028C6.63741 41.5554 6.81529 41.3974 7.00364 41.1655C7.75701 40.1961 9.06495 38.9315 10.0485 38.2361C10.624 37.8356 11.5343 37.0558 12.068 36.5079C13.1143 35.4225 13.1562 35.433 12.8318 36.6027C12.4342 38.0675 11.4611 39.2582 8.7929 41.5344C7.93489 42.2615 6.77344 43.3469 6.21887 43.937C5.66431 44.5271 5.18298 45.0118 5.14113 45.0118C5.09927 45.0118 5.07835 43.4838 5.09927 41.6187Z" fill="#0073B5"/>
<path d="M28.9121 44.0738C28.9954 42.8772 29.2038 42.0686 29.7038 40.9797C30.8287 38.5325 32.9224 36.7752 36.0682 35.6C36.7348 35.3521 36.8077 35.3413 36.7557 35.503C35.6411 39.5027 35.1932 40.5808 34.1828 41.7236C33.0995 42.9419 32.2558 43.5132 30.1829 44.4296L28.8496 45.0118L28.9121 44.0738Z" fill="#0073B5"/>
<path d="M59.1844 37.6399C56.7884 35.5167 56.133 34.7835 54.3064 32.2335C53.3395 30.8984 52.5874 29.7821 52.6088 29.7492C52.7485 29.6179 55.0156 30.7123 56.2834 31.5331C58.1959 32.7588 59.2811 34.28 60.0762 36.83C60.3663 37.7821 60.6026 38.8109 60.5059 38.789C60.4952 38.789 59.8935 38.2637 59.1844 37.6399Z" fill="#0073B5"/>
<path d="M8.51509 37.8932C9.01642 35.6419 10.1044 33.5145 11.2777 32.4611C11.8857 31.9137 13.2616 31.0463 14.3283 30.5299C15.3843 30.0135 16.5042 29.6108 16.3976 29.776C15.8536 30.6228 12.9523 34.32 12.3657 34.8983C11.6084 35.6625 8.63243 38.2236 8.50443 38.2236C8.47243 38.2236 8.4831 38.0687 8.51509 37.8932Z" fill="#0073B5"/>
<path d="M127.795 55.0279C127.971 55.9314 128.072 56.86 128.072 57.8137C128.072 61.7665 126.462 65.3429 123.871 67.9405C121.28 70.5255 117.683 72.1318 113.721 72.1318C109.759 72.1318 106.175 70.5255 103.571 67.9405C100.98 65.3555 99.3706 61.7665 99.3706 57.8137C99.3706 53.8609 100.98 50.2845 103.571 47.6869C104.439 46.821 105.408 46.0681 106.477 45.4532V51.8656C105.144 53.4844 104.339 55.5549 104.339 57.8137C104.339 60.3987 105.383 62.7328 107.08 64.4269C108.778 66.1209 111.118 67.1625 113.709 67.1625C116.3 67.1625 118.639 66.1084 120.337 64.4269C122.035 62.7328 123.079 60.3987 123.079 57.8137C123.079 56.8475 122.928 55.9063 122.651 55.0279H127.795Z" fill="#F0BA60"/>
<path d="M137.832 55.0279C137.933 55.944 137.995 56.8726 137.995 57.8137C137.995 64.5022 135.279 70.5632 130.877 74.9427C126.487 79.3222 120.412 82.0327 113.709 82.0327C107.005 82.0327 100.93 79.3222 96.5407 74.9427C92.1513 70.5632 89.4346 64.5022 89.4346 57.8137C89.4346 51.1253 92.1513 45.0642 96.5407 40.6847C99.2826 37.9491 102.678 35.866 106.464 34.6865V39.9444C104.049 40.9232 101.861 42.3788 100.05 44.1858C96.5533 47.6744 94.39 52.4931 94.39 57.8137C94.39 63.1344 96.5533 67.9531 100.05 71.4416C103.546 74.9301 108.376 77.0885 113.709 77.0885C119.042 77.0885 123.871 74.9301 127.368 71.4416C130.864 67.9531 133.027 63.1344 133.027 57.8137C133.027 56.86 132.965 55.9314 132.826 55.0279H137.832Z" fill="#CC7C4B"/>
<mask id="mask0_482_182" style="mask-type:luminance" maskUnits="userSpaceOnUse" x="111" y="26" width="22" height="35">
<path d="M130.864 26.7432H130.839C118.765 27.0067 111.445 31.4113 111.445 43.96V56.9604C111.445 57.4498 111.457 57.9392 111.457 58.4412C111.457 58.5039 111.445 58.5541 111.445 58.6169C111.445 59.8592 112.464 60.8756 113.709 60.8756C114.954 60.8756 115.973 59.8592 115.973 58.6169V58.5918V50.3598C115.96 49.494 115.947 48.6281 115.973 47.7622V47.7497C116.136 40.4965 117.834 33.6575 126.45 33.6324C126.525 33.6324 126.55 33.6575 126.563 33.6951C126.575 33.7328 126.575 33.7704 126.563 33.8206C126.55 34.8747 126.399 35.8159 126.135 36.6817V36.6943C124.777 42.1906 118.249 42.6549 118.249 47.2477V49.0673C121.356 46.0054 125.179 45.5913 128.11 43.2824C130.801 41.1616 132.575 38.2127 132.575 29.3533C132.55 27.998 132.487 26.7432 132.487 26.7432H132.122C132.084 26.7306 132.034 26.7306 131.971 26.7306C131.606 26.7306 131.229 26.7432 130.864 26.7432Z" fill="white"/>
</mask>
<g mask="url(#mask0_482_182)">
<path d="M94.3271 43.8094L121.997 16.2023L149.68 43.8094L121.997 71.4166L94.3271 43.8094Z" fill="url(#paint0_linear_482_182)"/>
</g>
<path d="M153.34 54.8146C154.333 55.2036 155.415 55.4044 156.597 55.4044C157.842 55.4044 158.949 55.1785 159.93 54.7268C160.899 54.275 161.716 53.6601 162.383 52.8696C163.037 52.079 163.527 51.1755 163.842 50.1465C164.156 49.1175 164.282 48.0258 164.244 46.8713H156.736V49.3434H161.112C160.987 49.8077 160.798 50.2343 160.546 50.6234C160.295 51.0124 159.993 51.3637 159.628 51.6649C159.264 51.9661 158.836 52.2045 158.358 52.3676C157.868 52.5308 157.314 52.6186 156.698 52.6186C155.755 52.6186 154.912 52.4053 154.17 51.9661C153.428 51.5269 152.837 50.9245 152.396 50.134C151.956 49.3434 151.742 48.4273 151.742 47.3858C151.742 46.3317 151.969 45.4156 152.409 44.6502C152.849 43.8847 153.453 43.2949 154.208 42.8808C154.962 42.4667 155.792 42.2659 156.71 42.2659C157.679 42.2659 158.509 42.4667 159.176 42.8808C159.855 43.2949 160.37 43.8345 160.748 44.4996L163.402 42.9561C162.936 42.2534 162.383 41.6385 161.741 41.124C161.1 40.6095 160.358 40.2079 159.528 39.9193C158.698 39.6307 157.754 39.4801 156.71 39.4801C155.541 39.4801 154.446 39.6683 153.453 40.0448C152.447 40.4213 151.579 40.9608 150.837 41.651C150.095 42.3412 149.516 43.182 149.101 44.1608C148.686 45.1396 148.485 46.2062 148.485 47.3858C148.485 48.5528 148.686 49.632 149.089 50.6234C149.491 51.6021 150.057 52.4555 150.787 53.1582C151.491 53.8735 152.346 54.4256 153.34 54.8146Z" fill="#284170"/>
<path d="M173.476 46.6203C173.199 46.9842 172.872 47.3732 172.47 47.7873L165.552 54.9903H177.803V52.1417H171.426L175.388 48.4148C176.029 47.8375 176.545 47.1975 176.935 46.4823C177.325 45.7795 177.526 45.0141 177.526 44.1984C177.526 43.6463 177.413 43.0941 177.186 42.5545C176.96 42.0024 176.62 41.5004 176.167 41.0487C175.715 40.5969 175.136 40.2205 174.444 39.9444C173.753 39.6683 172.96 39.5177 172.042 39.5177C170.81 39.5177 169.766 39.7687 168.923 40.2832C168.08 40.7977 167.439 41.4879 166.999 42.3537C166.558 43.2196 166.345 44.1984 166.345 45.2776H169.388C169.388 44.6753 169.489 44.1357 169.703 43.6714C169.917 43.2071 170.206 42.8557 170.596 42.5922C170.986 42.3412 171.438 42.2157 171.979 42.2157C172.357 42.2157 172.684 42.2785 172.985 42.4039C173.275 42.5294 173.526 42.6926 173.727 42.8933C173.929 43.0941 174.08 43.3325 174.18 43.5835C174.281 43.847 174.331 44.1106 174.331 44.3866C174.331 44.7756 174.256 45.1521 174.117 45.516C173.966 45.8925 173.753 46.2564 173.476 46.6203Z" fill="#284170"/>
<path d="M188.682 49.494C188.531 50.1214 188.33 50.661 188.053 51.1253C187.776 51.5771 187.449 51.9284 187.072 52.1794C186.695 52.4304 186.267 52.5433 185.789 52.5433C185.324 52.5433 184.909 52.4178 184.531 52.1794C184.154 51.9284 183.827 51.5771 183.55 51.1253C183.274 50.6736 183.06 50.1214 182.921 49.494C182.771 48.8665 182.708 48.1638 182.708 47.3983C182.708 46.6329 182.783 45.9301 182.921 45.3027C183.072 44.6753 183.274 44.1357 183.55 43.6714C183.827 43.2196 184.154 42.8683 184.531 42.6173C184.909 42.3663 185.324 42.2534 185.789 42.2534C186.267 42.2534 186.695 42.3789 187.072 42.6173C187.449 42.8683 187.776 43.2196 188.053 43.6714C188.33 44.1231 188.544 44.6753 188.682 45.3027C188.833 45.9301 188.896 46.6329 188.896 47.3983C188.896 48.1638 188.82 48.8665 188.682 49.494ZM189.021 40.5091C188.103 39.8691 187.022 39.5429 185.777 39.5429C184.569 39.5429 183.513 39.8691 182.594 40.5091C181.676 41.1491 180.959 42.0651 180.444 43.2322C179.928 44.3992 179.677 45.7921 179.677 47.3983C179.677 49.0046 179.928 50.3975 180.444 51.5645C180.959 52.7315 181.676 53.6476 182.594 54.2876C183.513 54.9276 184.582 55.2538 185.777 55.2538C187.022 55.2538 188.103 54.9276 189.021 54.2876C189.94 53.6476 190.644 52.7315 191.147 51.5645C191.65 50.3975 191.914 49.0046 191.914 47.3983C191.914 45.7921 191.663 44.3992 191.147 43.2322C190.656 42.0526 189.94 41.1491 189.021 40.5091Z" fill="#284170"/>
<path d="M208.365 46.8713V49.3434H212.742C212.617 49.8077 212.428 50.2343 212.176 50.6233C211.925 51.0123 211.623 51.3637 211.258 51.6649C210.893 51.966 210.466 52.2045 209.988 52.3676C209.497 52.5307 208.944 52.6186 208.328 52.6186C207.384 52.6186 206.542 52.4053 205.8 51.966C205.058 51.5268 204.466 50.9245 204.026 50.1339C203.586 49.3434 203.372 48.4273 203.372 47.3858C203.372 46.3317 203.599 45.4156 204.039 44.6502C204.479 43.8847 205.083 43.2949 205.837 42.8808C206.592 42.4667 207.422 42.2659 208.34 42.2659C209.309 42.2659 210.139 42.4667 210.805 42.8808C211.485 43.2949 212 43.8345 212.378 44.4996L215.031 42.9561C214.566 42.2534 214.013 41.6385 213.371 41.124C212.73 40.6095 211.988 40.2079 211.158 39.9193C210.328 39.6307 209.384 39.4801 208.34 39.4801C207.171 39.4801 206.076 39.6683 205.083 40.0448C204.077 40.4212 203.209 40.9608 202.467 41.651C201.725 42.3412 201.146 43.182 200.731 44.1608C200.316 45.1396 200.115 46.2062 200.115 47.3858C200.115 48.5528 200.316 49.632 200.718 50.6233C201.121 51.6021 201.687 52.4554 202.416 53.1582C203.146 53.8609 204.014 54.413 205.007 54.8021C206.001 55.1911 207.083 55.3918 208.265 55.3918C209.51 55.3918 210.617 55.166 211.598 54.7142C212.566 54.2625 213.384 53.6476 214.05 52.857C214.704 52.0664 215.195 51.1629 215.509 50.1339C215.824 49.1049 215.95 48.0132 215.912 46.8587H208.365V46.8713Z" fill="#284170"/>
<path d="M227.596 52.2798H221.521V39.8063H218.415V54.9903H227.596V52.2798Z" fill="#284170"/>
<path d="M240.048 49.9834C239.645 50.7363 239.092 51.3261 238.387 51.7653C237.683 52.2045 236.853 52.4178 235.91 52.4178C234.966 52.4178 234.136 52.2045 233.432 51.7653C232.728 51.3261 232.162 50.7363 231.759 49.9834C231.357 49.2305 231.155 48.3646 231.155 47.3983C231.155 46.4321 231.357 45.5662 231.759 44.8133C232.162 44.0604 232.728 43.4706 233.432 43.0314C234.136 42.5922 234.966 42.3789 235.91 42.3789C236.866 42.3789 237.696 42.5922 238.413 43.0314C239.117 43.4706 239.67 44.0604 240.06 44.8133C240.45 45.5662 240.651 46.4321 240.651 47.3983C240.651 48.3646 240.45 49.2305 240.048 49.9834ZM241.658 41.7138C240.928 41.0111 240.073 40.4589 239.104 40.0699C238.136 39.6809 237.067 39.4927 235.91 39.4927C234.765 39.4927 233.696 39.6809 232.728 40.0699C231.747 40.4589 230.891 40.9985 230.174 41.7138C229.445 42.4165 228.879 43.2573 228.477 44.2235C228.074 45.1898 227.873 46.2439 227.873 47.3983C227.873 48.5403 228.074 49.6069 228.464 50.5732C228.854 51.552 229.42 52.4053 230.137 53.1206C230.866 53.8484 231.709 54.4005 232.69 54.8021C233.671 55.2036 234.74 55.4044 235.922 55.4044C237.092 55.4044 238.174 55.2036 239.155 54.8021C240.136 54.4005 240.978 53.8484 241.695 53.1206C242.412 52.3927 242.966 51.552 243.368 50.5732C243.77 49.5944 243.972 48.5403 243.972 47.3983C243.972 46.2439 243.77 45.1772 243.368 44.2235C242.953 43.2573 242.387 42.4165 241.658 41.7138Z" fill="#284170"/>
<path d="M253.883 51.5645C253.644 51.8908 253.317 52.1418 252.889 52.2924C252.474 52.4429 251.996 52.5182 251.48 52.5182H249.48V48.1764H252.122C252.273 48.2015 252.424 48.214 252.562 48.2517C252.902 48.327 253.191 48.465 253.442 48.6407C253.694 48.8164 253.895 49.0423 254.033 49.3183C254.172 49.5818 254.235 49.9081 254.235 50.2846C254.235 50.7991 254.122 51.2257 253.883 51.5645ZM249.48 42.2785H251.153C251.832 42.2785 252.373 42.4291 252.776 42.7303C253.178 43.0314 253.379 43.4706 253.379 44.0604C253.379 44.4369 253.291 44.7631 253.103 45.0392C252.927 45.3153 252.663 45.5286 252.336 45.6667C252.009 45.8172 251.606 45.88 251.166 45.88H249.493V42.2785H249.48ZM256.964 48.7411C256.65 48.2015 256.235 47.7623 255.694 47.4235C255.266 47.1599 254.801 46.9466 254.298 46.796V46.7835C254.977 46.5074 255.518 46.1184 255.92 45.6165C256.36 45.0643 256.574 44.4118 256.574 43.6463C256.574 42.7804 256.36 42.0652 255.92 41.5005C255.48 40.9358 254.889 40.5091 254.109 40.2331C253.342 39.957 252.449 39.8064 251.43 39.8064H246.361V55.0029H251.757C252.889 55.0029 253.883 54.8523 254.738 54.5511C255.593 54.25 256.26 53.7731 256.725 53.1457C257.19 52.5057 257.429 51.69 257.429 50.6987C257.442 49.9207 257.278 49.2807 256.964 48.7411Z" fill="#284170"/>
<path d="M265.856 44.7255L267.743 49.0924H263.944L265.856 44.7255ZM268.447 51.5394L270.057 54.9903H273.578L265.856 38.9029L258.134 54.9903H261.63L263.227 51.5394H268.447Z" fill="#284170"/>
<path d="M284.408 52.2798H278.345V39.8063H275.226V54.9903H284.408V52.2798Z" fill="#284170"/>
<path d="M152.447 61.7541H149.328V76.9505H158.509V74.2275H152.447V61.7541Z" fill="#284170"/>
<path d="M165.137 71.0401L167.036 66.6732L168.923 71.0401H165.137ZM159.314 76.9505H162.81L164.408 73.4997H169.627L171.237 76.9505H174.759L167.036 60.8631L159.314 76.9505Z" fill="#284170"/>
<path d="M187.248 71.1781L176.406 60.9886V76.9505H179.412V67.5265L190.242 77.7035V61.7541H187.248V71.1781Z" fill="#284170"/>
<path d="M203.133 71.5044C202.882 72.1067 202.529 72.5961 202.077 72.9851C201.624 73.3742 201.108 73.6628 200.504 73.8385C199.913 74.0141 199.284 74.1145 198.618 74.1145H196.731V64.565H198.618C199.284 64.565 199.913 64.6528 200.504 64.841C201.096 65.0167 201.624 65.3053 202.077 65.6944C202.529 66.0834 202.882 66.5853 203.133 67.1751C203.385 67.7774 203.51 68.4927 203.51 69.3335C203.51 70.1742 203.385 70.9146 203.133 71.5044ZM202.919 62.6827C201.724 62.0552 200.328 61.7541 198.731 61.7541H196.731H195.562H193.562V76.9505H195.562H196.731H198.731C200.328 76.9505 201.724 76.6368 202.919 76.0219C204.114 75.3945 205.045 74.5161 205.711 73.3867C206.378 72.2573 206.718 70.9146 206.718 69.3586C206.718 67.8151 206.378 66.4724 205.711 65.3304C205.045 64.1885 204.114 63.3101 202.919 62.6827Z" fill="#284170"/>
<path d="M218.805 61.7541H215.648V76.9505H218.805V61.7541Z" fill="#284170"/>
<path d="M232.929 71.1781L222.087 60.9886V76.9505H225.093V67.5265L235.922 77.7035V61.7541H232.929V71.1781Z" fill="#284170"/>
<path d="M242.387 61.7541H239.23V76.9505H242.387V61.7541Z" fill="#284170"/>
<path d="M244.148 64.5524H248.236V76.9505H251.342V64.5524H255.455V61.7541H244.148V64.5524Z" fill="#284170"/>
<path d="M260.372 61.7541H257.216V76.9505H260.372V61.7541Z" fill="#284170"/>
<path d="M267.843 71.0401L269.743 66.6732L271.629 71.0401H267.843ZM262.033 76.9505H265.529L267.127 73.4997H272.346L273.956 76.9505H277.478L269.755 60.8631L262.033 76.9505Z" fill="#284170"/>
<path d="M276.082 64.5524H280.169V76.9505H283.276V64.5524H287.389V61.7541H276.082V64.5524Z" fill="#284170"/>
<path d="M292.306 61.7541H289.149V76.9505H292.306V61.7541Z" fill="#284170"/>
<path d="M301.676 71.655L297.551 61.7541H293.954L301.676 77.8415L309.399 61.7541H305.789L301.676 71.655Z" fill="#284170"/>
<path d="M320.731 64.3767V61.7541H314.065H313.059H311.059V76.9505H313.059H314.065H320.731V74.3153H314.065V70.1742H320.303V67.5892H314.065V64.3767H320.731Z" fill="#284170"/>
<path d="M79 35L79 81" stroke="#A8D0E7"/>
<path d="M1.36 15V3.64H2.8V15H1.36ZM12.5403 15H11.1323V10.328C11.1323 9.44267 10.9936 8.79733 10.7163 8.392C10.4496 7.976 10.0389 7.768 9.48425 7.768C9.10025 7.768 8.71625 7.864 8.33225 8.056C7.95892 8.248 7.62292 8.50933 7.32425 8.84C7.03625 9.16 6.82825 9.53333 6.70025 9.96V15H5.29225V6.648H6.57225V8.44C6.79625 8.04533 7.08425 7.704 7.43625 7.416C7.78825 7.128 8.18825 6.904 8.63625 6.744C9.08425 6.584 9.55358 6.504 10.0443 6.504C10.5243 6.504 10.9243 6.59467 11.2443 6.776C11.5749 6.94667 11.8309 7.192 12.0123 7.512C12.2043 7.82133 12.3376 8.18933 12.4123 8.616C12.4976 9.04267 12.5403 9.50667 12.5403 10.008V15ZM21.9566 3.64H23.1726L27.8126 15H26.2766L24.9326 11.672H20.1646L18.8366 15H17.3006L21.9566 3.64ZM24.6126 10.552L22.5646 5.304L20.4526 10.552H24.6126ZM31.8438 15.16C31.1504 15.16 30.4998 15.048 29.8918 14.824C29.2838 14.5893 28.7611 14.2427 28.3238 13.784L28.8678 12.792C29.3478 13.24 29.8278 13.56 30.3078 13.752C30.7878 13.944 31.2784 14.04 31.7798 14.04C32.3558 14.04 32.8251 13.9333 33.1878 13.72C33.5504 13.496 33.7318 13.1707 33.7318 12.744C33.7318 12.4347 33.6358 12.2053 33.4438 12.056C33.2624 11.9067 33.0011 11.784 32.6598 11.688C32.3184 11.5813 31.9131 11.464 31.4438 11.336C30.8678 11.1653 30.3824 10.984 29.9878 10.792C29.5931 10.6 29.2944 10.36 29.0918 10.072C28.8891 9.784 28.7878 9.42133 28.7878 8.984C28.7878 8.45067 28.9264 8.00267 29.2038 7.64C29.4811 7.26667 29.8598 6.984 30.3398 6.792C30.8304 6.6 31.3851 6.504 32.0038 6.504C32.6224 6.504 33.1824 6.6 33.6838 6.792C34.1851 6.984 34.6171 7.26667 34.9798 7.64L34.3398 8.616C34.0091 8.27467 33.6464 8.024 33.2518 7.864C32.8571 7.69333 32.4144 7.608 31.9238 7.608C31.6358 7.608 31.3531 7.64533 31.0758 7.72C30.7984 7.784 30.5691 7.90667 30.3878 8.088C30.2064 8.25867 30.1158 8.504 30.1158 8.824C30.1158 9.09067 30.1851 9.304 30.3238 9.464C30.4731 9.61333 30.6864 9.74133 30.9638 9.848C31.2518 9.95467 31.5984 10.072 32.0038 10.2C32.6331 10.3813 33.1771 10.5627 33.6358 10.744C34.1051 10.9253 34.4678 11.16 34.7238 11.448C34.9798 11.736 35.1078 12.136 35.1078 12.648C35.1078 13.4373 34.8091 14.056 34.2118 14.504C33.6144 14.9413 32.8251 15.16 31.8438 15.16ZM39.6562 15.16C38.9629 15.16 38.3123 15.048 37.7043 14.824C37.0963 14.5893 36.5736 14.2427 36.1363 13.784L36.6803 12.792C37.1603 13.24 37.6403 13.56 38.1203 13.752C38.6003 13.944 39.0909 14.04 39.5923 14.04C40.1683 14.04 40.6376 13.9333 41.0003 13.72C41.3629 13.496 41.5443 13.1707 41.5443 12.744C41.5443 12.4347 41.4483 12.2053 41.2563 12.056C41.0749 11.9067 40.8136 11.784 40.4723 11.688C40.1309 11.5813 39.7256 11.464 39.2563 11.336C38.6803 11.1653 38.1949 10.984 37.8003 10.792C37.4056 10.6 37.1069 10.36 36.9043 10.072C36.7016 9.784 36.6003 9.42133 36.6003 8.984C36.6003 8.45067 36.7389 8.00267 37.0163 7.64C37.2936 7.26667 37.6723 6.984 38.1523 6.792C38.6429 6.6 39.1976 6.504 39.8163 6.504C40.4349 6.504 40.9949 6.6 41.4963 6.792C41.9976 6.984 42.4296 7.26667 42.7923 7.64L42.1523 8.616C41.8216 8.27467 41.4589 8.024 41.0643 7.864C40.6696 7.69333 40.2269 7.608 39.7363 7.608C39.4483 7.608 39.1656 7.64533 38.8883 7.72C38.6109 7.784 38.3816 7.90667 38.2003 8.088C38.0189 8.25867 37.9283 8.504 37.9283 8.824C37.9283 9.09067 37.9976 9.304 38.1363 9.464C38.2856 9.61333 38.4989 9.74133 38.7763 9.848C39.0643 9.95467 39.4109 10.072 39.8163 10.2C40.4456 10.3813 40.9896 10.5627 41.4483 10.744C41.9176 10.9253 42.2803 11.16 42.5363 11.448C42.7923 11.736 42.9203 12.136 42.9203 12.648C42.9203 13.4373 42.6216 14.056 42.0243 14.504C41.4269 14.9413 40.6376 15.16 39.6562 15.16ZM48.2528 15.16C47.6234 15.16 47.0528 15.048 46.5408 14.824C46.0288 14.5893 45.5861 14.2747 45.2128 13.88C44.8394 13.4747 44.5514 13.0107 44.3488 12.488C44.1461 11.9653 44.0448 11.416 44.0448 10.84C44.0448 10.2533 44.1461 9.69867 44.3488 9.176C44.5514 8.65333 44.8394 8.19467 45.2128 7.8C45.5861 7.39467 46.0288 7.08 46.5408 6.856C47.0634 6.62133 47.6394 6.504 48.2688 6.504C48.8874 6.504 49.4528 6.62133 49.9648 6.856C50.4768 7.08 50.9194 7.39467 51.2928 7.8C51.6768 8.19467 51.9701 8.65333 52.1728 9.176C52.3754 9.69867 52.4768 10.2533 52.4768 10.84C52.4768 11.416 52.3754 11.9653 52.1728 12.488C51.9701 13.0107 51.6821 13.4747 51.3088 13.88C50.9354 14.2747 50.4874 14.5893 49.9648 14.824C49.4528 15.048 48.8821 15.16 48.2528 15.16ZM45.4848 10.856C45.4848 11.432 45.6074 11.9547 45.8528 12.424C46.1088 12.8933 46.4448 13.2667 46.8608 13.544C47.2768 13.8107 47.7408 13.944 48.2528 13.944C48.7648 13.944 49.2288 13.8053 49.6448 13.528C50.0714 13.2507 50.4074 12.8773 50.6528 12.408C50.9088 11.928 51.0368 11.4 51.0368 10.824C51.0368 10.248 50.9088 9.72533 50.6528 9.256C50.4074 8.78667 50.0714 8.41333 49.6448 8.136C49.2288 7.85867 48.7648 7.72 48.2528 7.72C47.7408 7.72 47.2768 7.864 46.8608 8.152C46.4448 8.42933 46.1088 8.80267 45.8528 9.272C45.6074 9.74133 45.4848 10.2693 45.4848 10.856ZM57.8789 15.16C57.2495 15.16 56.6735 15.048 56.1509 14.824C55.6389 14.5893 55.1909 14.2693 54.8069 13.864C54.4335 13.4587 54.1402 12.9947 53.9269 12.472C53.7242 11.9493 53.6229 11.3947 53.6229 10.808C53.6229 10.0187 53.7989 9.29867 54.1509 8.648C54.5029 7.99733 54.9989 7.48 55.6389 7.096C56.2789 6.70133 57.0202 6.504 57.8629 6.504C58.6842 6.504 59.3989 6.69067 60.0069 7.064C60.6255 7.42667 61.0842 7.91733 61.3829 8.536L60.0069 8.968C59.7935 8.57333 59.4949 8.26933 59.1109 8.056C58.7269 7.832 58.3002 7.72 57.8309 7.72C57.3189 7.72 56.8495 7.85333 56.4229 8.12C56.0069 8.38667 55.6762 8.75467 55.4309 9.224C55.1855 9.68267 55.0629 10.2107 55.0629 10.808C55.0629 11.3947 55.1855 11.928 55.4309 12.408C55.6869 12.8773 56.0229 13.2507 56.4389 13.528C56.8655 13.8053 57.3349 13.944 57.8469 13.944C58.1775 13.944 58.4922 13.8853 58.7909 13.768C59.1002 13.6507 59.3669 13.496 59.5909 13.304C59.8255 13.1013 59.9855 12.8827 60.0709 12.648L61.4469 13.064C61.2762 13.4693 61.0149 13.832 60.6629 14.152C60.3215 14.4613 59.9109 14.7067 59.4309 14.888C58.9615 15.0693 58.4442 15.16 57.8789 15.16ZM63.0423 15V6.648H64.4503V15H63.0423ZM63.0423 5.08V3.32H64.4503V5.08H63.0423ZM66.0738 12.584C66.0738 12.0507 66.2231 11.592 66.5218 11.208C66.8311 10.8133 67.2524 10.5093 67.7858 10.296C68.3191 10.0827 68.9378 9.976 69.6418 9.976C70.0151 9.976 70.4098 10.008 70.8258 10.072C71.2418 10.1253 71.6098 10.2107 71.9298 10.328V9.72C71.9298 9.08 71.7378 8.57867 71.3538 8.216C70.9698 7.84267 70.4258 7.656 69.7218 7.656C69.2631 7.656 68.8204 7.74133 68.3938 7.912C67.9778 8.072 67.5351 8.30667 67.0658 8.616L66.5538 7.624C67.0978 7.25067 67.6418 6.97333 68.1858 6.792C68.7298 6.6 69.2951 6.504 69.8818 6.504C70.9484 6.504 71.7911 6.80267 72.4098 7.4C73.0284 7.98667 73.3378 8.808 73.3378 9.864V13.4C73.3378 13.5707 73.3698 13.6987 73.4338 13.784C73.5084 13.8587 73.6258 13.9013 73.7858 13.912V15C73.6471 15.0213 73.5244 15.0373 73.4178 15.048C73.3218 15.0587 73.2418 15.064 73.1778 15.064C72.8471 15.064 72.5964 14.9733 72.4258 14.792C72.2658 14.6107 72.1751 14.4187 72.1538 14.216L72.1218 13.688C71.7591 14.1573 71.2844 14.52 70.6978 14.776C70.1111 15.032 69.5298 15.16 68.9538 15.16C68.3991 15.16 67.9031 15.048 67.4658 14.824C67.0284 14.5893 66.6871 14.28 66.4418 13.896C66.1964 13.5013 66.0738 13.064 66.0738 12.584ZM71.5138 13.176C71.6418 13.0267 71.7431 12.8773 71.8178 12.728C71.8924 12.568 71.9298 12.4347 71.9298 12.328V11.288C71.5991 11.16 71.2524 11.064 70.8898 11C70.5271 10.9253 70.1698 10.888 69.8177 10.888C69.1031 10.888 68.5218 11.032 68.0738 11.32C67.6364 11.5973 67.4178 11.9813 67.4178 12.472C67.4178 12.7387 67.4871 13 67.6258 13.256C67.7751 13.5013 67.9884 13.704 68.2658 13.864C68.5538 14.024 68.9058 14.104 69.3218 14.104C69.7591 14.104 70.1751 14.0187 70.5698 13.848C70.9644 13.6667 71.2791 13.4427 71.5138 13.176ZM79.8466 14.584C79.7293 14.6373 79.5693 14.7067 79.3666 14.792C79.164 14.8773 78.9293 14.952 78.6626 15.016C78.396 15.08 78.1133 15.112 77.8146 15.112C77.4733 15.112 77.1586 15.0533 76.8706 14.936C76.5826 14.808 76.3533 14.616 76.1826 14.36C76.012 14.0933 75.9266 13.7627 75.9266 13.368V7.752H74.7906V6.648H75.9266V3.864H77.3346V6.648H79.2066V7.752H77.3346V12.936C77.356 13.2347 77.4573 13.4587 77.6386 13.608C77.82 13.7467 78.0333 13.816 78.2786 13.816C78.556 13.816 78.812 13.768 79.0466 13.672C79.2813 13.576 79.436 13.5067 79.5106 13.464L79.8466 14.584ZM81.1516 15V6.648H82.5596V15H81.1516ZM81.1516 5.08V3.32H82.5596V5.08H81.1516ZM88.4871 15.16C87.8578 15.16 87.2871 15.048 86.7751 14.824C86.2631 14.5893 85.8205 14.2747 85.4471 13.88C85.0738 13.4747 84.7858 13.0107 84.5831 12.488C84.3805 11.9653 84.2791 11.416 84.2791 10.84C84.2791 10.2533 84.3805 9.69867 84.5831 9.176C84.7858 8.65333 85.0738 8.19467 85.4471 7.8C85.8205 7.39467 86.2631 7.08 86.7751 6.856C87.2978 6.62133 87.8738 6.504 88.5031 6.504C89.1218 6.504 89.6871 6.62133 90.1991 6.856C90.7111 7.08 91.1538 7.39467 91.5271 7.8C91.9111 8.19467 92.2045 8.65333 92.4071 9.176C92.6098 9.69867 92.7111 10.2533 92.7111 10.84C92.7111 11.416 92.6098 11.9653 92.4071 12.488C92.2045 13.0107 91.9165 13.4747 91.5431 13.88C91.1698 14.2747 90.7218 14.5893 90.1991 14.824C89.6871 15.048 89.1165 15.16 88.4871 15.16ZM85.7191 10.856C85.7191 11.432 85.8418 11.9547 86.0871 12.424C86.3431 12.8933 86.6791 13.2667 87.0951 13.544C87.5111 13.8107 87.9751 13.944 88.4871 13.944C88.9991 13.944 89.4631 13.8053 89.8791 13.528C90.3058 13.2507 90.6418 12.8773 90.8871 12.408C91.1431 11.928 91.2711 11.4 91.2711 10.824C91.2711 10.248 91.1431 9.72533 90.8871 9.256C90.6418 8.78667 90.3058 8.41333 89.8791 8.136C89.4631 7.85867 88.9991 7.72 88.4871 7.72C87.9751 7.72 87.5111 7.864 87.0951 8.152C86.6791 8.42933 86.3431 8.80267 86.0871 9.272C85.8418 9.74133 85.7191 10.2693 85.7191 10.856ZM101.665 15H100.257V10.328C100.257 9.44267 100.119 8.79733 99.8413 8.392C99.5746 7.976 99.1639 7.768 98.6093 7.768C98.2253 7.768 97.8413 7.864 97.4573 8.056C97.0839 8.248 96.7479 8.50933 96.4493 8.84C96.1613 9.16 95.9533 9.53333 95.8253 9.96V15H94.4173V6.648H95.6973V8.44C95.9213 8.04533 96.2093 7.704 96.5613 7.416C96.9133 7.128 97.3133 6.904 97.7613 6.744C98.2093 6.584 98.6786 6.504 99.1693 6.504C99.6493 6.504 100.049 6.59467 100.369 6.776C100.7 6.94667 100.956 7.192 101.137 7.512C101.329 7.82133 101.463 8.18933 101.537 8.616C101.623 9.04267 101.665 9.50667 101.665 10.008V15ZM111.723 3.704H113.083L114.587 7.656L116.107 3.704H117.467L115.499 8.648L117.451 13.336L121.291 3.64H122.859L118.107 15H116.859L114.603 9.64L112.331 15H111.083L106.347 3.64H107.899L111.755 13.336L113.691 8.648L111.723 3.704ZM124.12 15V6.648H125.528V15H124.12ZM124.12 5.08V3.32H125.528V5.08H124.12ZM132.128 14.584C132.011 14.6373 131.851 14.7067 131.648 14.792C131.445 14.8773 131.211 14.952 130.944 15.016C130.677 15.08 130.395 15.112 130.096 15.112C129.755 15.112 129.44 15.0533 129.152 14.936C128.864 14.808 128.635 14.616 128.464 14.36C128.293 14.0933 128.208 13.7627 128.208 13.368V7.752H127.072V6.648H128.208V3.864H129.616V6.648H131.488V7.752H129.616V12.936C129.637 13.2347 129.739 13.4587 129.92 13.608C130.101 13.7467 130.315 13.816 130.56 13.816C130.837 13.816 131.093 13.768 131.328 13.672C131.563 13.576 131.717 13.5067 131.792 13.464L132.128 14.584ZM140.681 15H139.273V10.328C139.273 9.47467 139.118 8.83467 138.809 8.408C138.51 7.98133 138.078 7.768 137.513 7.768C137.15 7.768 136.782 7.864 136.409 8.056C136.046 8.248 135.726 8.50933 135.449 8.84C135.172 9.16 134.969 9.53333 134.841 9.96V15H133.433V3.32H134.841V8.44C135.172 7.84267 135.62 7.37333 136.185 7.032C136.761 6.68 137.38 6.504 138.041 6.504C138.542 6.504 138.958 6.59467 139.289 6.776C139.63 6.94667 139.902 7.192 140.105 7.512C140.308 7.832 140.452 8.20533 140.537 8.632C140.633 9.048 140.681 9.50667 140.681 10.008V15Z" fill="#878787"/>
<defs>
<linearGradient id="paint0_linear_482_182" x1="108.44" y1="57.2908" x2="136.086" y2="29.5813" gradientUnits="userSpaceOnUse">
<stop stop-color="#4F9E3E"/>
<stop offset="0.2267" stop-color="#4F9E3E"/>
<stop offset="0.9225" stop-color="#BFD407"/>
<stop offset="1" stop-color="#BFD407"/>
</linearGradient>
</defs>
</svg>
