<svg width="545" height="144" viewBox="0 0 545 144" fill="none" xmlns="http://www.w3.org/2000/svg">
<path d="M58.9272 36.7067C58.9272 30.9196 54.2191 26.2148 48.428 26.2148C42.6368 26.2148 37.9287 30.9196 37.9287 36.7067C37.9287 42.4938 42.6368 47.1986 48.428 47.1986C51.0453 47.1986 53.4219 46.2366 55.272 44.6432V44.9288C55.272 48.7618 52.1433 51.8883 48.3076 51.8883H42.5767V55.5259H48.3076C54.1439 55.5259 58.8971 50.776 58.8971 44.9439C58.9122 44.9288 58.9272 36.857 58.9272 36.7067ZM48.428 43.561C44.6374 43.561 41.5689 40.4796 41.5689 36.7067C41.5689 32.9338 44.6524 29.8524 48.428 29.8524C52.2035 29.8524 55.2871 32.9338 55.2871 36.7067C55.2871 36.827 55.272 36.9622 55.272 37.0825V37.1576C55.0314 40.7351 52.0681 43.561 48.428 43.561Z" fill="black"/>
<path d="M138.905 47.1688H135.144V35.0235C135.144 32.3029 132.753 30.0932 129.804 30.0932C126.856 30.0932 124.465 32.3029 124.465 35.0235V47.1839H120.704V35.0235C120.704 30.3037 124.78 26.4707 129.804 26.4707C134.828 26.4707 138.905 30.3037 138.905 35.0235V47.1688Z" fill="black"/>
<path d="M89.7327 40.7952C89.1611 41.7422 88.4241 42.4938 87.5065 43.0199C86.5288 43.591 85.4307 43.8766 84.2424 43.8766C82.5728 43.8766 81.1287 43.3505 79.9103 42.3134C78.6919 41.2762 77.9398 39.9084 77.624 38.2249H94.5912V37.6537C94.5912 36.2558 94.4559 35.0082 94.1701 33.9109C93.8843 32.8136 93.4481 31.8065 92.8765 30.9046C91.8837 29.4315 90.6352 28.2741 89.116 27.4474C87.5968 26.6207 85.9421 26.2148 84.1822 26.2148C82.6931 26.2148 81.3243 26.4854 80.0608 27.0416C78.7972 27.5977 77.6691 28.4244 76.6763 29.5217C75.7287 30.5288 75.0217 31.6562 74.5404 32.8887C74.059 34.1213 73.8184 35.4441 73.8184 36.857C73.8184 38.2249 74.0891 39.5627 74.6156 40.8704C75.142 42.1781 75.8791 43.3355 76.8267 44.3276C77.8346 45.3798 78.9477 46.1614 80.1811 46.6875C81.4145 47.2136 82.7833 47.4691 84.2725 47.4691C86.4837 47.4691 88.4241 46.8829 90.0937 45.6954C91.1015 44.9739 91.9589 44.042 92.696 42.9447L89.7327 40.7952ZM80.151 31.1451C81.3243 30.2132 82.6931 29.7472 84.2875 29.7472C85.8369 29.7472 87.1756 30.1981 88.2887 31.1151C89.4018 32.032 90.184 33.3096 90.6352 34.9631H77.7593C78.1805 33.3547 78.9777 32.0771 80.151 31.1451Z" fill="black"/>
<path d="M112.882 40.7952C112.311 41.7422 111.573 42.4938 110.656 43.0199C109.678 43.591 108.58 43.8766 107.392 43.8766C105.722 43.8766 104.278 43.3505 103.06 42.3134C101.841 41.2762 101.089 39.9084 100.773 38.2249H117.741V37.6537C117.741 36.2558 117.605 35.0082 117.319 33.9109C117.034 32.8136 116.597 31.8065 116.026 30.9046C115.033 29.4315 113.785 28.2741 112.265 27.4474C110.746 26.6207 109.092 26.2148 107.332 26.2148C105.843 26.2148 104.474 26.4854 103.21 27.0416C101.947 27.5977 100.819 28.4244 99.8257 29.5217C98.8781 30.5288 98.1711 31.6562 97.6898 32.8887C97.2084 34.1213 96.9678 35.4441 96.9678 36.857C96.9678 38.2249 97.2385 39.5627 97.765 40.8704C98.2915 42.1781 99.0285 43.3355 99.9762 44.3276C100.984 45.3798 102.097 46.1614 103.331 46.6875C104.564 47.2136 105.933 47.4691 107.422 47.4691C109.633 47.4691 111.573 46.8829 113.243 45.6954C114.251 44.9739 115.108 44.042 115.845 42.9447L112.882 40.7952ZM103.3 31.1451C104.474 30.2132 105.843 29.7472 107.437 29.7472C108.986 29.7472 110.325 30.1981 111.438 31.1151C112.551 32.032 113.333 33.3096 113.785 34.9631H100.879C101.33 33.3547 102.127 32.0771 103.3 31.1451Z" fill="black"/>
<path d="M66.6587 47.1676H63.0186V35.0524C63.0186 30.4979 66.7339 26.7852 71.2916 26.7852H73.1869V30.4227H71.2916C68.7345 30.4227 66.6587 32.4971 66.6587 35.0524V47.1676Z" fill="black"/>
<path d="M130.361 61.7344C127.593 61.7344 125.141 63.0271 123.577 65.0112C122.012 63.0271 119.561 61.7344 116.793 61.7344C112.085 61.7344 108.249 65.4621 108.249 70.0617V81.8763H111.784V70.0617C111.784 67.4162 114.04 65.2667 116.793 65.2667C119.546 65.2667 121.787 67.4012 121.802 70.0317V70.0467V81.8613H125.337V70.0467V70.0317C125.352 67.4012 127.593 65.2667 130.346 65.2667C133.113 65.2667 135.355 67.4162 135.355 70.0617V81.8763H138.889V70.0617C138.904 65.4772 135.069 61.7344 130.361 61.7344Z" fill="black"/>
<path d="M45.7361 82.6421C49.6169 82.6421 53.7534 80.9737 53.7534 76.3139C53.7534 73.1574 51.4971 71.3085 46.4129 70.3164C42.6073 69.5649 41.8552 68.678 41.8552 67.4004C41.8552 65.4613 43.9611 64.7849 45.7812 64.7849C47.8118 64.7849 49.6018 65.7469 50.4442 67.2952L50.4592 67.3252L53.3021 65.2359C51.9183 63.1014 48.9701 61.6885 45.9166 61.6885C42.3967 61.6885 38.2903 63.2517 38.2903 67.6559C38.2903 71.8647 42.5772 72.7966 44.3973 73.2025C48.6542 74.1494 50.0982 74.9912 50.0982 76.5244C50.0982 78.4785 48.579 79.5156 45.706 79.5156C43.8408 79.5156 41.9756 78.6588 40.8173 77.291L37.9443 79.4104C39.7945 81.4847 42.5472 82.6421 45.7361 82.6421Z" fill="black"/>
<path d="M100.984 81.8763H97.4492V70.1068C97.4492 65.6726 101.059 62.0801 105.482 62.0801H107.332V65.6124H105.482C103 65.6124 100.984 67.6266 100.984 70.1068V81.8763Z" fill="black"/>
<path d="M59.0632 73.4289V65.2067H62.1167V61.6744H59.0632V55.9023H55.5283V73.4289C55.5283 78.8251 59.9206 83.2142 65.3206 83.2142V79.6819C61.876 79.6819 59.0632 76.871 59.0632 73.4289Z" fill="black"/>
<mask id="mask0_1363_2" style="mask-type:luminance" maskUnits="userSpaceOnUse" x="65" y="56" width="31" height="32">
<path d="M80.257 87.0464C71.9388 87.0464 65.1699 80.2823 65.1699 71.97C65.1699 63.6576 71.9388 56.8936 80.257 56.8936C88.5751 56.8936 95.344 63.6576 95.344 71.97C95.344 80.2823 88.5751 87.0464 80.257 87.0464ZM80.257 60.6213C73.9995 60.6213 68.9003 65.7169 68.9003 71.97C68.9003 78.223 73.9995 83.3186 80.257 83.3186C86.5144 83.3186 91.6136 78.223 91.6136 71.97C91.6136 65.7169 86.5294 60.6213 80.257 60.6213Z" fill="white"/>
</mask>
<g mask="url(#mask0_1363_2)">
<path d="M80.257 87.0464C71.9388 87.0464 65.1699 80.2823 65.1699 71.97C65.1699 63.6576 71.9388 56.8936 80.257 56.8936C88.5751 56.8936 95.344 63.6576 95.344 71.97C95.344 80.2823 88.5751 87.0464 80.257 87.0464ZM80.257 60.6213C73.9995 60.6213 68.9003 65.7169 68.9003 71.97C68.9003 78.223 73.9995 83.3186 80.257 83.3186C86.5144 83.3186 91.6136 78.223 91.6136 71.97C91.6136 65.7169 86.5294 60.6213 80.257 60.6213Z" fill="url(#paint0_linear_1363_2)"/>
<path d="M74.1201 71.9692C78.4898 71.9692 82.0321 68.4293 82.0321 64.0627C82.0321 59.6961 78.4898 56.1562 74.1201 56.1562C69.7504 56.1562 66.208 59.6961 66.208 64.0627C66.208 68.4293 69.7504 71.9692 74.1201 71.9692Z" fill="url(#paint1_radial_1363_2)"/>
</g>
<path d="M67.2453 138.348H64.252V133.463H67.2453V133.959H64.8687V135.537H67.1099V136.033H64.8687V137.837H67.2453V138.348Z" fill="black"/>
<path d="M74.1498 135.853C74.1498 136.409 74.0445 136.86 73.8189 137.236C73.5933 137.612 73.2774 137.882 72.8562 138.062C72.4351 138.243 71.9236 138.348 71.337 138.348H69.8779V133.463H71.5025C72.044 133.463 72.5253 133.553 72.9164 133.733C73.3075 133.914 73.6234 134.184 73.834 134.545C74.0445 134.891 74.1498 135.342 74.1498 135.853ZM73.503 135.883C73.503 135.447 73.4278 135.086 73.2624 134.801C73.0969 134.515 72.8713 134.305 72.5554 134.169C72.2395 134.034 71.8635 133.959 71.4122 133.959H70.5097V137.867H71.2768C72.0139 137.867 72.5704 137.702 72.9465 137.371C73.3225 137.04 73.503 136.529 73.503 135.883Z" fill="black"/>
<path d="M76.7812 138.348V133.463H77.413V138.348H76.7812Z" fill="black"/>
<path d="M81.9868 138.349H81.355V133.975H79.6553V133.479H83.6715V133.975H81.9868V138.349Z" fill="black"/>
<path d="M85.9131 138.348V133.463H86.5448V138.348H85.9131Z" fill="black"/>
<path d="M94.1252 135.899C94.1252 136.274 94.065 136.62 93.9747 136.921C93.8694 137.236 93.719 137.492 93.5084 137.717C93.2978 137.943 93.0421 138.108 92.7413 138.228C92.4405 138.349 92.0795 138.409 91.6733 138.409C91.2521 138.409 90.8911 138.349 90.5753 138.228C90.2594 138.108 90.0037 137.943 89.8081 137.717C89.5975 137.492 89.4471 137.221 89.3418 136.921C89.2365 136.605 89.1914 136.274 89.1914 135.899C89.1914 135.402 89.2817 134.967 89.4622 134.591C89.6427 134.215 89.9134 133.929 90.2895 133.719C90.6655 133.509 91.1168 133.403 91.6733 133.403C92.1998 133.403 92.651 133.509 93.0271 133.719C93.3881 133.929 93.6739 134.215 93.8544 134.591C94.0349 134.967 94.1252 135.387 94.1252 135.899ZM89.8382 135.899C89.8382 136.319 89.8984 136.665 90.0338 136.981C90.1691 137.281 90.3647 137.522 90.6354 137.687C90.9062 137.853 91.2521 137.928 91.6583 137.928C92.0795 137.928 92.4104 137.853 92.6811 137.687C92.9519 137.522 93.1474 137.281 93.2678 136.981C93.3881 136.68 93.4633 136.319 93.4633 135.899C93.4633 135.267 93.3129 134.771 93.0271 134.425C92.7413 134.08 92.275 133.899 91.6733 133.899C91.2521 133.899 90.9062 133.975 90.6354 134.14C90.3647 134.305 90.1691 134.531 90.0338 134.831C89.8984 135.132 89.8382 135.478 89.8382 135.899Z" fill="black"/>
<path d="M100.969 138.349H100.247L97.314 134.245H97.2839C97.2839 134.35 97.2989 134.486 97.314 134.621C97.329 134.756 97.329 134.906 97.3441 135.072C97.3441 135.222 97.3591 135.387 97.3591 135.553V138.364H96.7725V133.479H97.4945L100.413 137.567H100.443C100.443 137.492 100.428 137.372 100.428 137.236C100.428 137.086 100.413 136.936 100.413 136.77C100.413 136.605 100.398 136.455 100.398 136.304V133.479H100.984V138.349H100.969Z" fill="black"/>
<path d="M106.174 138.348H105.572V134.891C105.572 134.756 105.572 134.65 105.572 134.545C105.572 134.455 105.572 134.365 105.572 134.29C105.572 134.214 105.587 134.124 105.587 134.049C105.512 134.124 105.437 134.184 105.376 134.229C105.316 134.275 105.226 134.335 105.136 134.41L104.519 134.861L104.203 134.485L105.662 133.463H106.174V138.348Z" fill="black"/>
<path d="M109.693 135.357C110.054 135.357 110.37 135.418 110.641 135.523C110.911 135.628 111.122 135.793 111.272 136.019C111.423 136.229 111.498 136.485 111.498 136.8C111.498 137.131 111.423 137.417 111.257 137.657C111.092 137.898 110.866 138.078 110.566 138.213C110.265 138.349 109.904 138.409 109.482 138.409C109.197 138.409 108.941 138.394 108.7 138.349C108.46 138.304 108.264 138.243 108.099 138.153V137.627C108.279 137.732 108.49 137.808 108.745 137.868C109.001 137.928 109.242 137.958 109.482 137.958C109.753 137.958 109.994 137.913 110.205 137.838C110.415 137.762 110.566 137.642 110.686 137.477C110.806 137.311 110.851 137.116 110.851 136.861C110.851 136.53 110.746 136.289 110.52 136.109C110.295 135.929 109.949 135.838 109.482 135.838C109.332 135.838 109.167 135.853 108.986 135.868C108.806 135.884 108.655 135.914 108.535 135.944L108.219 135.763L108.43 133.479H111.107V133.99H108.956L108.821 135.463C108.911 135.448 109.031 135.433 109.182 135.403C109.347 135.372 109.513 135.357 109.693 135.357Z" fill="black"/>
<path d="M61.5459 117.995H66.7805V119.363H63.0651V120.851H66.3443V122.219H63.0651V124.879H61.5609V117.995H61.5459Z" fill="black"/>
<path d="M68.7217 117.995H73.8961V119.333H70.2108V120.731H73.4448V122.069H70.2108V123.512H73.9412V124.849H68.7217V117.995Z" fill="black"/>
<path d="M78.4988 124.955C77.9723 124.955 77.4609 124.865 76.9645 124.684C76.4681 124.504 76.0018 124.233 75.5957 123.858L76.4832 122.79C76.7991 123.046 77.1149 123.241 77.4459 123.392C77.7768 123.542 78.1378 123.617 78.5289 123.617C78.8448 123.617 79.0854 123.557 79.2659 123.452C79.4464 123.347 79.5216 123.181 79.5216 122.971V122.956C79.5216 122.866 79.5066 122.775 79.4615 122.7C79.4314 122.625 79.3562 122.55 79.2509 122.49C79.1456 122.43 79.0102 122.355 78.8297 122.294C78.6492 122.234 78.4085 122.159 78.1227 122.084C77.7768 121.994 77.4609 121.904 77.1751 121.798C76.8893 121.693 76.6486 121.558 76.4531 121.408C76.2575 121.257 76.1071 121.062 76.0018 120.836C75.8965 120.611 75.8364 120.325 75.8364 119.98V119.965C75.8364 119.649 75.8965 119.363 76.0169 119.123C76.1372 118.867 76.3027 118.657 76.5133 118.476C76.7238 118.296 76.9796 118.146 77.2654 118.056C77.5662 117.95 77.8821 117.905 78.2431 117.905C78.7395 117.905 79.2058 117.98 79.6269 118.131C80.0481 118.281 80.4392 118.491 80.7852 118.777L80.003 119.919C79.7021 119.709 79.4013 119.544 79.1005 119.423C78.7996 119.303 78.5138 119.243 78.213 119.243C77.9122 119.243 77.7016 119.303 77.5512 119.408C77.4007 119.529 77.3255 119.664 77.3255 119.829V119.844C77.3255 119.95 77.3406 120.055 77.3857 120.13C77.4308 120.205 77.506 120.28 77.6113 120.355C77.7166 120.415 77.8821 120.476 78.0626 120.536C78.2581 120.596 78.4988 120.656 78.7996 120.746C79.1456 120.836 79.4615 120.942 79.7322 121.062C80.003 121.182 80.2286 121.317 80.4242 121.468C80.6047 121.633 80.7551 121.813 80.8453 122.039C80.9356 122.249 80.9807 122.52 80.9807 122.821V122.836C80.9807 123.181 80.9205 123.482 80.8002 123.737C80.6799 124.008 80.4994 124.218 80.2888 124.399C80.0782 124.579 79.8074 124.714 79.4916 124.805C79.2058 124.91 78.8748 124.955 78.4988 124.955Z" fill="black"/>
<path d="M84.6504 119.393H82.5596V117.995H88.2605V119.393H86.1696V124.864H84.6654V119.393H84.6504Z" fill="black"/>
<path d="M90.2158 117.995H91.72V124.864H90.2158V117.995Z" fill="black"/>
<path d="M93.6006 117.995H95.2702L97.0602 122.835L98.8502 117.995H100.475L97.692 124.91H96.3533L93.6006 117.995Z" fill="black"/>
<path d="M104.641 117.95H106.04L108.988 124.865H107.409L106.777 123.331H103.874L103.242 124.865H101.708L104.641 117.95ZM106.236 121.994L105.318 119.769L104.401 121.994H106.236Z" fill="black"/>
<path d="M110.777 117.995H112.282V123.497H115.711V124.864H110.777V117.995Z" fill="black"/>
<path d="M69.2931 101.22C68.7516 101.22 68.2702 101.13 67.819 100.95C67.3827 100.769 66.9917 100.529 66.6758 100.213C66.3599 99.8974 66.1042 99.5216 65.9387 99.1007C65.7582 98.6648 65.668 98.1989 65.668 97.6878V97.6728C65.668 97.1767 65.7582 96.7258 65.9387 96.2899C66.1192 95.854 66.3749 95.4782 66.6908 95.1625C67.0067 94.8319 67.3978 94.5763 67.834 94.3959C68.2702 94.2156 68.7516 94.1104 69.278 94.1104C69.5789 94.1104 69.8647 94.1254 70.1204 94.1705C70.3761 94.2156 70.6017 94.2757 70.8273 94.3509C71.053 94.426 71.2485 94.5312 71.429 94.6515C71.6246 94.7717 71.8051 94.907 71.9856 95.0573L71.0379 96.1997C70.9026 96.0945 70.7822 95.9893 70.6468 95.8991C70.5115 95.8089 70.3761 95.7488 70.2407 95.6886C70.1053 95.6285 69.9549 95.5834 69.7895 95.5534C69.624 95.5233 69.4435 95.5083 69.2479 95.5083C68.9772 95.5083 68.7215 95.5684 68.4808 95.6736C68.2401 95.7788 68.0296 95.9442 67.849 96.1396C67.6685 96.335 67.5332 96.5605 67.4279 96.816C67.3226 97.0715 67.2775 97.3571 67.2775 97.6427V97.6577C67.2775 97.9734 67.3226 98.259 67.4279 98.5296C67.5332 98.8001 67.6685 99.0256 67.8641 99.221C68.0596 99.4164 68.2702 99.5667 68.5259 99.6719C68.7816 99.7772 69.0524 99.8373 69.3683 99.8373C69.9248 99.8373 70.4062 99.702 70.7973 99.4164V98.4544H69.278V97.1467H72.2563V100.123C71.9104 100.424 71.4892 100.679 70.9928 100.889C70.4964 101.1 69.9248 101.22 69.2931 101.22Z" fill="black"/>
<path d="M74.4219 94.2314H75.9261V99.7329H79.3556V101.101H74.4219V94.2314Z" fill="black"/>
<path d="M84.5601 101.22C84.0336 101.22 83.5372 101.13 83.101 100.935C82.6497 100.754 82.2737 100.499 81.9428 100.183C81.6118 99.8673 81.3712 99.4916 81.1907 99.0707C81.0102 98.6498 80.9199 98.1838 80.9199 97.6878V97.6728C80.9199 97.1767 81.0102 96.7258 81.1907 96.2899C81.3712 95.854 81.6269 95.4782 81.9578 95.1625C82.2887 94.8469 82.6648 94.5763 83.116 94.3959C83.5673 94.2156 84.0486 94.1104 84.5901 94.1104C85.1166 94.1104 85.613 94.2005 86.0492 94.3959C86.5005 94.5763 86.8765 94.8319 87.2074 95.1475C87.5384 95.4632 87.779 95.839 87.9595 96.2598C88.14 96.6957 88.2303 97.1467 88.2303 97.6427V97.6577C88.2303 98.1538 88.14 98.6047 87.9595 99.0406C87.779 99.4765 87.5233 99.8523 87.1924 100.168C86.8615 100.484 86.4854 100.754 86.0342 100.935C85.5829 101.115 85.1016 101.22 84.5601 101.22ZM84.5901 99.8223C84.891 99.8223 85.1768 99.7621 85.4175 99.6569C85.6732 99.5517 85.8838 99.3863 86.0643 99.1909C86.2448 98.9955 86.3801 98.7701 86.4854 98.5145C86.5907 98.259 86.6359 97.9734 86.6359 97.6878V97.6728C86.6359 97.3722 86.5907 97.1016 86.4854 96.8461C86.3801 96.5905 86.2448 96.35 86.0492 96.1546C85.8687 95.9592 85.6431 95.8089 85.3874 95.6886C85.1317 95.5684 84.8609 95.5233 84.5601 95.5233C84.2592 95.5233 83.9734 95.5834 83.7177 95.6886C83.462 95.7939 83.2514 95.9592 83.0709 96.1546C82.8904 96.35 82.755 96.5755 82.6497 96.831C82.5444 97.0865 82.4993 97.3721 82.4993 97.6577V97.6728C82.4993 97.9734 82.5444 98.244 82.6497 98.4995C82.755 98.755 82.8904 98.9955 83.086 99.1909C83.2815 99.3863 83.4921 99.5367 83.7478 99.6569C84.0035 99.7621 84.2743 99.8223 84.5901 99.8223Z" fill="black"/>
<path d="M90.3061 94.2314H93.4949C94.2922 94.2314 94.8788 94.4269 95.2849 94.8327C95.6008 95.1484 95.7512 95.5392 95.7512 96.0051V96.0202C95.7512 96.2156 95.7211 96.396 95.676 96.5463C95.6309 96.6966 95.5557 96.8319 95.4805 96.9521C95.4053 97.0724 95.3 97.1776 95.1947 97.2678C95.0894 97.358 94.9691 97.4331 94.8487 97.5083C95.2398 97.6586 95.5557 97.869 95.7813 98.1246C96.0069 98.3801 96.1273 98.7408 96.1273 99.1918V99.2068C96.1273 99.5225 96.0671 99.793 95.9468 100.034C95.8264 100.274 95.6459 100.469 95.4203 100.62C95.1947 100.77 94.9239 100.89 94.608 100.965C94.2922 101.041 93.9462 101.086 93.5551 101.086H90.291V94.2314H90.3061ZM93.1791 97.0122C93.51 97.0122 93.7807 96.9521 93.9763 96.8469C94.1718 96.7266 94.2771 96.5463 94.2771 96.2907V96.2757C94.2771 96.0502 94.1869 95.8699 94.0214 95.7496C93.8559 95.6294 93.6002 95.5692 93.2844 95.5692H91.7952V97.0273H93.1791V97.0122ZM93.5702 99.778C93.9011 99.778 94.1718 99.7179 94.3523 99.5976C94.5328 99.4774 94.6381 99.282 94.6381 99.0264V99.0114C94.6381 98.7859 94.5479 98.6056 94.3674 98.4703C94.1869 98.335 93.9011 98.2749 93.51 98.2749H91.7651V99.778H93.5702Z" fill="black"/>
<path d="M100.49 94.1855H101.889L104.837 101.1H103.258L102.626 99.5668H99.7227L99.0909 101.1H97.5566L100.49 94.1855ZM102.084 98.229L101.167 96.0043L100.249 98.229H102.084Z" fill="black"/>
<path d="M106.627 94.2314H108.131V99.7329H111.561V101.101H106.627V94.2314Z" fill="black"/>
<path d="M40.4877 105.729H43.7819C44.2632 105.729 44.6994 105.79 45.0755 105.925C45.4515 106.06 45.7825 106.256 46.0382 106.496C46.3089 106.737 46.5045 107.037 46.6549 107.383C46.8053 107.729 46.8655 108.104 46.8655 108.51V108.54C46.8655 109.006 46.7752 109.412 46.6098 109.773C46.4443 110.119 46.2036 110.419 45.9178 110.66C45.632 110.9 45.271 111.081 44.8799 111.201C44.4888 111.321 44.0677 111.381 43.6014 111.381H42.2476V113.801H40.4727V105.729H40.4877ZM43.6615 109.788C44.1128 109.788 44.4588 109.668 44.6994 109.442C44.9401 109.217 45.0755 108.916 45.0755 108.57V108.54C45.0755 108.135 44.9401 107.834 44.6844 107.638C44.4287 107.428 44.0827 107.323 43.6315 107.323H42.2626V109.788H43.6615Z" fill="black"/>
<path d="M48.4756 105.729H50.2505V108.916H53.5146V105.729H55.2896V113.786H53.5146V110.555H50.2505V113.786H48.4756V105.729Z" fill="black"/>
<path d="M61.4262 113.906C60.8095 113.906 60.2379 113.801 59.7114 113.576C59.185 113.35 58.7337 113.064 58.3577 112.689C57.9816 112.313 57.6808 111.877 57.4702 111.381C57.2596 110.885 57.1543 110.344 57.1543 109.758V109.728C57.1543 109.156 57.2596 108.615 57.4702 108.104C57.6808 107.608 57.9816 107.157 58.3577 106.781C58.7337 106.406 59.185 106.105 59.7114 105.88C60.2379 105.654 60.8095 105.549 61.4262 105.549C62.0429 105.549 62.6145 105.654 63.141 105.88C63.6674 106.105 64.1187 106.391 64.4948 106.766C64.8708 107.142 65.1716 107.578 65.3822 108.074C65.5928 108.57 65.6981 109.111 65.6981 109.682V109.712C65.6981 110.284 65.5928 110.825 65.3822 111.321C65.1716 111.817 64.8708 112.268 64.4948 112.644C64.1187 113.019 63.6674 113.32 63.141 113.545C62.6296 113.801 62.058 113.906 61.4262 113.906ZM61.4563 112.283C61.8023 112.283 62.1332 112.223 62.434 112.087C62.7349 111.952 62.9906 111.772 63.2011 111.546C63.4117 111.321 63.5772 111.05 63.6975 110.75C63.8179 110.449 63.878 110.118 63.878 109.773V109.743C63.878 109.397 63.8179 109.066 63.6975 108.766C63.5772 108.465 63.4117 108.194 63.1861 107.954C62.9605 107.728 62.7048 107.548 62.4039 107.413C62.1031 107.277 61.7722 107.217 61.4262 107.217C61.0652 107.217 60.7343 107.277 60.4485 107.413C60.1627 107.548 59.907 107.728 59.6964 107.954C59.4858 108.179 59.3203 108.45 59.2 108.75C59.0797 109.051 59.0195 109.382 59.0195 109.728V109.758C59.0195 110.103 59.0797 110.434 59.2 110.735C59.3203 111.035 59.4858 111.306 59.7114 111.546C59.9371 111.772 60.1928 111.952 60.4786 112.087C60.7644 112.223 61.0953 112.283 61.4563 112.283Z" fill="black"/>
<path d="M69.4733 107.352H67.0215V105.714H73.7001V107.352H71.2483V113.771H69.4733V107.352Z" fill="black"/>
<path d="M79.266 113.906C78.6493 113.906 78.0777 113.801 77.5513 113.576C77.0248 113.35 76.5735 113.064 76.1975 112.689C75.8214 112.313 75.5206 111.877 75.31 111.381C75.0994 110.885 74.9941 110.344 74.9941 109.758V109.728C74.9941 109.156 75.0994 108.615 75.31 108.104C75.5206 107.608 75.8214 107.157 76.1975 106.781C76.5735 106.406 77.0248 106.105 77.5513 105.88C78.0777 105.654 78.6493 105.549 79.266 105.549C79.8828 105.549 80.4544 105.654 80.9808 105.88C81.5073 106.105 81.9586 106.391 82.3346 106.766C82.7106 107.142 83.0115 107.578 83.2221 108.074C83.4327 108.57 83.538 109.111 83.538 109.682V109.712C83.538 110.284 83.4327 110.825 83.2221 111.321C83.0115 111.817 82.7106 112.268 82.3346 112.644C81.9586 113.019 81.5073 113.32 80.9808 113.545C80.4694 113.801 79.8978 113.906 79.266 113.906ZM79.2961 112.283C79.6421 112.283 79.973 112.223 80.2739 112.087C80.5747 111.952 80.8304 111.772 81.041 111.546C81.2516 111.321 81.417 111.05 81.5374 110.75C81.6577 110.449 81.7179 110.118 81.7179 109.773V109.743C81.7179 109.397 81.6577 109.066 81.5374 108.766C81.417 108.465 81.2516 108.194 81.026 107.954C80.8003 107.728 80.5446 107.548 80.2438 107.413C79.9429 107.277 79.612 107.217 79.266 107.217C78.905 107.217 78.5741 107.277 78.2883 107.413C78.0025 107.548 77.7468 107.728 77.5362 107.954C77.3256 108.179 77.1602 108.45 77.0398 108.75C76.9195 109.051 76.8593 109.382 76.8593 109.728V109.758C76.8593 110.103 76.9195 110.434 77.0398 110.735C77.1602 111.035 77.3256 111.306 77.5513 111.546C77.7769 111.772 78.0326 111.952 78.3184 112.087C78.6042 112.223 78.9351 112.283 79.2961 112.283Z" fill="black"/>
<path d="M89.3141 113.907C88.6823 113.907 88.1107 113.802 87.5993 113.591C87.0879 113.381 86.6366 113.095 86.2606 112.734C85.8845 112.359 85.5987 111.923 85.3881 111.427C85.1776 110.916 85.0723 110.374 85.0723 109.773V109.743C85.0723 109.172 85.1776 108.631 85.3881 108.12C85.5987 107.624 85.8996 107.173 86.2756 106.797C86.6517 106.421 87.1029 106.121 87.6143 105.895C88.1258 105.67 88.6974 105.564 89.299 105.564C89.6601 105.564 89.991 105.595 90.2768 105.64C90.5626 105.685 90.8484 105.76 91.1041 105.85C91.3598 105.94 91.6005 106.06 91.811 106.196C92.0216 106.331 92.2473 106.496 92.4578 106.662L91.3447 108.015C91.1943 107.879 91.0439 107.774 90.8784 107.669C90.728 107.564 90.5626 107.488 90.3971 107.413C90.2316 107.338 90.0511 107.293 89.8556 107.248C89.6601 107.203 89.4495 107.188 89.2238 107.188C88.908 107.188 88.6071 107.248 88.3213 107.383C88.0355 107.519 87.7949 107.699 87.5843 107.924C87.3737 108.15 87.2082 108.42 87.0879 108.721C86.9675 109.022 86.9074 109.352 86.9074 109.698V109.728C86.9074 110.104 86.9675 110.435 87.0879 110.75C87.2082 111.066 87.3737 111.336 87.5993 111.562C87.8249 111.787 88.0806 111.968 88.3664 112.103C88.6522 112.238 88.9832 112.298 89.3442 112.298C90.006 112.298 90.5626 112.133 91.0138 111.817V110.66H89.2238V109.127H92.7286V112.629C92.3074 112.975 91.8261 113.276 91.2545 113.531C90.713 113.787 90.0511 113.907 89.3141 113.907Z" fill="black"/>
<path d="M94.7582 105.729H98.4435C99.4663 105.729 100.249 106 100.79 106.541C101.256 107.007 101.482 107.608 101.482 108.375V108.405C101.482 109.051 101.316 109.593 101.001 109.998C100.685 110.404 100.264 110.705 99.7521 110.9L101.723 113.771H99.6468L97.917 111.201H97.8869H96.5181V113.771H94.7432V105.729H94.7582ZM98.3231 109.638C98.7594 109.638 99.0903 109.532 99.3309 109.322C99.5716 109.112 99.6769 108.841 99.6769 108.495V108.465C99.6769 108.089 99.5566 107.789 99.3009 107.608C99.0602 107.413 98.7142 107.323 98.278 107.323H96.5181V109.638H98.3231Z" fill="black"/>
<path d="M106.146 105.67H107.786L111.245 113.772H109.395L108.658 111.968H105.259L104.492 113.772H102.687L106.146 105.67ZM108.011 110.405L106.943 107.789L105.875 110.405H108.011Z" fill="black"/>
<path d="M112.765 105.729H116.059C116.54 105.729 116.976 105.79 117.352 105.925C117.728 106.06 118.059 106.256 118.315 106.496C118.586 106.737 118.781 107.037 118.932 107.383C119.082 107.729 119.142 108.104 119.142 108.51V108.54C119.142 109.006 119.052 109.412 118.887 109.773C118.721 110.119 118.481 110.419 118.195 110.66C117.909 110.9 117.548 111.081 117.157 111.201C116.766 111.321 116.345 111.381 115.878 111.381H114.525V113.801H112.765V105.729ZM115.954 109.788C116.405 109.788 116.751 109.668 116.991 109.442C117.232 109.217 117.367 108.916 117.367 108.57V108.54C117.367 108.135 117.232 107.834 116.976 107.638C116.721 107.428 116.375 107.323 115.923 107.323H114.555V109.788H115.954Z" fill="black"/>
<path d="M120.752 105.729H122.527V108.916H125.791V105.729H127.566V113.786H125.791V110.555H122.527V113.786H120.752V105.729Z" fill="black"/>
<path d="M132.078 110.6L128.979 105.729H131.055L132.981 108.961L134.936 105.729H136.952L133.853 110.57V113.771H132.078V110.6Z" fill="black"/>
<path d="M141.342 13.6941C135.596 9.96629 129.249 7.1855 122.51 5.57715L148.021 29.7174L141.342 13.6941Z" fill="url(#paint2_linear_1363_2)"/>
<path d="M161.379 34.2422L161.289 59.3896L161.409 59.6752L161.289 59.7353L161.198 85.3336L172.179 70.4376C171.773 57.0447 167.847 44.6288 161.379 34.2422Z" fill="url(#paint3_linear_1363_2)"/>
<path d="M160.596 33.0391C155.783 25.6587 149.661 19.3606 142.591 14.5205L160.37 57.2245L160.596 33.0391Z" fill="url(#paint4_linear_1363_2)"/>
<path d="M54.3402 5.57715C47.5864 7.1855 41.2537 9.95126 35.5077 13.6941L28.8291 29.7174L54.3402 5.57715Z" fill="url(#paint5_linear_1363_2)"/>
<path d="M15.5618 59.7203L15.4415 59.6601L15.5618 59.3745L15.4716 34.2422C8.98851 44.6288 5.07761 57.0447 4.68652 70.4226L15.6671 85.3186L15.5618 59.7203Z" fill="url(#paint6_linear_1363_2)"/>
<path d="M34.2435 14.5205C27.1738 19.3456 21.0517 25.6587 16.2383 33.0391L16.4489 57.2395L34.2435 14.5205Z" fill="url(#paint7_linear_1363_2)"/>
<path d="M172.208 72.2861L133.204 124.37H133.159L132.873 124.836H132.858H149.044H150.066C163.619 112.239 172.223 93.5404 172.223 72.6619C172.208 72.5417 172.208 72.4064 172.208 72.2861Z" fill="url(#paint8_linear_1363_2)"/>
<path d="M43.7055 124.37H43.6453L4.6416 72.2861C4.6416 72.4064 4.6416 72.5417 4.6416 72.6619C4.6416 93.5404 13.2456 112.239 26.7984 124.836H29.1449H44.0063L43.7055 124.37Z" fill="url(#paint9_linear_1363_2)"/>
<path d="M248.424 90.8047C248.244 90.8798 248.063 90.97 247.883 91.0602C247.522 91.2406 247.146 91.451 246.755 91.6765C246.333 91.917 245.897 92.1876 245.446 92.4732C240.407 95.7049 234.149 101.266 234.149 101.266C234.149 101.266 237.654 102.364 240.798 101.282C240.798 101.282 245.641 96.4865 248.68 94.9834C248.695 94.9834 248.71 94.9684 248.725 94.9684C248.725 94.7429 248.74 94.5325 248.74 94.307C248.74 93.9312 248.725 93.5704 248.71 93.1947C248.68 92.6235 248.62 92.0673 248.545 91.5112" fill="#087CC1"/>
<path d="M248.168 89.5277C248.153 89.4976 248.153 89.4675 248.138 89.4224C248.123 89.3623 248.108 89.3172 248.093 89.2571C248.063 89.1519 248.033 89.0617 248.018 88.9565C247.973 88.7761 247.928 88.5957 247.868 88.4153C247.837 88.3101 247.807 88.2199 247.777 88.1147C247.762 88.0546 247.747 87.9945 247.732 87.9343C247.657 87.7089 247.582 87.4684 247.491 87.2429C247.476 87.2128 247.476 87.1978 247.461 87.1677C247.401 87.0024 247.341 86.8521 247.281 86.6867C247.221 86.5515 247.176 86.4162 247.115 86.2809C247.085 86.1907 247.04 86.1005 246.995 86.0103C245.145 81.7414 241.866 78.194 237.639 76.0746C234.856 74.6467 231.713 73.835 228.358 73.835C217.979 73.835 209.435 81.6062 208.187 91.632C208.187 91.6471 208.187 91.6621 208.187 91.6621C208.157 91.9327 208.127 92.1882 208.097 92.4588C208.097 92.5039 208.082 92.564 208.082 92.6091C208.067 92.7894 208.052 92.9849 208.052 93.1803C208.052 93.3005 208.037 93.4208 208.037 93.541C208.037 93.5711 208.037 93.6011 208.037 93.6162C208.021 93.8266 208.021 94.022 208.021 94.2325C208.021 105.461 217.137 114.57 228.373 114.57C238.797 114.57 247.371 106.739 248.574 96.6525C248.153 96.8178 247.747 97.0132 247.326 97.2537C245.476 98.3059 243.821 99.764 242.362 101.372C240.001 103.973 237.639 105.957 234.315 106.919C230.539 108.001 225.816 107.926 222.281 105.912C221.649 105.551 221.018 105.1 220.476 104.604C220.266 104.409 219.859 104.078 219.814 103.747C219.664 102.65 223.048 103.732 223.454 103.837C225.139 104.273 226.824 104.86 228.433 105.536C230.87 106.558 233.533 106.693 235.939 105.566C236.977 105.07 237.94 104.379 238.797 103.552C238.978 103.371 239.519 102.845 239.7 102.5C232.344 103.387 234.751 102.274 217.648 94.6233C214.956 93.4208 212.354 92.8195 209.887 92.6692C210.654 83.1393 218.656 75.6237 228.373 75.6237C236.436 75.6237 243.325 80.7945 245.867 87.9945C244.137 88.2199 242.498 88.8061 241.46 89.3773C239.504 90.4596 229.095 98.9974 229.095 98.9974L233.066 100.801C233.066 100.801 234.586 99.1627 238.376 96.2917C241.46 93.9619 243.746 92.3235 245.461 91.1961C245.867 90.9256 246.228 90.6851 246.574 90.4746C247.191 90.0988 247.732 89.7832 248.168 89.5277Z" fill="#087CC1"/>
<path d="M232.571 91.3152C226.93 95.1783 224.719 96.952 224.719 96.952C224.719 96.952 227.306 98.2146 228.118 98.6054L236.436 91.6609C236.436 91.6609 239.67 89.286 240.979 88.5946C240.979 88.5946 237.399 88.0234 232.571 91.3152Z" fill="#087CC1"/>
<path d="M224.809 87.7686C224.704 87.8136 224.613 87.8437 224.508 87.8888C224.162 88.0391 223.801 88.1744 223.455 88.3397L223.26 88.4299C223.305 89.918 223.214 92.6838 222.222 95.2842L223.651 96.0207C224.839 92.9243 224.869 89.407 224.809 87.7686Z" fill="#087CC1"/>
<path d="M223.229 87.4826C223.741 87.2571 224.267 87.0467 224.778 86.8362C225.681 86.4605 226.553 86.0546 227.336 85.4383C228.539 84.5064 229.426 83.349 229.908 81.906C230.299 80.7486 230.63 79.5611 230.991 78.3736C230.946 78.3586 230.916 78.3435 230.87 78.3135C222.357 80.9139 223.184 87.4976 223.184 87.4976C223.199 87.4976 223.214 87.4976 223.229 87.4826Z" fill="#087CC1"/>
<path d="M222.266 87.3481C221.935 86.2057 221.303 85.1686 220.31 84.2817C219.513 83.5753 218.671 82.8838 217.844 82.1924C217.813 82.2074 217.783 82.2375 217.753 82.2525C216.851 88.8362 222.476 90.8655 222.476 90.8655C222.461 89.693 222.612 88.5356 222.266 87.3481Z" fill="#087CC1"/>
<path d="M226.779 118.868C225.801 118.748 224.809 118.718 223.816 118.823C222.252 118.973 220.838 119.454 219.454 120.146C217.995 120.867 216.46 121.469 214.896 121.889C213.031 122.401 210.97 122.19 209.21 121.363C209.105 121.318 209 121.454 209.09 121.529C209.962 122.416 211.151 123.167 213.016 123.798C215.182 124.52 216.987 124.159 218.25 123.798C219.845 123.348 221.259 122.25 222.628 121.363C223.515 120.777 224.357 120.011 225.425 119.755C225.907 119.635 226.418 119.665 226.945 119.74C227.441 119.53 227.937 119.364 228.464 119.214C227.907 119.064 227.366 118.943 226.779 118.868Z" fill="#087CC1"/>
<path d="M228.824 120.297C230.735 121.049 232.389 122.537 233.878 123.905C234.059 124.07 235.759 125.723 236.12 126.144C236.165 126.189 236.225 126.189 236.27 126.144L237.458 124.957C237.503 124.912 237.503 124.836 237.458 124.806C236.992 124.37 234.54 122.191 231.953 120.733C231.306 120.372 230.644 120.041 229.983 119.756C229.456 119.831 228.945 119.981 228.448 120.147C228.569 120.207 228.704 120.252 228.824 120.297Z" fill="#087CC1"/>
<path d="M213.557 120.567C216.369 120.387 219.543 119.41 220.596 119.064C220.701 119.034 220.686 118.884 220.581 118.854C216.67 117.892 214.685 115.562 213.557 114.254C212.323 112.826 210.984 111.909 210.413 111.549C210.323 111.488 210.217 111.579 210.262 111.684C210.638 112.586 211.797 115.231 212.85 116.434C213.587 117.291 214.594 117.877 215.286 118.238C215.392 118.298 215.347 118.463 215.226 118.433C212.308 117.937 211.15 118.207 208.352 117.877C206.081 117.606 204.396 116.554 203.689 116.013C203.599 115.938 203.478 116.058 203.539 116.148C203.779 116.539 204.291 117.215 205.299 118.223C207.058 120.026 209.45 120.823 213.557 120.567Z" fill="#087CC1"/>
<path d="M212.024 117.201C212.129 117.216 212.204 117.095 212.129 117.02C210.971 115.878 209.873 113.819 208.865 110.662C208.038 108.016 206.338 105.912 205.616 105.1C205.541 105.01 205.405 105.085 205.435 105.206C205.721 106.258 205.962 108.392 206.353 110.497C206.819 113.007 209.091 115.126 209.467 115.472C209.151 115.201 207.451 113.803 203.826 112.12C200.667 110.662 198.892 108.888 198.17 108.077C198.095 107.986 197.945 108.077 197.99 108.182C198.26 108.888 198.907 110.241 200.321 112.12C202.487 115.006 205.451 116.269 207.421 116.449C208.97 116.569 211.151 117.02 212.024 117.201Z" fill="#087CC1"/>
<path d="M201.403 109.414C202.817 110.03 204.773 111.368 205.585 111.939C205.675 112 205.796 111.909 205.735 111.804C204.968 110.286 204.246 107.701 204.306 104.424C204.367 101.718 203.569 99.253 203.178 98.2159C203.133 98.1106 202.983 98.1257 202.968 98.2459C202.892 99.3432 202.486 101.418 202.14 103.492C201.839 105.266 202.366 106.904 202.862 107.956C203.404 108.753 203.554 109.189 203.554 109.189C203.554 109.189 203.208 108.723 202.862 107.956C202.261 107.084 201.208 105.777 199.358 104.168C196.861 101.974 195.988 99.8242 195.687 98.757C195.657 98.6367 195.477 98.6668 195.477 98.7871C195.462 99.5837 195.582 101.012 196.274 103.131C197.432 106.543 199.583 108.603 201.403 109.414Z" fill="#087CC1"/>
<path d="M202.877 107.956C203.238 108.723 203.569 109.189 203.569 109.189C203.569 109.189 203.418 108.753 202.877 107.956Z" fill="#087CC1"/>
<path d="M201.013 104.483C201.088 104.543 201.193 104.498 201.193 104.392C201.133 103.566 201.073 100.89 202.291 97.959C203.419 95.2083 203.495 92.1118 203.48 91.0446C203.48 90.9394 203.329 90.8943 203.284 90.9995C202.788 91.8713 201.449 94.2012 201.163 94.6371C200.802 95.1782 200.261 96.4258 199.99 97.6283C199.839 98.3198 199.824 99.1014 199.839 99.7477C199.839 99.883 199.659 99.898 199.629 99.7778C199.358 98.6955 198.997 97.2676 198.741 96.4859C198.395 95.4187 197.658 94.1411 197.222 92.8033C196.786 91.5106 196.485 90.6237 196.35 89.7669C196.335 89.6467 196.169 89.6467 196.139 89.7669C195.808 91.4054 195.116 95.8697 196.861 98.9811C198.696 102.288 200.441 103.972 201.013 104.483Z" fill="#087CC1"/>
<path d="M198.921 94.0657C199.041 94.5016 199.177 95.1781 199.282 95.7492C199.297 95.8545 199.447 95.8695 199.492 95.7643C200.29 93.72 202.486 90.5183 202.546 90.4282C204.697 87.7075 205.163 85.558 205.253 84.6561C205.269 84.5509 205.118 84.4908 205.058 84.581C204.727 85.1071 203.96 86.1142 202.486 87.2415C201.027 88.3538 200.275 90.0073 199.929 90.9693C199.884 91.0895 199.718 91.0595 199.718 90.9242C199.748 89.7067 199.748 87.3618 199.432 85.2574C199.161 83.4085 199.417 82.0407 199.658 81.2741C199.688 81.1538 199.538 81.0787 199.477 81.1839C199.192 81.5747 198.816 82.1008 198.545 82.5217C197.928 83.5138 197.612 84.7614 197.432 85.9037C197.236 87.0461 197.221 88.2336 197.447 89.3609C197.763 90.9993 198.47 92.4874 198.921 94.0657Z" fill="#087CC1"/>
<path d="M200.305 87.8431C200.305 87.9483 200.425 87.9784 200.5 87.9032C200.892 87.4372 201.899 86.2949 203.298 85.0773C205.073 83.5592 207.901 81.7404 208.067 78.7792C208.067 78.674 207.931 78.6289 207.871 78.704C207.54 79.17 206.788 80.0869 205.404 81.064C203.749 82.2364 202.682 83.2285 201.975 84.3709C201.914 84.4761 201.749 84.4009 201.779 84.2957C202.08 83.0631 202.636 80.7032 202.802 79.9817C203.027 78.9596 203.404 77.5015 204.366 76.5245C204.441 76.4493 204.366 76.3141 204.246 76.3441C203.479 76.6448 202.02 77.3663 201.207 78.7792C200.064 80.7483 200.26 83.7997 200.26 84.2506C200.26 84.6264 200.29 87.0164 200.305 87.8431Z" fill="#087CC1"/>
<path d="M203.599 81.4404C204.772 80.3431 207.073 78.6295 208.141 77.1414C209.345 75.4579 210.608 73.7594 211.075 73.1281C211.135 73.0529 211.06 72.9327 210.954 72.9627C210.368 73.1431 208.939 73.6842 206.803 75.1122C204.396 76.7206 203.599 80.268 203.418 81.3502C203.403 81.4404 203.524 81.5156 203.599 81.4404Z" fill="#087CC1"/>
<path d="M247.582 121.408C245.822 122.235 243.762 122.445 241.896 121.934C240.317 121.498 238.798 120.912 237.339 120.19C235.94 119.499 234.541 119.018 232.976 118.868C231.999 118.777 230.991 118.792 230.013 118.913C229.487 118.973 228.96 119.093 228.464 119.228C228.975 119.379 229.487 119.559 229.983 119.769C230.464 119.709 230.946 119.694 231.382 119.799C232.45 120.055 233.292 120.822 234.18 121.408C235.549 122.31 236.978 123.392 238.557 123.843C239.821 124.204 241.626 124.564 243.792 123.843C245.657 123.227 246.845 122.46 247.718 121.573C247.793 121.498 247.687 121.363 247.582 121.408Z" fill="#087CC1"/>
<path d="M224.853 120.778C222.265 122.236 219.814 124.416 219.347 124.851C219.302 124.897 219.302 124.957 219.347 125.002L220.536 126.189C220.581 126.234 220.656 126.234 220.686 126.189C221.047 125.768 222.747 124.115 222.927 123.95C224.416 122.582 226.071 121.094 227.981 120.342C228.132 120.282 228.297 120.222 228.448 120.162C227.981 119.996 227.455 119.846 226.943 119.756C226.221 120.041 225.53 120.402 224.853 120.778Z" fill="#087CC1"/>
<path d="M226.944 119.756C227.456 119.846 227.982 119.981 228.449 120.161C228.93 119.996 229.456 119.846 229.983 119.771C229.486 119.56 228.975 119.38 228.464 119.229C227.937 119.365 227.426 119.545 226.944 119.756Z" fill="#087CC1"/>
<path d="M253.132 116.043C252.425 116.569 250.741 117.636 248.469 117.907C245.671 118.237 244.528 117.967 241.595 118.463C241.475 118.478 241.415 118.312 241.535 118.267C242.227 117.922 243.22 117.32 243.972 116.464C245.01 115.276 246.183 112.616 246.559 111.714C246.604 111.623 246.499 111.533 246.408 111.578C245.837 111.939 244.498 112.871 243.265 114.284C242.137 115.592 240.136 117.922 236.24 118.884C236.135 118.914 236.135 119.049 236.225 119.094C237.278 119.44 240.452 120.417 243.265 120.597C247.356 120.853 249.748 120.056 251.553 118.252C252.561 117.245 253.072 116.569 253.313 116.178C253.343 116.088 253.222 115.968 253.132 116.043Z" fill="#087CC1"/>
<path d="M258.623 108.091C257.901 108.902 256.126 110.676 252.967 112.134C249.327 113.818 247.627 115.215 247.327 115.486C247.703 115.14 249.974 113.021 250.44 110.511C250.831 108.406 251.072 106.272 251.358 105.22C251.388 105.114 251.253 105.039 251.177 105.114C250.455 105.941 248.756 108.046 247.928 110.676C246.936 113.833 245.822 115.892 244.664 117.034C244.589 117.109 244.664 117.23 244.77 117.215C245.642 117.019 247.823 116.583 249.372 116.433C251.358 116.253 254.321 114.99 256.472 112.104C257.886 110.21 258.533 108.872 258.804 108.166C258.849 108.076 258.713 108 258.623 108.091Z" fill="#087CC1"/>
<path d="M261.3 98.8017C261.3 98.6815 261.119 98.6514 261.089 98.7716C260.788 99.8389 259.916 102.003 257.419 104.183C255.569 105.806 254.516 107.099 253.914 107.971C253.553 108.737 253.222 109.203 253.222 109.203C253.222 109.203 253.373 108.767 253.914 107.971C254.41 106.919 254.922 105.28 254.636 103.507C254.29 101.432 253.884 99.3579 253.809 98.2606C253.794 98.1403 253.643 98.1253 253.598 98.2305C253.207 99.2677 252.41 101.718 252.47 104.438C252.53 107.715 251.823 110.301 251.041 111.819C250.996 111.924 251.101 112.014 251.191 111.954C252.004 111.383 253.959 110.06 255.373 109.429C257.193 108.617 259.344 106.558 260.472 103.146C261.179 101.041 261.3 99.5984 261.3 98.8017Z" fill="#087CC1"/>
<path d="M253.916 107.985C253.374 108.782 253.224 109.218 253.224 109.218C253.224 109.218 253.555 108.767 253.916 107.985Z" fill="#087CC1"/>
<path d="M257.178 99.7935C257.148 99.9138 256.968 99.8988 256.968 99.7635C256.998 99.1021 256.968 98.3355 256.817 97.6441C256.547 96.4415 256.005 95.194 255.644 94.6528C255.358 94.2169 254.02 91.8871 253.523 91.0152C253.463 90.9251 253.328 90.9551 253.328 91.0603C253.313 92.1276 253.388 95.224 254.516 97.9747C255.734 100.906 255.659 103.596 255.614 104.408C255.614 104.498 255.719 104.558 255.795 104.498C256.366 103.987 258.111 102.304 259.976 98.9668C261.706 95.8553 261.029 91.391 260.698 89.7526C260.668 89.6324 260.503 89.6474 260.488 89.7526C260.352 90.6094 260.051 91.5113 259.615 92.7889C259.164 94.1267 258.442 95.4044 258.096 96.4716C257.81 97.2983 257.449 98.7113 257.178 99.7935Z" fill="#087CC1"/>
<path d="M254.321 87.2869C252.846 86.1596 252.079 85.1525 251.748 84.6264C251.688 84.5362 251.538 84.5813 251.553 84.7015C251.643 85.6034 252.109 87.7529 254.26 90.4736C254.321 90.5788 256.517 93.7805 257.314 95.8097C257.359 95.9149 257.494 95.8999 257.524 95.7947C257.63 95.2235 257.75 94.5471 257.885 94.1111C258.337 92.5178 259.044 91.0448 259.375 89.4214C259.6 88.279 259.585 87.1066 259.39 85.9642C259.194 84.8218 258.878 83.5742 258.277 82.5821C258.006 82.1462 257.645 81.6352 257.344 81.2443C257.269 81.1542 257.118 81.2293 257.163 81.3345C257.404 82.1011 257.66 83.469 257.389 85.3178C257.073 87.4222 257.073 89.7671 257.103 90.9846C257.103 91.1049 256.938 91.1349 256.893 91.0297C256.532 90.0527 255.765 88.3992 254.321 87.2869Z" fill="#087CC1"/>
<path d="M253.99 80.0424C254.156 80.7639 254.712 83.1088 255.013 84.3564C255.043 84.4767 254.878 84.5368 254.818 84.4316C254.096 83.2892 253.028 82.2971 251.388 81.1247C250.004 80.1476 249.252 79.2307 248.921 78.7648C248.861 78.6746 248.726 78.7197 248.726 78.8249C248.891 81.7861 251.719 83.5898 253.494 85.123C254.908 86.3405 255.901 87.4829 256.292 87.9489C256.352 88.0241 256.472 87.979 256.487 87.8888C256.502 87.047 256.547 84.6721 256.547 84.2963C256.547 83.8454 256.743 80.794 255.6 78.8249C254.787 77.427 253.328 76.6904 252.561 76.3898C252.456 76.3447 252.366 76.48 252.441 76.5702C253.389 77.5623 253.765 79.0203 253.99 80.0424Z" fill="#087CC1"/>
<path d="M248.65 77.1869C249.718 78.675 252.019 80.3885 253.193 81.4858C253.268 81.561 253.388 81.4858 253.373 81.3956C253.193 80.3134 252.395 76.766 249.989 75.1576C247.853 73.7297 246.424 73.2036 245.837 73.0082C245.732 72.9781 245.657 73.0833 245.717 73.1735C246.183 73.7898 247.447 75.5034 248.65 77.1869Z" fill="#087CC1"/>
<path d="M326.913 95.8409C327.109 96.8179 327.214 97.8401 327.214 98.8772C327.214 103.176 325.469 107.084 322.642 109.91C319.814 112.736 315.918 114.48 311.601 114.48C307.284 114.48 303.388 112.736 300.56 109.91C297.732 107.084 295.987 103.191 295.987 98.8772C295.987 94.5783 297.732 90.6701 300.56 87.8443C301.508 86.8973 302.561 86.0856 303.719 85.4092V92.3987C302.26 94.1574 301.387 96.4121 301.387 98.8772C301.387 101.688 302.531 104.243 304.381 106.092C306.231 107.941 308.773 109.083 311.601 109.083C314.414 109.083 316.971 107.941 318.821 106.092C320.671 104.243 321.814 101.703 321.814 98.8772C321.814 97.825 321.649 96.8029 321.348 95.8409H326.913Z" fill="#EFBA60"/>
<path d="M337.833 95.8407C337.954 96.8328 338.014 97.8549 338.014 98.8771C338.014 106.167 335.051 112.766 330.282 117.531C325.499 122.311 318.896 125.257 311.615 125.257C304.335 125.257 297.717 122.296 292.948 117.531C288.165 112.751 285.217 106.152 285.217 98.8771C285.217 91.5869 288.18 84.9881 292.948 80.2232C295.927 77.247 299.627 74.9773 303.748 73.6846V79.4115C301.116 80.4787 298.755 82.057 296.769 84.0261C292.963 87.829 290.617 93.075 290.617 98.862C290.617 104.664 292.963 109.91 296.769 113.698C300.575 117.501 305.824 119.846 311.615 119.846C317.407 119.846 322.671 117.501 326.462 113.698C330.267 109.895 332.614 104.649 332.614 98.862C332.614 97.8249 332.539 96.8178 332.388 95.8257H337.833V95.8407Z" fill="#CC7C4A"/>
<mask id="mask1_1363_2" style="mask-type:luminance" maskUnits="userSpaceOnUse" x="309" y="65" width="24" height="38">
<path d="M331.456 65.0107C331.05 65.0107 330.659 65.0107 330.253 65.0258H330.223C317.091 65.3114 309.134 70.1214 309.134 83.7849V97.9444C309.134 98.4705 309.134 99.0116 309.134 99.5527C309.134 99.6128 309.134 99.673 309.134 99.7481C309.134 101.101 310.232 102.213 311.601 102.213C312.954 102.213 314.068 101.116 314.068 99.7481V99.718V90.7444C314.052 89.7974 314.052 88.8504 314.068 87.9185V87.9034C314.248 80.012 316.098 72.5565 325.454 72.5264C325.529 72.5264 325.575 72.5565 325.59 72.5865C325.605 72.6166 325.605 72.6617 325.59 72.7218C325.575 73.8792 325.409 74.9013 325.123 75.8333V75.8483C323.649 81.8308 316.534 82.3418 316.534 87.3473V89.3314C319.919 85.9945 324.07 85.5435 327.259 83.0333C330.192 80.7185 332.118 77.5018 332.118 67.8667C332.088 66.3936 332.028 65.0107 332.028 65.0107H331.621C331.576 65.0258 331.516 65.0107 331.456 65.0107Z" fill="white"/>
</mask>
<g mask="url(#mask1_1363_2)">
<path d="M290.512 83.6197L320.611 53.542L350.709 83.6197L320.611 113.682L290.512 83.6197Z" fill="url(#paint10_linear_1363_2)"/>
</g>
<path d="M354.696 95.6154C355.779 96.0363 356.952 96.2467 358.231 96.2467C359.585 96.2467 360.788 96.0062 361.856 95.5102C362.909 95.0142 363.796 94.3528 364.518 93.496C365.24 92.6392 365.767 91.6472 366.098 90.5348C366.444 89.4225 366.579 88.22 366.534 86.9724H358.366V89.663H363.12C362.984 90.1741 362.774 90.625 362.503 91.0609C362.232 91.4818 361.901 91.8576 361.51 92.1883C361.119 92.519 360.653 92.7745 360.126 92.9549C359.6 93.1353 358.998 93.2254 358.321 93.2254C357.298 93.2254 356.381 92.9849 355.569 92.519C354.756 92.053 354.109 91.3766 353.643 90.5198C353.177 89.663 352.936 88.671 352.936 87.5286C352.936 86.3712 353.177 85.3791 353.658 84.5524C354.14 83.7106 354.786 83.0793 355.614 82.6284C356.441 82.1774 357.343 81.952 358.336 81.952C359.389 81.952 360.292 82.1774 361.029 82.6284C361.766 83.0793 362.337 83.6655 362.744 84.387L365.632 82.7035C365.12 81.9369 364.518 81.2605 363.827 80.7044C363.12 80.1482 362.322 79.7123 361.42 79.3966C360.517 79.081 359.494 78.9307 358.351 78.9307C357.073 78.9307 355.884 79.1411 354.801 79.5469C353.718 79.9528 352.771 80.539 351.958 81.2906C351.161 82.0422 350.53 82.9591 350.078 84.0263C349.627 85.0935 349.401 86.266 349.401 87.5436C349.401 88.8213 349.612 89.9937 350.048 91.0609C350.484 92.1282 351.101 93.0601 351.898 93.8267C352.68 94.5783 353.613 95.1795 354.696 95.6154Z" fill="#1B4875"/>
<path d="M376.597 86.6718C376.296 87.0626 375.935 87.4985 375.514 87.9495L367.993 95.7958H381.305V92.6993H374.371L378.673 88.6259C379.365 87.9945 379.921 87.2881 380.358 86.5215C380.779 85.7549 380.989 84.9282 380.989 84.0413C380.989 83.4401 380.869 82.8388 380.628 82.2376C380.388 81.6363 380.012 81.0952 379.515 80.5991C379.019 80.1031 378.402 79.6973 377.65 79.3966C376.898 79.096 376.026 78.9307 375.033 78.9307C373.694 78.9307 372.566 79.2163 371.633 79.7724C370.716 80.3286 370.009 81.0801 369.543 82.0271C369.076 82.9741 368.836 84.0413 368.836 85.2138H372.145C372.145 84.5524 372.265 83.9662 372.491 83.4701C372.716 82.9591 373.047 82.5682 373.453 82.2977C373.875 82.0271 374.371 81.8768 374.958 81.8768C375.364 81.8768 375.725 81.9369 376.041 82.0722C376.356 82.2075 376.627 82.3879 376.838 82.5983C377.063 82.8238 377.229 83.0643 377.334 83.3499C377.44 83.6355 377.5 83.9211 377.5 84.2217C377.5 84.6426 377.424 85.0634 377.259 85.4543C377.124 85.8902 376.898 86.281 376.597 86.6718Z" fill="#1B4875"/>
<path d="M393.129 89.8126C392.964 90.504 392.738 91.0902 392.437 91.5863C392.136 92.0823 391.775 92.4581 391.369 92.7286C390.963 92.9992 390.497 93.1345 389.97 93.1345C389.459 93.1345 389.008 92.9992 388.602 92.7286C388.195 92.4581 387.834 92.0823 387.534 91.5863C387.233 91.0902 387.007 90.504 386.842 89.8126C386.691 89.1211 386.601 88.3696 386.601 87.5278C386.601 86.6861 386.676 85.9345 386.842 85.2431C387.007 84.5516 387.233 83.9654 387.534 83.4694C387.834 82.9733 388.195 82.5975 388.602 82.327C389.008 82.0564 389.474 81.9211 389.97 81.9211C390.497 81.9211 390.963 82.0564 391.369 82.327C391.775 82.5975 392.136 82.9733 392.437 83.4694C392.738 83.9654 392.964 84.5516 393.129 85.2431C393.28 85.9345 393.37 86.6861 393.37 87.5278C393.37 88.3696 393.295 89.1211 393.129 89.8126ZM393.505 80.0122C392.513 79.3057 391.339 78.96 389.985 78.96C388.677 78.96 387.519 79.3057 386.526 80.0122C385.518 80.7186 384.751 81.6957 384.179 82.9733C383.623 84.251 383.337 85.7691 383.337 87.5128C383.337 89.2564 383.623 90.7746 384.179 92.0522C384.736 93.3299 385.518 94.322 386.526 95.0134C387.534 95.7199 388.677 96.0656 389.985 96.0656C391.339 96.0656 392.513 95.7199 393.505 95.0134C394.498 94.3069 395.265 93.3299 395.822 92.0522C396.378 90.7746 396.649 89.2564 396.649 87.5128C396.649 85.7691 396.378 84.251 395.822 82.9733C395.28 81.7107 394.498 80.7186 393.505 80.0122Z" fill="#1B4875"/>
<path d="M414.533 86.9568V89.6474H419.287C419.151 90.1585 418.941 90.6094 418.67 91.0453C418.399 91.4662 418.068 91.842 417.677 92.1727C417.286 92.5033 416.82 92.7589 416.293 92.9393C415.767 93.1196 415.165 93.2098 414.488 93.2098C413.465 93.2098 412.548 92.9693 411.736 92.5033C410.923 92.0374 410.276 91.361 409.81 90.5042C409.344 89.6474 409.103 88.6553 409.103 87.513C409.103 86.3555 409.344 85.3635 409.825 84.5368C410.307 83.695 410.953 83.0637 411.781 82.6127C412.608 82.1618 413.51 81.9363 414.503 81.9363C415.556 81.9363 416.459 82.1618 417.196 82.6127C417.933 83.0637 418.504 83.6499 418.911 84.3714L421.799 82.6879C421.287 81.9213 420.685 81.2449 419.994 80.6887C419.302 80.1326 418.489 79.6967 417.587 79.381C416.684 79.0654 415.661 78.915 414.518 78.915C413.24 78.915 412.051 79.1255 410.968 79.5313C409.885 79.9372 408.938 80.5234 408.125 81.275C407.328 82.0265 406.696 82.9434 406.245 84.0107C405.794 85.0779 405.568 86.2503 405.568 87.528C405.568 88.8056 405.779 89.9781 406.215 91.0453C406.651 92.1125 407.268 93.0445 408.065 93.8111C408.863 94.5777 409.795 95.1789 410.878 95.6148C411.961 96.0357 413.134 96.2461 414.413 96.2461C415.767 96.2461 416.97 96.0056 418.038 95.5096C419.091 95.0136 419.979 94.3522 420.701 93.4954C421.423 92.6386 421.949 91.6466 422.28 90.5342C422.626 89.4219 422.761 88.2194 422.716 86.9718H414.533V86.9568Z" fill="#1B4875"/>
<path d="M435.456 92.8485H428.852V79.2451H425.468V95.7946H435.456V92.8485Z" fill="#1B4875"/>
<path d="M448.994 90.3388C448.558 91.1505 447.956 91.7969 447.189 92.2779C446.422 92.7438 445.519 92.9844 444.497 92.9844C443.474 92.9844 442.571 92.7438 441.804 92.2779C441.037 91.8119 440.42 91.1656 439.984 90.3388C439.548 89.5121 439.322 88.5802 439.322 87.528C439.322 86.4758 439.548 85.5288 439.984 84.7171C440.42 83.8904 441.037 83.2441 441.804 82.7781C442.571 82.3121 443.474 82.0716 444.497 82.0716C445.534 82.0716 446.452 82.3121 447.219 82.7781C447.986 83.2441 448.588 83.8904 449.024 84.7171C449.445 85.5288 449.656 86.4758 449.656 87.528C449.656 88.5802 449.43 89.5121 448.994 90.3388ZM450.754 81.3351C449.957 80.5685 449.024 79.9672 447.971 79.5464C446.918 79.1255 445.76 78.915 444.497 78.915C443.248 78.915 442.09 79.1255 441.037 79.5464C439.969 79.9672 439.051 80.5535 438.254 81.3351C437.472 82.1017 436.855 83.0186 436.404 84.0708C435.968 85.123 435.742 86.2804 435.742 87.528C435.742 88.7756 435.953 89.933 436.374 90.9852C436.795 92.0524 437.412 92.9693 438.194 93.766C438.976 94.5476 439.909 95.1639 440.977 95.5998C442.045 96.0357 443.218 96.2461 444.497 96.2461C445.775 96.2461 446.948 96.0357 448.016 95.5998C449.084 95.1639 450.002 94.5626 450.784 93.766C451.566 92.9844 452.168 92.0524 452.604 90.9852C453.04 89.918 453.251 88.7605 453.251 87.528C453.251 86.2654 453.04 85.1079 452.604 84.0708C452.153 83.0186 451.551 82.1017 450.754 81.3351Z" fill="#274271"/>
<path d="M464.051 92.0672C463.795 92.428 463.434 92.6985 462.968 92.8639C462.516 93.0292 462.005 93.1194 461.433 93.1194H459.252V88.3845H462.125C462.291 88.3996 462.456 88.4296 462.607 88.4597C462.968 88.5499 463.283 88.6852 463.569 88.8806C463.84 89.076 464.051 89.3165 464.201 89.6171C464.351 89.9027 464.427 90.2635 464.427 90.6693C464.427 91.2405 464.306 91.7065 464.051 92.0672ZM459.252 81.9511H461.072C461.809 81.9511 462.396 82.1165 462.832 82.4472C463.268 82.7779 463.479 83.2589 463.479 83.8902C463.479 84.296 463.374 84.6568 463.178 84.9574C462.983 85.258 462.697 85.4835 462.336 85.6488C461.975 85.7992 461.554 85.8893 461.057 85.8893H459.237V81.9511H459.252ZM467.405 88.9858C467.059 88.3996 466.608 87.9186 466.021 87.5578C465.555 87.2722 465.058 87.0317 464.502 86.8664V86.8513C465.239 86.5507 465.826 86.1298 466.262 85.5737C466.728 84.9724 466.969 84.2509 466.969 83.4242C466.969 82.4772 466.728 81.6956 466.262 81.0793C465.795 80.463 465.134 79.9971 464.291 79.6964C463.449 79.3958 462.486 79.2305 461.388 79.2305H455.883V95.7799H461.749C462.983 95.7799 464.066 95.6146 464.983 95.2839C465.916 94.9532 466.638 94.4422 467.149 93.7507C467.661 93.0593 467.916 92.1724 467.916 91.0751C467.916 90.2785 467.736 89.572 467.405 88.9858Z" fill="#1B4875"/>
<path d="M477.062 84.6114L479.123 89.3613H475.001L477.062 84.6114ZM479.89 92.0369L481.635 95.7947H485.47L477.077 78.2832L468.684 95.7947H472.489L474.219 92.0369H479.89Z" fill="#1B4875"/>
<path d="M497.248 92.8485H490.644V79.2451H487.26V95.7946H497.248V92.8485Z" fill="#1B4875"/>
<path d="M353.717 103.16H350.333V119.71H360.321V116.764H353.717V103.16Z" fill="#1B4875"/>
<path d="M367.527 113.276L369.603 108.526L371.663 113.276H367.527ZM361.194 119.71H365L366.73 115.952H372.416L374.16 119.71H377.996L369.603 102.198L361.194 119.71Z" fill="#1B4875"/>
<path d="M391.564 113.427L379.786 102.334V119.71H383.05V109.459L394.828 120.537V103.161H391.564V113.427Z" fill="#1B4875"/>
<path d="M408.847 113.787C408.576 114.434 408.185 114.975 407.704 115.411C407.222 115.832 406.651 116.147 406.004 116.343C405.357 116.538 404.665 116.643 403.943 116.643H401.882V106.242H403.943C404.665 106.242 405.357 106.347 406.004 106.542C406.651 106.738 407.222 107.053 407.704 107.474C408.185 107.895 408.576 108.436 408.847 109.098C409.118 109.759 409.268 110.541 409.268 111.457C409.268 112.344 409.133 113.141 408.847 113.787ZM408.621 104.182C407.328 103.506 405.808 103.16 404.064 103.16H401.882H400.604H398.423V119.71H400.604H401.882H404.064C405.793 119.71 407.313 119.364 408.621 118.688C409.93 118.011 410.938 117.049 411.66 115.817C412.382 114.584 412.743 113.111 412.743 111.427C412.743 109.744 412.382 108.286 411.66 107.038C410.923 105.821 409.915 104.859 408.621 104.182Z" fill="#1B4875"/>
<path d="M425.89 103.16H422.46V119.71H425.89V103.16Z" fill="#1B4875"/>
<path d="M441.247 113.427L429.469 102.334V119.71H432.733V109.459L444.511 120.537V103.161H441.247V113.427Z" fill="#1B4875"/>
<path d="M451.536 103.16H448.106V119.71H451.536V103.16Z" fill="#1B4875"/>
<path d="M453.461 106.212H457.898V119.71H461.283V106.212H465.765V103.16H453.461V106.212Z" fill="#1B4875"/>
<path d="M471.105 103.16H467.676V119.71H471.105V103.16Z" fill="#1B4875"/>
<path d="M479.228 113.276L481.304 108.526L483.364 113.276H479.228ZM472.91 119.71H476.716L478.446 115.952H484.131L485.876 119.71H489.712L481.319 102.198L472.91 119.71Z" fill="#1B4875"/>
<path d="M488.192 106.212H492.63V119.71H496.014V106.212H500.482V103.16H488.192V106.212Z" fill="#1B4875"/>
<path d="M505.837 103.16H502.407V119.71H505.837V103.16Z" fill="#1B4875"/>
<path d="M516.035 113.938L511.538 103.16H507.627L516.035 120.687L524.429 103.16H520.503L516.035 113.938Z" fill="#1B4875"/>
<path d="M529.498 103.16H528.4H526.234V119.71H528.4H529.498H536.749V116.854H529.498V112.329H536.282V109.518H529.498V106.016H536.749V103.16H529.498Z" fill="#1B4875"/>
<path d="M273.288 72.7061V125.962" stroke="#087CC1" stroke-width="0.6"/>
<path d="M199.382 48.1895V34.5575H201.11V48.1895H199.382ZM212.798 48.1895H211.109V42.5831C211.109 41.5207 210.942 40.7463 210.61 40.2599C210.29 39.7607 209.797 39.5111 209.131 39.5111C208.67 39.5111 208.21 39.6263 207.749 39.8567C207.301 40.0871 206.898 40.4007 206.539 40.7975C206.194 41.1815 205.944 41.6295 205.79 42.1415V48.1895H204.101V38.1671H205.637V40.3175C205.906 39.8439 206.251 39.4343 206.674 39.0887C207.096 38.7431 207.576 38.4743 208.114 38.2823C208.651 38.0903 209.214 37.9943 209.803 37.9943C210.379 37.9943 210.859 38.1031 211.243 38.3207C211.64 38.5255 211.947 38.8199 212.165 39.2039C212.395 39.5751 212.555 40.0167 212.645 40.5287C212.747 41.0407 212.798 41.5975 212.798 42.1991V48.1895ZM224.098 34.5575H225.557L231.125 48.1895H229.282L227.669 44.1959H221.948L220.354 48.1895H218.511L224.098 34.5575ZM227.285 42.8519L224.828 36.5543L222.293 42.8519H227.285ZM235.963 48.3815C235.131 48.3815 234.35 48.2471 233.62 47.9783C232.891 47.6967 232.263 47.2807 231.739 46.7303L232.391 45.5399C232.967 46.0775 233.543 46.4615 234.119 46.6919C234.695 46.9223 235.284 47.0375 235.886 47.0375C236.577 47.0375 237.14 46.9095 237.575 46.6535C238.011 46.3847 238.228 45.9943 238.228 45.4823C238.228 45.1111 238.113 44.8359 237.883 44.6567C237.665 44.4775 237.351 44.3303 236.942 44.2151C236.532 44.0871 236.046 43.9463 235.483 43.7927C234.791 43.5879 234.209 43.3703 233.735 43.1399C233.262 42.9095 232.903 42.6215 232.66 42.2759C232.417 41.9303 232.295 41.4951 232.295 40.9703C232.295 40.3303 232.462 39.7927 232.795 39.3575C233.127 38.9095 233.582 38.5703 234.158 38.3399C234.747 38.1095 235.412 37.9943 236.155 37.9943C236.897 37.9943 237.569 38.1095 238.171 38.3399C238.772 38.5703 239.291 38.9095 239.726 39.3575L238.958 40.5287C238.561 40.1191 238.126 39.8183 237.652 39.6263C237.179 39.4215 236.647 39.3191 236.059 39.3191C235.713 39.3191 235.374 39.3639 235.041 39.4535C234.708 39.5303 234.433 39.6775 234.215 39.8951C233.998 40.0999 233.889 40.3943 233.889 40.7783C233.889 41.0983 233.972 41.3543 234.139 41.5463C234.318 41.7255 234.574 41.8791 234.907 42.0071C235.252 42.1351 235.668 42.2759 236.155 42.4295C236.91 42.6471 237.563 42.8647 238.113 43.0823C238.676 43.2999 239.111 43.5815 239.419 43.9271C239.726 44.2727 239.879 44.7527 239.879 45.3671C239.879 46.3143 239.521 47.0567 238.804 47.5943C238.087 48.1191 237.14 48.3815 235.963 48.3815ZM245.338 48.3815C244.506 48.3815 243.725 48.2471 242.995 47.9783C242.266 47.6967 241.638 47.2807 241.114 46.7303L241.766 45.5399C242.342 46.0775 242.918 46.4615 243.494 46.6919C244.07 46.9223 244.659 47.0375 245.261 47.0375C245.952 47.0375 246.515 46.9095 246.95 46.6535C247.386 46.3847 247.603 45.9943 247.603 45.4823C247.603 45.1111 247.488 44.8359 247.258 44.6567C247.04 44.4775 246.726 44.3303 246.317 44.2151C245.907 44.0871 245.421 43.9463 244.858 43.7927C244.166 43.5879 243.584 43.3703 243.11 43.1399C242.637 42.9095 242.278 42.6215 242.035 42.2759C241.792 41.9303 241.67 41.4951 241.67 40.9703C241.67 40.3303 241.837 39.7927 242.17 39.3575C242.502 38.9095 242.957 38.5703 243.533 38.3399C244.122 38.1095 244.787 37.9943 245.53 37.9943C246.272 37.9943 246.944 38.1095 247.546 38.3399C248.147 38.5703 248.666 38.9095 249.101 39.3575L248.333 40.5287C247.936 40.1191 247.501 39.8183 247.027 39.6263C246.554 39.4215 246.022 39.3191 245.434 39.3191C245.088 39.3191 244.749 39.3639 244.416 39.4535C244.083 39.5303 243.808 39.6775 243.59 39.8951C243.373 40.0999 243.264 40.3943 243.264 40.7783C243.264 41.0983 243.347 41.3543 243.514 41.5463C243.693 41.7255 243.949 41.8791 244.282 42.0071C244.627 42.1351 245.043 42.2759 245.53 42.4295C246.285 42.6471 246.938 42.8647 247.488 43.0823C248.051 43.2999 248.486 43.5815 248.794 43.9271C249.101 44.2727 249.254 44.7527 249.254 45.3671C249.254 46.3143 248.896 47.0567 248.179 47.5943C247.462 48.1191 246.515 48.3815 245.338 48.3815ZM255.653 48.3815C254.898 48.3815 254.213 48.2471 253.599 47.9783C252.985 47.6967 252.453 47.3191 252.005 46.8455C251.557 46.3591 251.212 45.8023 250.969 45.1751C250.725 44.5479 250.604 43.8887 250.604 43.1975C250.604 42.4935 250.725 41.8279 250.969 41.2007C251.212 40.5735 251.557 40.0231 252.005 39.5495C252.453 39.0631 252.985 38.6855 253.599 38.4167C254.226 38.1351 254.911 37.9943 255.653 37.9943C256.409 37.9943 257.093 38.1351 257.708 38.4167C258.322 38.6855 258.853 39.0631 259.301 39.5495C259.762 40.0231 260.114 40.5735 260.357 41.2007C260.601 41.8279 260.722 42.4935 260.722 43.1975C260.722 43.8887 260.601 44.5479 260.357 45.1751C260.114 45.8023 259.769 46.3591 259.321 46.8455C258.873 47.3191 258.335 47.6967 257.708 47.9783C257.093 48.2471 256.409 48.3815 255.653 48.3815ZM252.332 43.2167C252.332 43.9079 252.479 44.5351 252.773 45.0983C253.081 45.6615 253.484 46.1095 253.983 46.4423C254.482 46.7623 255.039 46.9223 255.653 46.9223C256.268 46.9223 256.825 46.7559 257.324 46.4231C257.836 46.0903 258.239 45.6423 258.533 45.0791C258.841 44.5031 258.994 43.8695 258.994 43.1783C258.994 42.4871 258.841 41.8599 258.533 41.2967C258.239 40.7335 257.836 40.2855 257.324 39.9527C256.825 39.6199 256.268 39.4535 255.653 39.4535C255.039 39.4535 254.482 39.6263 253.983 39.9719C253.484 40.3047 253.081 40.7527 252.773 41.3159C252.479 41.8791 252.332 42.5127 252.332 43.2167ZM267.205 48.3815C266.449 48.3815 265.758 48.2471 265.131 47.9783C264.517 47.6967 263.979 47.3127 263.518 46.8263C263.07 46.3399 262.718 45.7831 262.462 45.1559C262.219 44.5287 262.097 43.8631 262.097 43.1591C262.097 42.2119 262.309 41.3479 262.731 40.5671C263.153 39.7863 263.749 39.1655 264.517 38.7047C265.285 38.2311 266.174 37.9943 267.185 37.9943C268.171 37.9943 269.029 38.2183 269.758 38.6663C270.501 39.1015 271.051 39.6903 271.409 40.4327L269.758 40.9511C269.502 40.4775 269.144 40.1127 268.683 39.8567C268.222 39.5879 267.71 39.4535 267.147 39.4535C266.533 39.4535 265.969 39.6135 265.457 39.9335C264.958 40.2535 264.561 40.6951 264.267 41.2583C263.973 41.8087 263.825 42.4423 263.825 43.1591C263.825 43.8631 263.973 44.5031 264.267 45.0791C264.574 45.6423 264.977 46.0903 265.477 46.4231C265.989 46.7559 266.552 46.9223 267.166 46.9223C267.563 46.9223 267.941 46.8519 268.299 46.7111C268.67 46.5703 268.99 46.3847 269.259 46.1543C269.541 45.9111 269.733 45.6487 269.835 45.3671L271.486 45.8663C271.281 46.3527 270.968 46.7879 270.545 47.1719C270.136 47.5431 269.643 47.8375 269.067 48.0551C268.504 48.2727 267.883 48.3815 267.205 48.3815ZM273.401 48.1895V38.1671H275.09V48.1895H273.401ZM273.401 36.2855V34.1735H275.09V36.2855H273.401ZM277.039 45.2903C277.039 44.6503 277.218 44.0999 277.576 43.6391C277.947 43.1655 278.453 42.8007 279.093 42.5447C279.733 42.2887 280.475 42.1607 281.32 42.1607C281.768 42.1607 282.242 42.1991 282.741 42.2759C283.24 42.3399 283.682 42.4423 284.066 42.5831V41.8535C284.066 41.0855 283.835 40.4839 283.375 40.0487C282.914 39.6007 282.261 39.3767 281.416 39.3767C280.866 39.3767 280.335 39.4791 279.823 39.6839C279.323 39.8759 278.792 40.1575 278.229 40.5287L277.615 39.3383C278.267 38.8903 278.92 38.5575 279.573 38.3399C280.226 38.1095 280.904 37.9943 281.608 37.9943C282.888 37.9943 283.899 38.3527 284.642 39.0695C285.384 39.7735 285.755 40.7591 285.755 42.0263V46.2695C285.755 46.4743 285.794 46.6279 285.871 46.7303C285.96 46.8199 286.101 46.8711 286.293 46.8839V48.1895C286.127 48.2151 285.979 48.2343 285.851 48.2471C285.736 48.2599 285.64 48.2663 285.563 48.2663C285.167 48.2663 284.866 48.1575 284.661 47.9399C284.469 47.7223 284.36 47.4919 284.335 47.2487L284.296 46.6151C283.861 47.1783 283.291 47.6135 282.587 47.9207C281.883 48.2279 281.186 48.3815 280.495 48.3815C279.829 48.3815 279.234 48.2471 278.709 47.9783C278.184 47.6967 277.775 47.3255 277.48 46.8647C277.186 46.3911 277.039 45.8663 277.039 45.2903ZM283.567 46.0007C283.72 45.8215 283.842 45.6423 283.931 45.4631C284.021 45.2711 284.066 45.1111 284.066 44.9831V43.7351C283.669 43.5815 283.253 43.4663 282.818 43.3895C282.383 43.2999 281.954 43.2551 281.531 43.2551C280.674 43.2551 279.976 43.4279 279.439 43.7735C278.914 44.1063 278.651 44.5671 278.651 45.1559C278.651 45.4759 278.735 45.7895 278.901 46.0967C279.08 46.3911 279.336 46.6343 279.669 46.8263C280.015 47.0183 280.437 47.1143 280.936 47.1143C281.461 47.1143 281.96 47.0119 282.434 46.8071C282.907 46.5895 283.285 46.3207 283.567 46.0007ZM293.566 47.6903C293.425 47.7543 293.233 47.8375 292.99 47.9399C292.747 48.0423 292.465 48.1319 292.145 48.2087C291.825 48.2855 291.486 48.3239 291.128 48.3239C290.718 48.3239 290.34 48.2535 289.995 48.1127C289.649 47.9591 289.374 47.7287 289.169 47.4215C288.964 47.1015 288.862 46.7047 288.862 46.2311V39.4919H287.499V38.1671H288.862V34.8263H290.552V38.1671H292.798V39.4919H290.552V45.7127C290.577 46.0711 290.699 46.3399 290.916 46.5191C291.134 46.6855 291.39 46.7687 291.684 46.7687C292.017 46.7687 292.324 46.7111 292.606 46.5959C292.888 46.4807 293.073 46.3975 293.163 46.3463L293.566 47.6903ZM295.132 48.1895V38.1671H296.822V48.1895H295.132ZM295.132 36.2855V34.1735H296.822V36.2855H295.132ZM303.935 48.3815C303.179 48.3815 302.495 48.2471 301.88 47.9783C301.266 47.6967 300.735 47.3191 300.287 46.8455C299.839 46.3591 299.493 45.8023 299.25 45.1751C299.007 44.5479 298.885 43.8887 298.885 43.1975C298.885 42.4935 299.007 41.8279 299.25 41.2007C299.493 40.5735 299.839 40.0231 300.287 39.5495C300.735 39.0631 301.266 38.6855 301.88 38.4167C302.507 38.1351 303.192 37.9943 303.935 37.9943C304.69 37.9943 305.375 38.1351 305.989 38.4167C306.603 38.6855 307.135 39.0631 307.583 39.5495C308.043 40.0231 308.395 40.5735 308.639 41.2007C308.882 41.8279 309.003 42.4935 309.003 43.1975C309.003 43.8887 308.882 44.5479 308.639 45.1751C308.395 45.8023 308.05 46.3591 307.602 46.8455C307.154 47.3191 306.616 47.6967 305.989 47.9783C305.375 48.2471 304.69 48.3815 303.935 48.3815ZM300.613 43.2167C300.613 43.9079 300.76 44.5351 301.055 45.0983C301.362 45.6615 301.765 46.1095 302.264 46.4423C302.763 46.7623 303.32 46.9223 303.935 46.9223C304.549 46.9223 305.106 46.7559 305.605 46.4231C306.117 46.0903 306.52 45.6423 306.815 45.0791C307.122 44.5031 307.275 43.8695 307.275 43.1783C307.275 42.4871 307.122 41.8599 306.815 41.2967C306.52 40.7335 306.117 40.2855 305.605 39.9527C305.106 39.6199 304.549 39.4535 303.935 39.4535C303.32 39.4535 302.763 39.6263 302.264 39.9719C301.765 40.3047 301.362 40.7527 301.055 41.3159C300.76 41.8791 300.613 42.5127 300.613 43.2167ZM319.748 48.1895H318.059V42.5831C318.059 41.5207 317.892 40.7463 317.56 40.2599C317.24 39.7607 316.747 39.5111 316.081 39.5111C315.62 39.5111 315.16 39.6263 314.699 39.8567C314.251 40.0871 313.848 40.4007 313.489 40.7975C313.144 41.1815 312.894 41.6295 312.74 42.1415V48.1895H311.051V38.1671H312.587V40.3175C312.856 39.8439 313.201 39.4343 313.624 39.0887C314.046 38.7431 314.526 38.4743 315.064 38.2823C315.601 38.0903 316.164 37.9943 316.753 37.9943C317.329 37.9943 317.809 38.1031 318.193 38.3207C318.59 38.5255 318.897 38.8199 319.115 39.2039C319.345 39.5751 319.505 40.0167 319.595 40.5287C319.697 41.0407 319.748 41.5975 319.748 42.1991V48.1895ZM331.818 34.6343H333.45L335.255 39.3767L337.079 34.6343H338.711L336.349 40.5671L338.691 46.1927L343.299 34.5575H345.181L339.479 48.1895H337.981L335.274 41.7575L332.547 48.1895H331.05L325.367 34.5575H327.229L331.856 46.1927L334.179 40.5671L331.818 34.6343ZM346.694 48.1895V38.1671H348.384V48.1895H346.694ZM346.694 36.2855V34.1735H348.384V36.2855H346.694ZM356.303 47.6903C356.163 47.7543 355.971 47.8375 355.727 47.9399C355.484 48.0423 355.203 48.1319 354.883 48.2087C354.563 48.2855 354.223 48.3239 353.865 48.3239C353.455 48.3239 353.078 48.2535 352.732 48.1127C352.387 47.9591 352.111 47.7287 351.907 47.4215C351.702 47.1015 351.599 46.7047 351.599 46.2311V39.4919H350.236V38.1671H351.599V34.8263H353.289V38.1671H355.535V39.4919H353.289V45.7127C353.315 46.0711 353.436 46.3399 353.654 46.5191C353.871 46.6855 354.127 46.7687 354.422 46.7687C354.755 46.7687 355.062 46.7111 355.343 46.5959C355.625 46.4807 355.811 46.3975 355.9 46.3463L356.303 47.6903ZM366.567 48.1895H364.877V42.5831C364.877 41.5591 364.692 40.7911 364.321 40.2791C363.962 39.7671 363.444 39.5111 362.765 39.5111C362.33 39.5111 361.889 39.6263 361.441 39.8567C361.005 40.0871 360.621 40.4007 360.289 40.7975C359.956 41.1815 359.713 41.6295 359.559 42.1415V48.1895H357.869V34.1735H359.559V40.3175C359.956 39.6007 360.493 39.0375 361.172 38.6279C361.863 38.2055 362.605 37.9943 363.399 37.9943C364.001 37.9943 364.5 38.1031 364.897 38.3207C365.306 38.5255 365.633 38.8199 365.876 39.2039C366.119 39.5879 366.292 40.0359 366.394 40.5479C366.509 41.0471 366.567 41.5975 366.567 42.1991V48.1895Z" fill="#878787"/>
<defs>
<linearGradient id="paint0_linear_1363_2" x1="90.9895" y1="82.1678" x2="71.6898" y2="63.8013" gradientUnits="userSpaceOnUse">
<stop offset="0.7714" stop-color="#38B34A"/>
<stop offset="1" stop-color="#8CC540"/>
</linearGradient>
<radialGradient id="paint1_radial_1363_2" cx="0" cy="0" r="1" gradientUnits="userSpaceOnUse" gradientTransform="translate(74.1151 64.0656) scale(7.9119 7.90632)">
<stop offset="0.2318" stop-color="#D7DE27"/>
<stop offset="1" stop-color="#8CC540" stop-opacity="0"/>
</radialGradient>
<linearGradient id="paint2_linear_1363_2" x1="135.258" y1="30.9165" x2="135.258" y2="112.807" gradientUnits="userSpaceOnUse">
<stop stop-color="#0E90D0"/>
<stop offset="1" stop-color="#38B34A"/>
</linearGradient>
<linearGradient id="paint3_linear_1363_2" x1="166.672" y1="30.9168" x2="166.672" y2="112.807" gradientUnits="userSpaceOnUse">
<stop stop-color="#0E90D0"/>
<stop offset="1" stop-color="#38B34A"/>
</linearGradient>
<linearGradient id="paint4_linear_1363_2" x1="151.603" y1="30.9162" x2="151.603" y2="112.806" gradientUnits="userSpaceOnUse">
<stop stop-color="#0E90D0"/>
<stop offset="1" stop-color="#38B34A"/>
</linearGradient>
<linearGradient id="paint5_linear_1363_2" x1="41.5896" y1="30.9165" x2="41.5896" y2="112.807" gradientUnits="userSpaceOnUse">
<stop stop-color="#0E90D0"/>
<stop offset="1" stop-color="#38B34A"/>
</linearGradient>
<linearGradient id="paint6_linear_1363_2" x1="10.1761" y1="30.9168" x2="10.1761" y2="112.807" gradientUnits="userSpaceOnUse">
<stop stop-color="#0E90D0"/>
<stop offset="1" stop-color="#38B34A"/>
</linearGradient>
<linearGradient id="paint7_linear_1363_2" x1="25.2448" y1="30.9162" x2="25.2448" y2="112.806" gradientUnits="userSpaceOnUse">
<stop stop-color="#0E90D0"/>
<stop offset="1" stop-color="#38B34A"/>
</linearGradient>
<linearGradient id="paint8_linear_1363_2" x1="152.531" y1="30.9165" x2="152.531" y2="112.807" gradientUnits="userSpaceOnUse">
<stop stop-color="#0E90D0"/>
<stop offset="1" stop-color="#38B34A"/>
</linearGradient>
<linearGradient id="paint9_linear_1363_2" x1="24.3179" y1="30.9165" x2="24.3179" y2="112.807" gradientUnits="userSpaceOnUse">
<stop stop-color="#0E90D0"/>
<stop offset="1" stop-color="#38B34A"/>
</linearGradient>
<linearGradient id="paint10_linear_1363_2" x1="305.502" y1="98.5994" x2="335.584" y2="68.4958" gradientUnits="userSpaceOnUse">
<stop stop-color="#4E9E45"/>
<stop offset="0.2267" stop-color="#4E9E45"/>
<stop offset="0.9225" stop-color="#BDD231"/>
<stop offset="1" stop-color="#BDD231"/>
</linearGradient>
</defs>
</svg>
