<svg width="61" height="61" viewBox="0 0 61 61" fill="none" xmlns="http://www.w3.org/2000/svg">
<path fill-rule="evenodd" clip-rule="evenodd" d="M8.04896 49.6373C13.4598 55.9789 21.5103 60 30.5 60C46.7924 60 60 46.7924 60 30.5C60 14.2076 46.7924 1 30.5 1C21.5103 1 13.4598 5.02109 8.04896 11.3627H6.74964C12.3406 4.43283 20.9026 0 30.5 0C47.3447 0 61 13.6553 61 30.5C61 47.3447 47.3447 61 30.5 61C20.9026 61 12.3406 56.5672 6.74964 49.6373H8.04896Z" fill="#555555"/>
<path d="M30 38L23 31L30 24" stroke="#555555"/>
<path d="M23 31L47 31" stroke="#555555"/>
</svg>
