<svg width="55" height="61" viewBox="0 0 55 61" fill="none" xmlns="http://www.w3.org/2000/svg">
<path fill-rule="evenodd" clip-rule="evenodd" d="M52.951 49.6373C47.5402 55.9789 39.4897 60 30.5 60C14.2076 60 1 46.7924 1 30.5C1 14.2076 14.2076 1 30.5 1C39.4897 1 47.5402 5.02109 52.951 11.3627H54.2504C48.6594 4.43283 40.0974 0 30.5 0C13.6553 0 0 13.6553 0 30.5C0 47.3447 13.6553 61 30.5 61C40.0974 61 48.6594 56.5672 54.2504 49.6373H52.951Z" fill="white"/>
<path d="M30 37L37 30L30 23" stroke="white" stroke-width="1.5"/>
<path d="M37 30L13 30" stroke="white" stroke-width="1.5"/>
</svg>
