<svg width="36" height="40" viewBox="0 0 36 40" fill="none" xmlns="http://www.w3.org/2000/svg">
<mask id="path-1-outside-1_1056_3" maskUnits="userSpaceOnUse" x="0" y="0" width="36" height="40" fill="black">
<rect fill="white" width="36" height="40"/>
<path fill-rule="evenodd" clip-rule="evenodd" d="M33.4407 31.8798C30.1476 35.6019 25.335 37.9487 19.9743 37.9487C10.0474 37.9487 2 29.9013 2 19.9743C2 10.0474 10.0474 2 19.9743 2C25.335 2 30.1475 4.34671 33.4407 8.06886H34.7496C31.2715 3.7577 25.9449 1 19.9743 1C9.4951 1 1 9.4951 1 19.9743C1 30.4536 9.4951 38.9487 19.9743 38.9487C25.9449 38.9487 31.2715 36.1909 34.7496 31.8798H33.4407Z"/>
</mask>
<path fill-rule="evenodd" clip-rule="evenodd" d="M33.4407 31.8798C30.1476 35.6019 25.335 37.9487 19.9743 37.9487C10.0474 37.9487 2 29.9013 2 19.9743C2 10.0474 10.0474 2 19.9743 2C25.335 2 30.1475 4.34671 33.4407 8.06886H34.7496C31.2715 3.7577 25.9449 1 19.9743 1C9.4951 1 1 9.4951 1 19.9743C1 30.4536 9.4951 38.9487 19.9743 38.9487C25.9449 38.9487 31.2715 36.1909 34.7496 31.8798H33.4407Z" fill="white"/>
<path d="M33.4407 31.8798V31.3798H33.2155L33.0663 31.5485L33.4407 31.8798ZM33.4407 8.06886L33.0663 8.40017L33.2155 8.56886H33.4407V8.06886ZM34.7496 8.06886V8.56886H35.7955L35.1388 7.7549L34.7496 8.06886ZM34.7496 31.8798L35.1388 32.1937L35.7955 31.3798H34.7496V31.8798ZM19.9743 38.4487C25.4842 38.4487 30.4311 36.036 33.8152 32.2111L33.0663 31.5485C29.864 35.1679 25.1858 37.4487 19.9743 37.4487V38.4487ZM1.5 19.9743C1.5 30.1774 9.77124 38.4487 19.9743 38.4487V37.4487C10.3235 37.4487 2.5 29.6251 2.5 19.9743H1.5ZM19.9743 1.5C9.77124 1.5 1.5 9.77124 1.5 19.9743H2.5C2.5 10.3235 10.3235 2.5 19.9743 2.5V1.5ZM33.8152 7.73754C30.4311 3.91268 25.4842 1.5 19.9743 1.5V2.5C25.1858 2.5 29.8639 4.78074 33.0663 8.40017L33.8152 7.73754ZM33.4407 8.56886H34.7496V7.56886H33.4407V8.56886ZM35.1388 7.7549C31.5698 3.33115 26.1025 0.5 19.9743 0.5V1.5C25.7874 1.5 30.9732 4.18425 34.3605 8.38281L35.1388 7.7549ZM19.9743 0.5C9.21895 0.5 0.5 9.21895 0.5 19.9743H1.5C1.5 9.77124 9.77124 1.5 19.9743 1.5V0.5ZM0.5 19.9743C0.5 30.7297 9.21895 39.4487 19.9743 39.4487V38.4487C9.77124 38.4487 1.5 30.1774 1.5 19.9743H0.5ZM19.9743 39.4487C26.1025 39.4487 31.5698 36.6175 35.1388 32.1937L34.3605 31.5658C30.9732 35.7644 25.7874 38.4487 19.9743 38.4487V39.4487ZM34.7496 31.3798H33.4407V32.3798H34.7496V31.3798Z" fill="white" mask="url(#path-1-outside-1_1056_3)"/>
<path d="M24.7496 25.4744L29.7496 20.4744L24.7496 15.4744" stroke="white" stroke-width="1.5"/>
<path d="M29.7496 20.4744L11.7496 20.4744" stroke="white" stroke-width="1.5"/>
</svg>
