<svg width="34" height="38" viewBox="0 0 34 38" fill="none" xmlns="http://www.w3.org/2000/svg">
<path fill-rule="evenodd" clip-rule="evenodd" d="M32.4407 30.8798C29.1476 34.6019 24.335 36.9487 18.9743 36.9487C9.04738 36.9487 1 28.9013 1 18.9743C1 9.04738 9.04738 1 18.9743 1C24.335 1 29.1475 3.34671 32.4407 7.06886H33.7496C30.2715 2.7577 24.9449 0 18.9743 0C8.4951 0 0 8.4951 0 18.9743C0 29.4536 8.4951 37.9487 18.9743 37.9487C24.9449 37.9487 30.2715 35.1909 33.7496 30.8798H32.4407Z" fill="white"/>
<path d="M23.7496 24.4743L28.7496 19.4743L23.7496 14.4743" stroke="white" stroke-width="1.5"/>
<path d="M28.7496 19.4743L10.7496 19.4743" stroke="white" stroke-width="1.5"/>
</svg>
