<svg width="910" height="561" viewBox="0 0 910 561" fill="none" xmlns="http://www.w3.org/2000/svg">
<path d="M156 186C156 132.981 198.981 90 252 90H910V282H252C198.981 282 156 239.019 156 186Z" fill="#8ABB2A"/>
<path d="M28.9765 560.592C28.9683 558.698 28.96 556.811 28.9436 554.916C29.7164 539.436 30.596 523.963 31.2455 508.474C32.8814 469.546 34.7969 430.626 34.764 391.649C34.7476 372.646 35.2655 353.579 32.0922 334.762C29.9877 322.318 25.6881 310.343 22.3833 298.158C17.4178 279.876 12.0906 261.691 8.82692 242.979C7.9966 238.194 5.37412 233.676 3.35176 229.126C-0.725833 219.928 -1.01357 210.52 2.1104 201.136C5.38234 191.331 6.38529 181.583 4.46159 171.341C3.33532 165.341 4.26429 159.277 8.03771 153.958C15.6668 143.189 18.3468 130.704 20.6898 118.114C21.0104 116.397 21.331 114.681 21.6516 112.965C24.5289 112.365 23.5424 114.155 23.2711 115.499C21.3557 128.421 19.1689 141.343 11.5809 152.443C7.07585 159.018 5.8016 165.997 7.02653 173.551C8.37476 181.81 8.30078 189.947 5.36589 197.849C0.556636 210.796 2.06107 223.224 8.34188 235.255C12.2962 242.842 12.6003 251.278 14.4665 259.351C18.3386 276.111 22.7203 292.765 28.0722 309.08C36.1945 333.855 37.1317 359.263 37.1892 384.856C37.2714 419.364 35.8163 453.847 34.501 488.322C33.6131 511.616 32.3882 534.894 31.3277 558.179C31.2948 558.981 31.3934 559.783 31.4263 560.592C30.6207 560.592 29.7986 560.592 28.9765 560.592Z" fill="#555555"/>
<path d="M23.2793 115.499C22.9341 114.535 23.4684 113.021 21.6598 112.964C22.6463 106.382 23.6657 99.8237 27.4063 94.0427C29.4697 90.8527 31.9936 88.1403 35.2655 86.1243C35.9561 86.4562 36.6466 86.7882 37.3372 87.1201C29.0258 93.2412 25.3921 101.791 24.1343 111.604C23.9699 112.916 23.5753 114.203 23.2793 115.499Z" fill="#555555"/>
<path d="M561.037 399.648C560.815 388.767 557.461 378.711 552.635 369.132C543.345 350.672 531.737 334.042 512.985 323.532C511.431 322.658 511.21 321.767 511.621 320.302C514.942 308.481 513.1 297.129 508.447 286.005C503.811 274.912 498.122 264.363 491.833 254.112C488.577 248.817 488.413 247.627 492.046 242.89C494.652 239.498 496.346 235.741 497.686 231.766C500.851 222.382 502.339 212.666 503.145 202.877C505.537 173.843 504.074 144.978 498.352 116.381C495.943 104.366 492.86 92.4802 486.407 81.8251C484.228 78.2221 482.477 74.7082 481.647 70.498C480.496 64.6685 477.109 59.9239 472.16 56.3209C465.772 51.6654 458.447 49.204 450.876 47.2608C438.454 44.0789 425.613 42.7996 413.257 39.31C407.247 37.6097 407.247 37.6178 408.25 31.1729C408.908 31.3429 409.566 31.4887 410.199 31.6749C428.597 37.2534 447.267 41.7713 466.035 45.9654C468.839 46.5888 469.801 46.1678 469.611 43.2773C469.332 39.1076 469.061 34.9216 469.184 30.7519C469.274 27.6671 467.893 26.3797 465.164 25.2057C448.311 17.9998 430.611 16.4128 412.533 17.1415C405.414 17.4249 405.282 17.4735 405.365 24.3556C405.398 27.1894 404.617 27.4809 402.109 26.5497C393.395 23.3111 384.911 19.7162 377.537 13.9272C373.451 10.7209 368.823 8.38911 363.898 6.65645C341.743 -1.14057 319.324 -0.379486 296.832 4.8671C279.839 8.82633 265.238 16.1375 255.735 31.6911C250.86 39.6743 243.05 45.0343 233.851 47.8357C221.289 51.6654 208.259 51.9002 195.262 52.3617C193.338 52.4264 193.42 51.4225 193.363 50.127C193.182 45.8196 192.746 41.5122 192.746 37.2049C192.746 34.452 192.097 33.5128 189.022 33.6909C177.266 34.363 165.494 34.7435 153.721 35.1321C147.802 35.3345 147.802 35.2374 147.991 41.245C148.041 42.7267 148.213 44.2246 148.065 45.6901C147.728 49.0421 149.085 50.046 152.496 49.8922C160.092 49.5683 167.524 50.548 174.241 54.4668C181.22 58.5394 183.892 65.0571 181.788 72.6679C179.962 79.2666 175.803 84.3755 170.961 89.023C169.67 90.2618 168.494 91.3062 168.585 93.3951C168.815 98.917 168.766 104.455 168.84 109.985C168.856 111.046 168.642 112.325 169.867 112.811C170.911 113.224 171.561 112.179 172.292 111.629C180.965 105.062 189.959 98.9737 199.75 94.0915C225.548 81.226 252.282 76.3518 280.645 84.667C291.291 87.7923 306.088 95.6298 310.98 101.84C292.483 92.1402 273.188 88.1971 252.882 89.3792C226.066 90.9419 202.192 99.8724 182.601 118.3C164.992 134.866 156.179 155.609 154.897 179.405C153.417 206.925 161.309 231.369 181.245 251.189C203.951 273.755 231.911 283.446 263.849 281.212C288.233 279.511 308.768 269.496 324.544 250.736C335.7 237.466 341.619 221.847 345.549 205.339C346.453 201.541 347.333 197.744 347.177 193.785C347.111 192.173 346.856 190.724 345.187 190.174C343.642 189.664 342.631 190.862 341.743 191.858C340.855 192.862 340.09 193.987 339.35 195.113C335.709 200.667 332.872 206.666 330.644 212.844C324.199 230.721 312.238 244.056 296.396 254.347C275.531 267.901 253.384 272.006 229.888 261.982C191.538 245.619 170.369 201.873 181.434 162.192C192.787 121.45 228.713 101.427 266.496 105.159C294.382 107.912 315.099 122.438 328.836 146.517C331.697 151.529 331.582 152.581 327.685 157.164C326.748 155.804 325.852 154.46 324.914 153.14C318.428 143.991 310.865 135.894 301.074 130.097C282.963 119.377 263.726 119.426 244.07 124.81C227.225 129.417 212.92 137.926 204.971 153.771C193.1 177.421 197.268 200.06 212.649 220.584C233.563 248.493 267.812 253.286 299.627 239.7C301.929 238.721 305.94 237.903 304.839 234.656C303.885 231.855 300.186 232.859 297.473 233.085C291.34 233.596 285.437 235.668 279.247 235.765C256.228 236.122 233.325 220.73 224.479 199.234C214.729 175.559 228.006 154.395 244.604 145.78C259.229 138.185 274.43 139.303 289.408 145.148C300.071 149.31 308.39 156.152 313.315 166.653C314.408 168.985 313.841 170.086 311.547 170.831C309.73 171.422 308.135 173.057 306.746 169.884C302.841 160.985 295.615 155.407 286.712 151.812C273.739 146.574 258.464 149.521 249.939 158.816C232.782 177.519 236.153 205.185 257.322 219.386C274.742 231.069 298.221 227.572 310.355 211.038C318.403 200.076 319.415 187.38 317.902 174.337C317.738 172.936 316.537 171.187 318.017 170.216C321.56 167.868 324.635 165.026 327.742 162.2C329.781 164.516 331.82 166.839 333.867 169.155C334.138 169.454 334.451 169.73 334.78 169.965C335.988 170.815 337.205 172.005 338.816 171.058C340.271 170.199 339.852 168.62 339.687 167.357C339.071 162.499 336.901 158.127 334.993 153.682C334.36 152.201 333.653 150.8 334.081 149.051C336.087 140.768 334.985 132.761 331.771 124.948C331.072 123.247 330.398 121.531 329.715 119.822C330.949 120.381 331.672 121.166 332.354 121.984C348.204 140.963 354.937 163.317 355.858 187.324C356.845 213.071 348.311 235.871 331.565 255.829C300.687 292.628 246.602 303.194 204.173 280.28C181.097 267.82 164.902 248.817 152.611 226.341C151.181 223.726 149.446 222.536 146.742 222.228C144.16 221.936 141.579 221.588 138.981 221.524C126.041 221.216 114.154 224.811 103.253 231.458C100.696 233.021 99.9973 231.248 99.2492 230.017C98.0736 228.09 100.523 228.657 101.165 227.92C101.239 227.839 101.436 227.879 101.559 227.823C111.827 223.548 122.087 219.257 126.493 207.881C126.872 206.917 127.611 206.917 128.45 206.828C133.341 206.318 138.216 205.646 143.124 205.282C145.607 205.096 146.298 204.391 145.969 201.808C144.497 190.279 143.905 178.717 146.388 167.228C146.791 165.374 146.24 164.451 144.382 164.119C128.886 161.358 113.406 158.548 97.531 160.459C94.9578 160.767 92.3929 161.066 88.7674 161.487C100.581 152.711 113.06 151.116 126.165 152.217C132.429 152.743 138.652 153.626 144.801 154.978C146.38 155.326 148.024 155.836 148.624 153.415C151.641 141.343 157.971 130.834 164.943 120.681C166.768 118.025 165.954 117.458 163.241 116.843C151.921 114.276 140.551 112.009 129.017 110.657C109.616 108.39 90.8309 110.374 72.9832 118.689C71.2157 119.515 69.5879 120.753 67.3272 121.021C69.218 116.81 72.12 114.349 76.2305 112.835C91.949 107.07 107.61 101.144 123.271 95.2088C131.812 91.9701 140.403 88.7558 147.07 82.1733C156.418 72.9351 153.845 62.6362 141.143 58.8065C131.196 55.8108 121.084 56.4181 111.071 58.2803C90.872 62.0371 71.6267 68.8706 52.6528 76.449C46.4788 78.9184 40.3707 81.6794 35.2655 86.092C35.6847 86.9746 36.3177 87.4199 37.3371 87.0879C40.5104 85.2581 43.5522 83.1287 46.8817 81.647C68.8316 71.8663 91.4475 63.9236 115.247 59.932C124.356 58.4017 133.794 58.0131 142.697 61.9156C151.337 65.7048 152.8 72.2631 146.561 79.2342C141.924 84.416 135.964 87.6385 129.601 90.197C112.551 97.0548 95.3278 103.475 77.9815 109.564C72.2187 111.58 67.4834 114.471 64.754 120.171C63.7429 122.284 62.3864 124.34 60.1256 125.684C47.3338 133.303 35.7752 142.574 24.2494 151.885C22.0215 153.682 19.8101 155.601 18.6098 158.216C17.7137 160.168 17.2122 162.354 18.914 164.289C20.5088 166.111 22.6381 165.924 24.6275 165.422C26.8883 164.856 28.9024 163.665 30.5877 162.014C41.6696 151.189 52.7597 140.38 62.1726 128.049C62.8139 127.206 63.6113 126.397 64.5156 125.862C78.335 117.701 93.1821 112.77 109.377 112.22C126.477 111.637 143.1 114.722 159.673 118.397C162.624 119.053 162.945 119.669 161.309 122.025C155.176 130.818 149.882 140.048 147.161 150.476C146.544 152.824 145.023 152.873 143.182 152.411C136.252 150.687 129.173 149.95 122.079 149.674C107.963 149.124 94.8921 151.95 84.3446 162.103C83.6787 162.742 82.8566 163.374 81.9934 163.657C67.7136 168.313 56.8537 177.519 47.5558 188.765C42.9849 194.295 38.4305 199.873 35.4792 206.472C34.4187 208.844 32.3388 211.686 34.8791 213.889C37.6167 216.261 40.272 213.71 42.5821 212.237C46.4953 209.727 49.7508 206.423 53.0721 203.209C63.0852 193.518 70.7142 181.956 79.3051 171.147C82.1003 167.633 85.0105 164.742 90.0088 163.803C107.47 160.532 124.586 162.84 141.719 165.957C143.651 166.305 144.127 167.171 143.741 169.025C142.121 176.741 142.154 184.555 142.631 192.376C142.837 195.793 144.818 200.327 142.82 202.302C140.798 204.302 136.128 203.711 132.618 204.254C129.108 204.796 126.88 204.456 126.798 199.841C126.699 194.465 124.06 189.704 120.056 186.004C116.538 182.749 112.945 183.802 112.082 188.052C111.013 193.299 115.625 203.403 120.698 205.177C124.973 206.666 124.093 208.52 122.317 211.063C121.627 212.059 120.846 213.006 120.015 213.897C114.713 219.629 107.815 222.754 100.688 225.62C97.9338 226.73 95.9361 226.819 93.2561 225.07C86.0216 220.341 78.3268 220.552 70.7307 224.438C68.511 225.572 66.3653 227.191 66.9079 230.049C67.4012 232.656 69.7441 233.434 72.1364 233.903C74.315 234.324 76.4689 234.243 78.6474 233.871C83.4896 233.045 88.3153 232.09 92.9601 230.486C95.5991 229.58 97.0953 230.616 98.2955 232.705C99.7095 235.183 97.0213 235.263 96.0512 236.081C92.0887 239.409 87.9536 242.534 84.8049 246.672C83.4649 248.437 81.4261 250.339 83.0703 252.752C84.5337 254.906 87.0328 254.145 89.1209 253.74C90.9707 253.384 92.7464 252.631 94.555 252.048C101.666 249.805 104.889 245.214 104.346 237.814C104.198 235.822 104.733 234.349 106.508 233.426C118.026 227.41 129.979 223.248 143.346 225.005C146.528 225.426 148.764 226.657 150.499 229.604C159.336 244.591 169.448 258.565 183.086 269.876C208.826 291.211 238.208 300.125 271.322 293.948C302.899 288.053 327.389 271.156 344.316 244.024C344.562 243.684 344.801 243.336 345.006 242.971C355.636 224.285 360.618 204.432 358.974 182.879C357.782 167.179 353.573 152.452 347.152 138.153C340.172 122.608 327.775 111.313 315.386 100.504C289.161 77.6068 258.242 72.5383 224.767 80.9264C206.878 85.4038 190.954 94.0024 176.041 104.536C175.079 105.216 174.306 106.293 172.605 106.188C171.955 103.734 172.481 101.192 172.251 98.6984C171.89 94.8363 173.008 91.7515 175.934 88.9258C179.551 85.4281 182.231 81.1288 184.246 76.4976C189.515 63.122 181.549 53.4547 173.114 50.0622C169.431 48.5806 165.642 47.3904 161.63 47.107C159.163 46.937 156.755 46.3783 154.288 46.2164C151.189 46.0139 151.839 43.5121 151.534 41.6337C151.23 39.7391 152.217 38.9861 154.042 38.7594C164.515 37.4882 175.087 38.1198 185.577 37.1401C188.29 36.8891 189.614 38.3465 189.729 40.9779C189.869 44.0789 189.704 47.1879 189.836 50.2808C190.009 54.483 191.036 55.5436 195.27 55.6813C202.258 55.8999 209.196 54.9607 216.151 54.4911C220.5 54.1996 224.857 53.5114 229.14 52.5965C243.502 49.5521 254.066 41.237 261.901 29.335C265.493 23.8779 270.114 19.6434 275.753 16.3562C280.743 13.4495 286.128 11.4658 291.611 9.74934C307.749 4.69707 324.347 3.39352 341.101 4.88329C352.775 5.92775 364.186 8.58343 373.87 15.587C382.132 21.5542 391.027 26.1854 400.662 29.4726C403.26 30.3551 404.312 31.7963 404.395 34.5006C404.543 39.6743 405.06 40.1763 410.231 41.8199C418.863 44.5566 427.8 45.9654 436.678 47.6414C446.511 49.4955 456.294 51.4872 465.279 56.1428C472.941 60.1101 477.783 66.0611 479.074 74.5949C479.403 76.789 480.192 78.7241 481.507 80.5216C485.799 86.3997 488.528 92.9822 490.6 99.8886C495.894 117.563 498.796 135.611 499.84 154.006C500.925 173.138 501.32 192.254 498.73 211.306C497.341 221.491 495.82 231.782 489.514 240.356C485.371 245.991 485.453 250.857 489.227 256.622C495.244 265.804 500.234 275.568 504.674 285.608C508.825 294.992 510.47 304.692 509.302 314.829C508.735 319.751 508.439 320.019 503.449 319.832C498.015 319.638 493.888 321.743 490.854 326.059C486.053 332.892 482.477 340.276 480.57 348.405C480.101 350.397 479.838 352.397 480.2 354.421C481.039 359.133 484.557 360.963 488.988 359.028C491.561 357.911 493.543 356.073 495.294 353.959C501.147 346.899 505.529 338.981 509.179 330.657C510.979 326.544 511.612 326.196 515.328 328.674C521.946 333.086 527.717 338.398 532.716 344.575C545.359 360.21 555.43 376.978 557.551 397.398C558.899 410.401 553.112 421.436 540.123 425.501C530.71 428.448 521.124 427.978 511.621 426.991C495.705 425.331 479.978 425.023 464.358 429.298C453.926 432.156 443.798 435.913 433.406 438.909C423.081 441.888 414.062 439.961 405.332 434.269C395.738 428.011 385.749 422.392 375.555 417.113C359.632 408.87 342.885 402.523 326.156 396.134C315.814 392.183 305.439 388.289 295.607 383.18C279.494 374.808 266.628 362.477 254.337 349.563C250.243 345.256 246.421 340.576 244.176 334.941C242.409 330.495 243.683 328.075 248.386 326.755C250.794 326.075 253.261 325.872 255.719 326.115C270.968 327.613 286.292 328.698 300.761 334.511C294.965 333.791 289.12 333.783 283.316 333.127C281.5 332.924 279.51 332.811 278.746 334.851C277.948 336.965 279.707 338.058 281.228 338.956C286.638 342.146 292.179 345.069 298.007 347.49C303.499 349.765 309.237 351.004 315.074 351.798C318.099 352.211 321.412 352.194 322.908 348.883C324.281 345.847 322.366 343.491 320.385 341.304C319.341 340.155 317.795 339.41 316.891 337.612C323.574 335.88 329.724 333.71 335.158 329.921C336.687 328.852 338.232 329.241 339.786 330.099C352.183 336.997 365.666 337.564 379.312 336.131C396.108 334.374 411.835 328.82 427.068 321.856C448.327 312.141 467.918 299.907 485.067 284.078C486.736 282.539 489.901 280.904 488.413 278.297C486.999 275.811 483.932 277.35 481.598 277.835C477.314 278.726 473.155 280.224 468.732 280.418C465.189 280.572 463.98 279.285 464.186 275.844C464.276 274.338 464.794 272.945 465.337 271.56C467.367 266.371 470.228 261.577 473.229 256.93C479.962 246.51 483.653 235.442 483.094 222.916C482.576 211.265 479.074 201.744 468.313 195.38C459.253 190.028 450.226 184.7 440.443 180.733C437.089 179.373 435.314 177.567 435.125 173.608C434.82 167.325 432.272 161.585 428.762 156.298C427.907 155.01 426.632 153.949 426.155 151.723C435.207 157.148 441.504 164.216 443.197 173.964C444.168 179.559 447.234 182.126 451.731 184.19C455.767 186.044 457.231 185.178 457.502 180.741C458.464 165.171 453.342 151.65 443.6 139.513C437.394 131.781 429.592 125.871 421.749 120.009C414.523 114.608 411.095 107.839 411.424 98.7794C412.048 81.2584 406.951 64.9761 399.47 49.285C392.392 34.4439 377.652 31.9907 363.15 31.0272C361.744 30.93 360.347 31.5777 359.952 33.0918C359.541 34.6625 360.75 35.5693 361.859 36.3709C364.186 38.0712 366.833 39.1804 369.472 40.322C374.363 42.4352 379.304 44.508 383.637 47.6333C386.572 49.7465 386.358 51.4225 383.135 52.9446C381.031 53.9405 378.795 54.6044 376.526 55.1307C368.929 56.8957 361.185 58.0212 353.614 59.9158C345.935 61.8428 338.027 63.292 332.116 69.2268C330.768 70.579 329.058 70.0122 327.438 69.7774C321.889 68.9678 316.373 67.9476 310.815 67.1865C301.715 65.9396 292.548 65.6967 283.415 65.049C274.816 64.4337 266.167 64.7899 257.535 64.9599C255.743 64.9923 253.746 65.2919 253.145 67.2756C252.636 68.9678 254.074 69.9312 255.406 70.7166C264.753 74.6354 274.471 77.5744 284.27 80.0115C314.178 87.4361 338.495 103.386 358.004 126.526C368.387 138.849 374.265 153.342 375.564 169.373C376.78 184.441 373.763 198.877 367.852 212.771C367.055 214.852 365.978 216.803 364.918 218.763C356.598 235.863 345.105 250.687 331.483 263.99C326.813 268.549 322.16 273.123 317.548 277.738C315.912 279.374 314.219 281.066 313.693 283.373C313.364 284.823 313.537 285.989 314.581 286.28C312.846 286.685 311.103 287.074 309.344 287.397C292.803 290.474 276.411 294.207 259.599 295.85C245.96 297.186 232.831 295.575 219.99 291.203C209.172 287.519 199.397 281.811 189.803 275.763C187.838 274.524 185.857 273.269 183.44 273.107C180.242 272.888 178.984 274.378 180.053 277.244C181.007 279.803 182.717 281.924 184.443 284.037C190.568 291.519 197.769 297.98 204.683 304.7C209.155 309.048 213.964 313.12 219.472 316.189C221.807 317.492 223.057 319.217 223.772 321.735C226.156 330.196 228.943 338.519 233.448 346.179C238.57 354.316 244.67 361.74 250.408 369.327C247.81 367.4 245.138 365.392 242.384 363.497C231.146 355.797 220.344 347.587 210.742 337.904C199.849 326.917 188.767 316.116 177.677 305.323C173.008 300.773 167.943 296.652 162.32 293.251C156.722 289.867 151.28 286.256 145.903 282.548C142.105 279.924 138.414 277.123 135.101 273.876C133.555 272.362 133.103 271.01 135.339 269.698C143.182 265.091 151.354 262.185 160.709 264.225C163.891 264.913 167.047 265.925 170.377 265.771C173.715 263.569 173.994 261.885 170.714 259.885C164.951 256.363 159.131 252.728 151.715 254.096C149.742 254.46 147.605 254.38 145.591 254.088C139.918 253.27 134.764 254.784 129.913 257.416C127.315 258.825 125.342 260.913 126.082 264.29C125.926 267.787 129.215 270.5 128.154 274.321C126.444 280.499 123.328 285.673 118.355 289.802C116.135 291.648 113.8 292.482 110.882 291.543C104.593 289.511 98.0078 289.276 91.4968 288.717C87.7891 288.401 84.0733 288.928 80.7273 290.644C77.4061 292.344 77.1595 295.721 80.1437 297.712C81.2453 298.449 82.5853 298.984 83.8842 299.235C93.4041 301.089 102.603 299.745 111.572 296.328C112.937 295.81 114.211 294.603 115.798 295.138C124.43 298.052 132.56 301.745 137.74 309.712C138.545 310.958 139.137 311.93 137.904 313.566C133.563 319.33 130.826 325.945 128.392 332.657C127.291 335.685 126.008 338.689 125.836 341.96C125.786 342.851 125.416 344.001 126.403 344.567C127.579 345.239 128.491 344.324 129.289 343.636C131.878 341.402 133.835 338.633 135.857 335.912C140.757 329.313 143.955 322.261 142.13 313.768C141.686 311.711 144.744 310.052 146.939 311.056C148.887 311.954 150.162 313.549 150.951 315.452C156.853 329.734 158.654 344.745 154.083 359.295C149.94 372.484 146.766 385.625 145.426 399.333C143.034 423.703 143.708 448.074 145.147 472.429C146.372 493.253 148.419 514.021 151.345 534.691C152.57 543.33 153.417 552.026 155.563 560.519C156.114 560.519 156.656 560.519 157.207 560.519C157.199 559.588 157.33 558.641 157.174 557.742C155.143 546.067 153.581 534.327 152.143 522.563C148.049 489.059 145.648 455.466 146.437 421.704C146.865 403.365 147.514 384.905 153.984 367.521C157.98 356.793 158.958 346.09 158.062 335.013C157.454 327.5 156.253 320.043 152.463 313.274C150.926 310.529 148.32 307.339 145.632 308.578C140.51 310.942 139.31 307.493 137.107 304.829C136.169 303.696 134.953 302.765 133.826 301.785C129.256 297.81 123.649 295.615 117.804 293.138C124.709 288.409 128.713 282.078 130.637 273.795C134.928 278.451 139.244 282.41 144.259 285.317C166.719 298.312 185.035 315.986 202.537 334.625C215.724 348.664 230.924 360.267 247.235 370.533C249.306 371.837 251.403 373.084 253.746 373.877C254.379 374.088 255.003 374.614 255.612 374.128C256.368 373.521 256.212 372.573 255.801 371.893C254.469 369.707 253.154 367.489 251.583 365.473C241.653 352.769 231.713 340.074 227.956 323.962C226.723 318.674 224.446 314.869 219.102 311.744C209.106 305.898 201.074 297.364 193.248 288.847C189.754 285.049 186.071 281.398 183.818 276.605C187.402 278.37 190.724 280.41 194.07 282.418C209.278 291.551 225.252 298.425 243.412 299.324C257.741 300.028 271.774 298.093 285.774 295.502C305.11 291.923 324.125 287.235 343.001 281.681C360.659 276.483 379.214 276.621 397.489 275.382C399.98 275.212 399.725 276.661 399.626 278.151C399.322 282.75 401.386 285.924 405.628 287.713C412.994 290.814 429.485 287.227 434.861 281.406C437.681 278.353 437.172 275.86 433.193 274.289C429.748 272.929 426.081 272.354 422.366 272.313C416.035 272.249 409.697 272.297 402.644 272.297C408.448 261.917 413.808 251.967 419.538 242.243C422.579 237.077 422.842 237.32 428.087 240.113C434.746 243.66 441.701 245.708 449.306 243.376C451.377 242.745 452.989 241.538 453.219 239.215C453.457 236.834 452.019 235.231 450.046 234.486C441.931 231.442 433.628 230.381 425.309 233.539C423.599 234.187 422.629 234.098 421.379 232.996C404.156 217.767 396.026 199.145 399.454 176.061C400.407 176.523 400.235 177.389 400.399 178.126C401.493 182.984 402.89 187.753 405.743 191.931C410.708 199.209 418.88 200.602 426.049 195.444C430.102 192.522 432.329 188.425 433.489 183.745C433.9 182.101 434.212 181.381 436.128 182.271C447.497 187.558 458.9 192.797 469.135 200.084C473.105 202.91 476.468 206.205 477.89 211.354C482.009 226.284 479.789 240.032 471.519 253.092C467.408 259.578 463.24 266.111 461.119 273.593C458.924 281.349 461.275 284.199 469.48 283.746C474.421 283.471 479.033 281.56 484.327 280.596C480.891 283.43 477.906 285.997 474.815 288.418C447.193 310.052 417.03 326.601 381.721 332.293C366.726 334.706 351.937 334.066 338.668 325.378C337.04 324.318 336.07 324.828 334.755 325.856C328.277 330.892 320.853 333.702 312.682 334.681C311.448 334.827 310.24 335.078 309.073 334.439C297.991 328.358 285.807 326.002 273.435 324.577C265.041 323.613 256.639 321.978 248.114 323.281C240.97 324.374 238.34 328.714 240.674 335.426C241.973 339.167 244.078 342.478 246.56 345.515C265.444 368.663 288.422 386.168 317.08 396.353C340.296 404.604 363.241 413.591 384.681 425.849C392.228 430.164 399.684 434.65 407.091 439.192C414.983 444.026 423.229 445.135 432.223 442.666C438.265 441.006 444.242 439.176 450.144 437.103C469.061 430.456 488.281 426.926 508.48 430.075C517.252 431.444 526.172 431.727 535.075 430.286C552.364 427.549 561.39 416.927 561.037 399.648ZM306.672 177.025C307.996 187.599 303.68 196.003 295.82 202.691C288.66 208.788 280.365 210.423 271.396 206.893C259.467 202.197 252.471 184.611 257.856 173.114C261.235 165.9 269.086 162.143 276.92 164.256C281.401 165.471 285.487 167.6 288.816 170.936C285.626 170.135 282.461 169.867 279.387 170.596C270.574 172.693 267.146 183.235 272.925 190.214C277.192 195.372 286.292 198.149 292.68 196.254C298.698 194.465 301.518 187.858 299.446 180.547C299.15 179.494 297.654 178.029 299.109 177.373C301.271 176.401 303.77 176.158 306.146 175.689C306.22 175.673 306.606 176.539 306.672 177.025ZM297.711 185.129C297.728 190.91 294.184 194.513 288.413 194.578C279.822 194.675 272.284 188.902 272.35 182.271C272.407 176.83 276.904 172.426 282.757 172.588C289.77 172.766 298.213 176.563 297.711 185.129ZM311.448 204.869C300.843 225.758 273.402 230.284 254.559 214.293C236.227 198.74 237.172 169.981 256.253 156.702C272.522 145.375 296.963 154.306 304.699 170.677C305.497 172.369 305.496 173.236 303.375 173.835C299.808 174.839 296.971 175.835 293.847 171.964C289.646 166.766 283.621 163.576 276.929 161.949C267.869 159.747 258.744 164.394 255.373 172.968C250.622 185.057 256.68 207.176 275.564 210.642C288.422 212.998 302.718 204.035 307.609 190.23C309.163 185.842 309.862 181.348 309.015 176.733C308.251 172.539 312.221 173.276 314.079 172.491C315.534 171.875 315.625 174.377 315.756 175.737C315.97 177.883 316.102 180.037 316.241 181.875C316.143 190.06 315.066 197.744 311.448 204.869ZM325.243 161.172C324.544 161.811 323.985 162.621 323.246 163.196C321.215 164.775 319.152 167.406 317.031 167.471C314.967 167.536 314.704 163.827 313.495 161.868C306.828 151.059 296.938 144.525 284.837 141.108C269.719 136.85 254.502 136.42 240.978 145.181C219.546 159.067 211.868 183.235 225.334 206.116C238.249 228.058 257.692 239.482 284.064 237.611C289.893 237.199 295.5 234.899 301.592 235.652C296.026 239.385 289.679 241.182 283.267 242.639C260.758 247.757 240.518 243.49 222.851 228.389C201.008 209.719 194.333 176.539 208.054 153.099C216.159 139.246 229.009 131.441 244.201 127.15C264.153 121.523 283.612 121.612 301.715 133.279C311.638 139.675 319.004 148.452 325.457 158.079C326.246 159.277 326.328 160.184 325.243 161.172ZM48.0079 140.971C41.5216 147.691 34.9284 154.314 28.2037 160.791C26.2306 162.694 23.2053 165.163 20.7966 162.467C18.4947 159.892 21.7173 157.552 23.5013 155.812C26.3868 152.986 29.6588 150.525 32.8567 148.015C40.3707 142.112 47.9586 136.299 56.9606 130.372C54.001 134.955 50.9346 137.943 48.0079 140.971ZM36.6795 212.253C36.4328 200.926 63.2085 172.426 78.2282 168.029C67.9684 183.397 45.9198 211.111 36.6795 212.253ZM122.334 203.452C117.985 201.808 113.225 192.675 114.557 188.23C115.453 185.259 117.269 186.708 118.511 187.89C122.473 191.671 124.257 196.513 124.997 201.76C125.367 204.294 123.961 204.075 122.334 203.452ZM74.1424 231.839C72.2351 231.79 69.9332 231.798 69.4317 229.653C68.9467 227.588 71.1335 226.794 72.679 226.082C79.6997 222.835 86.4738 223.07 93.626 228.171C86.6053 229.725 80.6123 232.001 74.1424 231.839ZM98.5093 246.267C95.4593 249.068 91.8092 250.768 87.8138 251.813C86.8848 252.056 85.8161 252.258 85.1995 251.368C84.4925 250.347 85.5366 249.57 86.0381 248.906C89.9348 243.846 94.8509 239.903 100.236 236.219C102.168 240.202 101.567 243.457 98.5093 246.267ZM337.624 169.106C329.091 161.779 328.614 160.257 332.782 154.605C334.969 159.075 336.892 163.528 337.624 169.106ZM316.841 108.115C326.715 114.487 335.536 136.323 331.943 147.092C326 136.647 319.184 127.692 310.092 120.503C290.978 105.394 269.119 99.8157 245.179 103.419C221.207 107.03 201.756 118.462 188.956 139.287C169.612 170.766 172.638 210.723 196.191 239.344C208.95 254.841 224.783 265.399 245.048 268.751C263.011 271.714 279.444 267.512 294.752 258.217C312.632 247.36 326.032 232.883 333.176 213.095C335.766 205.93 339.013 198.983 344.11 192.611C345.533 194.562 344.826 196.311 344.554 197.865C340.789 219.022 333.653 238.696 317.976 254.388C299.824 272.556 277.356 280.418 251.871 279.163C217.212 277.455 189.425 262.881 170.393 233.79C158.317 215.33 155.291 194.7 157.791 173.3C162.97 129.028 197.087 101.2 237.156 93.6704C265.485 88.351 292.236 92.2373 316.841 108.115ZM407.658 19.9834C408.357 19.1657 409.451 19.3924 410.371 19.3843C414.753 19.3357 419.127 19.3681 423.508 19.3681C437.41 19.5705 450.917 21.7971 463.824 27.157C466.216 28.1529 467.26 29.4159 467.014 31.9502C466.644 35.7556 468.814 41.0022 466.216 43.002C463.931 44.759 459.056 41.9576 455.34 41.1236C440.312 37.7554 425.407 33.9015 410.684 29.424C408.193 28.6711 406.031 21.878 407.658 19.9834ZM505.981 329.281C502.89 336.479 499.182 343.361 494.414 349.628C493.025 351.449 491.413 353.134 489.736 354.704C488.47 355.886 486.974 357.344 485.059 356.542C482.987 355.668 483.735 353.546 483.505 350.964C485.198 342.13 489.128 333.418 495.557 325.84C496.823 324.342 498.656 323.743 500.547 323.273C503.046 322.65 505.866 322.593 507.494 324.229C508.579 325.322 506.696 327.613 505.981 329.281ZM84.7063 297.235C82.9963 296.968 80.7191 296.449 80.6205 294.506C80.5218 292.417 82.8484 292.11 84.5337 291.761C93.3136 289.948 101.798 291.891 110.257 293.948C101.97 297.567 93.4698 298.603 84.7063 297.235ZM140.148 315.047C141.521 327.046 133.9 334.26 127.842 342.891C128.771 335.92 135.643 320.294 140.148 315.047ZM129.716 268.395C128.244 266.824 127.661 264.516 129.264 262.484C129.996 261.545 130.941 260.614 131.993 260.104C141.127 255.659 156.755 254.056 167.508 262.274C162 261.367 156.878 259.675 151.526 260.282C144.892 261.035 138.94 263.602 133.358 267.14C132.256 267.844 131.023 269.787 129.716 268.395ZM448.903 236.599C449.898 237.02 450.942 237.822 450.835 238.972C450.695 240.494 449.322 241.174 447.982 241.514C439.687 243.627 432.749 240.47 426.106 235.976C433.834 233.256 441.422 233.401 448.903 236.599ZM329.674 270.743C346.733 254.501 361.374 236.47 370.631 214.763C384.122 183.13 382.889 152.541 360.914 124.867C343.132 102.48 319.957 87.096 292.129 78.8942C281.541 75.777 270.919 72.7893 260.339 69.656C258.999 69.2592 257.379 69.2349 255.924 67.2918C280.645 68.3443 304.732 68.7329 328.466 73.3561C329.65 73.5909 331.055 73.5909 331.253 75.2021C331.984 81.2907 336.374 84.9099 340.773 88.2862C349.503 94.9821 358.727 101.03 366.093 109.362C381.327 126.599 389.844 146.606 391.537 169.301C394.118 203.8 382.856 233.345 357.889 257.723C346.092 269.237 331.524 276.491 316.455 283.058C320.853 278.969 325.317 274.904 329.674 270.743ZM404.362 274.872C412.122 274.678 419.891 273.779 427.635 274.937C430.019 275.293 433.291 275.269 433.916 277.787C434.607 280.596 431.318 281.608 429.271 282.637C424.133 285.236 418.592 286.596 412.78 286.742C405.225 286.717 401.287 283.26 401.978 277.333C402.167 275.844 402.471 274.921 404.362 274.872ZM426.673 190.109C426.509 190.327 426.345 190.538 426.172 190.748C421.198 196.61 414.293 196.627 409.27 190.797C407.469 188.7 406.409 186.214 405.455 183.68C404.353 180.765 403.811 177.681 402.66 174.79C402.06 173.292 401.476 171.503 399.372 171.786C397.481 172.045 396.724 173.681 396.47 175.316C395.467 181.721 394.694 188.166 395.721 194.635C398.163 209.986 405.43 222.851 416.759 233.547C418.387 235.085 419.521 236.259 417.951 238.632C411.44 248.469 406.096 258.954 400.736 269.423C399.832 271.18 398.599 272.103 396.593 272.16C389.211 272.362 381.869 273.18 374.511 273.755C362.632 274.686 350.827 275.876 339.309 279.228C333.9 280.799 328.54 282.531 323.122 284.094C343.033 275.002 360.602 263.059 373.574 245.141C391.915 219.791 398.319 191.607 393.913 161.131C389.942 133.627 376.443 111.159 354.222 93.9457C348.854 89.7841 342.803 86.4645 338.257 81.2988C337.065 79.9386 335.454 78.7889 335.445 76.8295C336.062 76.4085 336.481 76.4571 336.868 76.5623C357.371 81.9223 375.218 91.541 388.931 107.864C400.079 121.134 405.858 136.671 409.023 153.35C410.248 159.803 410.273 159.803 404.321 162.297C403.564 162.613 402.792 162.904 402.093 163.325C399.355 164.985 399.232 167.074 401.772 169.082C402.857 169.94 404.164 170.377 405.43 170.896C411.506 173.365 417.68 175.616 423.714 178.191C431.458 181.486 431.894 183.3 426.673 190.109ZM431.927 177.875C426.641 175.737 422.004 173.819 417.334 171.981C412.706 170.151 408.045 168.386 402.866 166.394C405.957 165.179 408.661 164.078 411.391 163.058C413.142 162.41 413.882 161.504 413.586 159.447C407.181 115.207 384.089 85.8005 337.928 73.348C336.753 73.0322 335.503 72.9675 334.434 72.0283C336.744 68.7249 340.329 67.3484 343.913 66.1097C354.247 62.5229 365.14 61.2112 375.753 58.7742C379.206 57.9807 382.65 57.1467 385.856 55.6165C390.871 53.228 391.397 49.9165 387.213 46.2892C382.214 41.9656 376.09 39.5691 370.121 36.9296C368.083 36.0228 366.027 35.1402 364.112 33.9176C370.269 35.1645 376.542 35.7394 382.428 37.9174C390.246 40.8159 395.039 46.6941 398.097 54.0538C404.395 69.2268 409.023 84.7723 408.209 101.419C407.815 109.443 410.98 115.742 417.195 120.81C425.703 127.757 434.944 133.886 441.751 142.728C450.498 154.079 455.11 166.588 453.942 181.203C449.758 179.85 447.456 177.859 446.543 173.252C444.316 162.062 437.114 154.111 427.224 148.468C425.588 147.537 423.508 146.59 421.963 148.233C420.417 149.885 421.617 151.852 422.596 153.423C425.448 157.998 428.762 162.281 430.43 167.519C431.466 170.774 432.025 174.013 431.927 177.875ZM307.239 337.467C310.166 337.256 319.119 343.652 320.089 346.454C320.771 348.429 319.398 348.373 318.14 348.47C315.247 348.697 312.427 348.195 309.623 347.587C300.769 345.668 292.853 341.636 284.064 336.657C292.532 337.264 299.865 338.001 307.239 337.467Z" fill="#555555"/>
</svg>
