<svg width="53" height="53" viewBox="0 0 53 53" fill="none" xmlns="http://www.w3.org/2000/svg">
<path d="M29.3696 49.6445H21.4478C21.1991 49.6445 20.9607 49.5457 20.7848 49.3699C20.609 49.1941 20.5103 48.9556 20.5103 48.707V33.707C20.5103 33.4583 20.609 33.2199 20.7848 33.044C20.9607 32.8682 21.1991 32.7695 21.4478 32.7695H29.3696C29.6183 32.7695 29.8567 32.8682 30.0325 33.044C30.2084 33.2199 30.3071 33.4583 30.3071 33.707C30.3071 33.9556 30.2084 34.1941 30.0325 34.3699C29.8567 34.5457 29.6183 34.6445 29.3696 34.6445H22.3853V47.7695H29.3696C29.6183 47.7695 29.8567 47.8682 30.0325 48.044C30.2084 48.2199 30.3071 48.4583 30.3071 48.707C30.3071 48.9556 30.2084 49.1941 30.0325 49.3699C29.8567 49.5457 29.6183 49.6445 29.3696 49.6445Z" fill="#45A735"/>
<path d="M51.4478 49.6445H43.5259C43.2772 49.6445 43.0388 49.5457 42.863 49.3699C42.6872 49.1941 42.5884 48.9556 42.5884 48.707C42.5884 48.4583 42.6872 48.2199 42.863 48.044C43.0388 47.8682 43.2772 47.7695 43.5259 47.7695H50.5103V34.6445H43.5259C43.2772 34.6445 43.0388 34.5457 42.863 34.3699C42.6872 34.1941 42.5884 33.9556 42.5884 33.707C42.5884 33.4583 42.6872 33.2199 42.863 33.044C43.0388 32.8682 43.2772 32.7695 43.5259 32.7695H51.4478C51.6964 32.7695 51.9349 32.8682 52.1107 33.044C52.2865 33.2199 52.3853 33.4583 52.3853 33.707V48.707C52.3853 48.9556 52.2865 49.1941 52.1107 49.3699C51.9349 49.5457 51.6964 49.6445 51.4478 49.6445Z" fill="#45A735"/>
<path d="M36.4478 52.457C34.2227 52.457 32.0476 51.7972 30.1976 50.561C28.3475 49.3248 26.9056 47.5678 26.0541 45.5121C25.2026 43.4565 24.9798 41.1945 25.4139 39.0122C25.848 36.8299 26.9195 34.8253 28.4928 33.252C30.0661 31.6787 32.0707 30.6072 34.253 30.1731C36.4353 29.739 38.6973 29.9618 40.7529 30.8133C42.8086 31.6648 44.5656 33.1067 45.8018 34.9568C47.038 36.8068 47.6978 38.9819 47.6978 41.207C47.6978 44.1906 46.5125 47.0521 44.4027 49.1619C42.2929 51.2717 39.4314 52.457 36.4478 52.457ZM36.4478 31.832C34.5936 31.832 32.781 32.3818 31.2393 33.4119C29.6976 34.4421 28.496 35.9062 27.7864 37.6193C27.0768 39.3324 26.8912 41.2174 27.2529 43.0359C27.6146 44.8545 28.5075 46.525 29.8186 47.8361C31.1297 49.1472 32.8002 50.0401 34.6188 50.4018C36.4374 50.7636 38.3224 50.5779 40.0354 49.8683C41.7485 49.1588 43.2126 47.9571 44.2428 46.4154C45.2729 44.8737 45.8228 43.0612 45.8228 41.207C45.8228 39.9758 45.5803 38.7567 45.1091 37.6193C44.638 36.4819 43.9474 35.4484 43.0769 34.5778C42.2063 33.7073 41.1728 33.0167 40.0354 32.5456C38.898 32.0745 37.6789 31.832 36.4478 31.832Z" fill="#45A735"/>
<path d="M36.4478 48.707C34.9644 48.707 33.5144 48.2671 32.281 47.443C31.0476 46.6189 30.0863 45.4475 29.5187 44.0771C28.951 42.7066 28.8025 41.1986 29.0919 39.7438C29.3813 38.2889 30.0956 36.9526 31.1445 35.9037C32.1934 34.8548 33.5297 34.1405 34.9846 33.8511C36.4394 33.5617 37.9474 33.7102 39.3179 34.2779C40.6883 34.8455 41.8597 35.8068 42.6838 37.0402C43.5079 38.2736 43.9478 39.7236 43.9478 41.207C43.9478 43.1961 43.1576 45.1037 41.7511 46.5103C40.3445 47.9168 38.4369 48.707 36.4478 48.707ZM36.4478 35.582C35.3352 35.582 34.2477 35.9119 33.3227 36.5299C32.3977 37.148 31.6767 38.0265 31.2509 39.0544C30.8252 40.0822 30.7138 41.2132 30.9308 42.3043C31.1479 43.3955 31.6836 44.3978 32.4703 45.1844C33.257 45.9711 34.2592 46.5068 35.3504 46.7239C36.4415 46.9409 37.5725 46.8295 38.6004 46.4038C39.6282 45.978 40.5067 45.2571 41.1248 44.332C41.7429 43.407 42.0728 42.3195 42.0728 41.207C42.0728 39.7151 41.4801 38.2844 40.4252 37.2295C39.3703 36.1746 37.9396 35.582 36.4478 35.582Z" fill="#45A735"/>
<path d="M24.2603 34.6445C24.0116 34.6445 23.7732 34.5457 23.5973 34.3699C23.4215 34.1941 23.3228 33.9556 23.3228 33.707V31.832C23.3228 31.5833 23.4215 31.3449 23.5973 31.169C23.7732 30.9932 24.0116 30.8945 24.2603 30.8945C24.5089 30.8945 24.7474 30.9932 24.9232 31.169C25.099 31.3449 25.1978 31.5833 25.1978 31.832V33.707C25.1978 33.9556 25.099 34.1941 24.9232 34.3699C24.7474 34.5457 24.5089 34.6445 24.2603 34.6445Z" fill="#45A735"/>
<path d="M16.5448 47.8632C15.6363 47.8591 14.7486 47.5911 13.9897 47.0918C13.2307 46.5925 12.6332 45.8833 12.2698 45.0507L0.410445 18.557C0.158407 17.995 0.0195903 17.3888 0.00192795 16.7732C-0.0157344 16.1575 0.0881042 15.5444 0.307509 14.9689C0.526914 14.3934 0.857582 13.8668 1.28062 13.4192C1.70365 12.9715 2.21075 12.6116 2.77294 12.3601L22.9667 3.34133C23.0799 3.28166 23.2042 3.24581 23.3318 3.23598C23.4594 3.22616 23.5876 3.24256 23.7087 3.28418C23.8297 3.3258 23.9409 3.39176 24.0355 3.478C24.13 3.56424 24.2059 3.66892 24.2585 3.78561C24.3111 3.90229 24.3392 4.02851 24.3412 4.15647C24.3431 4.28444 24.3188 4.41145 24.2698 4.52968C24.2208 4.64791 24.1481 4.75485 24.0562 4.84392C23.9643 4.93299 23.8552 5.0023 23.7354 5.04758L3.54169 14.0663C3.19976 14.2164 2.89114 14.4331 2.63384 14.7037C2.37654 14.9744 2.1757 15.2935 2.04306 15.6426C1.91041 15.9917 1.84861 16.3637 1.86125 16.7369C1.87389 17.1101 1.96073 17.477 2.11669 17.8163L13.9479 44.3195C14.223 44.9672 14.7309 45.4882 15.3713 45.7798C16.0117 46.0714 16.7382 46.1123 17.4073 45.8945C17.5256 45.8509 17.6515 45.8316 17.7774 45.8378C17.9033 45.844 18.0267 45.8756 18.1401 45.9305C18.2536 45.9855 18.3548 46.0628 18.4377 46.1578C18.5206 46.2528 18.5834 46.3635 18.6225 46.4834C18.6616 46.6032 18.6762 46.7297 18.6653 46.8553C18.6544 46.9809 18.6182 47.103 18.5591 47.2143C18.4999 47.3256 18.4188 47.4239 18.3208 47.5031C18.2228 47.5824 18.1098 47.6411 17.9886 47.6757C17.5205 47.8153 17.033 47.8787 16.5448 47.8632Z" fill="#999999"/>
<path d="M16.9572 19.4195C16.7311 19.422 16.5117 19.3428 16.3394 19.1963C16.1672 19.0499 16.0536 18.8461 16.0197 18.6226C15.8621 17.8447 15.8399 17.0455 15.9541 16.2601C16.1079 15.205 16.4981 14.1984 17.0955 13.3153C17.6929 12.4322 18.482 11.6954 19.4041 11.1601C19.5479 11.0814 19.7089 11.0395 19.8728 11.0382C20.0882 11.0348 20.2981 11.1057 20.4674 11.2389C20.6366 11.3721 20.7548 11.5596 20.8021 11.7697C20.8494 11.9798 20.8229 12.1998 20.7271 12.3927C20.6313 12.5856 20.472 12.7396 20.276 12.8288C19.6215 13.2185 19.0617 13.7486 18.6369 14.3809C18.2122 15.0132 17.9331 15.7319 17.8197 16.4851C17.8153 16.5036 17.8153 16.5228 17.8197 16.5413C17.7353 17.1339 17.7543 17.7365 17.876 18.3226C17.8806 18.3881 17.8806 18.4539 17.876 18.5195C17.8664 18.7583 17.766 18.9845 17.5952 19.1518C17.4245 19.3191 17.1962 19.4149 16.9572 19.4195Z" fill="#666666"/>
<path d="M11.6606 30.8944C11.4803 30.8941 11.3039 30.8417 11.1526 30.7436C11.0013 30.6455 10.8815 30.5058 10.8075 30.3413L6.59814 20.9663C6.55044 20.852 6.52588 20.7293 6.52588 20.6054C6.52588 20.4815 6.55044 20.3588 6.59814 20.2444C6.68681 20.0153 6.86186 19.8302 7.08565 19.7288L16.5075 15.5194C16.7099 15.4292 16.9377 15.4136 17.1505 15.4754C17.3633 15.5372 17.5474 15.6724 17.67 15.8569C17.7804 16.0173 17.8423 16.2061 17.8481 16.4007C17.8501 16.6296 17.7682 16.8513 17.618 17.024C17.4677 17.1967 17.2595 17.3084 17.0325 17.3382L8.70752 21.0882L12.27 29.0569C12.4956 29.1476 12.6771 29.3224 12.7763 29.5444C12.8736 29.772 12.877 30.0289 12.7857 30.259C12.6943 30.4891 12.5157 30.6737 12.2888 30.7726L12.0544 30.8851C11.925 30.9135 11.7913 30.9166 11.6606 30.8944Z" fill="#666666"/>
<path d="M17.698 37.3163C17.5653 37.3157 17.4343 37.287 17.3136 37.2319L13.4605 35.507C12.3681 35.0162 11.5049 34.126 11.0482 33.019C10.5914 31.9119 10.5757 30.6721 11.0042 29.5538C11.0186 29.4846 11.0439 29.4182 11.0792 29.357L16.0761 18.1726C16.0736 18.1476 16.0736 18.1225 16.0761 18.0976L19.0011 11.5351L19.0573 11.4226L22.9573 2.76945C23.4654 1.63642 24.4023 0.751285 25.5624 0.308352C26.7225 -0.134581 28.0109 -0.0991198 29.1448 0.406952L49.6855 9.58508C50.2476 9.83664 50.7548 10.1965 51.1778 10.6442C51.6008 11.0918 51.9315 11.6184 52.1509 12.1939C52.3703 12.7694 52.4741 13.3825 52.4565 13.9982C52.4388 14.6138 52.3 15.22 52.048 15.782L45.5792 30.2476C45.5339 30.3673 45.4646 30.4764 45.3755 30.5683C45.2865 30.6603 45.1795 30.7329 45.0613 30.7819C44.9431 30.8309 44.8161 30.8552 44.6881 30.8533C44.5601 30.8513 44.4339 30.8232 44.3172 30.7706C44.2006 30.7181 44.0959 30.6422 44.0096 30.5476C43.9234 30.453 43.8574 30.3418 43.8158 30.2208C43.7742 30.0998 43.7578 29.9715 43.7676 29.8439C43.7774 29.7163 43.8133 29.5921 43.873 29.4788L50.3417 15.0132C50.4977 14.6739 50.5845 14.307 50.5972 13.9337C50.6098 13.5605 50.548 13.1885 50.4153 12.8395C50.2827 12.4904 50.0819 12.1712 49.8246 11.9006C49.5673 11.63 49.2586 11.4133 48.9167 11.2632L28.3761 2.12258C27.6961 1.82058 26.9241 1.80036 26.2292 2.06633C25.8837 2.19816 25.5675 2.39686 25.2989 2.65103C25.0302 2.9052 24.8143 3.20986 24.6636 3.54758L20.7448 12.3226L20.6886 12.4351L17.8761 18.8007C17.8785 18.8256 17.8785 18.8508 17.8761 18.8757L12.8698 30.1257C12.8686 30.107 12.8686 30.0882 12.8698 30.0695C12.8586 30.1268 12.8429 30.1832 12.823 30.2382C12.564 30.8998 12.5651 31.6349 12.826 32.2958C13.0869 32.9567 13.5882 33.4943 14.2292 33.8007L18.0823 35.5257C18.2768 35.6143 18.4352 35.7667 18.5312 35.9577C18.6272 36.1486 18.6551 36.3666 18.6103 36.5756C18.5654 36.7846 18.4505 36.9719 18.2846 37.1067C18.1187 37.2414 17.9117 37.3153 17.698 37.3163Z" fill="#999999"/>
<path d="M32.698 28.607C32.5653 28.6064 32.4343 28.5776 32.3136 28.5226L24.3542 24.9601C24.2131 24.8915 24.0915 24.7885 24.0005 24.6607C23.9094 24.5329 23.852 24.3842 23.8333 24.2284C23.8147 24.0726 23.8354 23.9146 23.8937 23.7689C23.9519 23.6232 24.0458 23.4945 24.1667 23.3945L29.0792 19.832L29.1636 19.7757L33.2699 16.7945C33.4057 16.7005 33.5639 16.6441 33.7285 16.6309C33.8932 16.6177 34.0583 16.6483 34.2074 16.7195C34.362 16.7974 34.492 16.9166 34.583 17.0638C34.674 17.2111 34.7225 17.3807 34.723 17.5538L35.7636 27.1445C35.7759 27.2676 35.7639 27.3919 35.7281 27.5104C35.6924 27.6288 35.6337 27.7391 35.5553 27.8348C35.477 27.9306 35.3805 28.01 35.2715 28.0685C35.1625 28.127 35.043 28.1634 34.9199 28.1757C34.7968 28.188 34.6724 28.176 34.554 28.1402C34.4355 28.1045 34.3253 28.0458 34.2295 27.9674C34.1337 27.8891 34.0543 27.7926 33.9959 27.6836C33.9374 27.5746 33.9009 27.4551 33.8886 27.332L33.0449 19.2226L30.1761 21.3038L30.0824 21.3601L26.5667 23.9101L33.0449 26.8163C33.2369 26.9033 33.3941 27.0525 33.4909 27.2398C33.5877 27.4271 33.6185 27.6416 33.5784 27.8486C33.5383 28.0556 33.4296 28.243 33.2699 28.3807C33.1101 28.5183 32.9086 28.598 32.698 28.607Z" fill="#666666"/>
<path d="M29.5106 21.5195C28.5409 21.514 27.583 21.3065 26.6981 20.9101C25.5806 20.4119 24.6125 19.6308 23.8894 18.6439C23.1663 17.657 22.7132 16.4986 22.5749 15.283C22.4366 14.0673 22.6178 12.8367 23.1008 11.7126C23.5837 10.5885 24.3516 9.60986 25.3286 8.8734C26.3056 8.13695 27.4578 7.66816 28.6714 7.51336C29.885 7.35856 31.118 7.52311 32.2486 7.99074C33.3791 8.45838 34.3681 9.21292 35.1177 10.1798C35.8674 11.1467 36.3518 12.2924 36.5231 13.5038C36.7211 14.8159 36.5355 16.1573 35.9887 17.3663C35.664 18.1035 35.2099 18.7766 34.6481 19.3538C34.566 19.4533 34.4642 19.5348 34.3492 19.5931C34.2342 19.6515 34.1084 19.6855 33.9797 19.6931C33.8509 19.7006 33.722 19.6815 33.601 19.6369C33.4799 19.5923 33.3694 19.5233 33.2763 19.434C33.1832 19.3448 33.1095 19.2373 33.0598 19.1183C33.0101 18.9992 32.9855 18.8713 32.9876 18.7423C32.9896 18.6133 33.0182 18.4862 33.0717 18.3688C33.1251 18.2514 33.2022 18.1463 33.2981 18.0601C33.6912 17.6292 34.0082 17.1347 34.2356 16.5976C34.6303 15.7162 34.7637 14.74 34.6199 13.7851C34.4953 12.8961 34.1406 12.055 33.5912 11.3451C33.0417 10.6352 32.3164 10.0811 31.487 9.73749C30.6577 9.39392 29.753 9.27283 28.8625 9.38621C27.9719 9.49958 27.1264 9.84349 26.4096 10.3839C25.6928 10.9243 25.1295 11.6425 24.7754 12.4675C24.4213 13.2924 24.2888 14.1955 24.3908 15.0874C24.4929 15.9793 24.826 16.829 25.3573 17.5527C25.8886 18.2763 26.5996 18.8487 27.4199 19.2132C28.1046 19.5258 28.852 19.6766 29.6043 19.6538C29.8529 19.6538 30.0914 19.7526 30.2672 19.9284C30.443 20.1042 30.5418 20.3427 30.5418 20.5913C30.5418 20.84 30.443 21.0784 30.2672 21.2542C30.0914 21.4301 29.8529 21.5288 29.6043 21.5288L29.5106 21.5195Z" fill="#666666"/>
<path d="M33.8228 18.4538C33.5741 18.4538 33.3357 18.355 33.1598 18.1792C32.984 18.0034 32.8853 17.765 32.8853 17.5163C32.8853 17.3309 32.9402 17.1496 33.0433 16.9955C33.1463 16.8413 33.2927 16.7211 33.464 16.6502C33.6353 16.5792 33.8238 16.5607 34.0057 16.5968C34.1875 16.633 34.3546 16.7223 34.4857 16.8534C34.6168 16.9845 34.7061 17.1516 34.7422 17.3334C34.7784 17.5153 34.7598 17.7038 34.6889 17.8751C34.6179 18.0464 34.4978 18.1928 34.3436 18.2958C34.1894 18.3988 34.0082 18.4538 33.8228 18.4538Z" fill="#666666"/>
<path d="M40.7977 28.082C40.665 28.0813 40.534 28.0526 40.4133 27.9976L34.1508 25.1851C33.9397 25.0738 33.779 24.8863 33.7014 24.6606C33.6237 24.4349 33.6351 24.1882 33.7331 23.9706C33.8312 23.753 34.0085 23.581 34.2289 23.4896C34.4494 23.3983 34.6964 23.3944 34.9196 23.4788L40.329 25.8882L43.7696 18.182L35.3321 14.432L35.1071 14.3476C34.8895 14.2369 34.7236 14.0456 34.6448 13.8145C34.566 13.5834 34.5805 13.3307 34.6852 13.1101C34.7942 12.8955 34.9815 12.7311 35.2084 12.6508C35.4352 12.5705 35.6843 12.5806 35.9039 12.6788L45.2789 16.8882C45.5027 16.9896 45.6778 17.1747 45.7664 17.4038C45.8142 17.5182 45.8387 17.6409 45.8387 17.7648C45.8387 17.8887 45.8142 18.0114 45.7664 18.1257L41.5571 27.5007C41.4943 27.6568 41.3907 27.7932 41.2571 27.8954C41.1235 27.9977 40.9648 28.0621 40.7977 28.082Z" fill="#666666"/>
</svg>
