<svg width="424" height="78" viewBox="0 0 424 78" fill="none" xmlns="http://www.w3.org/2000/svg">
<path d="M33.4864 76.9708L32.691 76.1884L33.5701 75.4465C36.1516 73.2882 38.9004 71.4402 41.3982 70.1992C43.2819 69.2684 43.3656 69.1336 42.0819 69.1336C40.854 69.147 39.7656 69.6461 36.7516 71.6291C32.3561 74.5023 30.8073 75.0958 27.6119 75.1228C26.1328 75.1228 25.5746 75.0688 24.6258 74.826C22.9792 74.3944 21.6815 73.8278 20.3699 72.9915C19.1977 72.2361 18.2628 71.4132 18.821 71.6291C23.1327 73.2613 26.37 72.8431 33.1236 69.7676C34.5469 69.1201 36.1795 68.5805 37.519 68.2972C38.8307 68.0274 42.4307 68.0679 43.9657 68.3782C45.1657 68.6075 45.3192 68.6075 46.4076 68.4186C49.0309 67.933 51.5286 68.0139 54.0124 68.6614C54.724 68.8368 56.3845 69.4708 57.7101 70.0643C60.4311 71.2649 63.0683 72.1821 64.6451 72.4519C66.6545 72.7891 68.7615 72.6138 70.701 71.9258C71.2173 71.7505 71.6359 71.6291 71.6359 71.683C71.6359 71.8314 70.0731 72.978 69.194 73.4771C68.2312 74.0302 66.9475 74.5293 65.6358 74.88C64.2265 75.2577 61.0451 75.2307 59.5939 74.826C57.9892 74.3809 56.3566 73.5311 53.4403 71.6426C52.017 70.7118 50.6076 69.835 50.3007 69.6866C49.6588 69.3629 48.4588 69.1605 47.7192 69.2415C47.189 69.2954 47.189 69.3089 48.8355 70.1318C50.9286 71.1704 53.7891 73.0454 55.8682 74.7181C56.7473 75.433 57.4868 76.0535 57.5147 76.121C57.5287 76.175 57.1659 76.5796 56.7194 77.0113L55.8822 77.8072L53.4403 75.5005C52.0867 74.2325 50.3146 72.7082 49.4913 72.1147C48.0401 71.049 45.7238 69.808 45.2215 69.808C44.9006 69.808 43.2819 70.523 42.4028 71.049C40.6586 72.1147 38.9144 73.5311 36.1795 76.1075C35.2167 77.0248 34.3934 77.7667 34.3655 77.7667C34.3236 77.7667 33.9329 77.416 33.4864 76.9708Z" fill="white"/>
<path d="M66.2296 70.3126C62.8268 69.9834 58.2516 69.0531 56.2213 68.2516C55.7924 68.0798 55.8067 68.0798 57.022 67.6791C59.5527 66.8489 62.3121 65.1887 64.085 63.4425C64.4853 63.0561 65.4575 62.0112 66.2725 61.1381C67.5164 59.7784 69.9899 57.6602 70.333 57.6602C70.5761 57.6602 68.5744 61.7822 67.6165 63.2564C66.8158 64.4873 65.5576 65.6753 64.228 66.4482C63.1985 67.0636 62.9841 67.4787 63.7704 67.3356C64.857 67.1495 67.0017 66.9634 69.8755 66.8203C73.2211 66.6629 74.9082 66.3766 76.5238 65.7468C77.5819 65.3318 78.8686 64.6591 79.4406 64.2154C79.941 63.8289 79.9839 64.015 79.5263 64.6305C77.2387 67.6791 74.8224 69.3393 71.6913 69.9834C70.4474 70.2267 67.3591 70.4271 66.2296 70.3126Z" fill="white"/>
<path d="M20.1892 70.2714C17.5275 69.8958 15.4174 68.8557 13.5831 67.0644C12.728 66.2121 11.1006 64.1752 11.1972 64.0597C11.2385 64.0308 11.6247 64.233 12.066 64.5364C13.6658 65.6054 15.5277 66.3132 17.6102 66.6166C18.1619 66.6888 19.9272 66.8333 21.5408 66.9055C23.1544 66.9922 25.0438 67.1367 25.7472 67.2378C26.4506 67.3533 27.0574 67.3967 27.085 67.3533C27.2505 67.1944 27.0988 67.0355 26.3264 66.5444C24.1336 65.1576 23.113 63.8285 21.4167 60.1737C20.4375 58.0791 20.2858 57.6602 20.4926 57.6602C20.7685 57.6602 22.8372 59.4803 23.9129 60.6793C26.4781 63.5252 27.6642 64.6953 28.74 65.432C30.0777 66.371 31.6637 67.18 33.1946 67.7C33.8152 67.9167 34.3255 68.119 34.3255 68.1479C34.3255 68.249 31.5948 69.0869 30.0639 69.448C27.2643 70.0981 25.0714 70.3725 22.7406 70.3436C21.5684 70.3436 20.4237 70.3003 20.1892 70.2714Z" fill="white"/>
<path d="M21.8953 65.6437C21.2357 65.5045 19.6357 65.2399 18.3164 65.045C15.4392 64.6134 14.2041 64.2932 12.6743 63.5832C10.2322 62.4416 8.16904 60.6596 6.28834 58.0144C5.33396 56.6778 3.53748 53.42 3.748 53.42C3.81818 53.42 4.23923 53.7959 4.70238 54.2693C5.65677 55.2299 7.38308 56.6082 8.61816 57.3739C9.08132 57.6663 10.7796 58.5434 12.4076 59.337C15.0743 60.6317 17.2357 61.9125 18.9199 63.1655C19.6778 63.7224 19.6778 63.5275 18.9339 62.8175C18.162 62.0657 17.1094 60.7431 16.576 59.8521C15.6637 58.3067 15.4392 57.5271 14.8076 53.782C14.4708 51.7772 14.162 49.9674 14.1059 49.7307C14.0216 49.3269 14.0357 49.3269 14.6252 49.9534C16.1971 51.5963 17.8111 54.6034 19.1023 58.2232C20.2672 61.5227 21.2497 63.4858 22.555 65.059C22.8918 65.4905 23.1585 65.8525 23.1304 65.8664C23.1023 65.8804 22.555 65.7829 21.8953 65.6437Z" fill="white"/>
<path d="M67.9699 65.7147C69.544 63.6901 70.6824 61.5931 71.5959 59.0044C71.877 58.209 72.2986 57.0086 72.5376 56.3289C73.0997 54.767 74.1678 52.5543 74.9268 51.3829C75.6716 50.2549 76.8944 48.6351 76.9646 48.7074C77.063 48.7942 75.756 56.5314 75.517 57.2689C74.983 58.9899 73.9008 60.7543 72.3267 62.5186C71.877 63.0103 71.5538 63.4153 71.5959 63.4153C71.6521 63.4153 72.144 63.0682 72.7062 62.6343C74.2943 61.4195 76.023 60.3783 79.2836 58.7296C82.6004 57.052 84.062 56.0541 86.128 54.0873C87.0134 53.234 87.3788 52.9448 87.2945 53.1906C86.7183 54.7381 84.849 57.804 83.3874 59.5684C82.9377 60.1179 82.0523 61.0001 81.4339 61.5208C79.1852 63.4008 76.8803 64.3553 73.437 64.8615C71.4273 65.1652 69.1364 65.5846 68.237 65.816C67.8856 65.9027 67.8434 65.8883 67.9699 65.7147Z" fill="white"/>
<path d="M42.0966 62.0102C36.8732 61.4245 31.6216 59.2351 27.4934 55.93C26.0471 54.7725 23.5196 52.1368 22.5367 50.7702C19.7846 46.9213 18.1979 43.1699 17.3554 38.4564C17.0605 36.8108 17.1167 31.3582 17.4396 29.6011C18.9 21.6661 23.1686 15.1118 29.6698 10.8166C31.3408 9.7149 34.5001 8.19485 36.3677 7.58125C38.4037 6.91187 40.9171 6.42378 43.248 6.24249C46.632 5.97753 50.6339 6.46562 54.0039 7.58125C55.8854 8.19485 59.0448 9.7149 60.7017 10.8026C66.206 14.4145 70.278 19.8951 72.1315 26.2123L72.5387 27.5929L72.2439 27.7742C69.1407 29.6289 65.6303 32.0415 60.4911 35.8486C56.5735 38.7492 55.4361 39.6696 53.1333 41.7615L51.6028 43.156L49.2719 42.0961C47.9941 41.5104 46.8005 40.9666 46.618 40.8968C46.3231 40.7713 46.632 40.4924 50.4794 37.3965C58.9465 30.6191 62.4569 27.9973 64.0436 27.2443C65.2792 26.6725 67.4978 25.9474 68.4526 25.8218C69.576 25.6824 69.576 25.6824 68.93 24.1484C65.7005 16.4784 58.792 10.8026 50.5216 9.05947C39.0636 6.61902 27.353 12.2251 22.1716 22.6284C20.8096 25.3477 19.8969 28.3739 19.5599 31.2327C19.4616 32.167 19.1948 32.0276 21.8487 32.3762C23.9128 32.6551 26.2999 33.2408 28.2376 33.966C30.6949 34.8864 37.2523 37.9544 44.0343 41.3431C47.6009 43.1281 51.0411 44.8155 51.687 45.0665C53.8494 45.959 55.8714 46.1682 59.0869 45.8475C59.8732 45.7638 60.5613 45.7359 60.6034 45.7777C60.7438 45.9032 58.5252 47.9811 57.5704 48.6226C55.3097 50.1427 53.2877 50.7562 50.5918 50.7702C48.3872 50.7841 47.6571 50.6168 44.7224 49.4872C42.0685 48.4553 41.3103 48.2042 38.6003 47.4372C35.8762 46.6702 34.3035 46.4332 33.7278 46.6981C33.11 46.991 33.1381 47.4094 33.8261 48.1485C35.0618 49.4872 37.2101 50.7841 39.541 51.6209C43.1357 52.9038 48.5417 53.0154 52.8384 51.9137C57.0649 50.826 60.0277 48.8876 64.3665 44.3692C67.4276 41.1897 69.8427 39.2652 72.2439 38.052L73.1285 37.6197L73.0442 38.0659C72.4404 41.5802 71.7103 43.923 70.3623 46.6145C69.5479 48.2321 68.4667 49.9614 67.3855 51.3559C66.4868 52.5413 64.1278 54.9259 62.8781 55.93C58.7218 59.2629 53.5405 61.4105 48.2047 62.0241C46.7444 62.1775 43.6131 62.1775 42.0966 62.0102Z" fill="white"/>
<path d="M12.7839 57.5205C12.0446 57.0212 10.6085 56.151 9.58485 55.5947C6.69861 54.0112 6.6133 53.9684 5.68914 53.1838C2.68916 50.6731 0.385852 45.7087 0.0446221 40.9868C-0.0122496 40.2878 -0.0122496 39.7457 0.0304042 39.7885C0.073058 39.8313 0.272109 40.3163 0.485378 40.8584C1.31002 43.0553 2.51854 44.867 4.35265 46.6359C6.9261 49.1181 9.03035 51.315 9.58485 52.0996C9.89764 52.5418 10.1962 52.9127 10.2389 52.9127C10.2957 52.9127 10.182 52.5418 10.0114 52.0996C9.57063 50.9869 9.2294 49.275 9.2294 48.1338C9.2294 47.3635 10.054 41.7429 10.4806 39.5745L10.5943 39.0039L11.0493 40.4305C11.8882 43.0838 12.2152 45.3806 12.2152 48.519C12.2152 51.7002 12.6986 54.4106 13.7223 57.1068C13.9924 57.8058 14.1915 58.3907 14.1772 58.405C14.1488 58.4192 13.5232 58.0198 12.7839 57.5205Z" fill="white"/>
<path d="M76.8595 58.3904C76.8595 58.3347 76.9444 58.1259 77.0576 57.9171C77.4115 57.2349 78.1192 54.9937 78.4164 53.6156C78.6288 52.6133 78.742 51.3465 78.8411 48.9104C78.9968 44.7899 79.2374 43.2864 80.1433 40.5162C80.4405 39.6114 80.6811 39.4861 80.6811 40.2517C80.6811 40.5023 80.9359 42.1728 81.2473 43.9685C81.6012 46.001 81.8135 47.6854 81.8135 48.4232C81.8135 49.6203 81.4738 51.3465 81.035 52.3766C80.9076 52.669 80.8368 52.9335 80.8651 52.9613C80.8934 53.0031 81.1765 52.6968 81.4879 52.2931C82.6061 50.8453 83.8517 49.5229 85.3945 48.1865C87.9989 45.9174 89.4568 44.0103 90.4617 41.5185C90.7023 40.9199 90.943 40.3909 90.9854 40.3492C91.1694 40.1682 90.8297 43.0776 90.5183 44.3444C89.6408 47.9081 88.098 50.7479 85.8899 52.8221C84.8566 53.8105 84.0923 54.2977 81.6861 55.5784C80.1716 56.3858 79.3789 56.8591 77.185 58.2651C77.001 58.3764 76.8595 58.4321 76.8595 58.3904Z" fill="white"/>
<path d="M6.49371 46.7034C3.93577 44.1658 1.62919 40.8197 0.742048 38.324C-0.012026 36.2326 -0.204241 32.9283 0.224546 29.7773C0.564619 27.3095 0.608976 27.2816 1.08212 29.0384C1.58484 30.8648 2.08755 32.1754 3.24084 34.6711C4.06884 36.4697 4.67506 38.2264 5.28128 40.5269C5.62135 41.8375 5.96142 41.963 6.00578 40.8057C6.10928 37.7524 6.56764 36.5812 9.58393 31.7432C10.3232 30.5581 10.959 29.5264 10.9886 29.4427C11.0182 29.373 11.0921 29.3451 11.1512 29.4009C11.3139 29.5543 10.9738 33.1793 10.6337 34.8802C10.4563 35.7307 9.89443 37.6129 9.37693 39.0629C8.268 42.1721 7.97228 43.5524 7.83921 46.0899L7.7505 47.9582L6.49371 46.7034Z" fill="white"/>
<path d="M82.8603 45.9086C82.7625 43.5384 82.4132 41.8235 81.5192 39.3418C80.3877 36.1769 79.7451 32.8167 79.8568 30.5302L79.8987 29.4845L81.2957 31.8547C83.88 36.2466 84.4807 37.7663 84.6623 40.3875C84.7322 41.2658 84.816 41.6841 84.9278 41.6841C85.0255 41.6841 85.1373 41.475 85.1932 41.2379C85.5005 39.6485 86.4085 36.7624 87.0511 35.2706C88.1547 32.747 88.8113 30.9485 89.2583 29.2475C89.4678 28.4249 89.6914 27.7835 89.7472 27.8114C89.8031 27.8532 89.9568 28.7177 90.0965 29.7494C90.4178 32.2451 90.334 35.7586 89.9009 37.4874C89.384 39.537 87.9452 42.186 85.9894 44.7096C84.9557 46.0341 83.2235 47.9582 83.0558 47.9582C82.986 47.9582 82.9022 47.038 82.8603 45.9086Z" fill="white"/>
<path d="M56.6166 44.1847C56.424 44.1567 55.6947 44.0307 55.0067 43.9048C54.305 43.7788 53.7271 43.6389 53.7271 43.5829C53.7271 43.3869 59.2448 38.7125 62.327 36.2773C64.2809 34.7378 67.3356 32.5265 69.0005 31.4349C70.4178 30.5112 72.7019 29.2236 72.7707 29.3076C72.8946 29.4476 73.1285 32.2187 73.1285 33.4782V34.8778L72.6881 35.1157C70.9957 35.9974 67.5144 38.7685 64.157 41.9174C62.2857 43.6669 62.2719 43.6808 61.2675 43.9188C60.3043 44.1427 57.3321 44.3106 56.6166 44.1847Z" fill="white"/>
<path d="M42.4051 38.704L40.2952 37.659L41.1558 36.9852C42.4467 35.9952 48.7069 31.5812 50.7613 30.2062C53.593 28.3223 56.2164 27.1535 58.7843 26.6448C60.1169 26.3835 61.9353 26.2185 61.9353 26.3835C61.9353 26.4385 61.505 26.7685 60.9775 27.0848C58.6872 28.4873 55.6751 30.7837 50.4559 35.1289C47.3883 37.6727 44.7926 39.7628 44.6954 39.7491C44.5982 39.7491 43.5711 39.2678 42.4051 38.704Z" fill="white"/>
<path d="M38.0443 35.57C37.6017 35.3039 37.2982 35.0377 37.3108 34.9116C37.3108 34.7995 37.5005 33.973 37.7028 33.0905C38.1834 31.0872 38.3604 29.7423 38.4742 27.4309L38.5501 25.6237L39.4227 25.2174L40.2953 24.8252L40.2194 27.3888C40.1814 28.7897 40.0676 30.5128 39.9538 31.1993C39.7135 32.6562 39.1698 35.0517 38.9548 35.6261L38.803 36.0183L38.0443 35.57Z" fill="white"/>
<path d="M84.5515 34.4642C83.5553 32.3892 82.3167 30.2721 80.9974 28.3232C79.6512 26.3463 78.9512 25.0424 78.3454 23.4721C77.9011 22.2944 77.4973 20.6821 77.6319 20.5559C77.6588 20.5138 77.9281 20.8223 78.2242 21.2289C79.005 22.2804 79.6512 22.9674 80.9705 24.1171C82.5187 25.463 83.6091 26.9632 84.2688 28.6317C84.4303 29.0523 84.6592 29.4168 84.7669 29.4449C84.9284 29.4729 84.9688 28.9962 85.0361 26.3604C85.0765 24.6358 85.2111 22.4486 85.3323 21.4812C85.5746 19.6165 85.5342 18.1163 85.2111 16.6722C85.1169 16.2376 85.063 15.873 85.1169 15.873C85.3054 15.873 86.6247 18.1023 86.9881 19.0417C88.0517 21.7336 88.3478 25.0705 87.742 27.5661C87.6343 28.0428 87.1497 29.6271 86.6785 31.0853C86.2073 32.5574 85.7227 34.2539 85.6015 34.8708C85.4804 35.4877 85.3727 35.9924 85.3592 36.0205C85.3458 36.0345 84.9823 35.3335 84.5515 34.4642Z" fill="white"/>
<path d="M4.89555 35.082C4.79395 34.5496 4.24243 32.7423 3.66188 31.0471C2.37015 27.2923 2.22502 26.7039 2.23953 24.7425C2.23953 21.8704 3.02327 19.2085 4.50368 17.079C4.96812 16.3925 5.38901 15.8461 5.40353 15.8741C5.43256 15.9021 5.38901 16.2103 5.31645 16.5466C4.93909 18.1157 4.91006 19.3906 5.20034 22.0385C5.34547 23.4956 5.50512 25.7652 5.53415 27.0822C5.60672 29.8002 5.70832 30.0243 6.30338 28.6653C7.11615 26.802 8.04503 25.7092 10.9042 23.2154C11.6009 22.5989 12.4572 21.7583 12.7765 21.338C13.5167 20.3994 13.6038 20.5815 13.1684 22.0946C12.5878 24.1401 11.5719 26.0595 9.88828 28.259C8.81426 29.6741 7.34837 31.9857 6.17276 34.1573C5.62123 35.1801 5.14228 36.0207 5.11325 36.0207C5.09874 36.0207 4.99714 35.6004 4.89555 35.082Z" fill="white"/>
<path d="M36.3936 28.886C33.1761 27.1234 31.0548 23.9993 30.6562 20.4166C30.528 19.3132 30.6135 17.4645 30.7843 17.3642C30.884 17.2925 33.2473 19.2702 34.4147 20.4023C35.7956 21.7637 36.6641 23.2541 36.9915 24.8591C37.2478 26.1059 37.4044 28.5851 37.2478 28.9864L37.1339 29.3016L36.3936 28.886Z" fill="white"/>
<path d="M82.8751 24.1106C82.1106 23.3004 80.4494 21.7957 79.1999 20.754C76.5243 18.5404 75.3189 17.3685 74.5397 16.2111C73.937 15.3141 73.4077 14.0119 73.2313 12.9992L73.1284 12.3771L74.5691 13.8094C75.3777 14.6051 76.5831 15.6324 77.2741 16.0953C78.7 17.0647 80.2142 18.4391 81.2727 19.7557C82.0224 20.6672 82.2723 20.8408 82.2723 20.4213C82.2723 20.291 81.846 18.3957 81.3168 16.2255C80.3612 12.2179 80.0231 11.2775 79.0235 9.84517C78.7883 9.5124 78.5971 9.20858 78.5971 9.16517C78.5971 9.1073 79.0823 9.30985 79.6703 9.59921C81.111 10.3226 82.7134 11.8852 83.2867 13.1583C84.1394 15.0247 84.2276 15.589 84.2864 20.1464C84.3305 22.4612 84.3305 24.617 84.3011 24.9497L84.257 25.5719L82.8751 24.1106Z" fill="white"/>
<path d="M6.72673 20.3496C6.79574 15.4705 6.89236 14.7616 7.73433 12.8989C8.34165 11.5644 10.5501 9.60441 11.9166 9.18739C12.2202 9.10399 12.2064 9.14569 11.7647 9.77122C11.1022 10.7026 10.6329 11.6756 10.3155 12.8016C9.76334 14.6782 8.5901 20.0994 8.68672 20.1967C8.75574 20.2662 8.99039 20.0577 9.23884 19.7519C10.2326 18.473 11.958 16.805 13.2555 15.8875C14.0146 15.3593 15.2154 14.3306 15.9194 13.6078C17.2997 12.176 17.3549 12.1899 16.927 13.7329C16.4025 15.6651 15.1188 17.2359 11.5991 20.2384C10.4673 21.1976 8.93517 22.6293 8.20363 23.4078C7.47208 24.1862 6.83715 24.8257 6.78194 24.8257C6.72673 24.8257 6.69912 22.8101 6.72673 20.3496Z" fill="white"/>
<path d="M38.139 23.5889C38.2489 22.0103 38.5238 20.9437 39.1833 19.5073C40.6673 16.2791 43.4292 13.961 47.5788 12.4108C48.4582 12.0837 48.5544 12.0695 48.4857 12.2828C47.0155 17.559 46.4246 18.9811 45.0918 20.4886C43.6628 22.0956 42.5498 22.8494 39.8154 24.0582L38.0566 24.8262L38.139 23.5889Z" fill="white"/>
<path d="M78.072 15.1017C74.9114 12.301 74.0468 11.3338 71.6374 7.97006C70.3618 6.2088 69.3697 4.73626 69.398 4.69295C69.5823 4.51971 72.5728 5.96337 74.2453 7.04612C76.7681 8.66302 78.1996 10.6697 79.2484 14.0334C79.6311 15.2894 79.9429 16.6465 79.8153 16.6176C79.8012 16.6176 79.0075 15.9246 78.072 15.1017Z" fill="white"/>
<path d="M11.2326 15.4359C11.8939 12.4661 13.3291 9.65979 14.8768 8.27025C15.6789 7.54824 17.4939 6.40391 18.901 5.72277C20.294 5.04162 21.7714 4.51033 21.6306 4.72829C20.9131 5.84537 17.0859 10.7224 16.312 11.4853C15.313 12.4934 11.3874 15.8718 11.2185 15.8718C11.1763 15.8718 11.1904 15.6675 11.2326 15.4359Z" fill="white"/>
<path d="M168.579 38.0385C168.811 39.2303 168.944 40.4553 168.944 41.7133C168.944 46.9276 166.82 51.6454 163.403 55.0719C159.985 58.4819 155.24 60.6008 150.014 60.6008C144.787 60.6008 140.059 58.4819 136.624 55.0719C133.207 51.6619 131.083 46.9276 131.083 41.7133C131.083 36.499 133.207 31.7813 136.624 28.3547C137.769 27.2125 139.047 26.2193 140.457 25.4082V33.867C138.698 36.0024 137.637 38.7337 137.637 41.7133C137.637 45.1233 139.014 48.2023 141.253 50.437C143.493 52.6717 146.579 54.0456 149.997 54.0456C153.415 54.0456 156.501 52.6551 158.74 50.437C160.98 48.2023 162.357 45.1233 162.357 41.7133C162.357 40.4387 162.158 39.1972 161.793 38.0385H168.579Z" fill="#F0BA60"/>
<path d="M181.819 38.0391C181.951 39.2475 182.034 40.4725 182.034 41.714C182.034 50.537 178.451 58.5323 172.644 64.3094C166.854 70.0865 158.84 73.6621 149.997 73.6621C141.154 73.6621 133.14 70.0865 127.35 64.3094C121.56 58.5323 117.976 50.537 117.976 41.714C117.976 32.891 121.56 24.8957 127.35 19.1186C130.967 15.5099 135.447 12.7621 140.44 11.2061V18.1419C137.255 19.4331 134.368 21.3533 131.979 23.737C127.367 28.3388 124.513 34.6954 124.513 41.714C124.513 48.7326 127.367 55.0892 131.979 59.691C136.591 64.2929 142.962 67.14 149.997 67.14C157.032 67.14 163.403 64.2929 168.015 59.691C172.627 55.0892 175.481 48.7326 175.481 41.714C175.481 40.4559 175.398 39.231 175.215 38.0391H181.819Z" fill="#CC7C4B"/>
<mask id="mask0_163_452" style="mask-type:luminance" maskUnits="userSpaceOnUse" x="147" y="0" width="28" height="46">
<path d="M172.627 0.727491H172.594C156.667 1.07511 147.011 6.88536 147.011 23.4388V40.5881C147.011 41.2337 147.027 41.8793 147.027 42.5414C147.027 42.6242 147.011 42.6904 147.011 42.7732C147.011 44.412 148.355 45.7528 149.997 45.7528C151.64 45.7528 152.983 44.412 152.983 42.7732V42.7401V31.881C152.967 30.7388 152.95 29.5966 152.983 28.4545V28.4379C153.199 18.87 155.439 9.84842 166.804 9.81532C166.903 9.81532 166.937 9.84842 166.953 9.89808C166.97 9.94774 166.97 9.9974 166.953 10.0636C166.937 11.4541 166.737 12.6956 166.389 13.8378V13.8544C164.597 21.1047 155.986 21.7172 155.986 27.7758V30.176C160.084 26.137 165.128 25.5907 168.994 22.5449C172.544 19.7474 174.884 15.8573 174.884 4.1706C174.851 2.38283 174.768 0.727491 174.768 0.727491H174.286C174.237 0.710938 174.17 0.710938 174.087 0.710938C173.606 0.710938 173.108 0.727491 172.627 0.727491Z" fill="white"/>
</mask>
<g mask="url(#mask0_163_452)">
<path d="M124.43 23.2398L160.931 -13.1777L197.448 23.2398L160.931 59.6573L124.43 23.2398Z" fill="url(#paint0_linear_163_452)"/>
</g>
<path d="M202.276 37.7546C203.586 38.2678 205.013 38.5327 206.573 38.5327C208.215 38.5327 209.675 38.2347 210.969 37.6388C212.247 37.0428 213.325 36.2317 214.205 35.1889C215.067 34.146 215.714 32.9542 216.129 31.5968C216.544 30.2394 216.71 28.7992 216.66 27.2763H206.755V30.5374H212.529C212.363 31.1498 212.114 31.7126 211.782 32.2258C211.45 32.739 211.052 33.2025 210.571 33.5997C210.09 33.997 209.526 34.3115 208.895 34.5267C208.248 34.7419 207.518 34.8578 206.705 34.8578C205.461 34.8578 204.349 34.5764 203.371 33.997C202.392 33.4176 201.612 32.6231 201.031 31.5802C200.451 30.5374 200.168 29.329 200.168 27.955C200.168 26.5645 200.467 25.3561 201.048 24.3464C201.629 23.3366 202.425 22.5586 203.42 22.0123C204.416 21.4661 205.511 21.2012 206.722 21.2012C207.999 21.2012 209.095 21.4661 209.974 22.0123C210.87 22.5586 211.55 23.2704 212.048 24.1477L215.548 22.1117C214.935 21.1847 214.205 20.3736 213.358 19.6949C212.512 19.0162 211.533 18.4865 210.438 18.1057C209.343 17.725 208.099 17.5264 206.722 17.5264C205.179 17.5264 203.736 17.7747 202.425 18.2713C201.098 18.7679 199.953 19.4797 198.974 20.3901C197.995 21.3005 197.232 22.4096 196.684 23.7008C196.137 24.992 195.871 26.399 195.871 27.955C195.871 29.4945 196.137 30.9181 196.668 32.2258C197.199 33.517 197.945 34.6426 198.908 35.5696C199.837 36.5131 200.965 37.2415 202.276 37.7546Z" fill="white"/>
<path d="M228.838 26.9474C228.473 27.4274 228.042 27.9406 227.511 28.4868L218.386 37.9885H234.545V34.2309H226.134L231.36 29.3145C232.206 28.553 232.886 27.7088 233.4 26.7653C233.915 25.8383 234.18 24.8285 234.18 23.7525C234.18 23.0242 234.031 22.2959 233.732 21.5841C233.434 20.8557 232.986 20.1936 232.388 19.5976C231.791 19.0017 231.028 18.5051 230.115 18.1409C229.203 17.7768 228.158 17.5781 226.947 17.5781C225.321 17.5781 223.944 17.9092 222.832 18.5879C221.72 19.2666 220.874 20.177 220.294 21.3192C219.713 22.4614 219.431 23.7526 219.431 25.1761H223.446C223.446 24.3816 223.579 23.6698 223.861 23.0573C224.143 22.4448 224.524 21.9813 225.039 21.6337C225.553 21.3026 226.15 21.1371 226.864 21.1371C227.361 21.1371 227.793 21.2199 228.191 21.3854C228.572 21.5509 228.904 21.7661 229.17 22.031C229.435 22.2959 229.634 22.6104 229.767 22.9414C229.9 23.2891 229.966 23.6367 229.966 24.0009C229.966 24.514 229.867 25.0106 229.684 25.4907C229.485 25.9873 229.203 26.4673 228.838 26.9474Z" fill="white"/>
<path d="M248.897 30.7362C248.698 31.5639 248.432 32.2757 248.067 32.8882C247.702 33.4841 247.271 33.9476 246.773 34.2787C246.275 34.6097 245.711 34.7587 245.081 34.7587C244.467 34.7587 243.919 34.5932 243.422 34.2787C242.924 33.9476 242.493 33.4841 242.128 32.8882C241.763 32.2923 241.48 31.5639 241.298 30.7362C241.099 29.9086 241.016 28.9816 241.016 27.9718C241.016 26.9621 241.115 26.0351 241.298 25.2074C241.497 24.3797 241.763 23.6679 242.128 23.0555C242.493 22.4595 242.924 21.996 243.422 21.665C243.919 21.3339 244.467 21.1849 245.081 21.1849C245.711 21.1849 246.275 21.3504 246.773 21.665C247.271 21.996 247.702 22.4595 248.067 23.0555C248.432 23.6514 248.714 24.3797 248.897 25.2074C249.096 26.0351 249.179 26.9621 249.179 27.9718C249.179 28.9816 249.079 29.9086 248.897 30.7362ZM249.345 18.884C248.134 18.0398 246.707 17.6094 245.064 17.6094C243.471 17.6094 242.078 18.0398 240.867 18.884C239.655 19.7282 238.71 20.9366 238.03 22.4761C237.349 24.0156 237.017 25.853 237.017 27.9718C237.017 30.0907 237.349 31.9281 238.03 33.4676C238.71 35.007 239.655 36.2154 240.867 37.0596C242.078 37.9039 243.488 38.3343 245.064 38.3343C246.707 38.3343 248.134 37.9039 249.345 37.0596C250.556 36.2154 251.485 35.007 252.149 33.4676C252.812 31.9281 253.161 30.0907 253.161 27.9718C253.161 25.853 252.829 24.0156 252.149 22.4761C251.502 20.9201 250.556 19.7282 249.345 18.884Z" fill="white"/>
<path d="M274.862 27.2763V30.5374H280.636C280.47 31.1498 280.221 31.7126 279.889 32.2258C279.557 32.739 279.159 33.2025 278.678 33.5997C278.197 33.997 277.633 34.3115 277.002 34.5267C276.355 34.7419 275.625 34.8578 274.812 34.8578C273.568 34.8578 272.456 34.5764 271.477 33.997C270.498 33.4176 269.719 32.6231 269.138 31.5802C268.557 30.5374 268.275 29.329 268.275 27.955C268.275 26.5645 268.574 25.3561 269.154 24.3464C269.735 23.3366 270.532 22.5586 271.527 22.0123C272.522 21.4661 273.617 21.2012 274.829 21.2012C276.106 21.2012 277.201 21.4661 278.08 22.0123C278.976 22.5586 279.657 23.2704 280.154 24.1477L283.655 22.1117C283.041 21.1847 282.311 20.3736 281.465 19.6949C280.619 19.0162 279.64 18.4865 278.545 18.1057C277.45 17.725 276.206 17.5264 274.829 17.5264C273.286 17.5264 271.842 17.7747 270.532 18.2713C269.204 18.7679 268.059 19.4797 267.081 20.3901C266.102 21.3005 265.339 22.4096 264.791 23.7008C264.243 24.992 263.978 26.399 263.978 27.955C263.978 29.4945 264.243 30.9181 264.774 32.2258C265.305 33.517 266.052 34.6426 267.014 35.5696C267.976 36.4966 269.121 37.2249 270.432 37.7381C271.743 38.2512 273.17 38.5161 274.729 38.5161C276.372 38.5161 277.832 38.2181 279.126 37.6222C280.403 37.0263 281.482 36.2152 282.361 35.1723C283.224 34.1294 283.871 32.9376 284.286 31.5802C284.7 30.2228 284.866 28.7827 284.816 27.2598H274.862V27.2763Z" fill="white"/>
<path d="M300.23 34.4121H292.216V17.958H288.118V37.9876H300.23V34.4121Z" fill="white"/>
<path d="M316.655 31.3836C316.124 32.3768 315.394 33.1548 314.465 33.7342C313.536 34.3135 312.441 34.5949 311.196 34.5949C309.952 34.5949 308.857 34.3135 307.928 33.7342C306.999 33.1548 306.252 32.3768 305.721 31.3836C305.19 30.3904 304.925 29.2482 304.925 27.9736C304.925 26.699 305.19 25.5568 305.721 24.5636C306.252 23.5704 306.999 22.7924 307.928 22.213C308.857 21.6336 309.952 21.3522 311.196 21.3522C312.457 21.3522 313.552 21.6336 314.498 22.213C315.427 22.7924 316.157 23.5704 316.671 24.5636C317.186 25.5568 317.451 26.699 317.451 27.9736C317.451 29.2482 317.186 30.3904 316.655 31.3836ZM318.778 20.4749C317.816 19.5479 316.688 18.8195 315.41 18.3064C314.133 17.7932 312.723 17.5449 311.196 17.5449C309.687 17.5449 308.276 17.7932 306.999 18.3064C305.705 18.8195 304.576 19.5313 303.631 20.4749C302.668 21.4019 301.922 22.5109 301.391 23.7856C300.86 25.0602 300.595 26.4507 300.595 27.9736C300.595 29.4799 300.86 30.887 301.374 32.1616C301.889 33.4528 302.635 34.5784 303.581 35.5219C304.543 36.482 305.655 37.2104 306.949 37.7401C308.243 38.2698 309.653 38.5347 311.213 38.5347C312.756 38.5347 314.183 38.2698 315.477 37.7401C316.771 37.2104 317.883 36.482 318.828 35.5219C319.774 34.5618 320.504 33.4528 321.035 32.1616C321.566 30.8704 321.831 29.4799 321.831 27.9736C321.831 26.4507 321.566 25.0436 321.035 23.7856C320.487 22.5109 319.741 21.4019 318.778 20.4749Z" fill="white"/>
<path d="M334.905 33.4676C334.59 33.898 334.158 34.229 333.594 34.4277C333.047 34.6263 332.416 34.7256 331.736 34.7256H329.098V28.9982H332.582C332.781 29.0313 332.98 29.0478 333.163 29.0975C333.611 29.1968 333.992 29.3789 334.324 29.6106C334.656 29.8424 334.922 30.1403 335.104 30.5045C335.287 30.8521 335.37 31.2825 335.37 31.7791C335.37 32.4578 335.22 33.0206 334.905 33.4676ZM329.098 21.2181H331.305C332.201 21.2181 332.914 21.4167 333.445 21.814C333.976 22.2113 334.241 22.7906 334.241 23.5686C334.241 24.0652 334.125 24.4956 333.876 24.8598C333.644 25.224 333.296 25.5054 332.864 25.6875C332.433 25.8861 331.902 25.9689 331.321 25.9689H329.115V21.2181H329.098ZM338.97 29.7431C338.555 29.0313 338.008 28.4519 337.294 28.005C336.73 27.6573 336.116 27.3759 335.453 27.1773V27.1607C336.348 26.7966 337.062 26.2834 337.593 25.6213C338.173 24.8929 338.456 24.0321 338.456 23.0224C338.456 21.8802 338.173 20.9366 337.593 20.1917C337.012 19.4468 336.232 18.884 335.204 18.5198C334.192 18.1557 333.014 17.957 331.67 17.957H324.984V38.0032H332.101C333.594 38.0032 334.905 37.8046 336.033 37.4073C337.161 37.01 338.041 36.381 338.655 35.5533C339.268 34.7091 339.584 33.6331 339.584 32.3254C339.6 31.2991 339.385 30.4549 338.97 29.7431Z" fill="white"/>
<path d="M350.7 24.4484L353.188 30.209H348.178L350.7 24.4484ZM354.118 33.4369L356.241 37.9891H360.887L350.7 16.7676L340.513 37.9891H345.125L347.232 33.4369H354.118Z" fill="white"/>
<path d="M375.172 34.4121H367.175V17.958H363.06V37.9876H375.172V34.4121Z" fill="white"/>
<path d="M201.098 46.9102H196.983V66.9563H209.094V63.3642H201.098V46.9102Z" fill="white"/>
<path d="M217.838 59.1602L220.343 53.3996L222.832 59.1602H217.838ZM210.156 66.9568H214.769L216.876 62.4046H223.761L225.885 66.9568H230.53L220.343 45.7354L210.156 66.9568Z" fill="white"/>
<path d="M247.005 59.3427L232.704 45.9014V66.9573H236.669V54.5257L250.954 67.9505V46.9111H247.005V59.3427Z" fill="white"/>
<path d="M267.96 59.7741C267.628 60.5687 267.163 61.2143 266.566 61.7274C265.969 62.2406 265.289 62.6213 264.492 62.853C263.712 63.0848 262.883 63.2172 262.003 63.2172H259.515V50.6201H262.003C262.883 50.6201 263.712 50.7359 264.492 50.9842C265.272 51.216 265.969 51.5967 266.566 52.1099C267.163 52.623 267.628 53.2852 267.96 54.0632C268.292 54.8577 268.457 55.8013 268.457 56.9104C268.457 58.0195 268.292 58.9961 267.96 59.7741ZM267.678 48.1371C266.102 47.3094 264.26 46.9121 262.153 46.9121H259.515H257.972H255.334V66.9583H257.972H259.515H262.153C264.26 66.9583 266.102 66.5445 267.678 65.7333C269.254 64.9057 270.482 63.7469 271.361 62.2571C272.24 60.7673 272.688 58.9961 272.688 56.9435C272.688 54.9074 272.24 53.1362 271.361 51.6298C270.482 50.1235 269.254 48.9647 267.678 48.1371Z" fill="white"/>
<path d="M288.632 46.9102H284.468V66.9563H288.632V46.9102Z" fill="white"/>
<path d="M307.264 59.3427L292.963 45.9014V66.9573H296.928V54.5257L311.213 67.9505V46.9111H307.264V59.3427Z" fill="white"/>
<path d="M319.741 46.9102H315.576V66.9563H319.741V46.9102Z" fill="white"/>
<path d="M322.063 50.6016H327.456V66.9563H331.554V50.6016H336.979V46.9102H322.063V50.6016Z" fill="white"/>
<path d="M343.466 46.9102H339.302V66.9563H343.466V46.9102Z" fill="white"/>
<path d="M353.321 59.1602L355.827 53.3996L358.315 59.1602H353.321ZM345.656 66.9568H350.269L352.376 62.4046H359.261L361.385 66.9568H366.03L355.843 45.7354L345.656 66.9568Z" fill="white"/>
<path d="M364.188 50.6016H369.58V66.9563H373.678V50.6016H379.104V46.9102H364.188V50.6016Z" fill="white"/>
<path d="M385.591 46.9102H381.426V66.9563H385.591V46.9102Z" fill="white"/>
<path d="M397.951 59.9708L392.509 46.9102H387.764L397.951 68.1316L408.138 46.9102H403.376L397.951 59.9708Z" fill="white"/>
<path d="M423.087 50.3698V46.9102H414.293H412.966H410.328V66.9563H412.966H414.293H423.087V63.4801H414.293V58.0175H422.523V54.6075H414.293V50.3698H423.087Z" fill="white"/>
<line x1="104.876" y1="10.1719" x2="104.876" y2="73.562" stroke="#A8D0E7"/>
<defs>
<linearGradient id="paint0_linear_163_452" x1="143.046" y1="41.0235" x2="179.516" y2="4.47102" gradientUnits="userSpaceOnUse">
<stop stop-color="#4F9E3E"/>
<stop offset="0.2267" stop-color="#4F9E3E"/>
<stop offset="0.9225" stop-color="#BFD407"/>
<stop offset="1" stop-color="#BFD407"/>
</linearGradient>
</defs>
</svg>
