<?xml version="1.0" encoding="utf-8"?>
<!-- Generator: Adobe Illustrator 27.0.0, SVG Export Plug-In . SVG Version: 6.00 Build 0)  -->
<svg version="1.1" id="Layer_1" xmlns="http://www.w3.org/2000/svg" xmlns:xlink="http://www.w3.org/1999/xlink" x="0px" y="0px"
	 viewBox="0 0 309 166.5" style="enable-background:new 0 0 309 166.5;" xml:space="preserve">
<style type="text/css">
	.st0{fill:#FFFFFF;}
</style>
<path class="st0" d="M101.3,81.6c-1.4-2.2-2.9-4.4-4.5-6.4c-0.7-0.8-1.3-1.6-2.1-2.4s-1.8-2.1-3.1-1.4L90.3,72
	c-5.8,3-11,6.9-15.6,11.6c-3.6,3.7-6.3,9.2-10.2,12.6c-4.8,4.6-12.4,4.6-17.2,0c-2.7-2.4-5-6.5-7.3-9.3c-3.9-4.8-8.5-8.9-13.7-12.2
	c-1.9-1.2-3.8-2.3-5.8-3.3c-0.6-0.3-1.4-0.2-1.9,0.3c-1.1,1.1-2.2,2.3-3.2,3.5c-1.6,2-3.2,4.2-4.6,6.4c-0.5,0.9-0.3,2,0.6,2.5
	c0.1,0.1,0.3,0.1,0.4,0.2C18.6,86.5,24,91,28.5,96.6c2,2.6,4.2,5.2,6.5,7.6c9.2,10.1,23.8,13.3,35.8,5.3l0,0
	c3.7-2.6,7.1-5.8,9.9-9.4c2.7-3.3,5.2-6.7,8.5-9.4c2.5-2.2,5.3-3.9,8.3-5.3c0.9-0.4,1.9-0.8,2.9-1.1c0.7-0.2,1.2-0.9,1.3-1.7
	C101.6,82.2,101.5,81.9,101.3,81.6"/>
<path class="st0" d="M96.1,135.8c-0.8-0.1-1.5-0.2-2.3-0.1c-5.9,0.1-11,4.4-16.4,6.6c-6.6,2.7-13.7,4.1-20.9,3.9
	c-7.4,0.2-14.9-1.1-21.8-3.9c-3.7-1.5-6.9-3.8-10.6-5.3c-2.8-1.3-6-1.7-9.1-0.9c-0.8,0.1-1.5,0.6-2,1.2c-0.3,0.4-0.3,1,0.1,1.4
	c6.6,9.2,16,16.1,26.8,19.5c21.4,7.2,47.2-1.7,59.2-19.6C100.1,136.9,97.3,136,96.1,135.8"/>
<path class="st0" d="M108.3,100.6c-0.2-0.9-0.9-1.5-1.8-1.5c-0.9,0-1.8,0.1-2.7,0.2c-13,1.6-20,8.1-25.8,13.4s-10.6,9.7-22,9.7
	c-11.2,0-15.8-4.3-21.7-9.7S19.8,100.4,5.7,99.1C4.8,99,4,99.7,3.9,100.6c-0.3,2.5-0.5,5-0.5,7.4c0,1.6,0.1,3.2,0.2,4.7
	c0.1,0.8,0.7,1.5,1.5,1.6c8.6,1,13.9,4.9,19.1,9.7s11.7,10.8,23,12.8h0.1c5.1,0.9,10.3,1,15.4,0.3c4.1-0.5,8.1-1.7,11.8-3.4
	c3-1.5,5.9-3.3,8.5-5.5c1.7-1.3,3.2-2.8,4.8-4.2c5.2-4.8,10.5-8.7,19.2-9.7c0.8-0.1,1.5-0.7,1.6-1.6c0.1-1.6,0.2-3.1,0.2-4.7
	C108.8,105.5,108.6,103,108.3,100.6"/>
<path class="st0" d="M70.8,55.8c-0.2-1.1-0.7-1.9-1.6-2.1h-0.1c-0.3,0-0.5,0-0.8,0c-2.6,0.3-4.9,2.5-6.6,4.3
	c-1.8,2.1-3.4,4.3-4.7,6.8c-1.5-4.2-4.7-9.9-9.8-8.8c-4.8,1.1-7.9,5.8-6.8,10.7c0,0.2,0.1,0.3,0.1,0.5c1.1,3.9,2.9,7.6,5.2,10.8
	c1.7,2.6,3.5,5.1,5.5,7.5c0.5,0.7,1.1,1.3,1.7,1.9c0.9,0.9,1.9,1.5,3.1,1.8c2.4,0.4,4.1-1.7,5.3-3.5c4.2-6.5,6.8-14,8.6-21.5
	c0.2-1.1,0.5-2.3,0.7-3.6C71,59,71.1,57.4,70.8,55.8"/>
<path class="st0" d="M268.7,76.7c1.6,0.2,3.1-1,3.3-2.7c0-0.1,0-0.3,0-0.4v-4.4c-0.1-1.8-1.7-3.2-3.6-3c-1.6,0.1-2.9,1.4-3,3v4.4
	c-0.1,1.7,1.2,3,2.9,3.1C268.4,76.7,268.5,76.7,268.7,76.7 M267.2,69.2c0-0.8,0.7-1.5,1.5-1.5s1.5,0.7,1.5,1.5v4.3
	c0,0.8-0.7,1.5-1.5,1.5s-1.5-0.7-1.5-1.5V69.2z"/>
<polygon class="st0" points="275.1,70.3 275,69.6 275.1,69.6 277.6,76.5 279.8,76.5 279.8,66.3 277.9,66.3 277.9,72.4 278,73.1 
	277.9,73.1 275.4,66.3 273.2,66.3 273.2,76.5 275.1,76.5 "/>
<path class="st0" d="M200.5,108.9c-4.8,0-8,2.9-8,7.4V127c0,4.5,3.2,7.4,8,7.4s7.9-2.9,7.9-7.4v-10.6
	C208.3,111.9,205.2,108.9,200.5,108.9 M204,126.9c0,2-1.6,3.6-3.6,3.6s-3.6-1.6-3.6-3.6v-10.4c0-2,1.6-3.6,3.6-3.6s3.6,1.6,3.6,3.6
	V126.9z"/>
<path class="st0" d="M226.8,117.2c0-4.9-2.8-7.8-7.8-7.8h-7.6V134h4.4V125h2.9l3.5,8.9h5.1l-4.4-9.7
	C225.4,123.2,226.8,120.7,226.8,117.2 M218.7,121.2h-2.8v-7.8h2.8c2.4,0,3.8,1.4,3.8,3.9S221.1,121.2,218.7,121.2"/>
<rect x="262.5" y="109.4" class="st0" width="4.3" height="24.6"/>
<path class="st0" d="M277.9,108.9c-4.8,0-8,2.9-8,7.4V127c0,4.5,3.1,7.4,8,7.4s7.9-2.9,7.9-7.4v-10.6
	C285.8,111.9,282.7,108.9,277.9,108.9 M281.5,126.9c-0.1,2-1.8,3.5-3.8,3.4c-1.8-0.1-3.3-1.6-3.4-3.4v-10.4c0.1-2,1.8-3.5,3.8-3.4
	c1.8,0.1,3.3,1.6,3.4,3.4V126.9z"/>
<polygon class="st0" points="300.2,109.4 300.2,124.2 300.4,125.8 300.1,125.8 294,109.4 288.9,109.4 288.9,134 293.3,134 
	293.3,119.2 293.1,117.5 293.4,117.5 299.4,134 304.6,134 304.6,109.4 "/>
<path class="st0" d="M176.6,113.4h5.3V134h4.3v-20.6h3.6c0.8-0.1,1.5-0.8,1.6-1.6v-2.4h-14.8V113.4z"/>
<path class="st0" d="M245.3,113.4h5.2V134h4.3v-20.6h3.5c0.8-0.1,1.5-0.8,1.6-1.6v-2.4h-14.7V113.4z"/>
<path class="st0" d="M226.6,73.4v-4.1c0-1.7-1.3-3-2.9-3.1c-0.1,0-0.2,0-0.3,0h-3.1v10.2h3.1c1.7,0.1,3.1-1.1,3.2-2.8
	C226.6,73.6,226.6,73.5,226.6,73.4 M222.1,74.8v-6.9h1.3c0.8-0.1,1.4,0.5,1.5,1.2c0,0.1,0,0.2,0,0.2v4c0.1,0.7-0.5,1.4-1.2,1.5
	c-0.1,0-0.2,0-0.2,0L222.1,74.8z"/>
<path class="st0" d="M255.7,73.4v-4.1c0-1.7-1.3-3-2.9-3.1c-0.1,0-0.2,0-0.3,0h-3.1v10.2h3.1c1.7,0.1,3.1-1.1,3.2-2.7
	C255.7,73.6,255.7,73.5,255.7,73.4 M251.1,74.8v-6.9h1.2c0.8-0.1,1.4,0.5,1.5,1.3c0,0.1,0,0.1,0,0.2v4c0.1,0.8-0.5,1.4-1.3,1.5
	c-0.1,0-0.2,0-0.2,0L251.1,74.8z"/>
<path class="st0" d="M233.2,74.8h-3.5v-2.7h3v-1.6h-3v-2.6h2.7c0.4,0,0.8-0.3,0.8-0.8v-0.9h-5.3v10.2h5.3L233.2,74.8z"/>
<path class="st0" d="M262.2,74.8h-3.5v-2.7h3v-1.6h-3v-2.6h2.7c0.4,0,0.7-0.3,0.8-0.7v-0.9H257v10.2h5.3L262.2,74.8z"/>
<path class="st0" d="M237.4,76.7c1.6,0.2,3.1-1,3.2-2.6c0-0.1,0-0.2,0-0.4v-0.8h-1.1c-0.4,0-0.7,0.4-0.7,0.8l0,0
	c0,0.8-0.6,1.4-1.4,1.4c-0.8,0-1.4-0.6-1.4-1.4v-4.5c0-0.8,0.6-1.4,1.4-1.4c0.8,0,1.4,0.6,1.4,1.4l0,0c0,0.4,0.3,0.8,0.8,0.8
	c0,0,0,0,0,0h1v-0.8c-0.1-1.8-1.7-3.1-3.5-3c-1.6,0.1-2.9,1.4-3,3v4.6c0,1.7,1.3,3,3,3C237.2,76.7,237.3,76.7,237.4,76.7"/>
<path class="st0" d="M243.1,75.7l0.3-1.4h2.5l0.4,2.2h2L246,66.3h-2.5L241,76.5h1.1C242.6,76.5,243,76.2,243.1,75.7 M244.6,68.1h0.1
	l0.9,4.6h-1.9L244.6,68.1z"/>
<path class="st0" d="M234,109.4l-5.8,24.6h2.7c1.2,0,2.2-0.8,2.4-2l0.7-3.4h6.1l0.7,3.4c0.2,1.2,1.2,2,2.4,1.9h2.7l-5.8-24.6
	L234,109.4z M234.6,124.7l2.2-11h0.3l2.2,11L234.6,124.7z"/>
<path class="st0" d="M156.3,113.4c1,0,1.9-0.8,1.9-1.9v-2.1h-12.7V134h12.7v-4h-8.4v-6.5h7.2v-3.9h-7.2v-6.2L156.3,113.4z"/>
<path class="st0" d="M175.3,127.1c0-8.9-10.4-6.5-10.4-11.5c-0.1-1.4,1-2.6,2.5-2.7c0.1,0,0.3,0,0.4,0c1.7,0,2.8,0.9,3,2.3l0,0
	c0,0.6,0.5,1.1,1.1,1.2h3.1v-1c0-3.9-2.8-6.5-7.2-6.5s-7.2,2.5-7.2,7c0,8.6,10.4,6.5,10.4,11.5c0.1,1.6-1.1,2.9-2.6,3
	c-0.1,0-0.3,0-0.4,0c-1.6,0.2-3-1-3.2-2.6c0-0.1,0-0.2,0-0.2l0,0c0-0.6-0.5-1.2-1.2-1.2h-3.2v1c0,4.2,3,7,7.6,7
	S175.3,131.7,175.3,127.1"/>
<path class="st0" d="M131.7,125h2.9l3.4,8.9h5.1l-4.4-9.6c2.6-1.1,4-3.6,4-7.1c0-4.9-2.8-7.8-7.7-7.8h-7.6V134h4.3L131.7,125z
	 M131.7,113.4h2.8c2.4,0,3.8,1.4,3.8,3.9s-1.4,3.9-3.8,3.9h-2.8V113.4z"/>
<path class="st0" d="M168.4,80.1c-4.8,0-8,2.9-8,7.4v10.7c0,4.5,3.1,7.4,8,7.4s7.9-2.9,7.9-7.4V87.6
	C176.3,83.1,173.2,80.1,168.4,80.1 M172,98.1c-0.1,2-1.8,3.5-3.8,3.4c-1.8-0.1-3.3-1.6-3.4-3.4V87.7c0.1-2,1.8-3.5,3.8-3.4
	c1.8,0.1,3.3,1.6,3.4,3.4V98.1z"/>
<path class="st0" d="M207.5,80.6h-1.9l-0.3,0.8l-3.2,9.1h-0.2l-3-8.4c0.1,0.1,0.1,0.3,0.1,0.4l-0.7-2h-5l6.4,14.7v9.9h4.4v-9.9
	l6.4-14.7L207.5,80.6"/>
<polygon class="st0" points="275.3,87.4 275.6,87.4 275.4,89.1 275.4,105.2 279.8,105.2 279.8,80.6 273.9,80.6 270.1,93.9 
	269.8,93.9 266,80.6 259.9,80.6 259.9,105.2 264.3,105.2 264.3,89.1 264.1,87.4 264.4,87.4 268.2,99.9 271.5,99.9 "/>
<path class="st0" d="M140.1,101.2h-8.4v-6.5h7.2v-3.9h-7.2v-6.2h6.5c1,0,1.9-0.8,1.9-1.9v-2.1h-12.7v24.6h12.7L140.1,101.2z"/>
<path class="st0" d="M150.4,105.6c4.7,0,7.7-2.9,7.7-7.2v-2h-2.5c-1,0-1.8,0.9-1.8,1.9l0,0c0,1.9-1.5,3.4-3.4,3.4
	c-1.9,0-3.4-1.5-3.4-3.4V87.5c0-1.9,1.5-3.4,3.4-3.4c1.9,0,3.4,1.5,3.4,3.4l0,0l0,0c0,1,0.8,1.9,1.9,1.9h2.4v-2
	c0-4.4-3.1-7.2-7.7-7.2s-7.8,2.9-7.8,7.2v11C142.6,102.7,145.7,105.6,150.4,105.6"/>
<path class="st0" d="M182.9,86.8c-0.1-1.4,1-2.6,2.5-2.7c0.1,0,0.3,0,0.4,0c1.7,0,2.8,0.9,3,2.3l0,0c0,0.6,0.4,1.1,1,1.2h3.1v-1
	c0-3.9-2.8-6.5-7.2-6.5s-7.2,2.5-7.2,7c0,8.6,10.4,6.5,10.4,11.5c0.1,1.6-1.1,2.9-2.6,3c-0.2,0-0.3,0-0.5,0c-1.6,0.2-3-1-3.2-2.6
	c0-0.1,0-0.2,0-0.2l0,0c0-0.6-0.5-1.2-1.1-1.2h-3.1v1c0,4.2,3,7,7.6,7s7.4-2.6,7.4-7.3C193.3,89.5,182.9,91.9,182.9,86.8"/>
<path class="st0" d="M218.4,105.6c4.5,0,7.4-2.6,7.4-7.3c0-8.9-10.4-6.5-10.4-11.5c-0.1-1.4,1-2.6,2.5-2.7c0.1,0,0.3,0,0.4,0
	c1.7,0,2.8,0.9,3,2.3l0,0c0,0.6,0.5,1.1,1.1,1.2h3.1v-1c0-3.9-2.8-6.5-7.2-6.5s-7.2,2.5-7.2,7c0,8.6,10.4,6.5,10.4,11.5
	c0.1,1.6-1.1,2.9-2.6,3c-0.2,0-0.3,0-0.5,0c-1.6,0.2-3-1-3.2-2.6c0-0.1,0-0.2,0-0.2l0,0c0-0.6-0.5-1.2-1.1-1.2h-3.2v1
	C210.8,102.9,213.8,105.6,218.4,105.6"/>
<path class="st0" d="M232,105.2h4.3V84.6h3.5c0.8-0.1,1.5-0.8,1.6-1.6v-2.4h-14.7v4h5.2L232,105.2z"/>
<path class="st0" d="M254.9,84.6c1,0,1.8-0.7,1.9-1.7v-2.3h-12.7v24.6h12.7v-4h-8.4v-6.5h7.2v-3.9h-7.2v-6.2L254.9,84.6z"/>
<path class="st0" d="M130.6,76.7c1.6,0.2,3-1,3.1-2.6c0-0.1,0-0.2,0-0.4v-7.5h-1.8v7.4c0,0.8-0.6,1.4-1.4,1.4s-1.4-0.6-1.4-1.4l0,0
	v-7.4h-1.8v7.5c0,1.6,1.2,2.9,2.8,2.9C130.3,76.7,130.5,76.7,130.6,76.7"/>
<polygon class="st0" points="137,70.3 136.9,69.6 137,69.6 139.5,76.5 141.7,76.5 141.7,66.3 139.8,66.3 139.8,72.4 139.9,73.1 
	139.8,73.1 137.3,66.3 135.2,66.3 135.2,76.5 137,76.5 "/>
<rect x="143.1" y="66.3" class="st0" width="1.8" height="10.2"/>
<polygon class="st0" points="148.1,76.5 149.9,76.5 149.9,67.9 152,67.9 152,66.3 145.9,66.3 145.9,67.9 148.1,67.9 "/>
<path class="st0" d="M158.3,74.8h-3.5v-2.7h3v-1.6h-3v-2.6h2.7c0.4,0,0.8-0.3,0.8-0.8v-0.9h-5.3v10.2h5.3V74.8z"/>
<path class="st0" d="M166,73.4v-4.1c0-1.7-1.3-3-2.9-3.1c-0.1,0-0.2,0-0.3,0h-3.1v10.2h3.1c1.7,0.1,3.1-1.1,3.2-2.8
	C166,73.6,166,73.5,166,73.4 M161.5,74.8v-6.9h1.2c0.7-0.1,1.4,0.5,1.5,1.2c0,0.1,0,0.2,0,0.2v4c0.1,0.7-0.5,1.4-1.2,1.5
	c-0.1,0-0.2,0-0.2,0L161.5,74.8z"/>
<polygon class="st0" points="174.6,72.4 174.7,73.1 174.6,73.1 172.1,66.3 170,66.3 170,76.5 171.8,76.5 171.8,70.3 171.7,69.6 
	171.8,69.6 174.3,76.5 176.4,76.5 176.4,66.3 174.6,66.3 "/>
<polygon class="st0" points="186.6,76.5 188.3,76.5 188.3,67.9 190.5,67.9 190.5,66.3 184.4,66.3 184.4,67.9 186.6,67.9 "/>
<rect x="191.5" y="66.3" class="st0" width="1.8" height="10.2"/>
<path class="st0" d="M197.9,76.7c1.7,0.1,3.1-1.1,3.3-2.7c0-0.1,0-0.2,0-0.4v-4.4c-0.1-1.8-1.7-3.2-3.5-3c-1.6,0.1-2.9,1.4-3,3v4.4
	c-0.1,1.7,1.2,3,2.9,3.1C197.6,76.7,197.8,76.7,197.9,76.7 M196.4,69.2c0-0.8,0.7-1.5,1.5-1.5s1.5,0.7,1.5,1.5v4.3
	c0,0.8-0.7,1.5-1.5,1.5s-1.5-0.7-1.5-1.5V69.2z"/>
<polygon class="st0" points="204.3,70.3 204.2,69.6 204.3,69.6 206.8,76.5 209,76.5 209,66.3 207.2,66.3 207.2,72.4 207.2,73.1 
	207.1,73.1 204.6,66.3 202.5,66.3 202.5,76.5 204.3,76.5 "/>
<path class="st0" d="M179.4,75.7l0.3-1.4h2.6l0.3,1.4c0.1,0.5,0.5,0.8,1,0.8h1.2l-2.4-10.2h-2.5l-2.4,10.2h1.1
	C179,76.5,179.4,76.2,179.4,75.7 M181,68.1h0.1l0.9,4.6h-2L181,68.1z"/>
<path class="st0" d="M213.2,76.7c1.5,0.1,2.9-1,3.1-2.5c0-0.2,0-0.3,0-0.5c0-3.7-4.3-2.7-4.3-4.8c0-0.6,0.4-1.1,1-1.1
	c0.1,0,0.1,0,0.2,0c0.6-0.1,1.2,0.4,1.2,1c0,0,0,0,0,0l0,0c0,0.3,0.2,0.5,0.5,0.5h1.3v-0.4c0-1.7-1.4-3-3.1-2.9
	c-1.7,0-3,1.4-2.9,3.1c0,3.6,4.3,2.7,4.3,4.8c0,0.6-0.5,1.2-1.1,1.2c-0.1,0-0.1,0-0.2,0c-0.7,0.1-1.3-0.4-1.3-1.1c0,0,0-0.1,0-0.1
	l0,0c0-0.3-0.2-0.5-0.5-0.5H210v0.4c0,1.6,1.2,2.9,2.8,2.9C212.9,76.7,213,76.7,213.2,76.7"/>
<path class="st0" d="M132.7,144.8c0.8-1,1.3-2.2,1.3-3.5c-0.1-1.8-1.6-3.3-3.4-3.2c-1.7,0.1-3.1,1.4-3.2,3.1v1h1.2
	c0.5,0,0.9-0.4,0.9-0.9l0,0c0-0.7,0.5-1.3,1.2-1.3c0.7,0,1.3,0.5,1.3,1.2c0,0.1,0,0.1,0,0.2c-0.1,1-0.6,2-1.3,2.8l-3.2,4.5v1.5h6.6
	v-1.9h-3.8v-0.1L132.7,144.8z"/>
<path class="st0" d="M138.6,138.2c-2.1,0-3.6,1.3-3.6,3.2v5.8c0,1.9,1.4,3.2,3.6,3.2s3.5-1.3,3.5-3.2v-5.8
	C142.1,139.5,140.7,138.2,138.6,138.2 M140.1,147.1c-0.1,0.8-0.8,1.4-1.6,1.3c-0.7-0.1-1.3-0.6-1.3-1.3v-5.7
	c0.1-0.8,0.8-1.4,1.6-1.3c0.7,0.1,1.3,0.6,1.3,1.3V147.1z"/>
<path class="st0" d="M148.5,144.8c0.8-1,1.3-2.2,1.3-3.5c-0.1-1.8-1.7-3.2-3.5-3.1c-1.6,0.1-3,1.4-3.1,3v1h1.2
	c0.5,0,0.9-0.4,0.9-0.9c0-0.7,0.5-1.3,1.2-1.3c0.7,0,1.3,0.5,1.3,1.2c0,0.1,0,0.1,0,0.2c-0.1,1-0.6,2-1.3,2.8l-3.2,4.5v1.5h6.6v-1.9
	H146v-0.1L148.5,144.8z"/>
<polygon class="st0" points="150.7,139.6 150.7,141.6 152.4,140.6 152.6,140.6 152.6,150.2 154.6,150.2 154.6,138.4 153,138.4 "/>
<rect x="156" y="143.4" class="st0" width="4" height="1.9"/>
<path class="st0" d="M165.8,144.8c0.8-1,1.3-2.2,1.3-3.5c-0.1-1.8-1.6-3.3-3.4-3.2c-1.7,0.1-3.1,1.4-3.2,3.1v1h1.2
	c0.5,0,0.9-0.4,0.9-0.9l0,0c0-0.7,0.5-1.3,1.2-1.3c0.7,0,1.3,0.5,1.3,1.2c0,0.1,0,0.1,0,0.2c-0.1,1-0.6,2-1.2,2.7l-3.2,4.5v1.5h6.6
	v-1.9h-3.8v-0.1L165.8,144.8z"/>
<path class="st0" d="M171.8,138.2c-2.1,0-3.6,1.3-3.6,3.2v5.8c0,1.9,1.4,3.2,3.6,3.2s3.5-1.3,3.5-3.2v-5.8
	C175.3,139.5,173.9,138.2,171.8,138.2 M173.2,147.1c-0.1,0.8-0.8,1.4-1.6,1.3c-0.7-0.1-1.3-0.6-1.3-1.3v-5.7
	c0.1-0.8,0.8-1.4,1.6-1.3c0.7,0.1,1.3,0.6,1.3,1.3V147.1z"/>
<path class="st0" d="M181.6,144.2v-0.1c1-0.5,1.6-1.6,1.5-2.8c-0.1-1.8-1.7-3.2-3.6-3.1c-1.6,0.1-2.9,1.4-3.1,3.1v0.6h1.4
	c0.4,0,0.6-0.3,0.7-0.6l0,0c0-0.6,0.5-1.1,1.1-1.1c0,0,0,0,0.1,0c0.7,0,1.2,0.5,1.2,1.5s-0.5,1.8-1.4,1.8h-1.3v1.7h1.5
	c0.9,0,1.4,0.7,1.4,1.8s-0.6,1.7-1.4,1.7c-0.7,0-1.3-0.5-1.4-1.2c0-0.1,0-0.1,0-0.2v-0.5h-2.1v0.6c0,1.7,1.4,3.2,3.1,3.2
	c0.1,0,0.2,0,0.4,0c1.8,0.1,3.3-1.2,3.5-2.9c0-0.1,0-0.2,0-0.4C183.3,145.9,182.7,144.8,181.6,144.2"/>
<path class="st0" d="M187.8,138.2c-2.1,0-3.6,1.3-3.6,3.2v5.8c0,1.9,1.4,3.2,3.6,3.2s3.5-1.3,3.5-3.2v-5.8
	C191.4,139.5,190,138.2,187.8,138.2 M189.3,147.1c0,0.8-0.7,1.4-1.5,1.4c-0.8,0-1.4-0.6-1.4-1.4v-5.7c0-0.8,0.7-1.4,1.5-1.4
	c0.8,0,1.4,0.6,1.4,1.4V147.1z"/>
<path class="st0" d="M6.1,4h2l2.7,13.4c0.3,1.6,0.9,4.6,1.1,5.5H12c0.2-0.9,0.7-3.6,1.1-5.8l2.6-12.7h2.1l2.6,12.7
	c0.4,2.2,0.9,4.9,1.1,5.8h0.1c0.1-0.9,0.8-3.9,1.1-5.5L25.5,4h2l-4.7,21.7h-2.1l-2.6-11.8c-0.5-2.3-0.8-4.5-1-6.8h-0.1
	c-0.2,2.3-0.6,4.6-1,6.8l-2.6,11.8h-2.1L6.1,4z"/>
<path class="st0" d="M40.7,20.7c-0.2,3.4-2.2,5.3-5.6,5.3c-3.2,0-5.2-2.1-5.2-5.8v-5.3c0-3.7,2.1-5.8,5.3-5.8s5.4,2.1,5.4,5.8v3.6
	h-8.9v1.8c0,2.7,1.3,4,3.4,4s3.4-1.1,3.7-3.5L40.7,20.7z M31.8,14.8v1.9h7v-1.9c0-2.7-1.3-4-3.6-4S31.8,12.1,31.8,14.8z"/>
<path class="st0" d="M52.8,20.9h1.8c0,2.1,1.3,3.4,3.6,3.4c2,0,3.2-1,3.2-2.8c0-4-8.4-2.5-8.4-8.1c0-2.6,2-4.4,4.9-4.4
	c2.6-0.1,4.9,1.9,5,4.5c0,0.2,0,0.4,0,0.5h-1.8c0.1-1.7-1.1-3.1-2.8-3.2c-0.2,0-0.3,0-0.5,0c-1.9,0-3,1-3,2.7c0,3.8,8.4,2.3,8.4,8.1
	c0,2.7-2,4.5-5,4.5C55,26.1,52.8,24,52.8,20.9z"/>
<path class="st0" d="M77.8,9.4v16.2h-1.5l-0.3-2c-0.8,1.5-2.5,2.5-4.2,2.4c-2.6,0-4.4-1.8-4.4-6.2V9.4h1.8v10.1c0,3.3,0.9,4.8,3,4.8
	s3.8-1.9,3.8-5V9.4H77.8z"/>
<path class="st0" d="M93.8,15.3V20c0,4-1.9,6.1-5.1,6.1c-1.5,0-2.9-0.6-3.8-1.8v7h-1.8V9.4h1.5l0.2,1.5C85.8,9.7,87.2,9,88.7,9
	C91.7,9,93.8,11.2,93.8,15.3z M91.9,15.3c0-3.2-1.3-4.5-3.6-4.5c-1.9,0-3.4,1.4-3.4,4.5V20c0,2.6,1.3,4.4,3.4,4.4
	c2.4,0,3.6-1.3,3.6-4.4V15.3z"/>
<path class="st0" d="M109.3,15.3V20c0,4-1.9,6.1-5.1,6.1c-1.5,0-2.9-0.6-3.8-1.8v7h-1.8V9.4h1.5l0.2,1.5c0.9-1.2,2.3-1.9,3.8-1.9
	C107.2,9,109.3,11.2,109.3,15.3z M107.5,15.3c0-3.2-1.3-4.5-3.6-4.5c-1.9,0-3.4,1.4-3.4,4.5V20c0,2.6,1.3,4.4,3.4,4.4
	c2.4,0,3.6-1.3,3.6-4.4V15.3z"/>
<path class="st0" d="M113.8,20.2v-5.2c0-3.8,2.2-5.9,5.4-5.9s5.4,2.1,5.4,5.9v5.2c0,3.8-2.2,5.9-5.4,5.9S113.8,24,113.8,20.2z
	 M122.8,20.2v-5.2c0-2.8-1.4-4.1-3.6-4.1s-3.6,1.3-3.6,4.1v5.2c0,2.8,1.4,4.1,3.6,4.1S122.8,23,122.8,20.2z"/>
<path class="st0" d="M137.4,9.2v2c-0.6-0.2-1.3-0.3-2-0.3c-2.3,0-3.8,1.9-3.8,5v9.8h-1.8V9.4h1.5l0.3,2l0,0c0.8-1.5,2.5-2.5,4.2-2.4
	C136.3,9,136.8,9.1,137.4,9.2z"/>
<path class="st0" d="M147.7,24.1v1.7h-0.9c-3,0-4.6-1.9-4.6-5v-9.7h-2.5V9.4h2.5V5.7h1.8v3.8h3.4v1.7H144v9.7c0,2.1,0.9,3.2,2.8,3.2
	L147.7,24.1z"/>
<path class="st0" d="M166.5,24.1v1.7h-0.9c-3,0-4.6-1.9-4.6-5v-9.7h-2.5V9.4h2.5V5.7h1.8v3.8h3.4v1.7h-3.4v9.7
	c0,2.1,0.9,3.2,2.8,3.2L166.5,24.1z"/>
<path class="st0" d="M180.8,15.9v9.8H179V16c0-3.8-1-5.2-3-5.2c-2.3,0-3.8,1.9-3.8,5.1v9.8h-1.8V3.4h1.8v8.1
	c0.8-1.5,2.5-2.5,4.2-2.4C179.2,9,180.8,11.1,180.8,15.9z"/>
<path class="st0" d="M196.3,20.7c-0.2,3.4-2.2,5.3-5.6,5.3c-3.2,0-5.2-2.1-5.2-5.8v-5.3c0-3.7,2.1-5.8,5.3-5.8s5.4,2.1,5.4,5.8v3.6
	h-8.9v1.8c0,2.7,1.3,4,3.4,4c2.3,0,3.4-1.1,3.7-3.5L196.3,20.7z M187.4,14.8v1.9h7.1v-1.9c0-2.7-1.3-4-3.6-4S187.4,12.1,187.4,14.8
	L187.4,14.8z"/>
</svg>
