<?xml version="1.0" encoding="utf-8"?>
<!-- Generator: Adobe Illustrator 28.2.0, SVG Export Plug-In . SVG Version: 6.00 Build 0)  -->
<svg version="1.1" id="Layer_1" xmlns="http://www.w3.org/2000/svg" xmlns:xlink="http://www.w3.org/1999/xlink" x="0px" y="0px"
	 viewBox="0 0 458.6 64.4" style="enable-background:new 0 0 458.6 64.4;" xml:space="preserve">
<style type="text/css">
	.st0{fill:#EFBA61;}
	.st1{fill:#CD7D4B;}
	.st2{fill:#FFFFFF;}
</style>
<path class="st0" d="M252.5,31.8c0.2,1,0.3,1.9,0.3,2.9c0,4.2-1.7,7.9-4.4,10.7c-2.7,2.7-6.5,4.4-10.7,4.4c-4.2,0-7.9-1.7-10.7-4.4
	s-4.4-6.5-4.4-10.7s1.7-7.9,4.4-10.7c0.9-0.9,1.9-1.7,3.1-2.4l0,6.8c-1.4,1.7-2.2,3.9-2.2,6.3c0,2.7,1.1,5.2,2.9,7
	c1.8,1.8,4.2,2.9,7,2.9c2.7,0,5.2-1.1,7-2.9c1.8-1.8,2.9-4.2,2.9-7c0-1-0.2-2-0.4-2.9L252.5,31.8z"/>
<path class="st1" d="M263.1,31.8c0.1,1,0.2,1.9,0.2,2.9c0,7-2.9,13.4-7.5,18c-4.6,4.6-11,7.5-18,7.5c-7,0-13.4-2.9-18-7.5
	c-4.6-4.6-7.5-11-7.5-18c0-7,2.9-13.4,7.5-18c2.9-2.9,6.4-5.1,10.4-6.3v5.5c-2.5,1-4.8,2.6-6.7,4.5c-3.7,3.7-5.9,8.7-5.9,14.4
	c0,5.6,2.3,10.7,5.9,14.4c3.7,3.7,8.7,5.9,14.4,5.9c5.6,0,10.7-2.3,14.4-5.9c3.7-3.7,5.9-8.7,5.9-14.4c0-1-0.1-2-0.2-2.9L263.1,31.8
	z"/>
<path class="st2" d="M279.4,31.6c1,0.4,2.2,0.6,3.4,0.6c1.3,0,2.5-0.2,3.5-0.7c1-0.5,1.9-1.1,2.6-2c0.7-0.8,1.2-1.8,1.5-2.9
	c0.3-1.1,0.5-2.2,0.4-3.5l-7.9,0v2.6l4.6,0c-0.1,0.5-0.3,0.9-0.6,1.3c-0.3,0.4-0.6,0.8-1,1.1c-0.4,0.3-0.8,0.6-1.3,0.7
	c-0.5,0.2-1.1,0.3-1.7,0.3c-1,0-1.9-0.2-2.7-0.7c-0.8-0.5-1.4-1.1-1.9-1.9c-0.5-0.8-0.7-1.8-0.7-2.9c0-1.1,0.2-2.1,0.7-2.9
	c0.5-0.8,1.1-1.4,1.9-1.9c0.8-0.4,1.7-0.7,2.6-0.7c1,0,1.9,0.2,2.6,0.7c0.7,0.4,1.3,1,1.7,1.7l2.8-1.6c-0.5-0.7-1.1-1.4-1.7-1.9
	c-0.7-0.5-1.5-1-2.3-1.3c-0.9-0.3-1.9-0.5-3-0.5c-1.2,0-2.4,0.2-3.4,0.6c-1.1,0.4-2,1-2.7,1.7c-0.8,0.7-1.4,1.6-1.8,2.6
	c-0.4,1-0.7,2.2-0.7,3.4c0,1.2,0.2,2.4,0.6,3.4c0.4,1,1,1.9,1.8,2.7C277.5,30.6,278.4,31.2,279.4,31.6"/>
<path class="st2" d="M300.6,22.9c-0.3,0.4-0.6,0.8-1.1,1.2l-7.3,7.6l12.9,0v-3l-6.7,0l4.2-3.9c0.7-0.6,1.2-1.3,1.6-2
	c0.4-0.7,0.6-1.5,0.6-2.4c0-0.6-0.1-1.2-0.4-1.7c-0.2-0.6-0.6-1.1-1.1-1.6c-0.5-0.5-1.1-0.9-1.8-1.2c-0.7-0.3-1.6-0.4-2.5-0.4
	c-1.3,0-2.4,0.3-3.3,0.8c-0.9,0.5-1.6,1.3-2,2.2c-0.5,0.9-0.7,1.9-0.7,3.1l3.2,0c0-0.6,0.1-1.2,0.3-1.7c0.2-0.5,0.5-0.9,0.9-1.1
	c0.4-0.3,0.9-0.4,1.5-0.4c0.4,0,0.7,0.1,1.1,0.2c0.3,0.1,0.6,0.3,0.8,0.5c0.2,0.2,0.4,0.5,0.5,0.7c0.1,0.3,0.2,0.6,0.2,0.8
	c0,0.4-0.1,0.8-0.2,1.2C301.1,22.2,300.9,22.6,300.6,22.9"/>
<path class="st2" d="M316.5,26c-0.2,0.7-0.4,1.2-0.7,1.7c-0.3,0.5-0.6,0.8-1,1.1c-0.4,0.3-0.8,0.4-1.3,0.4c-0.5,0-0.9-0.1-1.3-0.4
	c-0.4-0.3-0.7-0.6-1-1.1c-0.3-0.5-0.5-1.1-0.7-1.7c-0.2-0.7-0.2-1.4-0.2-2.2c0-0.8,0.1-1.5,0.2-2.2c0.2-0.7,0.4-1.2,0.7-1.7
	c0.3-0.5,0.6-0.9,1-1.1c0.4-0.3,0.8-0.4,1.3-0.4c0.5,0,1,0.1,1.3,0.4c0.4,0.3,0.7,0.6,1,1.1c0.3,0.5,0.5,1.1,0.7,1.7
	c0.2,0.7,0.2,1.4,0.2,2.2C316.8,24.6,316.7,25.3,316.5,26 M316.9,16.5c-1-0.7-2.1-1-3.4-1c-1.3,0-2.4,0.3-3.3,1
	c-1,0.7-1.7,1.6-2.3,2.9c-0.5,1.2-0.8,2.7-0.8,4.4c0,1.7,0.3,3.2,0.8,4.4s1.3,2.2,2.3,2.9c1,0.7,2.1,1,3.3,1c1.3,0,2.4-0.3,3.4-1
	c1-0.7,1.7-1.6,2.2-2.9c0.5-1.2,0.8-2.7,0.8-4.4c0-1.7-0.3-3.2-0.8-4.4C318.6,18.1,317.9,17.2,316.9,16.5"/>
<path class="st2" d="M337.2,23.2l0,2.6l4.6,0c-0.1,0.5-0.3,0.9-0.6,1.3c-0.3,0.4-0.6,0.8-1,1.1c-0.4,0.3-0.8,0.6-1.3,0.7
	c-0.5,0.2-1.1,0.3-1.7,0.3c-1,0-1.9-0.2-2.7-0.7c-0.8-0.5-1.4-1.1-1.9-1.9c-0.5-0.8-0.7-1.8-0.7-2.9c0-1.1,0.2-2.1,0.7-2.9
	c0.5-0.8,1.1-1.4,1.9-1.9c0.8-0.4,1.7-0.7,2.6-0.7c1,0,1.9,0.2,2.6,0.7c0.7,0.4,1.3,1,1.7,1.7l2.8-1.6c-0.5-0.7-1.1-1.4-1.7-1.9
	c-0.7-0.5-1.5-1-2.3-1.3c-0.9-0.3-1.9-0.5-3-0.5c-1.2,0-2.4,0.2-3.4,0.6c-1.1,0.4-2,1-2.7,1.7c-0.8,0.7-1.4,1.6-1.8,2.6
	c-0.4,1-0.7,2.2-0.7,3.4c0,1.2,0.2,2.4,0.6,3.4c0.4,1,1,1.9,1.8,2.7c0.8,0.7,1.7,1.3,2.7,1.7c1,0.4,2.2,0.6,3.4,0.6
	c1.3,0,2.5-0.2,3.5-0.7c1-0.5,1.9-1.1,2.6-2c0.7-0.8,1.2-1.8,1.5-2.9c0.3-1.1,0.5-2.2,0.4-3.5L337.2,23.2z"/>
<polygon class="st2" points="357.4,28.9 351.1,28.9 351.1,15.8 347.8,15.8 347.8,31.8 357.4,31.8 "/>
<path class="st2" d="M370.5,26.5c-0.4,0.8-1,1.4-1.7,1.9c-0.7,0.5-1.6,0.7-2.6,0.7s-1.9-0.2-2.6-0.7c-0.7-0.5-1.3-1.1-1.8-1.9
	c-0.4-0.8-0.6-1.7-0.6-2.7c0-1,0.2-1.9,0.6-2.7c0.4-0.8,1-1.4,1.8-1.9c0.7-0.5,1.6-0.7,2.6-0.7c1,0,1.9,0.2,2.6,0.7
	c0.7,0.5,1.3,1.1,1.7,1.9c0.4,0.8,0.6,1.7,0.6,2.7C371.2,24.8,371,25.7,370.5,26.5 M372.2,17.8c-0.8-0.7-1.7-1.3-2.7-1.7
	c-1-0.4-2.1-0.6-3.4-0.6c-1.2,0-2.3,0.2-3.3,0.6c-1,0.4-1.9,1-2.7,1.7c-0.8,0.7-1.4,1.6-1.8,2.6c-0.4,1-0.6,2.1-0.6,3.3
	c0,1.2,0.2,2.3,0.6,3.3c0.4,1,1,1.9,1.8,2.7c0.8,0.8,1.7,1.4,2.7,1.8c1,0.4,2.2,0.6,3.4,0.6c1.2,0,2.4-0.2,3.4-0.6
	c1-0.4,1.9-1,2.7-1.8c0.8-0.8,1.3-1.7,1.8-2.7c0.4-1,0.6-2.1,0.6-3.3c0-1.2-0.2-2.3-0.6-3.3C373.6,19.4,373,18.5,372.2,17.8"/>
<path class="st2" d="M385.1,28.2c-0.3,0.4-0.6,0.6-1,0.8c-0.4,0.2-0.9,0.2-1.5,0.2h-2.1v-4.6l2.8,0c0.2,0,0.3,0,0.5,0.1
	c0.4,0.1,0.7,0.2,0.9,0.4c0.3,0.2,0.5,0.4,0.6,0.7c0.1,0.3,0.2,0.6,0.2,1C385.5,27.4,385.3,27.8,385.1,28.2 M380.4,18.4h1.8
	c0.7,0,1.3,0.2,1.7,0.5c0.4,0.3,0.6,0.8,0.6,1.4c0,0.4-0.1,0.7-0.3,1c-0.2,0.3-0.5,0.5-0.8,0.7c-0.4,0.2-0.8,0.2-1.2,0.2h-1.8V18.4z
	 M388.3,25.2c-0.3-0.6-0.8-1-1.3-1.4c-0.4-0.3-0.9-0.5-1.5-0.7l0,0c0.7-0.3,1.3-0.7,1.7-1.2c0.5-0.6,0.7-1.3,0.7-2.1
	c0-0.9-0.2-1.7-0.7-2.3c-0.5-0.6-1.1-1-1.9-1.3c-0.8-0.3-1.7-0.4-2.8-0.4l-5.3,0l0,16l5.7,0c1.2,0,2.2-0.2,3.1-0.5
	c0.9-0.3,1.6-0.8,2.1-1.5c0.5-0.7,0.7-1.5,0.7-2.6C388.8,26.4,388.6,25.7,388.3,25.2"/>
<path class="st2" d="M397.7,21l2,4.6l-4,0L397.7,21z M400.4,28.1l1.7,3.6l3.7,0l-8.1-16.9l-8.1,16.9l3.7,0l1.7-3.6L400.4,28.1z"/>
<polygon class="st2" points="417.2,28.9 410.8,28.9 410.8,15.8 407.5,15.8 407.5,31.8 417.2,31.8 "/>
<polygon class="st2" points="278.5,38.9 275.2,38.9 275.2,54.9 284.8,54.9 284.8,52 278.5,52 "/>
<path class="st2" d="M291.8,48.7l2-4.6l2,4.6H291.8z M285.7,54.9h3.7l1.7-3.6l5.5,0l1.7,3.6h3.7L293.8,38L285.7,54.9z"/>
<polygon class="st2" points="315,48.8 303.6,38.1 303.6,54.9 306.8,54.9 306.8,45 318.2,55.7 318.2,38.9 315,38.9 "/>
<path class="st2" d="M331.7,49.2c-0.3,0.6-0.6,1.2-1.1,1.6c-0.5,0.4-1,0.7-1.6,0.9s-1.3,0.3-2,0.3l-2,0V41.9h2c0.7,0,1.4,0.1,2,0.3
	c0.6,0.2,1.2,0.5,1.6,0.9c0.5,0.4,0.8,0.9,1.1,1.6c0.3,0.6,0.4,1.4,0.4,2.3C332.1,47.8,332,48.5,331.7,49.2 M331.5,39.9
	c-1.3-0.7-2.7-1-4.4-1H325h-1.2h-2.1v16h2.1l1.2,0h2.1c1.7,0,3.1-0.3,4.4-1c1.3-0.7,2.2-1.6,2.9-2.8c0.7-1.2,1.1-2.6,1.1-4.2
	c0-1.6-0.4-3-1.1-4.2C333.7,41.5,332.8,40.5,331.5,39.9"/>
<rect x="344.9" y="38.9" class="st2" width="3.3" height="16"/>
<polygon class="st2" points="363,48.8 351.7,38.1 351.7,54.9 354.8,54.9 354.8,45 366.2,55.7 366.2,38.9 363,38.9 "/>
<rect x="369.7" y="38.9" class="st2" width="3.3" height="16"/>
<polygon class="st2" points="374.8,41.8 379.1,41.8 379.1,54.9 382.4,54.9 382.4,41.8 386.7,41.8 386.7,38.9 374.8,38.9 "/>
<rect x="388.6" y="38.9" class="st2" width="3.3" height="16"/>
<path class="st2" d="M399.7,48.7l2-4.6l2,4.6H399.7z M393.6,54.9h3.7l1.7-3.6l5.5,0l1.7,3.6h3.7L401.8,38L393.6,54.9z"/>
<polygon class="st2" points="408.4,41.8 412.7,41.8 412.7,54.9 416,54.9 416,41.8 420.3,41.8 420.3,38.9 408.4,38.9 "/>
<rect x="422.1" y="38.9" class="st2" width="3.3" height="16"/>
<polygon class="st2" points="435.3,49.3 431,38.9 427.2,38.9 435.3,55.8 443.4,38.9 439.6,38.9 "/>
<polygon class="st2" points="455.3,41.7 455.3,38.9 448.3,38.9 447.3,38.9 445.2,38.9 445.2,54.9 447.3,54.9 448.3,54.9 455.3,54.9 
	455.3,52.1 448.3,52.1 448.3,47.8 454.9,47.8 454.9,45 448.3,45 448.3,41.7 "/>
<rect x="200.6" y="9.4" class="st2" width="0.3" height="51.5"/>
<path class="st2" d="M78.5,21.7c0,1.1,0.6,1.7,1.7,1.7c1.1,0,1.7-0.6,1.7-1.7v-6.4l1.9,0l0,6.3c0,1.2-0.3,2-0.9,2.6
	c-0.6,0.5-1.5,0.8-2.7,0.8c-1.2,0-2.1-0.3-2.7-0.8c-0.6-0.5-0.9-1.4-0.9-2.6v-6.3l1.9,0L78.5,21.7z"/>
<path class="st2" d="M87,24.8l-1.9,0l0-7l1.9,0v0.4c0.6-0.4,1.2-0.6,1.8-0.6c0.9,0,1.6,0.3,1.9,0.8c0.4,0.6,0.5,1.4,0.5,2.6l0,3.8
	l-1.9,0v-3.8c0-0.6-0.1-1-0.2-1.3s-0.4-0.4-0.8-0.4c-0.4,0-0.8,0.1-1.1,0.2L87,19.6V24.8z"/>
<path class="st2" d="M92.4,17.8h1.9v7h-1.9L92.4,17.8z M92.4,15l1.9,0v1.9l-1.9,0V15z"/>
<path class="st2" d="M100.1,19.4h-1.7v2.9c0,0.3,0,0.5,0,0.6c0,0.1,0.1,0.2,0.2,0.3c0.1,0.1,0.2,0.1,0.4,0.1l1.1,0l0.1,1.5
	C99.5,24.9,99,25,98.7,25c-0.8,0-1.4-0.2-1.7-0.6c-0.3-0.4-0.5-1.1-0.5-2.1l0-2.9h-0.8v-1.6h0.8v-2l1.9,0l0,2l1.7,0L100.1,19.4z"/>
<path class="st2" d="M105.3,20.7c0-0.6-0.1-1-0.3-1.2c-0.2-0.2-0.5-0.3-0.9-0.3c-0.4,0-0.8,0.1-0.9,0.3c-0.2,0.2-0.3,0.6-0.3,1.2
	L105.3,20.7z M103.3,23.1c0.2,0.2,0.5,0.3,0.9,0.3c0.9,0,1.6,0,2.3-0.1l0.4,0l0,1.4c-1.1,0.3-2.1,0.4-2.9,0.4
	c-1.1,0-1.8-0.3-2.3-0.8c-0.5-0.6-0.7-1.5-0.7-2.7c0-2.5,1-3.8,3.1-3.8c2,0,3.1,1.1,3.1,3.2l-0.1,1.3l-4.1,0
	C102.9,22.6,103,22.9,103.3,23.1"/>
<path class="st2" d="M112.4,23.2l0.2,0v-3.7c-0.5-0.1-1-0.1-1.4-0.1c-0.8,0-1.1,0.7-1.1,2c0,0.7,0.1,1.3,0.3,1.6
	c0.2,0.3,0.4,0.5,0.8,0.5C111.6,23.3,112,23.3,112.4,23.2 M114.5,15l0,9.8h-1.9v-0.3c-0.7,0.3-1.2,0.5-1.7,0.5c-1,0-1.7-0.3-2.1-0.9
	c-0.4-0.6-0.6-1.5-0.6-2.8c0-1.3,0.2-2.2,0.7-2.8c0.5-0.6,1.2-0.9,2.2-0.9c0.3,0,0.7,0,1.3,0.1l0.3,0.1l0-2.8L114.5,15z"/>
<polygon class="st2" points="119.8,24.8 119.8,15.3 123.1,15.3 125.4,23.2 125.5,23.2 125.5,15.3 127.5,15.3 127.5,24.8 124.3,24.8 
	121.9,17 121.7,17 121.7,24.8 "/>
<path class="st2" d="M131.3,21.9c-0.5,0-0.8,0.3-0.8,0.8s0.2,0.8,0.7,0.8c0.4,0,0.7-0.1,1.2-0.2l0.2-0.1v-1.5L131.3,21.9z M134.5,20
	v2.9c0,0.2,0.1,0.4,0.1,0.5c0.1,0.1,0.2,0.2,0.4,0.2l-0.1,1.4c-0.5,0-0.9,0-1.1-0.1c-0.3-0.1-0.6-0.2-0.9-0.4
	c-0.7,0.3-1.4,0.5-2.1,0.5c-1.5,0-2.2-0.8-2.2-2.3c0-0.7,0.2-1.3,0.6-1.6c0.4-0.3,1-0.5,1.9-0.6l1.5-0.1V20c0-0.3-0.1-0.5-0.2-0.6
	c-0.1-0.1-0.3-0.2-0.6-0.2l-2.6,0.1l-0.1-1.3c1-0.3,2-0.4,2.9-0.4c0.9,0,1.6,0.2,2,0.6C134.3,18.6,134.5,19.2,134.5,20"/>
<path class="st2" d="M140.1,19.4l-1.7,0v2.9c0,0.3,0,0.5,0,0.6c0,0.1,0.1,0.2,0.2,0.3c0.1,0.1,0.2,0.1,0.4,0.1l1.1,0l0.1,1.5
	c-0.6,0.1-1.1,0.2-1.4,0.2c-0.8,0-1.4-0.2-1.7-0.6c-0.3-0.4-0.5-1.1-0.5-2.1v-2.9h-0.8v-1.6l0.8,0v-2l1.9,0v2h1.7V19.4z"/>
<path class="st2" d="M141.3,17.8h1.9l0,7h-1.9V17.8z M141.3,15l1.9,0v1.9h-1.9V15z"/>
<path class="st2" d="M146.6,22.9c0.2,0.3,0.5,0.5,1,0.5c0.5,0,0.8-0.2,1-0.5c0.2-0.3,0.3-0.9,0.3-1.6c0-0.7-0.1-1.2-0.3-1.6
	c-0.2-0.3-0.5-0.5-1-0.5c-0.5,0-0.8,0.2-1,0.5c-0.2,0.3-0.3,0.9-0.3,1.6C146.3,22,146.4,22.6,146.6,22.9 M145.1,18.6
	c0.5-0.6,1.3-1,2.5-1c1.2,0,2,0.3,2.5,1c0.5,0.6,0.7,1.5,0.7,2.7c0,2.5-1.1,3.7-3.2,3.7c-2.2,0-3.2-1.2-3.2-3.7
	C144.4,20.2,144.6,19.3,145.1,18.6"/>
<path class="st2" d="M153.8,24.8l-1.9,0v-7h1.9v0.4c0.6-0.4,1.2-0.6,1.8-0.6c0.9,0,1.6,0.3,1.9,0.8c0.4,0.6,0.5,1.4,0.5,2.6v3.8
	l-1.9,0v-3.8c0-0.6-0.1-1-0.2-1.3c-0.1-0.3-0.4-0.4-0.8-0.4c-0.4,0-0.8,0.1-1.1,0.2l-0.2,0.1L153.8,24.8z"/>
<path class="st2" d="M164.7,19.6c-1.2-0.1-2-0.2-2.4-0.2c-0.5,0-0.8,0-0.9,0.1c-0.1,0.1-0.2,0.2-0.2,0.4c0,0.2,0.1,0.3,0.3,0.4
	c0.2,0.1,0.7,0.2,1.4,0.3c0.8,0.1,1.3,0.4,1.6,0.7c0.3,0.3,0.5,0.8,0.5,1.5c0,1.5-0.9,2.3-2.8,2.3c-0.6,0-1.4-0.1-2.2-0.3l-0.4-0.1
	l0.1-1.6c1.2,0.2,2,0.2,2.4,0.2c0.5,0,0.8,0,0.9-0.1c0.2-0.1,0.2-0.2,0.2-0.4c0-0.2-0.1-0.3-0.3-0.4c-0.2-0.1-0.6-0.2-1.3-0.3
	c-0.7-0.1-1.3-0.3-1.6-0.6c-0.4-0.3-0.5-0.8-0.5-1.6c0-0.7,0.3-1.3,0.8-1.7c0.5-0.4,1.2-0.6,2-0.6c0.6,0,1.3,0.1,2.3,0.3l0.5,0.1
	L164.7,19.6z"/>
<path class="st2" d="M82,40.3c-0.9,0.2-1.6,0.3-2.2,0.3c-0.6,0-1.1-0.1-1.5-0.2c-0.4-0.1-0.7-0.3-0.9-0.5c-0.2-0.2-0.4-0.5-0.6-0.9
	c-0.3-0.7-0.4-1.6-0.4-2.8c0-1.9,0.3-3.1,0.9-3.8c0.5-0.5,1.2-0.8,2.3-0.8c0.7,0,1.5,0.1,2.4,0.3l0,0.7c-0.9-0.2-1.6-0.2-2.1-0.2
	c-0.5,0-0.9,0.1-1.2,0.2c-0.3,0.1-0.5,0.3-0.7,0.5c-0.2,0.2-0.3,0.5-0.4,0.8c-0.2,0.6-0.3,1.3-0.3,2.1c0,0.9,0,1.5,0.1,1.9
	c0.1,0.4,0.2,0.8,0.3,1.2c0.2,0.3,0.4,0.6,0.7,0.7c0.3,0.2,0.8,0.2,1.4,0.2c0.6,0,1.3-0.1,2.2-0.2L82,40.3z"/>
<path class="st2" d="M83.8,37.2c0,1,0.1,1.7,0.3,2.1c0.2,0.4,0.7,0.6,1.5,0.6c0.8,0,1.3-0.2,1.5-0.6c0.2-0.4,0.4-1.1,0.4-2.1
	c0-1-0.1-1.7-0.4-2c-0.3-0.4-0.8-0.5-1.5-0.5c-0.7,0-1.2,0.2-1.5,0.5C84,35.6,83.8,36.3,83.8,37.2 M83.1,37.3c0-1.2,0.2-2,0.6-2.5
	c0.4-0.5,1.1-0.7,2-0.7c1,0,1.6,0.2,2,0.7c0.4,0.5,0.6,1.3,0.6,2.5c0,1.2-0.2,2-0.5,2.5c-0.4,0.5-1.1,0.8-2.1,0.8
	c-1,0-1.7-0.3-2.1-0.8C83.2,39.3,83.1,38.4,83.1,37.3"/>
<path class="st2" d="M90.3,40.4h-0.7v-6.3h0.7v0.5c0.7-0.4,1.4-0.6,2.1-0.6c0.8,0,1.4,0.2,1.7,0.7c0.3,0.4,0.4,1.3,0.4,2.4v3.3h-0.8
	v-3.3c0-1-0.1-1.6-0.3-2c-0.2-0.3-0.6-0.5-1.2-0.5c-0.3,0-0.6,0-0.9,0.1c-0.3,0.1-0.6,0.2-0.7,0.3l-0.3,0.1V40.4z"/>
<polygon class="st2" points="95.2,34.1 96.1,34.1 97.6,39.8 98.1,39.8 99.8,34.1 100.5,34.1 98.7,40.4 97.1,40.4 "/>
<path class="st2" d="M101.9,37h3.5c0-0.8-0.1-1.4-0.4-1.8c-0.3-0.4-0.7-0.5-1.3-0.5c-0.6,0-1.1,0.2-1.4,0.5
	C102,35.6,101.9,36.2,101.9,37 M105.5,39.8l0.4,0l0,0.6c-0.9,0.1-1.7,0.2-2.4,0.2c-0.9,0-1.5-0.3-1.9-0.8c-0.4-0.5-0.5-1.3-0.5-2.4
	c0-2.2,0.9-3.3,2.6-3.3c0.8,0,1.5,0.2,1.9,0.7c0.4,0.5,0.6,1.2,0.6,2.3l0,0.6l-4.3,0c0,0.8,0.1,1.3,0.4,1.7c0.3,0.4,0.7,0.6,1.4,0.6
	C104.3,39.9,104.9,39.8,105.5,39.8"/>
<path class="st2" d="M108.1,40.4h-0.7l0-6.3h0.7v0.5c0.7-0.4,1.4-0.6,2.1-0.6c0.8,0,1.4,0.2,1.7,0.7c0.3,0.4,0.4,1.3,0.4,2.4v3.3
	h-0.8l0-3.3c0-1-0.1-1.6-0.3-2c-0.2-0.3-0.6-0.5-1.2-0.5c-0.3,0-0.6,0-0.9,0.1c-0.3,0.1-0.6,0.2-0.7,0.3l-0.3,0.1V40.4z"/>
<path class="st2" d="M117,34.8h-2.1v3.1c0,0.8,0.1,1.3,0.2,1.6c0.1,0.3,0.4,0.4,0.8,0.4l1.2-0.1l0,0.6c-0.6,0.1-1,0.1-1.3,0.1
	c-0.6,0-1.1-0.2-1.3-0.5c-0.2-0.3-0.4-0.9-0.4-1.8v-3.5h-0.9v-0.7h0.9v-2h0.8l0,2h2.1V34.8z"/>
<path class="st2" d="M118.4,34.1h0.7v6.3h-0.7L118.4,34.1z M118.4,31.6h0.7v0.9h-0.7V31.6z"/>
<path class="st2" d="M121.1,37.2c0,1,0.1,1.7,0.3,2.1c0.2,0.4,0.7,0.6,1.5,0.6c0.8,0,1.3-0.2,1.5-0.6c0.2-0.4,0.4-1.1,0.4-2.1
	c0-1-0.1-1.7-0.4-2c-0.3-0.4-0.8-0.5-1.5-0.5c-0.7,0-1.2,0.2-1.5,0.5C121.2,35.6,121.1,36.3,121.1,37.2 M120.3,37.3
	c0-1.2,0.2-2,0.6-2.5c0.4-0.5,1.1-0.7,2-0.7c1,0,1.6,0.2,2,0.7c0.4,0.5,0.6,1.3,0.6,2.5c0,1.2-0.2,2-0.5,2.5
	c-0.4,0.5-1.1,0.8-2.1,0.8c-1,0-1.7-0.3-2.1-0.8C120.5,39.3,120.3,38.4,120.3,37.3"/>
<path class="st2" d="M127.4,40.4h-0.7v-6.3h0.7v0.5c0.7-0.4,1.4-0.6,2.1-0.6c0.8,0,1.4,0.2,1.7,0.7c0.3,0.4,0.4,1.3,0.4,2.4v3.3
	h-0.8v-3.3c0-1-0.1-1.6-0.3-2c-0.2-0.3-0.6-0.5-1.2-0.5c-0.3,0-0.6,0-0.9,0.1c-0.3,0.1-0.6,0.2-0.7,0.3l-0.3,0.1L127.4,40.4z"/>
<path class="st2" d="M139.5,34.8h-2.1v3.1c0,0.8,0.1,1.3,0.2,1.6c0.1,0.3,0.4,0.4,0.8,0.4l1.2-0.1l0,0.6c-0.6,0.1-1,0.1-1.3,0.1
	c-0.6,0-1.1-0.2-1.3-0.5c-0.2-0.3-0.4-0.9-0.4-1.8v-3.5h-0.9v-0.7h0.9v-2h0.8v2l2.1,0V34.8z"/>
<path class="st2" d="M141.3,37.2c0,1,0.1,1.7,0.3,2.1c0.2,0.4,0.7,0.6,1.5,0.6c0.8,0,1.3-0.2,1.5-0.6c0.2-0.4,0.4-1.1,0.4-2.1
	c0-1-0.1-1.7-0.4-2c-0.3-0.4-0.8-0.5-1.5-0.5c-0.7,0-1.2,0.2-1.5,0.5C141.4,35.6,141.3,36.3,141.3,37.2 M140.5,37.3
	c0-1.2,0.2-2,0.6-2.5c0.4-0.5,1.1-0.7,2-0.7c1,0,1.6,0.2,2,0.7c0.4,0.5,0.6,1.3,0.6,2.5c0,1.2-0.2,2-0.5,2.5
	c-0.4,0.5-1.1,0.8-2.1,0.8c-1,0-1.7-0.3-2.1-0.8C140.7,39.3,140.5,38.4,140.5,37.3"/>
<path class="st2" d="M155.6,40.3c-0.9,0.2-1.6,0.3-2.2,0.3c-0.6,0-1.1-0.1-1.5-0.2c-0.4-0.1-0.7-0.3-0.9-0.5
	c-0.2-0.2-0.4-0.5-0.6-0.9c-0.3-0.7-0.4-1.6-0.4-2.8c0-1.9,0.3-3.1,0.9-3.8c0.5-0.5,1.2-0.8,2.3-0.8c0.7,0,1.5,0.1,2.4,0.3l0,0.7
	c-0.9-0.2-1.6-0.2-2.1-0.2c-0.5,0-0.9,0.1-1.2,0.2c-0.3,0.1-0.5,0.3-0.7,0.5c-0.2,0.2-0.3,0.5-0.4,0.8c-0.2,0.6-0.3,1.3-0.3,2.1
	c0,0.9,0,1.5,0.1,1.9c0.1,0.4,0.2,0.8,0.3,1.2c0.2,0.3,0.4,0.6,0.7,0.7c0.3,0.2,0.8,0.2,1.4,0.2c0.6,0,1.3-0.1,2.2-0.2L155.6,40.3z"
	/>
<path class="st2" d="M157.5,37.2c0,1,0.1,1.7,0.3,2.1c0.2,0.4,0.7,0.6,1.5,0.6c0.8,0,1.3-0.2,1.5-0.6c0.2-0.4,0.4-1.1,0.4-2.1
	c0-1-0.1-1.7-0.4-2c-0.3-0.4-0.8-0.5-1.5-0.5c-0.7,0-1.2,0.2-1.5,0.5C157.6,35.6,157.5,36.3,157.5,37.2 M156.7,37.3
	c0-1.2,0.2-2,0.6-2.5c0.4-0.5,1.1-0.7,2-0.7c1,0,1.6,0.2,2,0.7c0.4,0.5,0.6,1.3,0.6,2.5c0,1.2-0.2,2-0.5,2.5
	c-0.4,0.5-1.1,0.8-2.1,0.8c-1,0-1.7-0.3-2.1-0.8C156.9,39.3,156.7,38.4,156.7,37.3"/>
<path class="st2" d="M164,40.4h-0.7v-6.3h0.7v0.5c0.6-0.4,1.3-0.6,2-0.6c0.7,0,1.2,0.2,1.5,0.7c0.3-0.2,0.7-0.3,1.1-0.5
	c0.4-0.1,0.8-0.2,1.2-0.2c0.8,0,1.4,0.2,1.7,0.7c0.3,0.4,0.4,1.3,0.4,2.4l0,3.3h-0.7v-3.3c0-1-0.1-1.6-0.3-2
	c-0.2-0.3-0.6-0.5-1.2-0.5c-0.3,0-0.6,0-0.9,0.1c-0.3,0.1-0.6,0.2-0.7,0.3l-0.3,0.1c0.1,0.3,0.2,1,0.2,1.9v3.3h-0.8v-3.2
	c0-1-0.1-1.6-0.3-2c-0.2-0.3-0.6-0.5-1.2-0.5c-0.3,0-0.6,0-0.9,0.1c-0.3,0.1-0.5,0.2-0.7,0.3l-0.2,0.1L164,40.4z"/>
<path class="st2" d="M174.2,39.8c0.6,0.1,1.1,0.1,1.4,0.1c0.4,0,0.7-0.1,1-0.2c0.3-0.1,0.5-0.3,0.7-0.5c0.2-0.2,0.3-0.5,0.3-0.8
	c0.1-0.3,0.1-0.7,0.1-1.2c0-0.9-0.1-1.5-0.3-1.9c-0.2-0.4-0.6-0.6-1.2-0.6c-0.3,0-0.6,0-0.9,0.1c-0.3,0.1-0.6,0.1-0.7,0.2l-0.3,0.1
	V39.8z M176.2,34c0.8,0,1.4,0.2,1.7,0.7c0.3,0.5,0.5,1.3,0.5,2.5s-0.2,2-0.6,2.5c-0.4,0.5-1.2,0.7-2.3,0.7c-0.5,0-1,0-1.7-0.1
	l-0.3,0v-9.1l0.8,0v3.1C174.9,34.2,175.5,34,176.2,34"/>
<path class="st2" d="M180.3,38.6c0,0.8,0.3,1.3,1,1.3c0.3,0,0.6,0,1-0.1c0.4-0.1,0.6-0.1,0.9-0.2l0.3-0.1v-2.3l-2.1,0.2
	c-0.4,0-0.7,0.2-0.9,0.4C180.4,38,180.3,38.2,180.3,38.6 M184.3,36l0,3.4c0,0.3,0.3,0.5,0.8,0.6l0,0.6c-0.6,0-1.1-0.2-1.4-0.5
	c-0.8,0.3-1.6,0.5-2.4,0.5c-0.6,0-1-0.2-1.3-0.5c-0.3-0.3-0.4-0.8-0.4-1.4s0.1-1,0.4-1.3c0.3-0.3,0.8-0.5,1.4-0.5l2.1-0.2V36
	c0-0.5-0.1-0.8-0.3-1c-0.2-0.2-0.5-0.3-0.8-0.3c-0.5,0-1.2,0.1-2.1,0.2l-0.4,0l0-0.6c0.9-0.2,1.7-0.3,2.4-0.3c0.7,0,1.2,0.2,1.5,0.5
	C184.1,34.8,184.3,35.3,184.3,36"/>
<path class="st2" d="M189.4,34.8h-2.1l0,3.1c0,0.8,0.1,1.3,0.2,1.6c0.1,0.3,0.4,0.4,0.8,0.4l1.2-0.1l0.1,0.6c-0.6,0.1-1,0.1-1.3,0.1
	c-0.6,0-1.1-0.2-1.3-0.5c-0.2-0.3-0.4-0.9-0.4-1.8v-3.5h-0.9v-0.7h0.9v-2h0.8v2l2.1,0V34.8z"/>
<path class="st2" d="M82.2,49.2c0-2.4-0.8-3.5-2.3-3.5h-2.4V53h2.4C81.4,53,82.2,51.7,82.2,49.2 M79.9,53.7h-3.2l0-8.7h3.2
	c2.1,0,3.1,1.4,3.1,4.3C83,52.2,82,53.7,79.9,53.7"/>
<path class="st2" d="M84.8,50.2l3.5,0c0-0.8-0.1-1.4-0.4-1.8c-0.3-0.4-0.7-0.5-1.3-0.5c-0.6,0-1.1,0.2-1.4,0.5
	C85,48.8,84.8,49.4,84.8,50.2 M88.5,53l0.4,0l0,0.6c-0.9,0.1-1.7,0.2-2.4,0.2c-0.9,0-1.5-0.3-1.9-0.8c-0.4-0.5-0.5-1.3-0.5-2.4
	c0-2.2,0.9-3.3,2.6-3.3c0.8,0,1.5,0.2,1.9,0.7c0.4,0.5,0.6,1.2,0.6,2.3l0,0.6l-4.3,0c0,0.8,0.1,1.3,0.4,1.7c0.3,0.4,0.7,0.6,1.4,0.6
	C87.2,53.1,87.8,53.1,88.5,53"/>
<path class="st2" d="M92.6,48c-1,0-1.5,0.4-1.5,1.1c0,0.3,0.1,0.6,0.3,0.7c0.2,0.1,0.7,0.3,1.5,0.4c0.8,0.1,1.3,0.3,1.6,0.5
	c0.3,0.2,0.5,0.7,0.5,1.3c0,0.6-0.2,1.1-0.6,1.4c-0.4,0.3-1,0.4-1.8,0.4c-0.5,0-1.1-0.1-1.8-0.2l-0.4-0.1l0.1-0.7
	c0.9,0.1,1.7,0.2,2.2,0.2c0.5,0,0.9-0.1,1.2-0.3c0.3-0.2,0.4-0.5,0.4-0.9c0-0.4-0.1-0.7-0.3-0.8c-0.2-0.1-0.7-0.3-1.5-0.4
	c-0.8-0.1-1.3-0.3-1.6-0.5c-0.3-0.2-0.5-0.6-0.5-1.2c0-0.6,0.2-1,0.6-1.3c0.4-0.3,1-0.4,1.6-0.4c0.5,0,1.1,0.1,1.9,0.2l0.3,0.1
	l0,0.7C93.8,48,93.1,48,92.6,48"/>
<path class="st2" d="M96.9,50.2h3.5c0-0.8-0.1-1.4-0.4-1.8c-0.3-0.4-0.7-0.5-1.3-0.5c-0.6,0-1.1,0.2-1.4,0.5
	C97,48.8,96.9,49.4,96.9,50.2 M100.6,53l0.4,0l0,0.6c-0.9,0.1-1.7,0.2-2.4,0.2c-0.9,0-1.5-0.3-1.9-0.8c-0.4-0.5-0.5-1.3-0.5-2.4
	c0-2.2,0.9-3.3,2.6-3.3c0.8,0,1.5,0.2,1.9,0.7s0.6,1.2,0.6,2.3l0,0.6h-4.3c0,0.8,0.1,1.3,0.4,1.7c0.3,0.4,0.7,0.6,1.4,0.6
	C99.3,53.1,99.9,53.1,100.6,53"/>
<path class="st2" d="M102.8,53.7v-6.3h0.7v0.9c0.3-0.2,0.7-0.4,1.1-0.6c0.4-0.2,0.9-0.3,1.2-0.4V48c-0.4,0.1-0.7,0.2-1.1,0.3
	c-0.4,0.2-0.7,0.3-0.9,0.4l-0.3,0.2l0,4.7H102.8z"/>
<path class="st2" d="M110.4,48.1h-2.1l0,3.1c0,0.8,0.1,1.3,0.2,1.6c0.1,0.3,0.4,0.4,0.8,0.4l1.2-0.1l0.1,0.6c-0.6,0.1-1,0.1-1.3,0.1
	c-0.6,0-1.1-0.2-1.3-0.5c-0.2-0.3-0.4-0.9-0.4-1.8v-3.5l-0.9,0v-0.7h0.9v-2l0.8,0v2h2.1V48.1z"/>
<path class="st2" d="M111.8,47.4h0.7v6.3h-0.7L111.8,47.4z M111.8,44.9h0.7v0.9h-0.7V44.9z"/>
<path class="st2" d="M115.4,48.1l0,5.6h-0.8v-5.6h-0.8v-0.7h0.8v-0.6c0-0.9,0.1-1.5,0.4-1.8c0.2-0.3,0.7-0.5,1.3-0.5l1.2,0.1v0.6
	c-0.5,0-0.9,0-1.1,0c-0.4,0-0.7,0.1-0.8,0.3c-0.1,0.2-0.2,0.6-0.2,1.3v0.6h1.9v0.7H115.4z"/>
<path class="st2" d="M118.6,47.4h0.7v6.3h-0.7L118.6,47.4z M118.6,44.9h0.7v0.9h-0.7V44.9z"/>
<path class="st2" d="M123.4,47.3c0.4,0,0.8,0,1.3,0.1l0.3,0l0,0.6c-0.7-0.1-1.2-0.1-1.5-0.1c-0.7,0-1.3,0.2-1.5,0.5
	c-0.3,0.4-0.4,1-0.4,2s0.1,1.7,0.4,2c0.3,0.4,0.8,0.6,1.6,0.6L125,53l0,0.6c-0.7,0.1-1.3,0.2-1.7,0.2c-1,0-1.7-0.2-2-0.7
	c-0.4-0.5-0.5-1.3-0.5-2.6c0-1.2,0.2-2.1,0.6-2.5C121.8,47.5,122.5,47.3,123.4,47.3"/>
<path class="st2" d="M126.9,51.9c0,0.8,0.3,1.3,1,1.3c0.3,0,0.6,0,1-0.1c0.4-0.1,0.6-0.1,0.9-0.2l0.3-0.1v-2.3l-2.1,0.2
	c-0.4,0-0.7,0.2-0.9,0.4C127,51.2,126.9,51.5,126.9,51.9 M130.9,49.3v3.4c0,0.3,0.3,0.5,0.8,0.6l0,0.6c-0.6,0-1.1-0.2-1.4-0.5
	c-0.8,0.3-1.6,0.5-2.4,0.5c-0.6,0-1-0.2-1.3-0.5c-0.3-0.3-0.4-0.8-0.4-1.4c0-0.6,0.1-1,0.4-1.3c0.3-0.3,0.8-0.5,1.4-0.5l2.1-0.2
	v-0.6c0-0.5-0.1-0.8-0.3-1c-0.2-0.2-0.5-0.3-0.8-0.3c-0.5,0-1.2,0.1-2.1,0.2l-0.4,0l0-0.6c0.9-0.2,1.7-0.3,2.4-0.3
	c0.7,0,1.2,0.2,1.5,0.5C130.7,48.1,130.9,48.6,130.9,49.3"/>
<path class="st2" d="M136.1,48.1H134l0,3.1c0,0.8,0.1,1.3,0.2,1.6c0.1,0.3,0.4,0.4,0.8,0.4l1.2-0.1l0.1,0.6c-0.6,0.1-1,0.1-1.3,0.1
	c-0.6,0-1.1-0.2-1.3-0.5c-0.2-0.3-0.4-0.9-0.4-1.8v-3.5h-0.9v-0.7h0.9v-2h0.8v2h2.1V48.1z"/>
<path class="st2" d="M137.5,47.4h0.7v6.3h-0.7V47.4z M137.5,44.9h0.7v0.9h-0.7V44.9z"/>
<path class="st2" d="M140.5,50.5c0,1,0.1,1.7,0.3,2.1c0.2,0.4,0.7,0.6,1.5,0.6c0.8,0,1.3-0.2,1.5-0.6c0.2-0.4,0.4-1.1,0.4-2.1
	c0-1-0.1-1.7-0.4-2c-0.3-0.4-0.8-0.5-1.5-0.5c-0.7,0-1.2,0.2-1.5,0.5C140.6,48.8,140.5,49.5,140.5,50.5 M139.7,50.5
	c0-1.2,0.2-2,0.6-2.5c0.4-0.5,1.1-0.7,2-0.7c1,0,1.6,0.2,2,0.7c0.4,0.5,0.6,1.3,0.6,2.5c0,1.2-0.2,2-0.5,2.5
	c-0.4,0.5-1.1,0.8-2.1,0.8c-1,0-1.7-0.3-2.1-0.8C139.9,52.5,139.7,51.7,139.7,50.5"/>
<path class="st2" d="M147.1,53.7h-0.7v-6.3h0.7v0.5c0.7-0.4,1.4-0.6,2.1-0.6c0.8,0,1.4,0.2,1.7,0.7c0.3,0.4,0.4,1.3,0.4,2.4v3.3
	h-0.8v-3.3c0-1-0.1-1.6-0.3-2c-0.2-0.3-0.6-0.5-1.2-0.5c-0.3,0-0.6,0-0.9,0.1c-0.3,0.1-0.6,0.2-0.7,0.3l-0.3,0.1L147.1,53.7z"/>
<path class="st2" d="M53.9,26c-0.2,0.1-0.3,0.2-0.5,0.2c-0.3,0.2-0.7,0.4-1.1,0.6c-0.4,0.2-0.8,0.5-1.3,0.8
	c-4.9,3.1-10.9,8.5-10.9,8.5s3.4,1.1,6.4,0c0,0,4.7-4.6,7.6-6.1c0,0,0,0,0,0c0-0.2,0-0.4,0-0.6c0-0.4,0-0.7,0-1.1
	c0-0.5-0.1-1.1-0.2-1.6"/>
<path class="st2" d="M53.7,24.8C53.7,24.8,53.7,24.7,53.7,24.8c0-0.1,0-0.2-0.1-0.3c0-0.1-0.1-0.2-0.1-0.3c0-0.2-0.1-0.3-0.1-0.5
	c0-0.1-0.1-0.2-0.1-0.3c0-0.1,0-0.1-0.1-0.2c-0.1-0.2-0.1-0.4-0.2-0.7c0,0,0,0,0-0.1c-0.1-0.2-0.1-0.3-0.2-0.5
	c-0.1-0.1-0.1-0.3-0.2-0.4c0-0.1-0.1-0.2-0.1-0.3c-1.8-4.1-5-7.6-9-9.6c-2.7-1.4-5.7-2.2-9-2.2c-10,0-18.3,7.5-19.5,17.2
	c0,0,0,0,0,0c0,0.3-0.1,0.5-0.1,0.8c0,0,0,0.1,0,0.1c0,0.2,0,0.4,0,0.5c0,0.1,0,0.2,0,0.4c0,0,0,0.1,0,0.1h0c0,0.2,0,0.4,0,0.6
	c0,10.9,8.8,19.7,19.7,19.7c10.1,0,18.4-7.6,19.5-17.3c-0.4,0.2-0.8,0.4-1.2,0.6c-1.8,1-3.4,2.4-4.8,4c-2.3,2.5-4.6,4.4-7.8,5.4
	c-3.7,1-8.2,1-11.6-1c-0.6-0.4-1.2-0.8-1.7-1.3c-0.2-0.2-0.6-0.5-0.6-0.8c-0.1-1.1,3.1,0,3.5,0.1c1.6,0.4,3.3,1,4.8,1.6
	c2.4,1,4.9,1.1,7.2,0c1-0.5,1.9-1.2,2.8-1.9c0.2-0.2,0.7-0.7,0.9-1c-7.1,0.9-4.8-0.2-21.3-7.6c-2.6-1.2-5.1-1.7-7.5-1.9
	c0.7-9.2,8.5-16.5,17.9-16.5c7.8,0,14.4,5,16.9,12c-1.7,0.2-3.3,0.8-4.3,1.3c-1.9,1.1-12,9.3-12,9.3l3.8,1.7c0,0,1.5-1.6,5.1-4.4
	c3-2.3,5.2-3.8,6.8-4.9c0.4-0.3,0.7-0.5,1.1-0.7C52.7,25.3,53.3,25,53.7,24.8"/>
<path class="st2" d="M38.6,26.5C33.2,30.2,31,32,31,32s2.5,1.2,3.3,1.6l8-6.7c0,0,3.1-2.3,4.4-3C46.7,23.9,43.3,23.3,38.6,26.5"/>
<path class="st2" d="M31.1,23.1c-0.1,0-0.2,0.1-0.3,0.1c-0.3,0.1-0.7,0.3-1,0.4l-0.2,0.1c0,1.4,0,4.1-1,6.6l1.4,0.7
	C31.1,28.1,31.2,24.7,31.1,23.1"/>
<path class="st2" d="M29.6,22.8c0.5-0.2,1-0.4,1.5-0.6c0.9-0.4,1.7-0.8,2.5-1.4c1.2-0.9,2-2,2.5-3.4c0.4-1.1,0.7-2.3,1.1-3.4
	c0,0-0.1,0-0.1-0.1C28.7,16.5,29.5,22.8,29.6,22.8C29.5,22.8,29.6,22.8,29.6,22.8"/>
<path class="st2" d="M28.6,22.7c-0.3-1.1-0.9-2.1-1.9-3c-0.8-0.7-1.6-1.3-2.4-2c0,0-0.1,0-0.1,0.1c-0.9,6.4,4.6,8.3,4.6,8.3
	C28.8,24.9,29,23.8,28.6,22.7"/>
<path class="st2" d="M33,53.2c-0.9-0.1-1.9-0.1-2.9-0.1c-1.5,0.1-2.9,0.6-4.2,1.3c-1.4,0.7-2.9,1.3-4.4,1.7
	c-1.8,0.5-3.8,0.3-5.5-0.5c-0.1,0-0.2,0.1-0.1,0.2c0.8,0.9,2,1.6,3.8,2.2c2.1,0.7,3.8,0.3,5.1,0c1.5-0.4,2.9-1.5,4.2-2.4
	c0.9-0.6,1.7-1.3,2.7-1.6c0.5-0.1,1-0.1,1.5,0c0.5-0.2,1-0.4,1.5-0.5C34.1,53.4,33.6,53.2,33,53.2"/>
<path class="st2" d="M35,54.5c1.8,0.7,3.5,2.2,4.9,3.5c0.2,0.2,1.8,1.8,2.2,2.2c0,0,0.1,0,0.2,0l1.1-1.1c0,0,0-0.1,0-0.1
	c-0.5-0.4-2.8-2.5-5.3-3.9c-0.6-0.4-1.3-0.7-1.9-0.9c-0.5,0.1-1,0.2-1.5,0.4C34.7,54.5,34.9,54.5,35,54.5"/>
<path class="st2" d="M20.2,54.8c2.7-0.2,5.8-1.1,6.8-1.5c0.1,0,0.1-0.2,0-0.2c-3.8-0.9-5.7-3.2-6.8-4.4c-1.2-1.4-2.5-2.3-3-2.6
	c-0.1-0.1-0.2,0-0.2,0.1c0.4,0.9,1.5,3.4,2.5,4.6c0.7,0.8,1.7,1.4,2.3,1.7c0.1,0.1,0.1,0.2-0.1,0.2c-2.8-0.5-3.9-0.2-6.6-0.5
	c-2.2-0.3-3.8-1.3-4.5-1.8c-0.1-0.1-0.2,0-0.1,0.1c0.2,0.4,0.7,1,1.7,2C14,54.3,16.3,55.1,20.2,54.8"/>
<path class="st2" d="M18.8,51.6c0.1,0,0.2-0.1,0.1-0.2c-1.1-1.1-2.2-3.1-3.2-6.2c-0.8-2.6-2.4-4.6-3.1-5.4c-0.1-0.1-0.2,0-0.2,0.1
	c0.3,1,0.5,3.1,0.9,5.1c0.4,2.4,2.6,4.5,3,4.8c-0.3-0.3-1.9-1.6-5.5-3.2c-3-1.4-4.8-3.1-5.5-3.9c-0.1-0.1-0.2,0-0.2,0.1
	c0.3,0.7,0.9,2,2.3,3.8c2.1,2.8,4.9,4,6.9,4.2C15.8,50.9,17.9,51.4,18.8,51.6"/>
<path class="st2" d="M8.5,44c1.4,0.6,3.3,1.9,4,2.4c0.1,0.1,0.2,0,0.2-0.1c-0.7-1.5-1.4-4-1.4-7.1c0.1-2.6-0.7-5-1.1-6
	c0-0.1-0.2-0.1-0.2,0c-0.1,1.1-0.5,3.1-0.8,5.1c-0.3,1.7,0.2,3.3,0.7,4.3c0.5,0.8,0.7,1.2,0.7,1.2s-0.3-0.5-0.7-1.2
	c-0.6-0.8-1.6-2.1-3.4-3.7c-2.4-2.1-3.3-4.2-3.5-5.2c0-0.1-0.2-0.1-0.2,0c0,0.8,0.1,2.2,0.8,4.2C4.6,41.2,6.7,43.2,8.5,44"/>
<path class="st2" d="M9.9,42.6c0.3,0.7,0.7,1.2,0.7,1.2S10.4,43.4,9.9,42.6"/>
<path class="st2" d="M8.1,39.3c0.1,0.1,0.2,0,0.2-0.1c-0.1-0.8-0.1-3.4,1.1-6.2c1.1-2.7,1.2-5.7,1.1-6.7c0-0.1-0.1-0.1-0.2-0.1
	c-0.5,0.8-1.8,3.1-2.1,3.5c-0.3,0.5-0.9,1.7-1.1,2.9C7,33.3,6.9,34,7,34.7c0,0.1-0.2,0.1-0.2,0c-0.3-1-0.6-2.4-0.9-3.2
	c-0.3-1-1-2.3-1.5-3.6C4,26.7,3.7,25.8,3.6,25c0-0.1-0.2-0.1-0.2,0c-0.3,1.6-1,5.9,0.7,8.9C5.9,37.1,7.5,38.8,8.1,39.3"/>
<path class="st2" d="M6.1,29.2c0.1,0.4,0.2,1.1,0.3,1.6c0,0.1,0.2,0.1,0.2,0c0.8-2,2.9-5.1,3-5.2c0,0,0,0,0,0
	c2.1-2.6,2.5-4.7,2.6-5.6c0-0.1-0.1-0.2-0.2-0.1c-0.3,0.5-1.1,1.5-2.5,2.6c-1.4,1.1-2.1,2.7-2.5,3.6c0,0.1-0.2,0.1-0.2,0
	c0-1.2,0-3.4-0.3-5.5c-0.3-1.8,0-3.1,0.2-3.9c0-0.1-0.1-0.2-0.2-0.1C6.3,17.1,6,17.6,5.7,18c-0.6,1-0.9,2.2-1.1,3.3
	c-0.2,1.1-0.2,2.2,0,3.3C5,26.2,5.6,27.6,6.1,29.2"/>
<path class="st2" d="M7.4,23.2c0,0.1,0.1,0.1,0.2,0.1c0.4-0.5,1.3-1.6,2.7-2.7c1.7-1.5,4.4-3.2,4.6-6.1c0-0.1-0.1-0.1-0.2-0.1
	c-0.3,0.4-1,1.3-2.4,2.3c-1.6,1.1-2.6,2.1-3.3,3.2c-0.1,0.1-0.2,0-0.2-0.1c0.3-1.2,0.8-3.5,1-4.2c0.2-1,0.6-2.4,1.5-3.3
	c0.1-0.1,0-0.2-0.1-0.2c-0.7,0.3-2.2,1-2.9,2.4c-1.1,1.9-0.9,4.9-0.9,5.3C7.4,20.1,7.4,22.4,7.4,23.2"/>
<path class="st2" d="M10.6,17c1.1-1.1,3.4-2.7,4.4-4.2c1.2-1.6,2.4-3.3,2.8-3.9c0.1-0.1,0-0.2-0.1-0.2c-0.6,0.2-1.9,0.7-4,2.1
	c-2.3,1.6-3.1,5-3.3,6C10.4,17,10.5,17,10.6,17"/>
<path class="st2" d="M53.1,55.6c-1.7,0.8-3.7,1-5.5,0.5c-1.5-0.4-3-1-4.4-1.7c-1.3-0.7-2.7-1.1-4.2-1.3c-1-0.1-1.9-0.1-2.9,0.1
	c-0.5,0.1-1,0.2-1.5,0.3c0.5,0.1,1,0.3,1.5,0.5c0.5-0.1,0.9-0.1,1.4,0c1,0.2,1.8,1,2.7,1.6c1.3,0.9,2.7,1.9,4.2,2.4
	c1.2,0.3,3,0.7,5.1,0c1.8-0.6,3-1.3,3.8-2.2C53.3,55.7,53.2,55.6,53.1,55.6"/>
<path class="st2" d="M31.1,55c-2.5,1.4-4.9,3.5-5.3,3.9c0,0,0,0.1,0,0.1l1.1,1.1c0,0,0.1,0,0.2,0c0.4-0.4,2-2,2.2-2.2
	c1.4-1.3,3-2.8,4.9-3.5c0.1-0.1,0.3-0.1,0.5-0.2c-0.5-0.2-1-0.3-1.5-0.4C32.5,54.3,31.8,54.6,31.1,55"/>
<path class="st2" d="M33.2,54c0.5,0.1,1,0.2,1.5,0.4c0.5-0.2,1-0.3,1.5-0.4c-0.5-0.2-1-0.4-1.5-0.5C34.1,53.6,33.6,53.8,33.2,54"/>
<path class="st2" d="M58.5,50.4c-0.7,0.5-2.3,1.5-4.5,1.8c-2.7,0.3-3.8,0.1-6.6,0.5c-0.1,0-0.2-0.1-0.1-0.2c0.7-0.3,1.6-0.9,2.3-1.7
	c1-1.1,2.1-3.7,2.5-4.6c0-0.1-0.1-0.2-0.2-0.1c-0.5,0.3-1.8,1.2-3,2.6c-1.1,1.3-3,3.5-6.8,4.4c-0.1,0-0.1,0.2,0,0.2
	c1,0.3,4.1,1.3,6.8,1.5c4,0.2,6.3-0.5,8-2.3c1-1,1.5-1.6,1.7-2C58.7,50.5,58.6,50.4,58.5,50.4"/>
<path class="st2" d="M63.8,42.7c-0.7,0.8-2.4,2.5-5.5,3.9c-3.5,1.6-5.2,3-5.5,3.2c0.4-0.3,2.6-2.4,3-4.8c0.4-2,0.6-4.1,0.9-5.1
	c0-0.1-0.1-0.2-0.2-0.1c-0.7,0.8-2.3,2.8-3.1,5.4c-1,3.1-2,5-3.2,6.2c-0.1,0.1,0,0.2,0.1,0.2c0.8-0.2,3-0.6,4.5-0.8
	c1.9-0.2,4.8-1.4,6.9-4.2c1.4-1.8,2-3.1,2.3-3.8C64,42.7,63.9,42.6,63.8,42.7"/>
<path class="st2" d="M66.4,33.8c0-0.1-0.2-0.1-0.2,0c-0.3,1-1.1,3.1-3.5,5.2c-1.8,1.6-2.8,2.8-3.4,3.7c-0.3,0.7-0.7,1.2-0.7,1.2
	s0.1-0.4,0.7-1.2c0.5-1,1-2.6,0.7-4.3c-0.3-2-0.7-4-0.8-5.1c0-0.1-0.2-0.1-0.2,0c-0.4,1-1.1,3.4-1.1,6c0.1,3.2-0.6,5.7-1.4,7.1
	c0,0.1,0.1,0.2,0.2,0.1c0.8-0.5,2.7-1.8,4-2.4c1.8-0.8,3.8-2.8,4.9-6.1C66.3,35.9,66.4,34.5,66.4,33.8"/>
<path class="st2" d="M59.2,42.6c-0.5,0.8-0.7,1.2-0.7,1.2S58.9,43.4,59.2,42.6"/>
<path class="st2" d="M62.4,34.7c0,0.1-0.2,0.1-0.2,0c0-0.6,0-1.4-0.1-2.1c-0.3-1.2-0.8-2.4-1.1-2.9c-0.3-0.4-1.6-2.7-2.1-3.5
	c-0.1-0.1-0.2-0.1-0.2,0.1c0,1,0.1,4,1.1,6.7c1.2,2.8,1.1,5.4,1.1,6.2c0,0.1,0.1,0.1,0.2,0.1c0.6-0.5,2.2-2.1,4-5.4
	c1.7-3,1-7.3,0.7-8.9c0-0.1-0.2-0.1-0.2,0c-0.1,0.8-0.4,1.7-0.8,2.9c-0.4,1.3-1.1,2.5-1.5,3.6C63,32.3,62.6,33.7,62.4,34.7"/>
<path class="st2" d="M59.6,22.6c-1.4-1.1-2.2-2.1-2.5-2.6c-0.1-0.1-0.2,0-0.2,0.1c0.1,0.9,0.5,2.9,2.6,5.6c0,0,0,0,0,0
	c0.1,0.1,2.2,3.2,3,5.2c0,0.1,0.2,0.1,0.2,0c0.1-0.6,0.2-1.2,0.3-1.6c0.4-1.5,1.1-3,1.4-4.5c0.2-1.1,0.2-2.2,0-3.3
	c-0.2-1.1-0.5-2.3-1.1-3.3c-0.3-0.4-0.6-0.9-0.9-1.3c-0.1-0.1-0.2,0-0.2,0.1c0.2,0.7,0.5,2.1,0.2,3.9c-0.3,2-0.3,4.3-0.3,5.5
	c0,0.1-0.2,0.1-0.2,0C61.8,25.3,61,23.7,59.6,22.6"/>
<path class="st2" d="M59.3,15.6c0.2,0.7,0.7,3,1,4.2c0,0.1-0.1,0.2-0.2,0.1c-0.7-1.1-1.7-2.1-3.3-3.2c-1.3-0.9-2.1-1.8-2.4-2.3
	c-0.1-0.1-0.2,0-0.2,0.1c0.2,2.9,2.9,4.6,4.6,6.1c1.4,1.2,2.3,2.3,2.7,2.7c0.1,0.1,0.2,0,0.2-0.1c0-0.8,0.1-3.1,0.1-3.5
	c0-0.4,0.2-3.4-0.9-5.3c-0.8-1.4-2.2-2.1-2.9-2.4c-0.1,0-0.2,0.1-0.1,0.2C58.7,13.2,59.1,14.6,59.3,15.6"/>
<path class="st2" d="M54.1,12.8c1,1.4,3.3,3.1,4.4,4.2c0.1,0.1,0.2,0,0.2-0.1c-0.2-1-0.9-4.5-3.3-6c-2.1-1.4-3.4-1.9-4-2.1
	c-0.1,0-0.2,0.1-0.1,0.2C51.8,9.6,53,11.2,54.1,12.8"/>
<g>
	<defs>
		<path id="SVGID_1_" d="M255.8,2L255.8,2L255.8,2c-12.7,0.3-20.4,4.9-20.4,18.1v13.7c0,0.5,0,1,0,1.6c0,0.1,0,0.1,0,0.2
			c0,1.3,1.1,2.4,2.4,2.4s2.4-1.1,2.4-2.4l0,0v-8.7c0-0.9,0-1.8,0-2.7v0c0.2-7.6,2-14.8,11-14.9c0.1,0,0.1,0,0.1,0.1
			c0,0,0,0.1,0,0.1l0,0c0,1.1-0.2,2.1-0.5,3l0,0c-1.4,5.8-8.3,6.3-8.3,11.1v1.9c3.3-3.2,7.3-3.7,10.4-6.1c2.8-2.2,4.7-5.3,4.7-14.7
			c0-1.4-0.1-2.8-0.1-2.8l-0.4,0c0,0-0.1,0-0.2,0C256.6,2,256.2,2,255.8,2"/>
	</defs>
	
		<linearGradient id="SVGID_00000040558605949242144650000005120984563832487075_" gradientUnits="userSpaceOnUse" x1="230.2552" y1="27.3842" x2="261.6568" y2="9.2544">
		<stop  offset="0" style="stop-color:#35A649"/>
		<stop  offset="0.8552" style="stop-color:#BED231"/>
	</linearGradient>
	<use xlink:href="#SVGID_1_"  style="overflow:visible;fill:url(#SVGID_00000040558605949242144650000005120984563832487075_);"/>
	<clipPath id="SVGID_00000062871196100319648110000010676029521314480052_">
		<use xlink:href="#SVGID_1_"  style="overflow:visible;"/>
	</clipPath>
</g>
</svg>
