<?xml version="1.0" encoding="UTF-8"?>
<svg version="1.1" xmlns="http://www.w3.org/2000/svg" width="591" height="532">
<path d="M0 0 C0.66 0 1.32 0 2 0 C3.44073145 49.0649098 -14.54506651 98.55739259 -47.85546875 134.66796875 C-50.50725688 137.55160721 -53.05096738 140.52087657 -55.58984375 143.50390625 C-57.39389118 145.41789562 -58.46859994 145.96958058 -61.10073853 146.12025452 C-61.96677704 146.11803391 -62.83281555 146.11581329 -63.72509766 146.11352539 C-64.70596344 146.11344986 -65.68682922 146.11337433 -66.69741821 146.11329651 C-67.75891083 146.10813522 -68.82040344 146.10297394 -69.9140625 146.09765625 C-71.54122696 146.09553383 -71.54122696 146.09553383 -73.20126343 146.09336853 C-76.67587 146.08775802 -80.15041281 146.07520372 -83.625 146.0625 C-85.97656157 146.05748635 -88.32812415 146.05292321 -90.6796875 146.04882812 C-96.45314686 146.03778518 -102.22656888 146.02103679 -108 146 C-106.48453347 142.87323747 -104.78777011 140.25977779 -102.65625 137.5078125 C-101.99238281 136.64542969 -101.32851563 135.78304687 -100.64453125 134.89453125 C-99.93683594 133.98058594 -99.22914063 133.06664062 -98.5 132.125 C-93.49907739 125.61937502 -88.57808873 119.09195446 -83.86035156 112.37817383 C-79.4579812 106.15896657 -74.79749561 100.13760195 -70.1640625 94.08984375 C-65.71275775 88.27147162 -61.3275176 82.41092227 -57 76.5 C-51.4135524 68.87247311 -45.70723354 61.34355033 -39.9609375 53.8359375 C-35.00048826 47.34330316 -30.13699111 40.78558876 -25.31103516 34.19262695 C-20.07939436 27.06393732 -14.72033695 20.03516118 -9.328125 13.02734375 C-5.33644182 7.82364572 -5.33644182 7.82364572 -1.6640625 2.39453125 C-1.11492187 1.60433594 -0.56578125 0.81414062 0 0 Z " fill="#34AF5C" transform="translate(526,264)"/>
<path d="M0 0 C4.74724435 4.42833158 8.54016613 9.44738254 12.4375 14.625 C13.14197266 15.55505859 13.84644531 16.48511719 14.57226562 17.44335938 C19.67567405 24.19746594 24.70607495 31.00362053 29.70874023 37.83251953 C34.07086318 43.77476468 38.51972445 49.64645991 43 55.5 C48.65353395 62.88641792 54.21470194 70.33194466 59.7109375 77.8359375 C64.07277163 83.77671612 68.52062409 89.64747089 73 95.5 C78.66213373 102.89952583 84.2443163 110.35046388 89.75048828 117.86669922 C94.89480107 124.88301546 100.1221661 131.83557047 105.37915039 138.76782227 C105.98364014 139.56889404 106.58812988 140.36996582 107.2109375 141.1953125 C107.75024902 141.90703613 108.28956055 142.61875977 108.84521484 143.35205078 C110 145 110 145 110 146 C103.10012989 146.30656306 96.20203704 146.51532215 89.296875 146.65917969 C86.95310876 146.71919353 84.60978551 146.80083963 82.26757812 146.90527344 C60.69306412 147.84249679 60.69306412 147.84249679 54.23477173 141.99839783 C51.90323396 139.46862047 49.95646556 136.83417027 48 134 C46.9353938 132.75490701 45.86223678 131.51696182 44.7734375 130.29296875 C17.98988627 95.6139407 -0.48707231 53.95227408 -0.0625 9.4375 C-0.05798828 8.52419922 -0.05347656 7.61089844 -0.04882812 6.66992188 C-0.0371874 4.44654262 -0.02083851 2.22330879 0 0 Z " fill="#34AF5C" transform="translate(63,264)"/>
<path d="M0 0 C0.33 0 0.66 0 1 0 C1 47.19 1 94.38 1 143 C-4.62215412 137.37784588 -4.62215412 137.37784588 -7.12890625 133.91796875 C-7.68368652 133.15895264 -8.2384668 132.39993652 -8.81005859 131.61791992 C-10.00486556 129.96087013 -11.19918114 128.30346594 -12.39306641 126.64575195 C-15.3503408 122.55757317 -18.32745608 118.54504133 -21.58203125 114.6875 C-30.73901837 103.71660529 -30.73901837 103.71660529 -31 96.6875 C-30.8215044 94.88407893 -30.63286293 93.07989509 -30.35205078 91.28955078 C-29.92646724 88.52178212 -29.62271031 85.74744635 -29.30859375 82.96484375 C-26.24020049 57.81170832 -18.93898404 18.93898404 0 0 Z " fill="#279DA3" transform="translate(93,158)"/>
<path d="M0 0 C19.2297556 18.53472416 27.25305686 57.59849206 30 83 C30.17813232 84.04583252 30.17813232 84.04583252 30.35986328 85.11279297 C32.81739776 99.58697066 32.81739776 99.58697066 28.87890625 106.10546875 C26.42556758 109.55378684 23.65598071 112.70836368 20.83935547 115.86230469 C17.4822869 119.76388319 14.52060521 123.96140899 11.5 128.125 C10.34378128 129.69012728 9.18753288 131.25523263 8.03125 132.8203125 C6.16963026 135.35088036 4.40118774 137.90220956 2.71875 140.5546875 C2.1515625 141.36164063 1.584375 142.16859375 1 143 C0.34 143 -0.32 143 -1 143 C-1.1743204 109.97567149 -0.86501083 76.95947059 -0.5 43.9375 C-0.48804218 42.85541008 -0.47608437 41.77332016 -0.46376419 40.65843964 C-0.31358637 27.10557514 -0.15885614 13.55276545 0 0 Z " fill="#289DA2" transform="translate(497,158)"/>
<path d="M0 0 C8.69021676 6.6371882 15.02832539 15.57141791 17.27734375 26.4453125 C18.86636906 38.9398403 17.01918786 50.14125526 9.8125 60.625 C6.2299423 65.18944388 2.52038412 68.68360551 -2.4375 71.6875 C-3.07429688 72.07550781 -3.71109375 72.46351563 -4.3671875 72.86328125 C-15.06207128 78.76909057 -26.90334029 78.87686701 -38.44921875 75.72265625 C-49.22636397 71.98939679 -57.48862724 64.84298492 -62.8125 54.8125 C-67.80093957 43.93851728 -68.92244281 33.03690785 -65.4609375 21.40625 C-60.15403965 7.84798195 -52.1838711 0.54079764 -39.05078125 -5.33203125 C-26.11295 -10.18613535 -11.31939318 -7.52366852 0 0 Z M-47.26171875 13.28515625 C-53.09782393 19.50347487 -55.63923738 26.73672564 -55.9375 35.1875 C-55.63478809 43.76433734 -53.02945647 50.85103651 -47.140625 57.15625 C-39.6250261 63.91339397 -31.7586472 66.19690983 -21.75 65.9921875 C-12.45537421 65.1372573 -5.57776198 60.56861158 0.5625 53.6875 C2.31569793 51.12475175 3.52070247 48.60682275 4.5625 45.6875 C4.79710937 45.05070312 5.03171875 44.41390625 5.2734375 43.7578125 C7.69500364 35.92703369 6.41386377 28.13186786 2.859375 20.85546875 C-2.0946754 12.57384835 -8.2605971 7.37989835 -17.625 4.9375 C-28.95472089 2.25827041 -38.55270897 5.65777938 -47.26171875 13.28515625 Z " fill="#38B449" transform="translate(297.4375,228.3125)"/>
<path d="M0 0 C7.65412294 5.5707522 12.01360377 11.04081132 15 20 C15.13252506 22.52985774 15.21215211 25.03130406 15.23828125 27.5625 C15.246353 28.30902832 15.25442474 29.05555664 15.26274109 29.82470703 C15.27656985 31.40834239 15.28729742 32.9920074 15.29516602 34.57568359 C15.30662024 36.17766193 15.32696672 37.77960412 15.35668945 39.38134766 C15.56262443 50.48803093 15.06080878 59.66991573 8.875 69.3125 C2.296546 75.46192439 -4.38873669 79.14784035 -13.421875 79.09765625 C-14.95908203 79.09282227 -14.95908203 79.09282227 -16.52734375 79.08789062 C-17.59082031 79.07951172 -18.65429688 79.07113281 -19.75 79.0625 C-20.82894531 79.05798828 -21.90789062 79.05347656 -23.01953125 79.04882812 C-25.67971125 79.03705742 -28.33986269 79.01912239 -31 79 C-31 75.37 -31 71.74 -31 68 C-29.55367187 67.96261719 -28.10734375 67.92523438 -26.6171875 67.88671875 C-24.70309992 67.82103927 -22.78903856 67.75459262 -20.875 67.6875 C-19.92367187 67.66494141 -18.97234375 67.64238281 -17.9921875 67.61914062 C-10.96509231 67.35074463 -6.38551784 66.38551784 -1.25 61.25 C1.21731921 57.68609447 2.08063784 55.17891891 3 51 C1.9275 51.639375 0.855 52.27875 -0.25 52.9375 C-7.2704466 57.12276624 -15.99347524 57.21014065 -23.828125 55.31640625 C-32.53500148 52.09806694 -37.73829308 47.29527466 -42.0546875 39.1484375 C-44.97784462 32.50489858 -45.11429968 24.41692283 -43.3515625 17.4296875 C-40.17290645 9.63247137 -34.40639763 3.01179872 -27 -1 C-18.49312087 -4.33603103 -8.13637531 -4.43292172 0 0 Z M-28.875 14.9375 C-32.44467232 20.08202776 -33.54413827 23.68799606 -33 30 C-30.89683661 36.42018298 -27.85663371 40.11721869 -22.25 43.8125 C-16.92424659 45.75844836 -12.26514454 45.72484625 -6.875 44 C-2.59288869 41.02113996 1.99541981 37.0310609 3.6796875 31.94921875 C4.77591043 25.27830119 3.7676231 20.51811875 0 15 C-4.08081249 10.57259796 -8.36007044 8.29885995 -14.3125 7.625 C-20.24635577 8.22844296 -24.90779281 10.42188475 -28.875 14.9375 Z " fill="#000000" transform="translate(199,139)"/>
<path d="M0 0 C2.60130946 1.53606735 4.97356019 3.35758189 7.375 5.1875 C8.18904297 4.55521484 8.18904297 4.55521484 9.01953125 3.91015625 C9.73496094 3.36230469 10.45039063 2.81445312 11.1875 2.25 C11.89519531 1.70472656 12.60289062 1.15945312 13.33203125 0.59765625 C19.03423154 -3.33827932 26.74698645 -2.29680162 33.375 -1.8125 C39.68564509 -0.21071547 43.83975491 3.87181422 47.375 9.1875 C51.47780175 18.0511 50.71072651 27.1935851 50.5625 36.75 C50.54742858 38.4433475 50.53374451 40.13670794 50.52148438 41.83007812 C50.48866704 45.94954222 50.43702063 50.0683763 50.375 54.1875 C46.745 54.1875 43.115 54.1875 39.375 54.1875 C39.36041748 53.15866699 39.34583496 52.12983398 39.33081055 51.06982422 C39.27261343 47.23403053 39.19538297 43.39881078 39.11254883 39.56347656 C39.07939982 37.90699616 39.05133691 36.25040554 39.02856445 34.59375 C38.99483268 32.20525366 38.94251041 29.81775829 38.88671875 27.4296875 C38.88032883 26.69507294 38.8739389 25.96045837 38.86735535 25.20358276 C38.71054988 19.65615574 37.52904556 15.41847576 33.625 11.375 C29.10720712 8.99060931 25.56037957 8.84594996 20.6875 10.25 C16.78747092 12.53114908 15.50609 14.22139944 13.375 18.1875 C12.81232669 21.01421234 12.77029653 23.77211544 12.765625 26.6484375 C12.74908875 27.43900543 12.73255249 28.22957336 12.71551514 29.0440979 C12.66722512 31.55031244 12.64570757 34.05592112 12.625 36.5625 C12.59682426 38.26956142 12.56689458 39.97659485 12.53515625 41.68359375 C12.46147191 45.85151257 12.41178188 50.0190988 12.375 54.1875 C8.745 54.1875 5.115 54.1875 1.375 54.1875 C1.37089111 53.09808105 1.36678223 52.00866211 1.36254883 50.88623047 C1.34070193 46.82667362 1.2863557 42.76807838 1.22241211 38.70898438 C1.19928032 36.95549772 1.18484771 35.20187308 1.17944336 33.44824219 C1.17011801 30.92035416 1.12905365 28.39462183 1.08203125 25.8671875 C1.0859639 25.08882538 1.08989655 24.31046326 1.09394836 23.5085144 C0.94121611 17.75229776 -0.50293367 15.21952776 -4.625 11.1875 C-8.78250253 8.67111689 -11.97146981 9.10721621 -16.625 10.1875 C-20.31545919 11.61335923 -21.38168107 12.72168406 -23.22265625 16.24609375 C-25.69252602 23.18917209 -25.20485826 30.9003866 -25.3125 38.1875 C-25.3457203 39.74091343 -25.38021422 41.29430017 -25.41601562 42.84765625 C-25.50038248 46.62745593 -25.56744329 50.4072009 -25.625 54.1875 C-28.925 54.1875 -32.225 54.1875 -35.625 54.1875 C-35.72440554 48.77983876 -35.79672051 43.37271772 -35.84472656 37.96435547 C-35.86475373 36.12734707 -35.89198382 34.29040171 -35.92675781 32.45361328 C-35.97567065 29.80224998 -35.99805763 27.15173459 -36.015625 24.5 C-36.03627014 23.68821289 -36.05691528 22.87642578 -36.07818604 22.04003906 C-36.08094411 14.91757863 -33.8614784 9.9209736 -29.375 4.4375 C-21.03059704 -2.38973879 -10.19412599 -4.94434201 0 0 Z " fill="#000000" transform="translate(385.625,236.8125)"/>
<path d="M0 0 C0.99 0.33 1.98 0.66 3 1 C-6.50428556 23.95064715 -16.03245991 46.8911746 -25.59204102 69.81884766 C-32.42220127 86.20124781 -39.22969722 102.59276562 -46 119 C-46.66 119 -47.32 119 -48 119 C-48.23327294 110.24575833 -48.41015963 101.49261032 -48.51812172 92.73592186 C-48.56998061 88.668197 -48.64012396 84.60262099 -48.75439453 80.53613281 C-48.86428596 76.60015919 -48.92309048 72.6662308 -48.94877243 68.72883987 C-48.96703478 67.2384792 -49.00269282 65.74821134 -49.05730057 64.25873947 C-49.48931948 51.96899391 -45.96940968 45.23316672 -38 36 C-37.43025955 35.31053787 -36.8605191 34.62107574 -36.27351379 33.91072083 C-34.96392379 32.37340789 -33.57837206 30.90168303 -32.1875 29.4375 C-31.44584595 28.65572388 -31.44584595 28.65572388 -30.68920898 27.8581543 C-29.13554575 26.2294278 -27.56812636 24.614791 -26 23 C-25.4750293 22.44924805 -24.95005859 21.89849609 -24.40917969 21.33105469 C-18.55230422 15.18899965 -12.55199977 9.3769214 -5.875 4.125 C-5.33045166 3.68969971 -4.78590332 3.25439941 -4.22485352 2.8059082 C-2.6796875 1.6328125 -2.6796875 1.6328125 0 0 Z " fill="#1C92C7" transform="translate(143,104)"/>
<path d="M0 0 C10.07262913 3.45398952 18.32169771 12.86278613 26 20 C26.66515625 20.61101562 27.3303125 21.22203125 28.015625 21.8515625 C32.27222515 25.91782687 35.98231025 30.32605568 39.625 34.9375 C40.06835693 35.49848389 40.51171387 36.05946777 40.96850586 36.63745117 C42.34001558 38.4055298 43.6687772 40.20144046 45 42 C45.5463208 42.68674805 46.0926416 43.37349609 46.65551758 44.08105469 C51.03728072 49.94411392 51.79035252 54.16173891 51.4375 61.375 C51.40076172 62.90918579 51.40076172 62.90918579 51.36328125 64.47436523 C51.30313211 66.86819839 51.22887771 69.26169967 51.14404297 71.65478516 C50.96263254 76.8351286 50.86065925 82.01688987 50.75390625 87.19921875 C50.53162181 97.80027424 50.27405192 108.40016752 50 119 C47.4750606 117.7375303 47.34858917 116.89013364 46.29858398 114.31445312 C45.97256195 113.52434341 45.64653992 112.7342337 45.31063843 111.92018127 C44.95933868 111.04933395 44.60803894 110.17848663 44.24609375 109.28125 C43.87336334 108.37297958 43.50063293 107.46470917 43.11660767 106.52891541 C41.88406691 103.52176171 40.66090407 100.51088098 39.4375 97.5 C38.58138675 95.407331 37.72452637 93.31496751 36.86694336 91.22290039 C35.10377686 86.92061605 33.34347418 82.61717651 31.58496094 78.31298828 C28.12756328 69.85915673 24.62694275 61.42337915 21.12231445 52.98904419 C20.06801434 50.45077599 19.0151852 47.91190297 17.96289062 45.37280273 C15.0409367 38.3227656 12.11655988 31.27380344 9.17573547 24.23161316 C8.02693382 21.47985505 6.88059184 18.72707614 5.73458862 15.97415161 C4.95915433 14.11443341 4.17994814 12.25628937 3.40063477 10.39819336 C2.72085571 8.76442749 2.72085571 8.76442749 2.02734375 7.09765625 C1.63281006 6.15414307 1.23827637 5.21062988 0.83178711 4.23852539 C0 2 0 2 0 0 Z " fill="#1C92C7" transform="translate(445,104)"/>
<path d="M0 0 C8.4210871 8.90229208 10.1875 16.04080605 10.1875 28.3125 C-5.3225 28.3125 -20.8325 28.3125 -36.8125 28.3125 C-31.68067817 37.94496586 -31.68067817 37.94496586 -22.8125 42.3125 C-15.4693436 42.79401845 -11.17478666 41.34351613 -5.4375 36.625 C-4.57125 35.861875 -3.705 35.09875 -2.8125 34.3125 C-0.1725 36.2925 2.4675 38.2725 5.1875 40.3125 C1.92217162 46.84315675 -2.47111942 50.08416079 -8.8125 53.3125 C-15.58393407 55.49730031 -24.04269058 55.4333805 -30.625 52.75 C-39.00482979 48.3371355 -44.81177672 42.39227475 -47.8125 33.3125 C-49.66255757 23.98918357 -49.1951117 15.75886903 -44.125 7.625 C-33.09541671 -7.64058268 -15.96094165 -9.57656499 0 0 Z M-33.19921875 11.91015625 C-34.69852318 14.05126819 -35.8125 15.64793411 -35.8125 18.3125 C-24.9225 18.3125 -14.0325 18.3125 -2.8125 18.3125 C-3.83404659 13.20476707 -3.99342673 12.62059729 -7.6875 9.5625 C-8.38617188 8.96953125 -9.08484375 8.3765625 -9.8046875 7.765625 C-17.55992382 2.15288587 -27.32458591 5.14191728 -33.19921875 11.91015625 Z " fill="#000000" transform="translate(366.8125,141.6875)"/>
<path d="M0 0 C7.91945158 5.65842472 12.05232369 11.34543926 14.75 20.5625 C15.10507724 24.02450308 15 27.51983547 15 31 C-0.51 31 -16.02 31 -32 31 C-27.82453976 39.46827609 -27.82453976 39.46827609 -20.6875 44.25 C-15.68576132 45.64583405 -11.61067839 45.60005665 -6.8125 43.8125 C-3.76834802 41.85071317 -1.4455134 39.661294 1 37 C3.97 38.98 6.94 40.96 10 43 C7.06470022 48.87059956 2.36469437 53.23906939 -3.6875 55.9375 C-10.73095849 58.15591212 -18.94131821 58.195483 -25.8125 55.4375 C-34.33890356 50.94744895 -39.61426383 45.03831715 -43 36 C-45.10315907 27.17209029 -44.26953226 18.74459874 -39.74609375 10.796875 C-35.5637309 4.82532695 -30.43219489 0.42468467 -23.6875 -2.375 C-15.59954224 -3.7458403 -7.37820659 -4.00712944 0 0 Z M-28.375 14.5 C-30.25397873 17.09405051 -30.25397873 17.09405051 -31 21 C-20.11 21 -9.22 21 2 21 C0.61430886 15.45723546 -2.43452102 11.59475721 -7.3125 8.5625 C-16.03839855 6.73614914 -22.06178354 7.85450899 -28.375 14.5 Z " fill="#000000" transform="translate(298,139)"/>
<path d="M0 0 C6.39163019 4.64952841 9.25244576 9.95112717 11.12109375 17.54296875 C11.46962252 20.54845775 11.47540503 23.49332339 11.4140625 26.515625 C11.40981766 27.32414413 11.40557281 28.13266327 11.40119934 28.96568298 C11.3845941 31.51263748 11.34697908 34.05875915 11.30859375 36.60546875 C11.29352333 38.34699367 11.27983909 40.08853116 11.26757812 41.83007812 C11.23475059 46.06802236 11.1830983 50.30535507 11.12109375 54.54296875 C7.16109375 54.54296875 3.20109375 54.54296875 -0.87890625 54.54296875 C-0.90863525 52.85554565 -0.90863525 52.85554565 -0.93896484 51.1340332 C-1.0151878 46.94989094 -1.10387931 42.76608888 -1.19628906 38.58227539 C-1.23450992 36.77342457 -1.26937475 34.96449954 -1.30078125 33.15551758 C-1.34658182 30.55132573 -1.40455099 27.94764175 -1.46484375 25.34375 C-1.47639496 24.53835281 -1.48794617 23.73295563 -1.49984741 22.90315247 C-1.60903447 18.72457524 -1.8467392 15.3060565 -3.87890625 11.54296875 C-8.4655367 8.58385233 -13.51022794 7.82517843 -18.87890625 8.54296875 C-22.1158564 9.75839945 -24.96049222 11.28901724 -27.04833984 14.13964844 C-28.30671237 17.78086511 -28.23864656 21.43425818 -28.29296875 25.24609375 C-28.3123349 26.08388367 -28.33170105 26.92167358 -28.35165405 27.78485107 C-28.41131349 30.45412088 -28.45778038 33.12343414 -28.50390625 35.79296875 C-28.54209861 37.60548729 -28.58115107 39.41798793 -28.62109375 41.23046875 C-28.71700377 45.6678229 -28.80108505 50.105262 -28.87890625 54.54296875 C-32.83890625 54.54296875 -36.79890625 54.54296875 -40.87890625 54.54296875 C-40.97858671 49.31434544 -41.05075372 44.08628831 -41.09863281 38.85693359 C-41.11861464 37.08209586 -41.1458098 35.30732281 -41.18066406 33.53271484 C-41.58294007 12.50787761 -41.58294007 12.50787761 -34.984375 4.140625 C-24.51906834 -4.23588318 -12.30363578 -7.21247614 0 0 Z " fill="#000000" transform="translate(424.87890625,140.45703125)"/>
<path d="M0 0 C1.67289064 1.43245494 3.26579443 2.89028097 4.8046875 4.46484375 C4.20427606 7.99318753 3.92782901 8.3705226 0.8671875 10.71484375 C-2.1953125 12.46484375 -2.1953125 12.46484375 -4.1953125 12.46484375 C-6.6953125 9.96484375 -6.6953125 9.96484375 -9.1953125 7.46484375 C-14.10423425 5.8285365 -18.43358589 5.76749363 -23.1953125 7.65234375 C-25.40445434 9.31683568 -25.40445434 9.31683568 -25.8203125 11.96484375 C-25.43602561 14.62817709 -25.43602561 14.62817709 -23.11328125 16.00390625 C-19.74291384 17.69134589 -16.55357409 18.4924565 -12.8828125 19.33984375 C-5.88920707 21.07211124 -0.17978498 23.19155135 4.7421875 28.58984375 C7.00813182 32.58856903 7.10598032 35.9454514 6.8046875 40.46484375 C4.97801449 46.35079013 2.71404258 49.02829519 -2.1953125 52.46484375 C-9.59554198 56.27911811 -20.68498657 55.85428065 -28.4921875 53.44921875 C-32.308755 51.57480986 -35.28729327 49.57341603 -38.1953125 46.46484375 C-36.84017585 42.39943379 -34.88734332 41.49184106 -31.1953125 39.46484375 C-28.20765726 39.85530958 -26.11380882 41.04209918 -23.5703125 42.58984375 C-18.76411775 45.07860501 -14.36547135 44.7688625 -9.1953125 43.46484375 C-6.06186796 41.78774136 -6.06186796 41.78774136 -5.2578125 39.08984375 C-4.93568215 36.4219008 -4.93568215 36.4219008 -6.57421875 34.484375 C-11.02076897 31.0583445 -16.38343854 30.21372858 -21.75390625 28.84179688 C-28.16138853 27.08952713 -32.70426566 25.16541623 -36.546875 19.45703125 C-38.25691598 14.20329088 -37.94448308 9.02081342 -35.5703125 4.08984375 C-26.60417588 -5.82009672 -11.16918626 -7.81048078 0 0 Z " fill="#000000" transform="translate(193.1953125,238.53515625)"/>
<path d="M0 0 C12.26556698 1.41278782 23.8829157 6.24567494 35 11.4375 C35.7518457 11.78425781 36.50369141 12.13101563 37.27832031 12.48828125 C39.56272214 13.58881066 41.77622191 14.78205823 44 16 C45.23073242 16.58225342 45.23073242 16.58225342 46.48632812 17.17626953 C56.05806585 22.52226502 58.73053297 32.30914799 62.5 42 C63.20561423 43.74068804 63.91392828 45.48028421 64.625 47.21875 C67.40421105 54.07782847 70.08330184 60.84432687 72 68 C67.00909983 65.44252152 63.54078224 61.72702035 59.6875 57.75 C55.24206651 53.22751518 50.80333817 48.82542437 45.953125 44.734375 C42.85140337 41.9800462 39.97734241 38.99745599 37.06542969 36.04589844 C34.46030218 33.41910667 31.81511455 30.89976978 29 28.5 C25.15242292 25.22009823 21.62188533 21.65429442 18.07739258 18.05566406 C15.3747344 15.32711385 12.61475917 12.73509191 9.6875 10.25 C6.0293358 7.13490347 3.03676045 3.72003155 0 0 Z " fill="#1A90D0" transform="translate(389,79)"/>
<path d="M0 0 C-1.4953315 3.62455354 -3.54332228 5.58936816 -6.5 8.125 C-10.17599945 11.34547214 -13.69575896 14.64267473 -17.125 18.125 C-19.97930283 21.01481515 -22.84801378 23.80105453 -25.9375 26.4375 C-29.28925096 29.30172355 -32.40556417 32.36334093 -35.5 35.5 C-39.1684722 39.2184599 -42.93149226 42.73668192 -46.90625 46.125 C-49.53986664 48.48346266 -52.01807098 50.98463435 -54.5 53.5 C-59.68237563 58.73275984 -64.85630764 63.90420509 -71 68 C-70.00854092 59.90956427 -66.62368221 52.51036278 -63.59521484 45.00683594 C-62.87137948 43.18482325 -62.16938513 41.35396492 -61.49072266 39.51464844 C-56.88164623 27.05465129 -52.36314511 19.65943558 -40.16503906 13.82666016 C-38.77888761 13.21279308 -37.3906931 12.60350753 -36 12 C-34.92717773 11.49130371 -33.85435547 10.98260742 -32.74902344 10.45849609 C-30.06884637 9.23104332 -27.37342046 8.126738 -24.625 7.0625 C-23.74457031 6.70349609 -22.86414063 6.34449219 -21.95703125 5.97460938 C-6.98213876 0 -6.98213876 0 0 0 Z " fill="#1A90D0" transform="translate(201,79)"/>
<path d="M0 0 C3.3 0 6.6 0 10 0 C10 5.28 10 10.56 10 16 C12.97 16 15.94 16 19 16 C19 19.63 19 23.26 19 27 C16.03 27 13.06 27 10 27 C10.08186159 30.64668507 10.19461028 34.29181587 10.3125 37.9375 C10.33505859 38.95908203 10.35761719 39.98066406 10.38085938 41.03320312 C10.65568475 48.85323422 11.24659523 55.99046455 16.6875 61.9375 C20.553748 64.34478649 23.55109795 65.15624271 28 66 C28 69.63 28 73.26 28 77 C20.3337255 77.65244889 14.31675348 75.01738527 8.25 70.375 C2.53650301 64.91617277 -0.2468598 58.50612672 -0.56762695 50.63232422 C-0.56684565 48.27296386 -0.53921235 45.9134982 -0.48828125 43.5546875 C-0.48120651 42.30366241 -0.47413177 41.05263733 -0.46684265 39.76370239 C-0.44375086 36.4720094 -0.39900499 33.18159122 -0.34332275 29.89031982 C-0.29174853 26.51818265 -0.26924815 23.1458572 -0.24414062 19.7734375 C-0.18925639 13.18180198 -0.10576806 6.59100501 0 0 Z " fill="#000000" transform="translate(204,218)"/>
<path d="M0 0 C0 3.63 0 7.26 0 11 C-1.546875 11.103125 -3.09375 11.20625 -4.6875 11.3125 C-10.34935331 11.90261532 -10.34935331 11.90261532 -15 15 C-17.46788544 20.57490831 -18.45662026 25.16199715 -18.51171875 31.21875 C-18.52966995 31.96209595 -18.54762115 32.70544189 -18.56611633 33.47131348 C-18.61971465 35.81415354 -18.6539498 38.15679605 -18.6875 40.5 C-18.72071792 42.10158972 -18.75521163 43.70315351 -18.79101562 45.3046875 C-18.87541066 49.20298111 -18.94245932 53.10122131 -19 57 C-22.63 57 -26.26 57 -30 57 C-30.07481328 52.05618504 -30.12891154 47.11270811 -30.16479492 42.16845703 C-30.17977234 40.49066417 -30.20016154 38.81290972 -30.22631836 37.13525391 C-30.58383581 13.59518305 -30.58383581 13.59518305 -22.7109375 5.47265625 C-15.70181274 -0.56031186 -9.01100815 -0.49450654 0 0 Z " fill="#000000" transform="translate(254,138)"/>
<path d="M0 0 C1.16144531 0.00902344 2.32289063 0.01804688 3.51953125 0.02734375 C4.39996094 0.03894531 5.28039062 0.05054688 6.1875 0.0625 C0.87907924 11.07438678 0.87907924 11.07438678 -3.85546875 12.8125 C-5.36062458 13.06824329 -6.86871626 13.30714086 -8.37890625 13.53125 C-15.66890676 15.12264658 -21.52595131 19.91665066 -25.63671875 25.984375 C-27.97364742 30.11476056 -29.36081665 34.40706941 -30.60546875 38.96875 C-31.99834086 42.53882998 -33.7654457 44.647832 -36.375 47.4375 C-37.58349609 48.74847656 -37.58349609 48.74847656 -38.81640625 50.0859375 C-40.8125 52.0625 -40.8125 52.0625 -41.8125 52.0625 C-43.49307786 37.57319359 -41.7157587 26.39898652 -32.83984375 14.39453125 C-24.49979266 4.80106208 -12.53768929 -0.12664333 0 0 Z " fill="#8CC53F" transform="translate(272.8125,220.9375)"/>
<path d="M0 0 C0 3.63 0 7.26 0 11 C-1.546875 11.2475 -3.09375 11.495 -4.6875 11.75 C-9.0744296 12.61992938 -11.81700199 13.71432463 -15 17 C-16.60951543 20.21903085 -16.24234748 23.74838832 -16.31640625 27.2890625 C-16.33718735 28.10748627 -16.35796844 28.92591003 -16.37937927 29.76913452 C-16.44484812 32.38766966 -16.50374726 35.00630639 -16.5625 37.625 C-16.60568776 39.39844807 -16.64930214 41.17188581 -16.69335938 42.9453125 C-16.80052676 47.29677046 -16.90180169 51.64833077 -17 56 C-20.63 56 -24.26 56 -28 56 C-28.09940554 50.59233876 -28.17172051 45.18521772 -28.21972656 39.77685547 C-28.23975373 37.93984707 -28.26698382 36.10290171 -28.30175781 34.26611328 C-28.35067065 31.61474998 -28.37305763 28.96423459 -28.390625 26.3125 C-28.41127014 25.50071289 -28.43191528 24.68892578 -28.45318604 23.85253906 C-28.45575755 17.21186048 -26.64066362 11.99970121 -22.21875 6.9765625 C-21.6515625 6.53054687 -21.084375 6.08453125 -20.5 5.625 C-19.9328125 5.16351563 -19.365625 4.70203125 -18.78125 4.2265625 C-12.85582067 0.14633266 -7.07944994 -0.141589 0 0 Z " fill="#000000" transform="translate(348,235)"/>
<path d="M0 0 C2.53934952 1.35184578 4.66237255 2.7637375 6.49609375 4.99609375 C7.81119693 10.25650646 7.77268612 13.86891562 5.30859375 18.62109375 C2.72293678 21.63769355 0.84298864 22.96707928 -3.08984375 23.58203125 C-8.51855073 23.67727172 -11.74550002 23.03264327 -15.94140625 19.24609375 C-18.43275479 15.45491118 -18.15656208 11.75324435 -17.5546875 7.40234375 C-16.59039137 4.01195226 -14.68868022 2.33925487 -11.94140625 0.24609375 C-7.84905342 -1.11802386 -4.12193147 -1.60066956 0 0 Z M-9.81640625 6.43359375 C-11.0855063 8.47825495 -11.72276625 9.84105372 -11.94140625 12.24609375 C-11.07792123 15.18194281 -10.24180216 16.05936116 -7.62890625 17.68359375 C-4.88734383 18.51168075 -4.88734383 18.51168075 -2.19140625 17.18359375 C0.21077244 15.42396351 0.21077244 15.42396351 0.99609375 12.80859375 C1.0693246 9.80612889 1.0276401 8.54331449 -0.94140625 6.24609375 C-5.53078903 4.89111763 -5.53078903 4.89111763 -9.81640625 6.43359375 Z " fill="#000000" transform="translate(274.94140625,356.75390625)"/>
<path d="M0 0 C12 0 12 0 17 2 C19.41957143 4.90348571 20.02693963 6.32650931 19.875 10.125 C18.99973834 13.00085972 18.32976763 14.1767036 16 16 C16.66 16.94875 17.32 17.8975 18 18.875 C20 22 20 22 20 24 C16.75 24.375 16.75 24.375 13 24 C10.75 21.0625 10.75 21.0625 9 18 C8.01 17.67 7.02 17.34 6 17 C6 19.31 6 21.62 6 24 C4.02 24 2.04 24 0 24 C0 16.08 0 8.16 0 0 Z M6 6 C6 7.65 6 9.3 6 11 C8.31 11 10.62 11 13 11 C12.67 9.35 12.34 7.7 12 6 C10.02 6 8.04 6 6 6 Z " fill="#000000" transform="translate(312,356)"/>
<path d="M0 0 C2.72985321 2.27487767 4.41092369 3.87825436 4.99609375 7.45703125 C5.11330187 11.94541286 5.19077717 15.17595813 2.25 18.75 C-1.78121632 22.4932723 -4.46980059 22.57787018 -9.82421875 22.546875 C-13.93368504 21.96789966 -15.58849577 20.18835071 -18.375 17.1875 C-20.11091152 13.71567697 -19.84071673 9.98341036 -19.375 6.1875 C-17.76785226 3.03060266 -16.40061766 0.99334244 -13.625 -1.1875 C-8.37822281 -2.64493811 -4.71876312 -2.53415056 0 0 Z M-12.25 5.875 C-13.58107683 8.61110236 -13.83733717 10.18230842 -13.375 13.1875 C-12.35529682 15.12404948 -12.35529682 15.12404948 -10.375 16.1875 C-7.22575452 16.58115568 -5.25590884 16.71604531 -2.5 15.0625 C-0.84645469 12.30659116 -0.98134432 10.33674548 -1.375 7.1875 C-2.375 5.1875 -2.375 5.1875 -4.375 4.1875 C-7.8681398 3.67808378 -9.5709937 3.46389433 -12.25 5.875 Z " fill="#000000" transform="translate(227.375,357.8125)"/>
<path d="M0 0 C0.845625 0.495 1.69125 0.99 2.5625 1.5 C1.5725 3.15 0.5825 4.8 -0.4375 6.5 C-1.06398438 6.4278125 -1.69046875 6.355625 -2.3359375 6.28125 C-3.15320313 6.1884375 -3.97046875 6.095625 -4.8125 6 C-5.62460937 5.9071875 -6.43671875 5.814375 -7.2734375 5.71875 C-9.40662825 5.46647649 -9.40662825 5.46647649 -11.4375 5.5 C-12.63738045 10.78199593 -12.63738045 10.78199593 -10.4375 15.5 C-8.02867313 16.49843776 -8.02867313 16.49843776 -5.4375 16.5 C-3.6020201 15.16621425 -3.6020201 15.16621425 -2.4375 13.5 C-4.0875 13.5 -5.7375 13.5 -7.4375 13.5 C-7.4375 11.85 -7.4375 10.2 -7.4375 8.5 C-4.1375 8.5 -0.8375 8.5 2.5625 8.5 C2.84581572 12.20828802 2.97744109 15.79828868 2.5625 19.5 C0.27311135 22.08479364 -1.24140513 22.35508435 -4.59765625 22.76171875 C-9.32807226 22.99073722 -12.71105595 22.67843757 -16.4375 19.5 C-19.61475642 15.55581962 -19.96266147 12.489034 -19.4375 7.5 C-18.09523362 3.62234156 -17.08931919 1.94442218 -13.6875 -0.375 C-8.54814695 -2.15400683 -5.0032224 -2.18322432 0 0 Z " fill="#000000" transform="translate(304.4375,357.5)"/>
<path d="M0 0 C1.98 0 3.96 0 6 0 C6 2.97 6 5.94 6 9 C8.64 9 11.28 9 14 9 C14 6.03 14 3.06 14 0 C15.98 0 17.96 0 20 0 C20 7.92 20 15.84 20 24 C18.02 24 16.04 24 14 24 C14 21.03 14 18.06 14 15 C11.36 15 8.72 15 6 15 C6 17.97 6 20.94 6 24 C4.02 24 2.04 24 0 24 C0 16.08 0 8.16 0 0 Z " fill="#000000" transform="translate(384,356)"/>
<path d="M0 0 C1.98 0 3.96 0 6 0 C6 2.97 6 5.94 6 9 C8.64 9 11.28 9 14 9 C14 6.03 14 3.06 14 0 C15.98 0 17.96 0 20 0 C20 7.92 20 15.84 20 24 C18.02 24 16.04 24 14 24 C14 21.03 14 18.06 14 15 C11.36 15 8.72 15 6 15 C6 17.97 6 20.94 6 24 C4.02 24 2.04 24 0 24 C0 16.08 0 8.16 0 0 Z " fill="#000000" transform="translate(184,356)"/>
<path d="M0 0 C1.98 0 3.96 0 6 0 C7.66960181 3.81122135 9.33518932 7.62418364 11 11.4375 C11.47695313 12.52611328 11.95390625 13.61472656 12.4453125 14.73632812 C12.89648438 15.77080078 13.34765625 16.80527344 13.8125 17.87109375 C14.23144531 18.82943115 14.65039062 19.78776855 15.08203125 20.77514648 C16 23 16 23 16 24 C13.69 24 11.38 24 9 24 C8.505 21.525 8.505 21.525 8 19 C6.54052295 19.06006078 5.08220728 19.1488689 3.625 19.25 C2.81289063 19.29640625 2.00078125 19.3428125 1.1640625 19.390625 C-1.18838927 19.7922092 -1.18838927 19.7922092 -2.2890625 22.046875 C-2.52367187 22.69140625 -2.75828125 23.3359375 -3 24 C-4.98 24 -6.96 24 -9 24 C-8.40227336 20.56506424 -7.52472216 17.55768504 -6.15234375 14.35546875 C-5.79462891 13.51435547 -5.43691406 12.67324219 -5.06835938 11.80664062 C-4.50858398 10.51016602 -4.50858398 10.51016602 -3.9375 9.1875 C-3.37192383 7.86202148 -3.37192383 7.86202148 -2.79492188 6.50976562 C-1.86751446 4.33798876 -0.93576366 2.16818633 0 0 Z M3 9 C2.34 10.32 1.68 11.64 1 13 C2.32 12.67 3.64 12.34 5 12 C4.34 11.01 3.68 10.02 3 9 Z " fill="#000000" transform="translate(343,356)"/>
<path d="M0 0 C11 0 11 0 16 2 C18.38125912 4.38125912 18.34521641 5.10707538 18.4375 8.375 C18.34722168 11.87892733 18.21552579 12.73222553 15.9375 15.5625 C12.4026107 17.29233945 9.88817732 17.30495508 6 17 C6 19.31 6 21.62 6 24 C4.02 24 2.04 24 0 24 C0 16.08 0 8.16 0 0 Z M6 6 C6 7.98 6 9.96 6 12 C7.98 11.67 9.96 11.34 12 11 C11.67 9.35 11.34 7.7 11 6 C9.35 6 7.7 6 6 6 Z " fill="#000000" transform="translate(362,356)"/>
<path d="M0 0 C10.7421875 -0.1953125 10.7421875 -0.1953125 14 0 C16 2 16 2 16.16015625 3.91015625 C16.11181641 4.97556641 16.11181641 4.97556641 16.0625 6.0625 C16.041875 7.361875 16.02125 8.66125 16 10 C16.33 10.33 16.66 10.66 17 11 C17.375 13.875 17.375 13.875 17 17 C11.67404818 21.21189952 6.50460693 20.21443759 0 20 C0 13.4 0 6.8 0 0 Z M5 4 C5 4.99 5 5.98 5 7 C6.65 7 8.3 7 10 7 C10.33 6.34 10.66 5.68 11 5 C8.03 4.505 8.03 4.505 5 4 Z M5 12 C5 12.99 5 13.98 5 15 C6.98 15 8.96 15 11 15 C11 14.01 11 13.02 11 12 C9.02 12 7.04 12 5 12 Z " fill="#000000" transform="translate(299,325)"/>
<path d="M0 0 C12.61538462 0 12.61538462 0 17 3 C18.61028119 6.22056238 18.59198765 9.5169099 18 13 C16 15.5 16 15.5 13 17 C10.23847356 17.30626911 7.79465924 17.18946842 5 17 C5 19.31 5 21.62 5 24 C3.35 24 1.7 24 0 24 C0 16.08 0 8.16 0 0 Z M5 6 C5 7.98 5 9.96 5 12 C7.41645782 12.16687448 7.41645782 12.16687448 10 12 C10.66 11.34 11.32 10.68 12 10 C11.6814823 7.89179203 11.6814823 7.89179203 11 6 C9.02 6 7.04 6 5 6 Z " fill="#000000" transform="translate(162,356)"/>
<path d="M0 0 C3.08416293 2.05610862 4.68386831 3.45571068 5.44140625 7.15625 C5.65145934 11.22179369 5.32167203 13.46757733 3.1875 17 C0.32361126 19.61841256 -1.52385552 19.96473004 -5.375 20.25 C-9.26399436 19.98179349 -10.98378462 19.4129723 -14 17 C-16.57189679 13.57080428 -16.502142 10.16060514 -16 6 C-12.14682388 -0.63931886 -7.24801326 -2.00236942 0 0 Z M-8.625 5.3125 C-10.21819559 7.06440884 -10.21819559 7.06440884 -11 10 C-10.5596445 12.21491214 -10.5596445 12.21491214 -9 14 C-5.94091587 14.81584568 -5.94091587 14.81584568 -3 15 C-1.33153266 13.30504044 -1.33153266 13.30504044 0 11 C0.00635246 8.36462492 0.00635246 8.36462492 -1 6 C-4.81502091 3.41674554 -4.81502091 3.41674554 -8.625 5.3125 Z " fill="#000000" transform="translate(289,325)"/>
<path d="M0 0 C0.66 0.33 1.32 0.66 2 1 C1.6875 2.9375 1.6875 2.9375 1 5 C-2 6 -2 6 -4.5 5.375 C-6.99911666 4.72916811 -6.99911666 4.72916811 -8.875 6.125 C-10.26066212 8.0140578 -10.26066212 8.0140578 -9.75 10.625 C-9.22254355 12.9312407 -9.22254355 12.9312407 -8 14 C-6.33382885 14.04063832 -4.66611905 14.042721 -3 14 C-2.67 13.34 -2.34 12.68 -2 12 C-3.32 12 -4.64 12 -6 12 C-6 10.68 -6 9.36 -6 8 C-3.03 8 -0.06 8 3 8 C3.22981205 11.1714063 3.42560962 13.88254774 3 17 C0.30156285 19.78276331 -2.26002096 20.19666802 -6 20.4375 C-10.05585501 20.29182657 -12.14904395 18.93734866 -15 16 C-16.73765543 12.52468913 -16.59585352 8.7911999 -16 5 C-11.09671544 -1.36101781 -7.31578508 -1.16123573 0 0 Z " fill="#000000" transform="translate(247,325)"/>
<path d="M0 0 C5.28 0 10.56 0 16 0 C16 1.65 16 3.3 16 5 C12.37 5 8.74 5 5 5 C5 5.99 5 6.98 5 8 C7.97 8 10.94 8 14 8 C14 9.65 14 11.3 14 13 C11.03 13 8.06 13 5 13 C5 13.99 5 14.98 5 16 C8.63 16 12.26 16 16 16 C16 17.65 16 19.3 16 21 C10.72 21 5.44 21 0 21 C0 14.07 0 7.14 0 0 Z " fill="#000000" transform="translate(239,390)"/>
<path d="M0 0 C2.6875 -0.4375 2.6875 -0.4375 6 0 C8.04775301 2.11124923 9.53480226 4.45859507 11 7 C13.77000825 3.67913229 13.77000825 3.67913229 16 0 C18.31 0 20.62 0 23 0 C21.72408216 3.53188852 20.20947222 6.21216537 17.9375 9.1875 C14.61182052 13.99395648 14.02404929 18.24019527 14 24 C12.02 24 10.04 24 8 24 C8.00902344 23.40574219 8.01804687 22.81148438 8.02734375 22.19921875 C7.7770529 15.20195721 5.53971451 11.00221647 1.49609375 5.34765625 C0 3 0 3 0 0 Z " fill="#000000" transform="translate(407,356)"/>
<path d="M0 0 C1.2065625 0.0309375 1.2065625 0.0309375 2.4375 0.0625 C3.77662585 3.18504943 5.10780658 6.31092358 6.4375 9.4375 C6.8190625 10.32695312 7.200625 11.21640625 7.59375 12.1328125 C7.9546875 12.98359375 8.315625 13.834375 8.6875 14.7109375 C9.02265625 15.49645996 9.3578125 16.28198242 9.703125 17.09130859 C10.4375 19.0625 10.4375 19.0625 10.4375 21.0625 C8.4575 21.0625 6.4775 21.0625 4.4375 21.0625 C4.1075 19.4125 3.7775 17.7625 3.4375 16.0625 C0.7975 16.0625 -1.8425 16.0625 -4.5625 16.0625 C-4.8925 17.7125 -5.2225 19.3625 -5.5625 21.0625 C-7.2125 21.0625 -8.8625 21.0625 -10.5625 21.0625 C-9.97175318 16.25529775 -8.5209358 12.1426237 -6.5625 7.75 C-6.28921875 7.11771484 -6.0159375 6.48542969 -5.734375 5.83398438 C-3.21749653 0.07847553 -3.21749653 0.07847553 0 0 Z M-1.5625 9.0625 C-1.8925 10.0525 -2.2225 11.0425 -2.5625 12.0625 C-1.2425 11.7325 0.0775 11.4025 1.4375 11.0625 C1.1075 10.4025 0.7775 9.7425 0.4375 9.0625 C-0.2225 9.0625 -0.8825 9.0625 -1.5625 9.0625 Z " fill="#000000" transform="translate(341.5625,389.9375)"/>
<path d="M0 0 C0.66 0.99 1.32 1.98 2 3 C1.01 4.485 1.01 4.485 0 6 C-2.31 5.67 -4.62 5.34 -7 5 C-6.15115234 5.41572266 -6.15115234 5.41572266 -5.28515625 5.83984375 C-4.55167969 6.20207031 -3.81820313 6.56429688 -3.0625 6.9375 C-1.96615234 7.47697266 -1.96615234 7.47697266 -0.84765625 8.02734375 C1 9 1 9 2 10 C2.57417974 16.20114123 2.57417974 16.20114123 0.5625 19 C-3.3300322 20.51903696 -6.98496064 19.98342585 -11 19 C-11.99 18.34 -12.98 17.68 -14 17 C-13.34 15.68 -12.68 14.36 -12 13 C-9.36 13.33 -6.72 13.66 -4 14 C-6.97 12.35 -9.94 10.7 -13 9 C-13.3125 5.6875 -13.3125 5.6875 -13 2 C-8.99104585 -2.00895415 -5.12684421 -1.17665277 0 0 Z " fill="#000000" transform="translate(272,391)"/>
<path d="M0 0 C1.65 0 3.3 0 5 0 C6.34242421 2.93342898 7.67234067 5.87236252 9 8.8125 C9.3815625 9.64587891 9.763125 10.47925781 10.15625 11.33789062 C10.5171875 12.14033203 10.878125 12.94277344 11.25 13.76953125 C11.58515625 14.50792236 11.9203125 15.24631348 12.265625 16.00708008 C13 18 13 18 13 21 C11.35 21 9.7 21 8 21 C7.814375 20.360625 7.62875 19.72125 7.4375 19.0625 C6.05753944 16.57873787 6.05753944 16.57873787 2.375 16.25 C1.26125 16.1675 0.1475 16.085 -1 16 C-1.99 18.475 -1.99 18.475 -3 21 C-4.65 21 -6.3 21 -8 21 C-7.32512263 16.18080529 -5.42034091 12.08116134 -3.4375 7.6875 C-2.9434668 6.57665039 -2.9434668 6.57665039 -2.43945312 5.44335938 C-1.63082877 3.62688438 -0.81602884 1.81316069 0 0 Z M2 8 C1.67 9.32 1.34 10.64 1 12 C1.99 12 2.98 12 4 12 C3.34 10.68 2.68 9.36 2 8 Z " fill="#000000" transform="translate(327,324)"/>
<path d="M0 0 C6.6 0 13.2 0 20 0 C20 1.98 20 3.96 20 6 C17.69 6 15.38 6 13 6 C13 11.94 13 17.88 13 24 C11.02 24 9.04 24 7 24 C7 18.06 7 12.12 7 6 C4.69 6 2.38 6 0 6 C0 4.02 0 2.04 0 0 Z " fill="#000000" transform="translate(235,356)"/>
<path d="M0 0 C5.28 0 10.56 0 16 0 C16 1.65 16 3.3 16 5 C12.7 5 9.4 5 6 5 C6 5.99 6 6.98 6 8 C8.97 8 11.94 8 15 8 C15 9.65 15 11.3 15 13 C12.03 13 9.06 13 6 13 C6 15.64 6 18.28 6 21 C4.02 21 2.04 21 0 21 C0 14.07 0 7.14 0 0 Z " fill="#000000" transform="translate(219,390)"/>
<path d="M0 0 C1.98 0 3.96 0 6 0 C7.32 3.63 8.64 7.26 10 11 C11.65 7.37 13.3 3.74 15 0 C16.65 0 18.3 0 20 0 C19.38169051 5.02474293 17.87023224 9.24720494 15.9375 13.875 C15.65583984 14.56335938 15.37417969 15.25171875 15.08398438 15.9609375 C14.39484734 17.64289909 13.69819202 19.32177697 13 21 C11.35 21 9.7 21 8 21 C4.69582578 14.13045202 1.966369 7.36988707 0 0 Z " fill="#000000" transform="translate(308,390)"/>
<path d="M0 0 C5.28 0 10.56 0 16 0 C16 1.65 16 3.3 16 5 C14.35 5 12.7 5 11 5 C11 10.28 11 15.56 11 21 C9.02 21 7.04 21 5 21 C5 15.72 5 10.44 5 5 C3.35 5 1.7 5 0 5 C0 3.35 0 1.7 0 0 Z " fill="#000000" transform="translate(278,390)"/>
<path d="M0 0 C1.65 0 3.3 0 5 0 C5 5.28 5 10.56 5 16 C7.97 16 10.94 16 14 16 C14 17.65 14 19.3 14 21 C9.38 21 4.76 21 0 21 C0 14.07 0 7.14 0 0 Z " fill="#000000" transform="translate(356,390)"/>
<path d="M0 0 C1.65 0 3.3 0 5 0 C5 4.95 5 9.9 5 15 C8.3 15 11.6 15 15 15 C15 16.65 15 18.3 15 20 C10.05 20 5.1 20 0 20 C0 13.4 0 6.8 0 0 Z " fill="#000000" transform="translate(344,325)"/>
<path d="M0 0 C1.65 0 3.3 0 5 0 C5 4.95 5 9.9 5 15 C8.3 15 11.6 15 15 15 C15 16.65 15 18.3 15 20 C10.05 20 5.1 20 0 20 C0 13.4 0 6.8 0 0 Z " fill="#000000" transform="translate(255,325)"/>
<path d="M0 0 C1.9375 1 1.9375 1 3 3 C3.52960415 6.58042244 3.65886567 9.75978228 1.9375 13 C-1.09753213 14.56646819 -3.65133668 14.2989878 -7 14 C-10 12 -10 12 -10.8125 8.625 C-10.9921081 5.15257665 -11.0091148 3.74931499 -9 1 C-5.95016004 -0.52491998 -3.3576631 -0.23562548 0 0 Z M-5 2 C-6.73647948 3.67488528 -6.73647948 3.67488528 -8 6 C-7.50845917 8.72897167 -7.50845917 8.72897167 -6 11 C-5.01 11.33 -4.02 11.66 -3 12 C-2.01 11.34 -1.02 10.68 0 10 C0.2502157 6.91634129 0.2502157 6.91634129 0 4 C-2.475 3.01 -2.475 3.01 -5 2 Z " fill="#000000" transform="translate(304,434)"/>
<path d="M0 0 C1.10408203 0.36931641 1.10408203 0.36931641 2.23046875 0.74609375 C2.56046875 2.72609375 2.89046875 4.70609375 3.23046875 6.74609375 C1.79589547 7.72954335 0.35769469 8.70770296 -1.08203125 9.68359375 C-1.88253906 10.22886719 -2.68304688 10.77414063 -3.5078125 11.3359375 C-5.76953125 12.74609375 -5.76953125 12.74609375 -8.76953125 13.74609375 C-9.42953125 11.76609375 -10.08953125 9.78609375 -10.76953125 7.74609375 C-9.55993509 6.3744177 -8.32601937 5.02415766 -7.08203125 3.68359375 C-6.39753906 2.92949219 -5.71304688 2.17539063 -5.0078125 1.3984375 C-2.76953125 -0.25390625 -2.76953125 -0.25390625 0 0 Z " fill="#BDD533" transform="translate(256.76953125,229.25390625)"/>
<path d="M0 0 C1.65 0 3.3 0 5 0 C5 6.93 5 13.86 5 21 C3.35 21 1.7 21 0 21 C0 14.07 0 7.14 0 0 Z " fill="#000000" transform="translate(299,390)"/>
<path d="M0 0 C8.25059477 -0.60666138 8.25059477 -0.60666138 11.625 2.125 C13.33259237 5.69542041 13.29351877 7.28113352 12 11 C10.4375 12.875 10.4375 12.875 8 14 C5.27955439 14.23407276 2.74103485 14.13705174 0 14 C0 9.38 0 4.76 0 0 Z M3 2 C3 5.3 3 8.6 3 12 C5.45224694 11.89386164 5.45224694 11.89386164 8 11 C9.37466625 8.52363988 9.37466625 8.52363988 10 6 C8.18777466 3.9375006 8.18777466 3.9375006 6 2 C5.01 2 4.02 2 3 2 Z " fill="#000000" transform="translate(244,434)"/>
<path d="M0 0 C4 1 4 1 5.75 3.5625 C6.1625 4.366875 6.575 5.17125 7 6 C7.33 4.02 7.66 2.04 8 0 C8.99 0 9.98 0 11 0 C11 4.62 11 9.24 11 14 C7 13 7 13 4.75 9.9375 C4.1725 8.968125 3.595 7.99875 3 7 C2.67 9.31 2.34 11.62 2 14 C1.34 14 0.68 14 0 14 C0 9.38 0 4.76 0 0 Z " fill="#000000" transform="translate(313,434)"/>
<path d="M0 0 C0 0.99 0 1.98 0 3 C-1.32 3.33 -2.64 3.66 -4 4 C-3.175 4.391875 -2.35 4.78375 -1.5 5.1875 C1 7 1 7 1.4375 9.5625 C1 12 1 12 -1 14 C-4 14.25 -4 14.25 -7 14 C-9 12 -9 12 -9.3125 8.0625 C-9.24476371 5.391755 -9.20742614 4.3062005 -7.6875 2.0625 C-5.06311989 0.41011252 -3.09145567 0 0 0 Z M-5 7 C-5.33 8.32 -5.66 9.64 -6 11 C-4.68 11 -3.36 11 -2 11 C-2.33 9.68 -2.66 8.36 -3 7 C-3.66 7 -4.32 7 -5 7 Z " fill="#000000" transform="translate(353,434)"/>
<path d="M0 0 C0.52325311 3.13951869 0.65533214 5.87271646 0 9 C-2.32004196 12.09847709 -5.01238157 14.55255365 -8 17 C-10.20708524 14.79291476 -10.90265621 14.09336924 -11 11 C-9.43651686 8.8717606 -7.95432351 7.11855833 -6.125 5.25 C-5.65191406 4.74339844 -5.17882812 4.23679687 -4.69140625 3.71484375 C-1.17682362 0 -1.17682362 0 0 0 Z " fill="#5CBA47" transform="translate(242,262)"/>
<path d="M0 0 C2.64 0 5.28 0 8 0 C8 0.99 8 1.98 8 3 C6.35 3 4.7 3 3 3 C3 3.99 3 4.98 3 6 C4.65 6 6.3 6 8 6 C8 6.66 8 7.32 8 8 C6.35 8 4.7 8 3 8 C3 9.32 3 10.64 3 12 C4.98 12 6.96 12 9 12 C9 12.66 9 13.32 9 14 C6.03 14 3.06 14 0 14 C0 9.38 0 4.76 0 0 Z " fill="#000000" transform="translate(230,434)"/>
<path d="M0 0 C3.8125 0.125 3.8125 0.125 7 1 C6.06409496 2.1055189 5.12620142 3.20935453 4.1875 4.3125 C3.66542969 4.92738281 3.14335937 5.54226562 2.60546875 6.17578125 C2.07566406 6.77777344 1.54585938 7.37976563 1 8 C0.4946875 8.5775 -0.010625 9.155 -0.53125 9.75 C-1.0159375 10.1625 -1.500625 10.575 -2 11 C-4.6875 10.6875 -4.6875 10.6875 -7 10 C-5.32486372 6.04058698 -3.10699118 2.96890268 0 0 Z " fill="#51B847" transform="translate(279,222)"/>
<path d="M0 0 C3.96 0 7.92 0 12 0 C12 0.99 12 1.98 12 3 C10.35 3 8.7 3 7 3 C7 6.63 7 10.26 7 14 C6.34 14 5.68 14 5 14 C5 10.37 5 6.74 5 3 C3.35 3 1.7 3 0 3 C0 2.01 0 1.02 0 0 Z " fill="#000000" transform="translate(269,434)"/>
<path d="M0 0 C0.99 0 1.98 0 3 0 C3 4.62 3 9.24 3 14 C2.01 14 1.02 14 0 14 C0 9.38 0 4.76 0 0 Z " fill="#000000" transform="translate(285,434)"/>
<path d="M0 0 C0.99 0 1.98 0 3 0 C3 4.62 3 9.24 3 14 C2.01 14 1.02 14 0 14 C0 9.38 0 4.76 0 0 Z " fill="#000000" transform="translate(262,434)"/>
<path d="M0 0 C1.32 0 2.64 0 4 0 C4 4.29 4 8.58 4 13 C3.34 13 2.68 13 2 13 C2 9.7 2 6.4 2 3 C1.01 3 0.02 3 -1 3 C-0.67 2.01 -0.34 1.02 0 0 Z " fill="#000000" transform="translate(336,435)"/>
<path d="M0 0 C0.70125 0.28875 1.4025 0.5775 2.125 0.875 C1.795 1.865 1.465 2.855 1.125 3.875 C-0.174375 3.9678125 -0.174375 3.9678125 -1.5 4.0625 C-5.83547956 5.10622656 -7.63645723 6.86778171 -10.875 9.875 C-9.04681614 5.12172197 -5.39296479 -0.23447673 0 0 Z " fill="#ADCF38" transform="translate(256.875,229.125)"/>
<path d="M0 0 C0.99 0.33 1.98 0.66 3 1 C2.59007812 1.47050781 2.18015625 1.94101563 1.7578125 2.42578125 C0.94957031 3.35970703 0.94957031 3.35970703 0.125 4.3125 C-0.40867187 4.92738281 -0.94234375 5.54226562 -1.4921875 6.17578125 C-3.1640447 8.13498212 -3.1640447 8.13498212 -5 11 C-5.66 10.67 -6.32 10.34 -7 10 C-5.33248852 6.05860922 -2.77289351 3.2107188 0 0 Z " fill="#62BB46" transform="translate(279,222)"/>
<path d="M0 0 C0.86625 0.3403125 0.86625 0.3403125 1.75 0.6875 C-1.13087546 3.08822955 -3.81404834 5.16041037 -7.25 6.6875 C-6.87492618 3.96821483 -6.40781339 2.84531339 -4.4375 0.875 C-2.25 -0.3125 -2.25 -0.3125 0 0 Z " fill="#CDDB2C" transform="translate(256.25,235.3125)"/>
<path d="M0 0 C0.33 0.99 0.66 1.98 1 3 C-1.64 5.64 -4.28 8.28 -7 11 C-7.33 10.01 -7.66 9.02 -8 8 C-5.36 5.36 -2.72 2.72 0 0 Z " fill="#4BB748" transform="translate(241,268)"/>
</svg>
