<svg width="419" height="332" viewBox="0 0 419 332" fill="none" xmlns="http://www.w3.org/2000/svg">
<g clip-path="url(#clip0_704_767)">
<path d="M135.828 78.3336C135.828 63.8994 124.093 52.1646 109.659 52.1646C95.2244 52.1646 83.4896 63.8994 83.4896 78.3336C83.4896 92.7677 95.2244 104.503 109.659 104.503C116.182 104.503 122.106 102.103 126.717 98.129V98.8413C126.717 108.402 118.919 116.2 109.359 116.2H95.0745V125.273H109.359C123.905 125.273 135.753 113.425 135.753 98.8788C135.79 98.8039 135.828 78.7085 135.828 78.3336ZM109.696 95.4296C100.248 95.4296 92.6 87.7439 92.6 78.3336C92.6 68.9232 100.286 61.2375 109.696 61.2375C119.106 61.2375 126.792 68.9232 126.792 78.3336C126.792 78.6335 126.755 78.9709 126.755 79.2709V79.4583C126.155 88.3438 118.732 95.4296 109.696 95.4296Z" fill="white"/>
<path d="M335.169 104.428H325.796V74.097C325.796 67.3111 319.835 61.7999 312.487 61.7999C305.139 61.7999 299.177 67.3111 299.177 74.097V104.428H289.805V74.097C289.805 62.3248 299.965 52.7645 312.487 52.7645C325.009 52.7645 335.169 62.3248 335.169 74.097V104.428Z" fill="white"/>
<path d="M212.61 88.5312C211.185 90.8932 209.348 92.7677 207.061 94.0799C204.624 95.5046 201.887 96.2169 198.926 96.2169C194.764 96.2169 191.165 94.9048 188.128 92.3179C185.091 89.7309 183.217 86.3192 182.429 82.1202H224.72V80.6955C224.72 77.2088 224.382 74.0971 223.67 71.3602C222.957 68.6233 221.87 66.1114 220.446 63.8619C217.971 60.1878 214.859 57.3009 211.073 55.2389C207.286 53.1769 203.162 52.1646 198.776 52.1646C195.064 52.1646 191.652 52.8395 188.503 54.2266C185.354 55.6138 182.542 57.6758 180.067 60.4127C177.705 62.9246 175.943 65.7365 174.744 68.8108C173.544 71.8851 172.944 75.1843 172.944 78.7085C172.944 82.1202 173.619 85.4569 174.931 88.7187C176.243 91.9804 178.08 94.8673 180.442 97.3417C182.954 99.9661 185.729 101.916 188.803 103.228C191.877 104.54 195.289 105.177 199.001 105.177C204.512 105.177 209.348 103.715 213.51 100.753C216.022 98.9538 218.159 96.6294 219.996 93.8925L212.61 88.5312ZM188.728 64.4618C191.652 62.1373 195.064 60.9751 199.038 60.9751C202.9 60.9751 206.236 62.0998 209.011 64.3868C211.785 66.6738 213.735 69.8605 214.859 73.9846H182.729C183.817 69.973 185.841 66.7862 188.728 64.4618Z" fill="white"/>
<path d="M270.309 88.5312C268.884 90.8932 267.047 92.7677 264.76 94.0799C262.323 95.5046 259.587 96.2169 256.625 96.2169C252.463 96.2169 248.864 94.9048 245.827 92.3179C242.79 89.7309 240.916 86.3192 240.128 82.1202H282.419V80.6955C282.419 77.2088 282.081 74.0971 281.369 71.3602C280.657 68.6233 279.569 66.1114 278.145 63.8619C275.67 60.1878 272.559 57.3009 268.772 55.2389C264.985 53.1769 260.861 52.1646 256.475 52.1646C252.763 52.1646 249.351 52.8395 246.202 54.2266C243.053 55.6138 240.241 57.6758 237.767 60.4127C235.405 62.9246 233.642 65.7365 232.443 68.8108C231.243 71.8851 230.643 75.1843 230.643 78.7085C230.643 82.1202 231.318 85.4569 232.63 88.7187C233.942 91.9804 235.78 94.8673 238.141 97.3417C240.653 99.9661 243.428 101.916 246.502 103.228C249.576 104.54 252.988 105.177 256.7 105.177C262.211 105.177 267.047 103.715 271.209 100.753C273.721 98.9538 275.858 96.6294 277.695 93.8925L270.309 88.5312ZM246.427 64.4618C249.351 62.1373 252.763 60.9751 256.737 60.9751C260.599 60.9751 263.936 62.0998 266.71 64.3868C269.484 66.6738 271.434 69.8605 272.559 73.9846H240.466C241.516 69.973 243.503 66.7862 246.427 64.4618Z" fill="white"/>
<path d="M155.098 104.428H146.025V74.2095C146.025 62.8497 155.286 53.5893 166.645 53.5893H171.369V62.6622H166.645C160.272 62.6622 155.098 67.836 155.098 74.2095V104.428Z" fill="white"/>
<path d="M313.874 140.757C306.976 140.757 300.865 143.981 296.965 148.93C293.066 143.981 286.955 140.757 280.057 140.757C268.322 140.757 258.762 150.055 258.762 161.527V190.995H267.572V161.527C267.572 154.928 273.196 149.567 280.057 149.567C286.918 149.567 292.504 154.891 292.541 161.452V161.489V190.958H301.352V161.527V161.489C301.389 154.928 306.976 149.605 313.837 149.605C320.735 149.605 326.321 154.966 326.321 161.564V191.033H335.132V161.527C335.169 150.055 325.646 140.757 313.874 140.757Z" fill="white"/>
<path d="M102.985 192.907C112.658 192.907 122.968 188.746 122.968 177.123C122.968 169.25 117.344 164.639 104.672 162.164C95.187 160.29 93.3124 158.078 93.3124 154.891C93.3124 150.055 98.5612 148.367 103.098 148.367C108.159 148.367 112.62 150.767 114.72 154.628L114.757 154.703L121.843 149.492C118.394 144.168 111.046 140.644 103.435 140.644C94.6621 140.644 84.4269 144.543 84.4269 155.528C84.4269 166.026 95.112 168.35 99.6484 169.363C110.258 171.725 113.858 173.824 113.858 177.648C113.858 182.522 110.071 185.109 102.91 185.109C98.2612 185.109 93.6123 182.972 90.7255 179.56L83.5646 184.847C88.1386 190.02 95.037 192.907 102.985 192.907Z" fill="white"/>
<path d="M240.653 190.995H231.843V161.639C231.843 150.579 240.841 141.619 251.863 141.619H256.475V150.429H251.863C245.677 150.429 240.653 155.453 240.653 161.639V190.995Z" fill="white"/>
<path d="M136.165 169.925V149.417H143.776V140.607H136.165V126.21H127.354V169.925C127.354 183.384 138.302 194.332 151.761 194.332V185.521C143.176 185.521 136.165 178.51 136.165 169.925Z" fill="white"/>
<mask id="mask0_704_767" style="mask-type:luminance" maskUnits="userSpaceOnUse" x="151" y="128" width="76" height="76">
<path d="M189.028 203.892C168.295 203.892 151.424 187.021 151.424 166.288C151.424 145.556 168.295 128.684 189.028 128.684C209.76 128.684 226.632 145.556 226.632 166.288C226.632 187.021 209.76 203.892 189.028 203.892ZM189.028 137.982C173.431 137.982 160.722 150.692 160.722 166.288C160.722 181.885 173.431 194.594 189.028 194.594C204.624 194.594 217.334 181.885 217.334 166.288C217.334 150.692 204.624 137.982 189.028 137.982Z" fill="white"/>
</mask>
<g mask="url(#mask0_704_767)">
<path d="M189.028 203.892C168.295 203.892 151.424 187.021 151.424 166.288C151.424 145.556 168.295 128.684 189.028 128.684C209.76 128.684 226.632 145.556 226.632 166.288C226.632 187.021 209.76 203.892 189.028 203.892ZM189.028 137.982C173.431 137.982 160.722 150.692 160.722 166.288C160.722 181.885 173.431 194.594 189.028 194.594C204.624 194.594 217.334 181.885 217.334 166.288C217.334 150.692 204.624 137.982 189.028 137.982Z" fill="url(#paint0_linear_704_767)"/>
<path d="M173.694 166.288C184.585 166.288 193.414 157.459 193.414 146.568C193.414 135.676 184.585 126.847 173.694 126.847C162.803 126.847 153.973 135.676 153.973 146.568C153.973 157.459 162.803 166.288 173.694 166.288Z" fill="url(#paint1_radial_704_767)"/>
</g>
<path d="M156.598 331.85H149.137V319.665H156.598V320.903H150.674V324.839H156.26V326.076H150.674V330.575H156.598V331.85Z" fill="white"/>
<path d="M173.806 325.626C173.806 327.014 173.544 328.138 172.981 329.076C172.419 330.013 171.632 330.688 170.582 331.138C169.532 331.588 168.258 331.85 166.795 331.85H163.159V319.665H167.208C168.558 319.665 169.757 319.89 170.732 320.34C171.707 320.79 172.494 321.465 173.019 322.365C173.544 323.227 173.806 324.314 173.806 325.626ZM172.157 325.664C172.157 324.577 171.969 323.677 171.557 322.965C171.144 322.252 170.582 321.727 169.795 321.39C169.007 321.052 168.07 320.865 166.945 320.865H164.696V330.613H166.608C168.445 330.613 169.832 330.2 170.769 329.376C171.707 328.551 172.157 327.314 172.157 325.664Z" fill="white"/>
<path d="M180.367 331.85V319.665H181.942V331.85H180.367Z" fill="white"/>
<path d="M193.302 331.85H191.727V320.94H187.491V319.703H197.501V320.94H193.302V331.85Z" fill="white"/>
<path d="M203.125 331.85V319.665H204.699V331.85H203.125Z" fill="white"/>
<path d="M223.557 325.739C223.557 326.676 223.407 327.539 223.182 328.288C222.92 329.076 222.545 329.713 222.02 330.275C221.495 330.838 220.858 331.25 220.108 331.55C219.358 331.85 218.458 332 217.446 332C216.396 332 215.497 331.85 214.709 331.55C213.922 331.25 213.285 330.838 212.797 330.275C212.272 329.713 211.897 329.038 211.635 328.288C211.373 327.501 211.26 326.676 211.26 325.739C211.26 324.502 211.485 323.414 211.935 322.477C212.385 321.54 213.06 320.828 213.997 320.303C214.934 319.778 216.059 319.515 217.446 319.515C218.758 319.515 219.883 319.778 220.82 320.303C221.72 320.828 222.433 321.54 222.882 322.477C223.332 323.414 223.557 324.464 223.557 325.739ZM212.872 325.739C212.872 326.789 213.022 327.651 213.36 328.438C213.697 329.188 214.184 329.788 214.859 330.2C215.534 330.613 216.396 330.8 217.409 330.8C218.458 330.8 219.283 330.613 219.958 330.2C220.633 329.788 221.12 329.188 221.42 328.438C221.72 327.688 221.908 326.789 221.908 325.739C221.908 324.164 221.533 322.927 220.82 322.065C220.108 321.202 218.946 320.753 217.446 320.753C216.396 320.753 215.534 320.94 214.859 321.352C214.184 321.765 213.697 322.327 213.36 323.077C213.022 323.827 212.872 324.689 212.872 325.739Z" fill="white"/>
<path d="M240.616 331.85H238.816L231.505 321.615H231.43C231.43 321.877 231.468 322.215 231.505 322.552C231.543 322.89 231.543 323.264 231.58 323.677C231.58 324.052 231.618 324.464 231.618 324.877V331.887H230.156V319.703H231.955L239.229 329.9H239.304C239.304 329.713 239.266 329.413 239.266 329.076C239.266 328.701 239.229 328.326 239.229 327.913C239.229 327.501 239.191 327.126 239.191 326.751V319.703H240.653V331.85H240.616Z" fill="white"/>
<path d="M253.588 331.85H252.088V323.227C252.088 322.89 252.088 322.627 252.088 322.365C252.088 322.14 252.088 321.915 252.088 321.727C252.088 321.54 252.126 321.315 252.126 321.127C251.938 321.315 251.751 321.465 251.601 321.577C251.451 321.69 251.226 321.84 251.001 322.027L249.464 323.152L248.677 322.215L252.313 319.665H253.588V331.85Z" fill="white"/>
<path d="M262.398 324.389C263.298 324.389 264.085 324.539 264.76 324.802C265.435 325.064 265.96 325.476 266.335 326.039C266.71 326.564 266.897 327.201 266.897 327.988C266.897 328.813 266.71 329.526 266.297 330.125C265.885 330.725 265.323 331.175 264.573 331.513C263.823 331.85 262.923 332 261.873 332C261.161 332 260.524 331.962 259.924 331.85C259.324 331.738 258.837 331.588 258.424 331.363V330.05C258.874 330.313 259.399 330.5 260.036 330.65C260.674 330.8 261.274 330.875 261.873 330.875C262.548 330.875 263.148 330.763 263.673 330.575C264.198 330.388 264.573 330.088 264.873 329.675C265.173 329.263 265.285 328.776 265.285 328.138C265.285 327.314 265.023 326.714 264.46 326.264C263.898 325.814 263.036 325.589 261.873 325.589C261.499 325.589 261.086 325.626 260.636 325.664C260.186 325.701 259.811 325.776 259.512 325.851L258.724 325.401L259.249 319.703H265.923V320.977H260.561L260.224 324.652C260.449 324.614 260.749 324.577 261.124 324.502C261.499 324.427 261.911 324.389 262.398 324.389Z" fill="white"/>
<path d="M142.389 281.087H155.436V284.499H146.175V288.21H154.348V291.622H146.175V298.258H142.426V281.087H142.389Z" fill="white"/>
<path d="M160.272 281.087H173.169V284.424H163.984V287.91H172.044V291.247H163.984V294.846H173.281V298.183H160.272V281.087Z" fill="white"/>
<path d="M184.604 298.445C183.292 298.445 182.017 298.22 180.78 297.771C179.542 297.321 178.38 296.646 177.368 295.709L179.58 293.047C180.367 293.684 181.155 294.171 181.979 294.546C182.804 294.921 183.704 295.109 184.679 295.109C185.466 295.109 186.066 294.959 186.516 294.696C186.966 294.434 187.153 294.021 187.153 293.497V293.459C187.153 293.234 187.116 293.009 187.003 292.822C186.928 292.634 186.741 292.447 186.478 292.297C186.216 292.147 185.879 291.959 185.429 291.809C184.979 291.659 184.379 291.472 183.667 291.285C182.804 291.06 182.017 290.835 181.305 290.572C180.592 290.31 179.992 289.972 179.505 289.597C179.018 289.222 178.643 288.735 178.38 288.173C178.118 287.61 177.968 286.898 177.968 286.036V285.998C177.968 285.211 178.118 284.499 178.418 283.899C178.718 283.261 179.13 282.736 179.655 282.287C180.18 281.837 180.817 281.462 181.53 281.237C182.279 280.974 183.067 280.862 183.966 280.862C185.204 280.862 186.366 281.049 187.416 281.424C188.465 281.799 189.44 282.324 190.303 283.036L188.353 285.886C187.603 285.361 186.853 284.948 186.103 284.649C185.354 284.349 184.641 284.199 183.891 284.199C183.142 284.199 182.617 284.349 182.242 284.611C181.867 284.911 181.679 285.248 181.679 285.661V285.698C181.679 285.961 181.717 286.223 181.829 286.411C181.942 286.598 182.129 286.786 182.392 286.973C182.654 287.123 183.067 287.273 183.517 287.423C184.004 287.573 184.604 287.723 185.354 287.948C186.216 288.173 187.003 288.435 187.678 288.735C188.353 289.035 188.915 289.372 189.403 289.747C189.853 290.16 190.228 290.61 190.452 291.172C190.677 291.697 190.79 292.372 190.79 293.122V293.159C190.79 294.021 190.64 294.771 190.34 295.409C190.04 296.083 189.59 296.608 189.065 297.058C188.54 297.508 187.866 297.846 187.078 298.07C186.366 298.333 185.541 298.445 184.604 298.445Z" fill="white"/>
<path d="M199.975 284.536H194.764V281.049H208.973V284.536H203.724V298.183H199.975V284.536Z" fill="white"/>
<path d="M213.847 281.087H217.596V298.22H213.847V281.087Z" fill="white"/>
<path d="M222.245 281.087H226.407L230.868 293.159L235.33 281.087H239.379L232.443 298.333H229.106L222.245 281.087Z" fill="white"/>
<path d="M249.764 280.974H253.251L260.599 298.22H256.662L255.088 294.396H247.852L246.277 298.22H242.453L249.764 280.974ZM253.738 291.022L251.451 285.473L249.164 291.022H253.738Z" fill="white"/>
<path d="M265.06 281.087H268.809V294.809H277.357V298.22H265.06V281.087Z" fill="white"/>
<path d="M161.659 239.209C160.309 239.209 159.11 238.984 157.985 238.534C156.898 238.084 155.923 237.484 155.136 236.697C154.348 235.91 153.711 234.972 153.299 233.923C152.849 232.835 152.624 231.673 152.624 230.399V230.361C152.624 229.124 152.849 227.999 153.299 226.912C153.748 225.825 154.386 224.887 155.173 224.1C155.96 223.275 156.935 222.638 158.022 222.188C159.11 221.738 160.309 221.476 161.622 221.476C162.371 221.476 163.084 221.513 163.721 221.626C164.359 221.738 164.921 221.888 165.483 222.075C166.046 222.263 166.533 222.525 166.983 222.825C167.47 223.125 167.92 223.463 168.37 223.838L166.008 226.687C165.671 226.424 165.371 226.162 165.033 225.937C164.696 225.712 164.359 225.562 164.021 225.412C163.684 225.262 163.309 225.15 162.896 225.075C162.484 225 162.034 224.962 161.547 224.962C160.872 224.962 160.234 225.112 159.635 225.375C159.035 225.637 158.51 226.05 158.06 226.537C157.61 227.024 157.273 227.587 157.01 228.224C156.748 228.861 156.635 229.574 156.635 230.286V230.324C156.635 231.111 156.748 231.823 157.01 232.498C157.273 233.173 157.61 233.735 158.097 234.223C158.585 234.71 159.11 235.085 159.747 235.347C160.384 235.61 161.059 235.76 161.847 235.76C163.234 235.76 164.433 235.422 165.408 234.71V232.236H161.622V228.974H169.045V236.397C168.183 237.147 167.133 237.784 165.896 238.309C164.658 238.834 163.234 239.209 161.659 239.209Z" fill="white"/>
<path d="M174.444 221.813H178.193V235.535H186.741V238.947H174.444V221.813Z" fill="white"/>
<path d="M199.75 239.209C198.438 239.209 197.201 238.984 196.114 238.497C194.989 238.047 194.052 237.409 193.227 236.622C192.402 235.835 191.802 234.897 191.352 233.848C190.902 232.798 190.677 231.636 190.677 230.399V230.361C190.677 229.124 190.902 227.999 191.352 226.912C191.802 225.825 192.44 224.887 193.264 224.1C194.089 223.313 195.026 222.638 196.151 222.188C197.276 221.738 198.476 221.476 199.825 221.476C201.138 221.476 202.375 221.701 203.462 222.188C204.587 222.638 205.524 223.275 206.349 224.062C207.174 224.85 207.773 225.787 208.223 226.837C208.673 227.924 208.898 229.049 208.898 230.286V230.324C208.898 231.561 208.673 232.685 208.223 233.773C207.773 234.86 207.136 235.797 206.311 236.585C205.487 237.372 204.549 238.047 203.424 238.497C202.262 238.984 201.063 239.209 199.75 239.209ZM199.788 235.76C200.538 235.76 201.25 235.61 201.85 235.347C202.487 235.085 203.012 234.673 203.462 234.185C203.912 233.698 204.249 233.135 204.512 232.498C204.774 231.861 204.887 231.148 204.887 230.436V230.399C204.887 229.649 204.774 228.974 204.512 228.337C204.249 227.699 203.912 227.099 203.424 226.612C202.975 226.125 202.412 225.75 201.775 225.45C201.138 225.15 200.463 225.037 199.713 225.037C198.963 225.037 198.251 225.187 197.613 225.45C196.976 225.712 196.451 226.125 196.001 226.612C195.551 227.099 195.214 227.662 194.951 228.299C194.689 228.936 194.577 229.649 194.577 230.361V230.399C194.577 231.148 194.689 231.823 194.951 232.461C195.214 233.098 195.551 233.698 196.039 234.185C196.526 234.673 197.051 235.047 197.688 235.347C198.326 235.61 199.038 235.76 199.788 235.76Z" fill="white"/>
<path d="M214.035 221.813H221.983C223.97 221.813 225.432 222.3 226.444 223.313C227.232 224.1 227.606 225.075 227.606 226.237V226.274C227.606 226.762 227.531 227.212 227.419 227.587C227.307 227.962 227.119 228.299 226.932 228.599C226.744 228.899 226.482 229.161 226.219 229.386C225.957 229.611 225.657 229.799 225.357 229.986C226.332 230.361 227.119 230.886 227.681 231.523C228.244 232.161 228.544 233.06 228.544 234.185V234.223C228.544 235.01 228.394 235.685 228.094 236.285C227.794 236.885 227.344 237.372 226.782 237.747C226.219 238.122 225.544 238.422 224.757 238.609C223.97 238.797 223.107 238.909 222.133 238.909H213.997V221.813H214.035ZM221.195 228.711C222.02 228.711 222.695 228.561 223.182 228.299C223.67 227.999 223.932 227.549 223.932 226.912V226.874C223.932 226.312 223.707 225.862 223.295 225.562C222.883 225.262 222.245 225.112 221.458 225.112H217.746V228.749H221.195V228.711ZM222.208 235.61C223.032 235.61 223.707 235.46 224.157 235.16C224.607 234.86 224.87 234.373 224.87 233.735V233.698C224.87 233.135 224.645 232.685 224.195 232.348C223.745 232.011 223.032 231.861 222.058 231.861H217.709V235.61H222.208Z" fill="white"/>
<path d="M239.416 221.663H242.903L250.251 238.909H246.315L244.74 235.085H237.504L235.929 238.909H232.105L239.416 221.663ZM243.39 231.748L241.103 226.2L238.816 231.748H243.39Z" fill="white"/>
<path d="M254.713 221.813H258.462V235.535H267.01V238.947H254.713V221.813Z" fill="white"/>
<path d="M89.8632 250.456H98.0738C99.2735 250.456 100.361 250.606 101.298 250.944C102.235 251.281 103.06 251.769 103.697 252.368C104.372 252.968 104.86 253.718 105.235 254.58C105.61 255.443 105.76 256.38 105.76 257.392V257.467C105.76 258.63 105.535 259.642 105.122 260.542C104.71 261.404 104.11 262.154 103.398 262.754C102.685 263.353 101.785 263.803 100.811 264.103C99.8359 264.403 98.7861 264.553 97.6239 264.553H94.2497V270.589H89.8257V250.456H89.8632ZM97.7739 260.579C98.8986 260.579 99.7609 260.279 100.361 259.717C100.961 259.154 101.298 258.405 101.298 257.542V257.505C101.298 256.493 100.961 255.743 100.323 255.255C99.6859 254.73 98.8236 254.468 97.6989 254.468H94.2872V260.617H97.7739V260.579Z" fill="white"/>
<path d="M109.771 250.456H114.195V258.405H122.331V250.456H126.755V270.552H122.331V262.491H114.195V270.552H109.771V250.456Z" fill="white"/>
<path d="M142.089 270.889C140.552 270.889 139.127 270.627 137.815 270.064C136.502 269.502 135.378 268.79 134.44 267.852C133.503 266.915 132.753 265.828 132.228 264.591C131.704 263.353 131.441 262.004 131.441 260.542V260.504C131.441 259.079 131.704 257.73 132.228 256.455C132.753 255.218 133.503 254.093 134.44 253.156C135.378 252.218 136.502 251.469 137.815 250.906C139.127 250.344 140.552 250.081 142.089 250.081C143.626 250.081 145.05 250.344 146.363 250.906C147.675 251.469 148.8 252.181 149.737 253.118C150.674 254.056 151.424 255.143 151.949 256.38C152.474 257.617 152.736 258.967 152.736 260.392V260.467C152.736 261.891 152.474 263.241 151.949 264.478C151.424 265.715 150.674 266.84 149.737 267.777C148.8 268.715 147.675 269.464 146.363 270.027C145.05 270.627 143.626 270.889 142.089 270.889ZM142.126 266.803C142.988 266.803 143.813 266.653 144.563 266.315C145.313 265.978 145.95 265.528 146.475 264.965C147 264.403 147.412 263.728 147.712 262.978C148.012 262.229 148.162 261.404 148.162 260.542V260.504C148.162 259.642 148.012 258.817 147.712 258.067C147.412 257.317 147 256.642 146.438 256.043C145.875 255.48 145.238 255.03 144.488 254.693C143.738 254.355 142.913 254.205 142.051 254.205C141.151 254.205 140.327 254.355 139.614 254.693C138.902 255.03 138.265 255.48 137.74 256.043C137.215 256.605 136.802 257.28 136.502 258.03C136.203 258.779 136.053 259.604 136.053 260.467V260.542C136.053 261.404 136.203 262.229 136.502 262.978C136.802 263.728 137.215 264.403 137.777 265.003C138.34 265.565 138.977 266.015 139.689 266.353C140.402 266.69 141.226 266.803 142.126 266.803Z" fill="white"/>
<path d="M162.109 254.543H155.998V250.456H172.644V254.543H166.533V270.552H162.109V254.543Z" fill="white"/>
<path d="M186.553 270.889C185.016 270.889 183.592 270.627 182.279 270.064C180.967 269.502 179.842 268.79 178.905 267.852C177.968 266.915 177.218 265.828 176.693 264.591C176.168 263.353 175.906 262.004 175.906 260.542V260.504C175.906 259.079 176.168 257.73 176.693 256.455C177.218 255.218 177.968 254.093 178.905 253.156C179.842 252.218 180.967 251.469 182.279 250.906C183.592 250.344 185.016 250.081 186.553 250.081C188.091 250.081 189.515 250.344 190.827 250.906C192.14 251.469 193.264 252.181 194.202 253.118C195.139 254.056 195.889 255.143 196.414 256.38C196.938 257.617 197.201 258.967 197.201 260.392V260.467C197.201 261.891 196.938 263.241 196.414 264.478C195.889 265.715 195.139 266.84 194.202 267.777C193.264 268.715 192.14 269.464 190.827 270.027C189.515 270.627 188.091 270.889 186.553 270.889ZM186.591 266.803C187.453 266.803 188.278 266.653 189.028 266.315C189.778 265.978 190.415 265.528 190.94 264.965C191.465 264.403 191.877 263.728 192.177 262.978C192.477 262.229 192.627 261.404 192.627 260.542V260.504C192.627 259.642 192.477 258.817 192.177 258.067C191.877 257.317 191.465 256.642 190.902 256.043C190.34 255.48 189.703 255.03 188.953 254.693C188.203 254.355 187.378 254.205 186.516 254.205C185.616 254.205 184.791 254.355 184.079 254.693C183.367 255.03 182.729 255.48 182.204 256.043C181.679 256.605 181.267 257.28 180.967 258.03C180.667 258.779 180.517 259.604 180.517 260.467V260.542C180.517 261.404 180.667 262.229 180.967 262.978C181.267 263.728 181.68 264.403 182.242 265.003C182.804 265.565 183.442 266.015 184.154 266.353C184.866 266.69 185.691 266.803 186.591 266.803Z" fill="white"/>
<path d="M211.598 270.889C210.023 270.889 208.598 270.627 207.324 270.102C206.049 269.577 204.924 268.865 203.987 267.965C203.05 267.028 202.337 265.94 201.812 264.703C201.287 263.428 201.025 262.079 201.025 260.579V260.504C201.025 259.079 201.287 257.73 201.812 256.455C202.337 255.218 203.087 254.093 204.024 253.156C204.962 252.218 206.086 251.469 207.361 250.906C208.636 250.344 210.06 250.081 211.56 250.081C212.46 250.081 213.285 250.156 213.997 250.269C214.709 250.381 215.422 250.569 216.059 250.794C216.696 251.019 217.296 251.319 217.821 251.656C218.346 251.994 218.908 252.406 219.433 252.818L216.659 256.193C216.284 255.855 215.909 255.593 215.497 255.33C215.122 255.068 214.709 254.88 214.297 254.693C213.885 254.505 213.435 254.393 212.947 254.28C212.46 254.168 211.935 254.13 211.373 254.13C210.585 254.13 209.835 254.28 209.123 254.618C208.411 254.955 207.811 255.405 207.286 255.968C206.761 256.53 206.349 257.205 206.049 257.955C205.749 258.704 205.599 259.529 205.599 260.392V260.467C205.599 261.404 205.749 262.229 206.049 263.016C206.349 263.803 206.761 264.478 207.324 265.04C207.886 265.603 208.523 266.053 209.236 266.39C209.948 266.728 210.773 266.878 211.673 266.878C213.322 266.878 214.709 266.465 215.834 265.678V262.791H211.373V259.004H220.108V267.74C219.058 268.602 217.859 269.352 216.434 269.989C215.047 270.589 213.397 270.889 211.598 270.889Z" fill="white"/>
<path d="M225.132 250.456H234.317C236.867 250.456 238.816 251.131 240.166 252.481C241.328 253.643 241.891 255.143 241.891 257.055V257.13C241.891 258.742 241.478 260.092 240.691 261.104C239.904 262.116 238.854 262.866 237.579 263.353L242.49 270.514H237.317L233.005 264.103H232.968H229.556V270.514H225.132V250.456ZM234.055 260.242C235.142 260.242 235.967 259.979 236.567 259.454C237.167 258.929 237.429 258.255 237.429 257.392V257.317C237.429 256.38 237.129 255.63 236.492 255.18C235.892 254.693 235.03 254.468 233.942 254.468H229.556V260.242H234.055Z" fill="white"/>
<path d="M253.513 250.344H257.6L266.223 270.552H261.611L259.774 266.053H251.301L249.464 270.552H244.965L253.513 250.344ZM258.162 262.154L255.5 255.63L252.838 262.154H258.162Z" fill="white"/>
<path d="M270.047 250.456H278.257C279.457 250.456 280.544 250.606 281.482 250.944C282.419 251.281 283.244 251.769 283.881 252.368C284.556 252.968 285.043 253.718 285.418 254.58C285.793 255.443 285.943 256.38 285.943 257.392V257.467C285.943 258.63 285.718 259.642 285.306 260.542C284.893 261.404 284.293 262.154 283.581 262.754C282.869 263.353 281.969 263.803 280.994 264.103C280.019 264.403 278.97 264.553 277.807 264.553H274.433V270.589H270.009V250.456H270.047ZM277.957 260.579C279.082 260.579 279.944 260.279 280.544 259.717C281.144 259.154 281.482 258.405 281.482 257.542V257.505C281.482 256.493 281.144 255.743 280.507 255.255C279.869 254.73 279.007 254.468 277.882 254.468H274.471V260.617H277.957V260.579Z" fill="white"/>
<path d="M289.955 250.456H294.379V258.405H302.514V250.456H306.938V270.552H302.514V262.491H294.379V270.552H289.955V250.456Z" fill="white"/>
<path d="M318.148 262.641L310.425 250.494H315.599L320.397 258.555L325.271 250.494H330.295L322.572 262.566V270.552H318.148V262.641Z" fill="white"/>
<path d="M341.243 20.9343C326.921 11.5989 311.1 4.70054 294.303 0.688965L357.889 60.9001L341.243 20.9343Z" fill="url(#paint2_linear_704_767)"/>
<path d="M391.181 72.1475L390.956 134.87L391.256 135.583L390.956 135.733L390.731 199.581L418.1 162.427C417.088 129.022 407.34 98.054 391.181 72.1475Z" fill="url(#paint3_linear_704_767)"/>
<path d="M389.269 69.1857C377.272 50.7774 362.013 35.0686 344.392 22.9963L388.707 129.509L389.269 69.1857Z" fill="url(#paint4_linear_704_767)"/>
<path d="M124.43 0.688965C107.597 4.70054 91.8127 11.5989 77.491 20.9343L60.8448 60.9001L124.43 0.688965Z" fill="url(#paint5_linear_704_767)"/>
<path d="M27.7775 135.695L27.4775 135.545L27.7775 134.833L27.515 72.1475C11.3937 98.054 1.64599 129.022 0.633728 162.389L28.0024 199.543L27.7775 135.695Z" fill="url(#paint6_linear_704_767)"/>
<path d="M74.3042 22.9963C56.6833 35.0311 41.4243 50.7774 29.4271 69.1857L29.9519 129.547L74.3042 22.9963Z" fill="url(#paint7_linear_704_767)"/>
<path d="M418.175 167.076L320.96 296.946H320.847L320.135 298.108H320.098H360.438H362.988C396.767 266.69 418.212 220.051 418.212 167.975C418.175 167.675 418.175 167.375 418.175 167.076Z" fill="url(#paint8_linear_704_767)"/>
<path d="M97.9238 296.946H97.7738L0.52124 167.076C0.52124 167.375 0.52124 167.713 0.52124 168.013C0.52124 220.088 21.9663 266.728 55.746 298.145H61.5947H98.6361L97.9238 296.946Z" fill="url(#paint9_linear_704_767)"/>
</g>
<defs>
<linearGradient id="paint0_linear_704_767" x1="215.751" y1="191.715" x2="167.615" y2="145.938" gradientUnits="userSpaceOnUse">
<stop offset="0.7714" stop-color="#38B34A"/>
<stop offset="1" stop-color="#8CC540"/>
</linearGradient>
<radialGradient id="paint1_radial_704_767" cx="0" cy="0" r="1" gradientUnits="userSpaceOnUse" gradientTransform="translate(173.691 146.566) scale(19.7201 19.7201)">
<stop offset="0.2318" stop-color="#D7DE27"/>
<stop offset="1" stop-color="#8CC540" stop-opacity="0"/>
</radialGradient>
<linearGradient id="paint2_linear_704_767" x1="326.088" y1="63.8814" x2="326.088" y2="268.133" gradientUnits="userSpaceOnUse">
<stop stop-color="#0E90D0"/>
<stop offset="1" stop-color="#38B34A"/>
</linearGradient>
<linearGradient id="paint3_linear_704_767" x1="404.385" y1="63.8814" x2="404.385" y2="268.133" gradientUnits="userSpaceOnUse">
<stop stop-color="#0E90D0"/>
<stop offset="1" stop-color="#38B34A"/>
</linearGradient>
<linearGradient id="paint4_linear_704_767" x1="366.826" y1="63.8814" x2="366.826" y2="268.133" gradientUnits="userSpaceOnUse">
<stop stop-color="#0E90D0"/>
<stop offset="1" stop-color="#38B34A"/>
</linearGradient>
<linearGradient id="paint5_linear_704_767" x1="92.6221" y1="63.8814" x2="92.6221" y2="268.133" gradientUnits="userSpaceOnUse">
<stop stop-color="#0E90D0"/>
<stop offset="1" stop-color="#38B34A"/>
</linearGradient>
<linearGradient id="paint6_linear_704_767" x1="14.3259" y1="63.8814" x2="14.3259" y2="268.133" gradientUnits="userSpaceOnUse">
<stop stop-color="#0E90D0"/>
<stop offset="1" stop-color="#38B34A"/>
</linearGradient>
<linearGradient id="paint7_linear_704_767" x1="51.8851" y1="63.8814" x2="51.8851" y2="268.133" gradientUnits="userSpaceOnUse">
<stop stop-color="#0E90D0"/>
<stop offset="1" stop-color="#38B34A"/>
</linearGradient>
<linearGradient id="paint8_linear_704_767" x1="369.141" y1="63.8814" x2="369.141" y2="268.133" gradientUnits="userSpaceOnUse">
<stop stop-color="#0E90D0"/>
<stop offset="1" stop-color="#38B34A"/>
</linearGradient>
<linearGradient id="paint9_linear_704_767" x1="49.5734" y1="63.8814" x2="49.5734" y2="268.133" gradientUnits="userSpaceOnUse">
<stop stop-color="#0E90D0"/>
<stop offset="1" stop-color="#38B34A"/>
</linearGradient>
<clipPath id="clip0_704_767">
<rect width="417.654" height="331.311" fill="white" transform="translate(0.52124 0.688965)"/>
</clipPath>
</defs>
</svg>
