<svg width="474" height="86" viewBox="0 0 474 86" fill="none" xmlns="http://www.w3.org/2000/svg">
<path d="M199.113 43.7336C199.363 45.0022 199.506 46.3061 199.506 47.6452C199.506 53.1955 197.22 58.2172 193.542 61.8646C189.863 65.4943 184.757 67.7497 179.132 67.7497C173.507 67.7497 168.418 65.4943 164.722 61.8646C161.044 58.2349 158.758 53.1955 158.758 47.6452C158.758 42.0949 161.044 37.0733 164.722 33.4259C165.954 32.2101 167.329 31.1529 168.847 30.2896V39.2934C166.954 41.5663 165.811 44.4736 165.811 47.6452C165.811 51.275 167.293 54.5523 169.704 56.931C172.114 59.3097 175.436 60.7721 179.114 60.7721C182.792 60.7721 186.114 59.2921 188.524 56.931C190.935 54.5523 192.417 51.275 192.417 47.6452C192.417 46.2885 192.203 44.967 191.81 43.7336H199.113Z" fill="white"/>
<path d="M213.362 43.7331C213.505 45.0194 213.594 46.3233 213.594 47.6448C213.594 57.0362 209.737 65.5467 203.488 71.6961C197.256 77.8454 188.631 81.6514 179.114 81.6514C169.597 81.6514 160.972 77.8454 154.741 71.6961C148.509 65.5467 144.652 57.0362 144.652 47.6448C144.652 38.2533 148.509 29.7429 154.741 23.5935C158.633 19.7523 163.454 16.8274 168.829 15.1711V22.5539C165.401 23.9283 162.294 25.9722 159.722 28.5095C154.758 33.4078 151.687 40.1739 151.687 47.6448C151.687 55.1157 154.758 61.8817 159.722 66.7801C164.686 71.6785 171.543 74.7091 179.114 74.7091C186.685 74.7091 193.542 71.6785 198.506 66.7801C203.47 61.8817 206.541 55.1157 206.541 47.6448C206.541 46.3057 206.452 45.0018 206.255 43.7331H213.362Z" fill="white"/>
<mask id="mask0_133_1222" style="mask-type:luminance" maskUnits="userSpaceOnUse" x="175" y="4" width="31" height="48">
<path d="M203.47 4.01762H203.434C186.292 4.38764 175.9 10.5723 175.9 28.1923V46.4466C175.9 47.1337 175.918 47.8209 175.918 48.5257C175.918 48.6138 175.9 48.6843 175.9 48.7724C175.9 50.5168 177.346 51.944 179.114 51.944C180.882 51.944 182.328 50.5168 182.328 48.7724V48.7372V37.1784C182.31 35.9627 182.292 34.7469 182.328 33.5311V33.5135C182.56 23.3291 184.971 13.7262 197.202 13.691C197.309 13.691 197.345 13.7262 197.363 13.7791C197.381 13.832 197.381 13.8848 197.363 13.9553C197.345 15.4354 197.131 16.7569 196.756 17.9727V17.9903C194.827 25.7078 185.56 26.3598 185.56 32.8087V35.3636C189.971 31.0643 195.399 30.4828 199.559 27.2408C203.38 24.263 205.898 20.1223 205.898 7.68258C205.862 5.77962 205.773 4.01762 205.773 4.01762H205.255C205.202 4 205.13 4 205.041 4C204.523 4 203.988 4.01762 203.47 4.01762Z" fill="white"/>
</mask>
<g mask="url(#mask0_133_1222)">
<path d="M151.598 27.9813L190.881 -10.7827L230.182 27.9813L190.881 66.7453L151.598 27.9813Z" fill="white"/>
</g>
<path d="M235.379 43.433C236.789 43.9792 238.325 44.2611 240.003 44.2611C241.771 44.2611 243.342 43.944 244.735 43.3097C246.11 42.6753 247.271 41.812 248.217 40.7019C249.146 39.5918 249.842 38.3232 250.288 36.8784C250.735 35.4335 250.913 33.9006 250.86 32.2795H240.2V35.7507H246.414C246.235 36.4026 245.967 37.0017 245.61 37.5479C245.253 38.0941 244.824 38.5875 244.307 39.0104C243.789 39.4333 243.182 39.768 242.503 39.9971C241.807 40.2262 241.021 40.3495 240.146 40.3495C238.807 40.3495 237.611 40.05 236.557 39.4333C235.504 38.8166 234.664 37.9708 234.039 36.8607C233.414 35.7507 233.111 34.4644 233.111 33.002C233.111 31.5219 233.432 30.2356 234.057 29.1608C234.682 28.086 235.539 27.2578 236.611 26.6764C237.682 26.0949 238.86 25.813 240.164 25.813C241.539 25.813 242.717 26.0949 243.664 26.6764C244.628 27.2578 245.36 28.0155 245.896 28.9494L249.663 26.7821C249.003 25.7954 248.217 24.932 247.306 24.2096C246.396 23.4872 245.342 22.9233 244.164 22.5181C242.985 22.1128 241.646 21.9014 240.164 21.9014C238.503 21.9014 236.95 22.1657 235.539 22.6943C234.111 23.2229 232.879 23.9805 231.825 24.9496C230.772 25.9187 229.95 27.0993 229.361 28.4736C228.772 29.848 228.486 31.3457 228.486 33.002C228.486 34.6406 228.772 36.1559 229.343 37.5479C229.915 38.9223 230.718 40.1204 231.754 41.1072C232.754 42.1115 233.968 42.8868 235.379 43.433Z" fill="white"/>
<path d="M263.966 31.9273C263.573 32.4382 263.109 32.9845 262.538 33.5659L252.717 43.6798H270.109V39.6801H261.056L266.68 34.4469C267.591 33.6364 268.323 32.7378 268.876 31.7334C269.43 30.7467 269.716 29.6719 269.716 28.5266C269.716 27.7513 269.555 26.976 269.234 26.2184C268.912 25.4431 268.43 24.7383 267.787 24.104C267.144 23.4697 266.323 22.9411 265.341 22.5534C264.359 22.1658 263.234 21.9543 261.93 21.9543C260.181 21.9543 258.699 22.3067 257.502 23.0292C256.306 23.7516 255.395 24.7207 254.77 25.9365C254.145 27.1522 253.842 28.5266 253.842 30.0419H258.163C258.163 29.1962 258.306 28.4385 258.609 27.7866C258.913 27.1346 259.324 26.6413 259.877 26.2712C260.431 25.9188 261.073 25.7426 261.841 25.7426C262.377 25.7426 262.841 25.8307 263.27 26.0069C263.68 26.1831 264.038 26.4122 264.323 26.6941C264.609 26.976 264.823 27.3108 264.966 27.6632C265.109 28.0332 265.18 28.4033 265.18 28.7909C265.18 29.3371 265.073 29.8657 264.877 30.3767C264.662 30.9053 264.359 31.4163 263.966 31.9273Z" fill="white"/>
<path d="M285.554 35.9619C285.34 36.8429 285.054 37.6006 284.661 38.2525C284.268 38.8868 283.804 39.3802 283.268 39.7326C282.733 40.085 282.126 40.2436 281.447 40.2436C280.786 40.2436 280.197 40.0674 279.662 39.7326C279.126 39.3802 278.662 38.8868 278.269 38.2525C277.876 37.6182 277.572 36.8429 277.376 35.9619C277.162 35.0809 277.072 34.0942 277.072 33.0194C277.072 31.9446 277.18 30.9578 277.376 30.0768C277.59 29.1958 277.876 28.4382 278.269 27.7862C278.662 27.1519 279.126 26.6586 279.662 26.3062C280.197 25.9538 280.786 25.7952 281.447 25.7952C282.126 25.7952 282.733 25.9714 283.268 26.3062C283.804 26.6586 284.268 27.1519 284.661 27.7862C285.054 28.4206 285.358 29.1958 285.554 30.0768C285.768 30.9578 285.858 31.9446 285.858 33.0194C285.858 34.0942 285.75 35.0809 285.554 35.9619ZM286.036 23.346C284.733 22.4474 283.197 21.9893 281.429 21.9893C279.715 21.9893 278.215 22.4474 276.912 23.346C275.608 24.2446 274.59 25.5309 273.858 27.1695C273.126 28.8082 272.769 30.764 272.769 33.0194C272.769 35.2747 273.126 37.2306 273.858 38.8692C274.59 40.5079 275.608 41.7941 276.912 42.6927C278.215 43.5914 279.733 44.0495 281.429 44.0495C283.197 44.0495 284.733 43.5914 286.036 42.6927C287.34 41.7941 288.34 40.5079 289.054 38.8692C289.768 37.2306 290.143 35.2747 290.143 33.0194C290.143 30.764 289.786 28.8082 289.054 27.1695C288.357 25.5133 287.34 24.2446 286.036 23.346Z" fill="white"/>
<path d="M313.499 32.2795V35.7507H319.713C319.534 36.4026 319.266 37.0017 318.909 37.5479C318.552 38.0941 318.123 38.5875 317.606 39.0104C317.088 39.4333 316.481 39.768 315.802 39.9971C315.106 40.2262 314.32 40.3495 313.445 40.3495C312.106 40.3495 310.91 40.05 309.856 39.4333C308.803 38.8166 307.963 37.9708 307.338 36.8607C306.713 35.7507 306.41 34.4644 306.41 33.002C306.41 31.5219 306.731 30.2356 307.356 29.1608C307.981 28.086 308.838 27.2578 309.91 26.6764C310.981 26.0949 312.16 25.813 313.463 25.813C314.838 25.813 316.016 26.0949 316.963 26.6764C317.927 27.2578 318.659 28.0155 319.195 28.9494L322.962 26.7821C322.302 25.7954 321.516 24.932 320.605 24.2096C319.695 23.4872 318.641 22.9233 317.463 22.5181C316.284 22.1128 314.945 21.9014 313.463 21.9014C311.802 21.9014 310.249 22.1657 308.838 22.6943C307.41 23.2229 306.178 23.9805 305.124 24.9496C304.071 25.9187 303.249 27.0993 302.66 28.4736C302.071 29.848 301.785 31.3457 301.785 33.002C301.785 34.6406 302.071 36.1559 302.642 37.5479C303.214 38.9223 304.017 40.1204 305.053 41.1072C306.088 42.0939 307.321 42.8692 308.731 43.4154C310.142 43.9616 311.677 44.2435 313.356 44.2435C315.124 44.2435 316.695 43.9264 318.088 43.292C319.463 42.6577 320.623 41.7943 321.57 40.6843C322.498 39.5742 323.195 38.3056 323.641 36.8607C324.087 35.4159 324.266 33.883 324.212 32.2619H313.499V32.2795Z" fill="white"/>
<path d="M340.801 39.8741H332.176V22.3599H327.766V43.6801H340.801V39.8741Z" fill="white"/>
<path d="M358.478 36.6495C357.907 37.7067 357.121 38.5348 356.121 39.1515C355.121 39.7682 353.943 40.0678 352.604 40.0678C351.264 40.0678 350.086 39.7682 349.086 39.1515C348.086 38.5348 347.282 37.7067 346.711 36.6495C346.14 35.5923 345.854 34.3765 345.854 33.0198C345.854 31.6631 346.14 30.4473 346.711 29.3901C347.282 28.3329 348.086 27.5047 349.086 26.888C350.086 26.2713 351.264 25.9718 352.604 25.9718C353.961 25.9718 355.139 26.2713 356.157 26.888C357.157 27.5047 357.943 28.3329 358.496 29.3901C359.05 30.4473 359.335 31.6631 359.335 33.0198C359.335 34.3765 359.05 35.5923 358.478 36.6495ZM360.764 25.0379C359.728 24.0512 358.514 23.2759 357.139 22.7297C355.764 22.1835 354.246 21.9192 352.604 21.9192C350.979 21.9192 349.461 22.1835 348.086 22.7297C346.693 23.2759 345.479 24.0336 344.461 25.0379C343.426 26.0246 342.622 27.2052 342.051 28.5619C341.479 29.9187 341.194 31.3988 341.194 33.0198C341.194 34.6232 341.479 36.1209 342.033 37.4776C342.586 38.852 343.39 40.0502 344.408 41.0545C345.443 42.0765 346.64 42.8517 348.032 43.4156C349.425 43.9794 350.943 44.2613 352.621 44.2613C354.282 44.2613 355.818 43.9794 357.21 43.4156C358.603 42.8517 359.8 42.0765 360.817 41.0545C361.835 40.0325 362.621 38.852 363.192 37.4776C363.764 36.1033 364.049 34.6232 364.049 33.0198C364.049 31.3988 363.764 29.901 363.192 28.5619C362.603 27.2052 361.799 26.0246 360.764 25.0379Z" fill="white"/>
<path d="M378.12 38.8691C377.781 39.3272 377.316 39.6796 376.709 39.891C376.12 40.1025 375.441 40.2082 374.709 40.2082H371.87V34.1117H375.62C375.834 34.1469 376.049 34.1645 376.245 34.2174C376.727 34.3231 377.138 34.5169 377.495 34.7636C377.852 35.0103 378.138 35.3274 378.334 35.7151C378.531 36.0851 378.62 36.5432 378.62 37.0718C378.62 37.7942 378.459 38.3933 378.12 38.8691ZM371.87 25.8303H374.245C375.209 25.8303 375.977 26.0417 376.549 26.4646C377.12 26.8875 377.406 27.5042 377.406 28.3323C377.406 28.8609 377.281 29.319 377.013 29.7067C376.763 30.0943 376.388 30.3939 375.924 30.5877C375.459 30.7991 374.888 30.8872 374.263 30.8872H371.888V25.8303H371.87ZM382.495 34.9046C382.048 34.1469 381.459 33.5302 380.691 33.0545C380.084 32.6844 379.423 32.3849 378.709 32.1735V32.1558C379.673 31.7682 380.441 31.222 381.013 30.5172C381.638 29.7419 381.941 28.8257 381.941 27.7509C381.941 26.5351 381.638 25.5307 381.013 24.7378C380.388 23.9449 379.548 23.3459 378.441 22.9582C377.352 22.5706 376.084 22.3591 374.638 22.3591H367.442V43.6969H375.102C376.709 43.6969 378.12 43.4855 379.334 43.0626C380.548 42.6397 381.495 41.9702 382.155 41.0892C382.816 40.1906 383.155 39.0453 383.155 37.6533C383.173 36.5608 382.941 35.6622 382.495 34.9046Z" fill="white"/>
<path d="M395.119 29.2677L397.797 35.3995H392.405L395.119 29.2677ZM398.797 38.8354L401.083 43.6809H406.082L395.119 21.092L384.155 43.6809H389.119L391.387 38.8354H398.797Z" fill="white"/>
<path d="M421.457 39.8741H412.85V22.3599H408.422V43.6801H421.457V39.8741Z" fill="white"/>
<path d="M234.111 53.1777H229.682V74.5155H242.717V70.692H234.111V53.1777Z" fill="white"/>
<path d="M252.128 66.2156L254.824 60.0838L257.502 66.2156H252.128ZM243.86 74.5146H248.824L251.092 69.6691H258.502L260.788 74.5146H265.787L254.824 51.9258L243.86 74.5146Z" fill="white"/>
<path d="M283.518 66.4105L268.127 52.103V74.5157H272.394V61.283L287.768 75.5729V53.1778H283.518V66.4105Z" fill="white"/>
<path d="M306.071 66.8685C305.714 67.7142 305.214 68.4014 304.571 68.9476C303.928 69.4938 303.196 69.8991 302.339 70.1458C301.5 70.3925 300.607 70.5334 299.66 70.5334H296.982V57.1246H299.66C300.607 57.1246 301.5 57.248 302.339 57.5123C303.178 57.7589 303.928 58.1642 304.571 58.7104C305.214 59.2566 305.714 59.9614 306.071 60.7896C306.428 61.6353 306.606 62.6397 306.606 63.8202C306.606 65.0008 306.428 66.0403 306.071 66.8685ZM305.767 54.4816C304.071 53.6006 302.089 53.1777 299.821 53.1777H296.982H295.321H292.482V74.5155H295.321H296.982H299.821C302.089 74.5155 304.071 74.075 305.767 73.2117C307.463 72.3307 308.785 71.0973 309.731 69.5115C310.678 67.9257 311.16 66.0403 311.16 63.8555C311.16 61.6882 310.678 59.8028 309.731 58.1994C308.785 56.596 307.463 55.3626 305.767 54.4816Z" fill="white"/>
<path d="M328.319 53.1777H323.837V74.5155H328.319V53.1777Z" fill="white"/>
<path d="M348.372 66.4105L332.98 52.103V74.5157H337.247V61.283L352.621 75.5729V53.1778H348.372V66.4105Z" fill="white"/>
<path d="M361.799 53.1777H357.318V74.5155H361.799V53.1777Z" fill="white"/>
<path d="M364.299 57.107H370.103V74.5155H374.513V57.107H380.352V53.1777H364.299V57.107Z" fill="white"/>
<path d="M387.334 53.1777H382.852V74.5155H387.334V53.1777Z" fill="white"/>
<path d="M397.94 66.2156L400.636 60.0838L403.315 66.2156H397.94ZM389.691 74.5146H394.655L396.922 69.6691H404.332L406.618 74.5146H411.618L400.654 51.9258L389.691 74.5146Z" fill="white"/>
<path d="M409.636 57.107H415.439V74.5155H419.849V57.107H425.688V53.1777H409.636V57.107Z" fill="white"/>
<path d="M432.67 53.1777H428.188V74.5155H432.67V53.1777Z" fill="white"/>
<path d="M445.973 67.0799L440.116 53.1777H435.009L445.973 75.7666L456.936 53.1777H451.812L445.973 67.0799Z" fill="white"/>
<path d="M473.025 56.8603V53.1777H463.561H462.133H459.294V74.5155H462.133H463.561H473.025V70.8153H463.561V65.0007H472.418V61.371H463.561V56.8603H473.025Z" fill="white"/>
<path d="M39.6115 84.2319L38.6727 83.2892L39.7103 82.3953C42.7572 79.7949 46.0017 77.5683 48.9497 76.073C51.1731 74.9516 51.2719 74.789 49.7567 74.789C48.3074 74.8053 47.0228 75.4066 43.4654 77.7958C38.2775 81.2576 36.4493 81.9727 32.6778 82.0052C30.932 82.0052 30.2733 81.9402 29.1533 81.6477C27.2099 81.1276 25.6783 80.445 24.1301 79.4373C22.7467 78.5272 21.6432 77.5357 22.302 77.7958C27.3911 79.7624 31.212 79.2585 39.1833 75.5529C40.8632 74.7728 42.7901 74.1227 44.3712 73.7814C45.9193 73.4563 50.1685 73.5051 51.9801 73.8789C53.3965 74.1552 53.5777 74.1552 54.8623 73.9276C57.9586 73.3425 60.9066 73.4401 63.8382 74.2202C64.6781 74.4315 66.638 75.1954 68.2026 75.9105C71.4142 77.357 74.5269 78.4622 76.388 78.7872C78.7596 79.1935 81.2465 78.9822 83.5357 78.1533C84.1451 77.9421 84.6392 77.7958 84.6392 77.8608C84.6392 78.0396 82.7946 79.4211 81.757 80.0224C80.6206 80.6888 79.1054 81.2901 77.5573 81.7127C75.8939 82.1678 72.1388 82.1353 70.426 81.6477C68.532 81.1113 66.6051 80.0874 63.1629 77.812C61.483 76.6906 59.8196 75.6342 59.4573 75.4554C58.6997 75.0653 57.2833 74.8215 56.4104 74.9191C55.7846 74.9841 55.7846 75.0003 57.728 75.9917C60.1984 77.2432 63.5747 79.5023 66.0286 81.5177C67.0662 82.379 67.9391 83.1267 67.972 83.2079C67.9885 83.2729 67.5603 83.7605 67.0333 84.2806L66.0451 85.2395L63.1629 82.4603C61.5654 80.9326 59.4738 79.096 58.5021 78.3809C56.7892 77.0969 54.0553 75.6017 53.4624 75.6017C53.0836 75.6017 51.1731 76.4631 50.1355 77.0969C48.0768 78.3809 46.0181 80.0874 42.7901 83.1917C41.6537 84.2969 40.682 85.1908 40.6491 85.1908C40.5997 85.1908 40.1385 84.7682 39.6115 84.2319Z" fill="white"/>
<path d="M77.9691 76.3168C74.0493 75.943 68.7791 74.8866 66.4404 73.9765C65.9463 73.7814 65.9628 73.7814 67.3627 73.3263C70.2778 72.3837 73.4564 70.4984 75.4987 68.5156C75.9598 68.0767 77.0797 66.8903 78.0185 65.8989C79.4513 64.3549 82.3006 61.9495 82.6958 61.9495C82.9758 61.9495 80.6701 66.6302 79.5666 68.3043C78.6443 69.702 77.195 71.051 75.6634 71.9286C74.4776 72.6275 74.2305 73.0988 75.1363 72.9363C76.388 72.725 78.8584 72.5137 82.1688 72.3512C86.0227 72.1724 87.9661 71.8474 89.8272 71.1322C91.0459 70.6609 92.5282 69.897 93.1869 69.3932C93.7634 68.9544 93.8128 69.1657 93.2858 69.8645C90.6506 73.3263 87.8673 75.2117 84.2605 75.943C82.8276 76.2193 79.2702 76.4469 77.9691 76.3168Z" fill="white"/>
<path d="M23.7843 76.1381C20.6057 75.7155 18.0858 74.5453 15.8954 72.53C14.8743 71.5711 12.9309 69.2794 13.0461 69.1494C13.0955 69.1169 13.5567 69.3444 14.0837 69.6857C15.9942 70.8884 18.2176 71.6848 20.7045 72.0261C21.3633 72.1074 23.4714 72.2699 25.3983 72.3512C27.3252 72.4487 29.5816 72.6112 30.4215 72.725C31.2614 72.855 31.9861 72.9038 32.019 72.855C32.2167 72.6762 32.0355 72.4975 31.1132 71.9449C28.4946 70.3846 27.2758 68.8894 25.2501 64.7774C24.0807 62.4208 23.8996 61.9495 24.1466 61.9495C24.476 61.9495 26.9464 63.9973 28.2311 65.3463C31.2944 68.5481 32.7108 69.8645 33.9954 70.6934C35.5929 71.7498 37.4869 72.66 39.315 73.2451C40.0562 73.4889 40.6656 73.7164 40.6656 73.7489C40.6656 73.8627 37.4046 74.8053 35.5765 75.2117C32.2331 75.943 29.6145 76.2518 26.8311 76.2193C25.4312 76.2193 24.0643 76.1706 23.7843 76.1381Z" fill="white"/>
<path d="M25.3488 70.5308C24.5747 70.3683 22.6972 70.0595 21.1491 69.832C17.7728 69.3281 16.3235 68.9543 14.5283 68.1254C11.6626 66.7927 9.2416 64.7124 7.03469 61.6243C5.91476 60.0641 3.80666 56.261 4.0537 56.261C4.13605 56.261 4.63013 56.6998 5.17363 57.2524C6.29356 58.3738 8.31931 59.9828 9.76863 60.8767C10.3121 61.218 12.3049 62.2419 14.2154 63.1683C17.3446 64.6798 19.8809 66.1751 21.8573 67.6378C22.7466 68.2879 22.7466 68.0604 21.8737 67.2315C20.9679 66.3539 19.7327 64.8099 19.1069 63.7697C18.0363 61.9656 17.7728 61.0555 17.0317 56.6835C16.6364 54.3431 16.2741 52.2303 16.2082 51.954C16.1094 51.4827 16.1259 51.4827 16.8176 52.214C18.6622 54.1319 20.5562 57.6424 22.0714 61.8681C23.4383 65.72 24.5912 68.0117 26.1229 69.8482C26.5181 70.352 26.8311 70.7746 26.7981 70.7909C26.7652 70.8071 26.1229 70.6933 25.3488 70.5308Z" fill="white"/>
<path d="M79.9619 70.7095C81.8065 68.4342 83.1405 66.0775 84.211 63.1683C84.5404 62.2744 85.0345 60.9254 85.3145 60.1616C85.9732 58.4063 87.2249 55.9196 88.1143 54.6031C88.9872 53.3354 90.42 51.5151 90.5024 51.5964C90.6177 51.6939 89.086 60.3891 88.806 61.218C88.1802 63.152 86.912 65.1349 85.0674 67.1177C84.5404 67.6703 84.1616 68.1254 84.211 68.1254C84.2769 68.1254 84.8533 67.7353 85.5121 67.2477C87.3732 65.8825 89.3989 64.7123 93.2198 62.8595C97.1067 60.9742 98.8195 59.8527 101.241 57.6424C102.278 56.6835 102.706 56.3584 102.607 56.6347C101.932 58.3738 99.7418 61.8193 98.0289 63.8022C97.5019 64.4198 96.4643 65.4112 95.7397 65.9963C93.1046 68.1091 90.4035 69.1818 86.3685 69.7506C84.0134 70.0919 81.3288 70.5633 80.2748 70.8233C79.863 70.9208 79.8136 70.9046 79.9619 70.7095Z" fill="white"/>
<path d="M49.7238 66.4838C43.5971 65.8012 37.4375 63.2495 32.5954 59.3976C30.8991 58.0487 27.9346 54.9769 26.7817 53.3841C23.5537 48.8984 21.6926 44.5264 20.7044 39.033C20.3586 37.1152 20.4245 30.7604 20.8033 28.7126C22.5161 19.4648 27.5228 11.826 35.1482 6.82017C37.1081 5.53621 40.8137 3.76466 43.0042 3.04954C45.3923 2.26942 48.3403 1.70057 51.0743 1.48929C55.0434 1.18048 59.7372 1.74933 63.6899 3.04954C65.8968 3.76466 69.6025 5.53621 71.5459 6.80392C78.0019 11.0134 82.7781 17.4007 84.9521 24.7631L85.4297 26.3722L85.0838 26.5834C81.4441 28.7451 77.3267 31.5568 71.2988 35.9938C66.7038 39.3743 65.3698 40.447 62.6688 42.8849L60.8736 44.5102L58.1397 43.275C56.641 42.5924 55.241 41.9585 55.0269 41.8772C54.6811 41.731 55.0434 41.4059 59.5561 37.7978C69.4872 29.899 73.6046 26.8435 75.4656 25.9658C76.915 25.2995 79.5171 24.4543 80.6371 24.3081C81.9546 24.1455 81.9546 24.1455 81.197 22.3577C77.409 13.4188 69.306 6.80392 59.6055 4.77233C46.1663 1.92811 32.4307 8.46169 26.3535 20.5862C24.7559 23.7555 23.6854 27.2823 23.2902 30.6141C23.1749 31.703 22.8619 31.5405 25.9747 31.9468C28.3957 32.2719 31.1955 32.9545 33.4683 33.7996C36.3505 34.8723 44.0418 38.4479 51.9966 42.3973C56.1798 44.4777 60.2148 46.4442 60.9724 46.7368C63.5088 47.777 65.8804 48.0208 69.6519 47.6469C70.5742 47.5494 71.3812 47.5169 71.4306 47.5657C71.5953 47.712 68.9931 50.1336 67.8732 50.8812C65.2216 52.6528 62.85 53.3679 59.6878 53.3841C57.1021 53.4004 56.2457 53.2054 52.8036 51.8889C49.6908 50.6862 48.8015 50.3936 45.6228 49.4997C42.4278 48.6059 40.5832 48.3296 39.9079 48.6384C39.1833 48.9797 39.2162 49.4672 40.0232 50.3286C41.4725 51.8889 43.9924 53.4004 46.7263 54.3756C50.9425 55.8708 57.2833 56.0008 62.3229 54.7169C67.2803 53.4492 70.7554 51.19 75.8444 45.9242C79.4348 42.2185 82.2676 39.9757 85.0838 38.5617L86.1214 38.0579L86.0226 38.5779C85.3144 42.6736 84.458 45.4041 82.8769 48.5408C81.9217 50.4262 80.6535 52.4415 79.3854 54.0668C78.3313 55.4482 75.5645 58.2274 74.0987 59.3976C69.2237 63.282 63.1464 65.785 56.888 66.5001C55.1752 66.6788 51.5025 66.6788 49.7238 66.4838Z" fill="white"/>
<path d="M14.8084 61.3479C13.952 60.7791 12.2886 59.7877 11.1027 59.1538C7.75943 57.3498 7.66061 57.301 6.59009 56.4071C3.11502 53.5467 0.446957 47.8907 0.0516886 42.5111C-0.0141895 41.7147 -0.0141895 41.0971 0.0352191 41.1459C0.0846277 41.1946 0.315201 41.7472 0.562244 42.3648C1.51748 44.8677 2.91739 46.9318 5.04196 48.9471C8.02294 51.7751 10.4604 54.278 11.1027 55.1719C11.4651 55.6758 11.8109 56.0983 11.8603 56.0983C11.9262 56.0983 11.7945 55.6758 11.5968 55.1719C11.0863 53.9042 10.691 51.9539 10.691 50.6537C10.691 49.776 11.6462 43.3725 12.1403 40.9021L12.2721 40.252L12.7991 41.8772C13.7708 44.9002 14.1496 47.5169 14.1496 51.0925C14.1496 54.7168 14.7096 57.8049 15.8954 60.8766C16.2083 61.673 16.4389 62.3394 16.4224 62.3556C16.3895 62.3719 15.6648 61.9168 14.8084 61.3479Z" fill="white"/>
<path d="M90.2388 62.3718C90.2388 62.3068 90.3376 62.063 90.4694 61.8192C90.8811 61.0229 91.7046 58.4062 92.0505 56.7972C92.2975 55.627 92.4293 54.148 92.5446 51.3037C92.7257 46.4929 93.0057 44.7377 94.0597 41.5034C94.4056 40.4469 94.6856 40.3007 94.6856 41.1946C94.6856 41.4871 94.982 43.4374 95.3444 45.534C95.7561 47.9069 96.0032 49.8735 96.0032 50.7349C96.0032 52.1326 95.6079 54.148 95.0973 55.3507C94.9491 55.692 94.8668 56.0008 94.8997 56.0333C94.9326 56.082 95.262 55.7245 95.6244 55.2531C96.9254 53.5629 98.3748 52.0189 100.17 50.4586C103.2 47.8094 104.897 45.5828 106.066 42.6736C106.346 41.9747 106.626 41.3571 106.675 41.3083C106.89 41.097 106.494 44.4939 106.132 45.9729C105.111 50.1335 103.316 53.4491 100.746 55.8708C99.5441 57.0247 98.6548 57.5935 95.8549 59.0888C94.0927 60.0314 93.1704 60.584 90.6176 62.2256C90.4035 62.3556 90.2388 62.4206 90.2388 62.3718Z" fill="white"/>
<path d="M7.56175 48.9961C4.71252 46.0381 2.14328 42.1375 1.1551 39.2283C0.315157 36.7903 0.101053 32.9385 0.578669 29.2653C0.957469 26.3886 1.00688 26.3561 1.5339 28.404C2.09387 30.5331 2.65383 32.0608 3.93845 34.97C4.86075 37.0666 5.536 39.1145 6.21125 41.7962C6.59005 43.3239 6.96885 43.4702 7.01826 42.1212C7.13354 38.5619 7.6441 37.1967 11.0039 31.557C11.8274 30.1755 12.5356 28.9728 12.5685 28.8753C12.6014 28.794 12.6838 28.7615 12.7497 28.8265C12.9308 29.0053 12.552 33.231 12.1732 35.2138C11.9756 36.2053 11.3497 38.3994 10.7733 40.0896C9.5381 43.714 9.20871 45.323 9.06048 48.281L8.96166 50.4589L7.56175 48.9961Z" fill="white"/>
<path d="M97.6007 48.0208C97.4854 45.2579 97.0737 43.2588 96.0197 40.3658C94.6856 36.6765 93.928 32.7596 94.0598 30.0941L94.1092 28.8752L95.7561 31.6381C98.803 36.7577 99.5112 38.5293 99.7253 41.5848C99.8077 42.6087 99.9065 43.0963 100.038 43.0963C100.154 43.0963 100.285 42.8525 100.351 42.5762C100.713 40.7234 101.784 37.3591 102.542 35.62C103.843 32.6783 104.617 30.5817 105.144 28.5989C105.391 27.64 105.654 26.8923 105.72 26.9248C105.786 26.9736 105.967 27.9813 106.132 29.184C106.511 32.0932 106.412 36.1889 105.901 38.2042C105.292 40.5934 103.596 43.6814 101.29 46.6231C100.071 48.1671 98.0289 50.41 97.8313 50.41C97.749 50.41 97.6501 49.3373 97.6007 48.0208Z" fill="white"/>
<path d="M66.5227 45.9242C66.2921 45.8917 65.4192 45.7454 64.5958 45.5992C63.7558 45.4529 63.0641 45.2904 63.0641 45.2254C63.0641 44.9978 69.6684 39.5694 73.3575 36.7414C75.6962 34.9536 79.3525 32.3857 81.3453 31.118C83.0416 30.0453 85.7756 28.5501 85.8579 28.6476C86.0061 28.8101 86.2861 32.0282 86.2861 33.4909V35.1162L85.7591 35.3925C83.7334 36.4164 79.5666 39.6344 75.548 43.2913C73.3081 45.3229 73.2917 45.3391 72.0894 45.6154C70.9365 45.8755 67.3791 46.0705 66.5227 45.9242Z" fill="white"/>
<path d="M50.1026 39.5695L47.5992 38.3343L48.6203 37.5379C50.152 36.3677 57.5798 31.1506 60.0172 29.5254C63.377 27.2987 66.4898 25.9173 69.5366 25.3159C71.1177 25.0071 73.2752 24.8121 73.2752 25.0071C73.2752 25.0721 72.7647 25.4622 72.1388 25.836C69.4213 27.4938 65.8475 30.208 59.6549 35.3438C56.0151 38.3506 52.9353 40.821 52.8201 40.8047C52.7048 40.8047 51.486 40.2359 50.1026 39.5695Z" fill="white"/>
<path d="M44.5359 36.2214C43.9595 35.9126 43.5642 35.6038 43.5807 35.4576C43.5807 35.3275 43.8277 34.3686 44.0912 33.3447C44.7171 31.0206 44.9476 29.4603 45.0959 26.7786L45.1947 24.682L46.3311 24.2107L47.4675 23.7556L47.3687 26.7299C47.3193 28.3551 47.171 30.3542 47.0228 31.1506C46.7099 32.8409 46.0017 35.6201 45.7217 36.2864L45.5241 36.7415L44.5359 36.2214Z" fill="white"/>
<path d="M99.577 34.7425C98.3583 32.3371 96.8431 29.8829 95.2291 27.6238C93.5821 25.3322 92.7257 23.8207 91.9846 22.0004C91.4411 20.6351 90.947 18.7661 91.1117 18.6198C91.1446 18.571 91.474 18.9286 91.8363 19.3999C92.7916 20.6189 93.5821 21.4153 95.1961 22.748C97.0901 24.3082 98.4242 26.0473 99.2312 27.9814C99.4288 28.4689 99.7088 28.8915 99.8405 28.924C100.038 28.9565 100.088 28.4039 100.17 25.3484C100.219 23.3493 100.384 20.8139 100.532 19.6925C100.829 17.5309 100.779 15.7918 100.384 14.1178C100.269 13.614 100.203 13.1914 100.269 13.1914C100.499 13.1914 102.113 15.7756 102.558 16.8645C103.859 19.985 104.221 23.8532 103.48 26.7462C103.349 27.2987 102.756 29.1353 102.179 30.8256C101.603 32.5321 101.01 34.4987 100.862 35.2138C100.713 35.9289 100.582 36.514 100.565 36.5465C100.549 36.5628 100.104 35.7501 99.577 34.7425Z" fill="white"/>
<path d="M5.91483 35.3437C5.79954 34.7261 5.1737 32.6295 4.51492 30.6629C3.04913 26.3072 2.88444 25.6246 2.90091 23.3492C2.90091 20.0174 3.79026 16.9294 5.47015 14.459C5.99718 13.6626 6.4748 13.0287 6.49127 13.0613C6.5242 13.0938 6.4748 13.4513 6.39245 13.8414C5.96424 15.6617 5.9313 17.1407 6.26069 20.2124C6.42539 21.9027 6.60655 24.5357 6.63949 26.0634C6.72184 29.2164 6.83713 29.4765 7.51238 27.9C8.43467 25.7384 9.48872 24.4706 12.7332 21.5777C13.5238 20.8625 14.4955 19.8874 14.8578 19.3998C15.6977 18.3109 15.7966 18.5222 15.3025 20.2775C14.6437 22.6503 13.4908 24.877 11.5804 27.4286C10.3616 29.0702 8.69818 31.7519 7.36415 34.271C6.73831 35.4575 6.19481 36.4326 6.16187 36.4326C6.14541 36.4326 6.03012 35.9451 5.91483 35.3437Z" fill="white"/>
<path d="M42.6913 27.9812C38.9692 25.9821 36.5152 22.439 36.0541 18.3758C35.9059 17.1244 36.0047 15.0278 36.2023 14.914C36.3176 14.8328 39.0515 17.0756 40.4021 18.3596C41.9996 19.9036 43.0042 21.5939 43.383 23.4142C43.6795 24.8282 43.8607 27.6399 43.6795 28.0949L43.5477 28.4525L42.6913 27.9812Z" fill="white"/>
<path d="M97.3372 22.2765C96.4808 21.3663 94.6197 19.676 93.2198 18.5058C90.2223 16.0192 88.8718 14.7027 87.9989 13.4025C87.3237 12.3948 86.7308 10.9321 86.5332 9.7944L86.4179 9.09554L88.0319 10.7046C88.9377 11.5985 90.2882 12.7524 91.0623 13.2725C92.6598 14.3614 94.3562 15.9054 95.542 17.3844C96.3819 18.4083 96.6619 18.6034 96.6619 18.132C96.6619 17.9858 96.1843 15.8567 95.5914 13.4188C94.5209 8.91676 94.1421 7.86033 93.0222 6.25131C92.7586 5.8775 92.5445 5.5362 92.5445 5.48744C92.5445 5.42243 93.088 5.64996 93.7468 5.97502C95.3608 6.78765 97.156 8.54294 97.7983 9.97318C98.7536 12.0698 98.8524 12.7036 98.9182 17.8232C98.9677 20.4237 98.9677 22.8453 98.9347 23.2191L98.8853 23.918L97.3372 22.2765Z" fill="white"/>
<path d="M7.75935 18.5223C7.8417 12.8176 7.95699 11.9887 8.96163 9.81086C9.68629 8.25061 12.3214 5.95898 13.9519 5.47139C14.3142 5.37388 14.2978 5.42264 13.7707 6.15401C12.9802 7.24294 12.4202 8.38063 12.0414 9.6971C11.3826 11.8912 9.98274 18.2298 10.098 18.3435C10.1804 18.4248 10.4604 18.181 10.7568 17.8234C11.9426 16.3282 14.0013 14.3779 15.5494 13.3052C16.4553 12.6876 17.8881 11.4849 18.7281 10.6398C20.375 8.96572 20.4409 8.98198 19.9303 10.786C19.3045 13.0452 17.7728 14.8817 13.5731 18.3923C12.2226 19.5137 10.3945 21.1878 9.52159 22.0979C8.64871 23.0081 7.89111 23.7557 7.82523 23.7557C7.75935 23.7557 7.72641 21.399 7.75935 18.5223Z" fill="white"/>
<path d="M44.997 21.6752C45.1288 19.8711 45.4582 18.6522 46.2487 17.0107C48.0274 13.3213 51.3378 10.6721 56.3116 8.90057C57.3657 8.52676 57.481 8.51051 57.3986 8.7543C55.6364 14.784 54.9282 16.4093 53.3306 18.1321C51.6178 19.9687 50.2838 20.8301 47.0063 22.2115L44.8982 23.0892L44.997 21.6752Z" fill="white"/>
<path d="M91.8035 11.7936C88.1308 8.64053 87.1261 7.5516 84.3263 3.76472C82.844 1.78189 81.6912 0.124117 81.7241 0.0753588C81.9382 -0.119674 85.4133 1.5056 87.3567 2.72455C90.2883 4.54485 91.9517 6.80398 93.1704 10.5909C93.6151 12.0048 93.9774 13.5326 93.8292 13.5001C93.8128 13.5001 92.8904 12.72 91.8035 11.7936Z" fill="white"/>
<path d="M12.9143 12.8338C13.6884 9.29069 15.3683 5.94263 17.1799 4.28486C18.1187 3.42346 20.2433 2.05824 21.8902 1.2456C23.5207 0.432967 25.25 -0.200888 25.0853 0.0591554C24.2454 1.39188 19.7656 7.21034 18.8598 8.12049C17.6905 9.32319 13.0955 13.3539 12.8978 13.3539C12.8484 13.3539 12.8649 13.1101 12.9143 12.8338Z" fill="white"/>
<line x1="125.628" y1="3.98851" x2="127.403" y2="81.1953" stroke="#DCDCDC"/>
</svg>
