<svg width="24" height="23" viewBox="0 0 24 23" fill="none" xmlns="http://www.w3.org/2000/svg">
<g clip-path="url(#clip0_133_936)">
<path d="M17.1503 11.4564C17.1512 12.7569 16.6931 14.016 15.8567 15.0119C15.0202 16.0077 13.8592 16.6765 12.5781 16.9003C11.297 17.124 9.97796 16.8885 8.85345 16.2352C7.72894 15.5819 6.87108 14.5527 6.43099 13.3289L3.27002 15.8576C4.2529 17.726 5.83348 19.2112 7.75936 20.0761C9.68524 20.9409 11.8454 21.1355 13.8948 20.6288C15.9443 20.1222 17.7648 18.9434 19.0659 17.2808C20.3669 15.6181 21.0733 13.5675 21.0723 11.4564" fill="#00AC47"/>
<path d="M17.1505 11.4564C17.1497 12.3356 16.9389 13.202 16.5356 13.9832C16.1323 14.7645 15.5481 15.4381 14.8318 15.9479L17.9568 18.4479C18.9367 17.5657 19.7204 16.4874 20.2571 15.283C20.7938 14.0786 21.0716 12.7749 21.0724 11.4564" fill="#4285F4"/>
<path d="M6.09752 11.4564C6.09889 10.8176 6.21175 10.1839 6.43103 9.58388L3.27005 7.05513C2.55132 8.41084 2.17554 9.92193 2.17554 11.4564C2.17554 12.9908 2.55132 14.5019 3.27005 15.8576L6.43103 13.3289C6.21175 12.7289 6.09889 12.0952 6.09752 11.4564Z" fill="#FFBA00"/>
<path d="M11.6239 5.92995C12.7933 5.93028 13.932 6.30397 14.8742 6.99659L17.7693 4.29449C16.6946 3.36787 15.4245 2.69593 14.0538 2.32881C12.6831 1.96168 11.2471 1.90886 9.85316 2.17427C8.45918 2.43968 7.14314 3.01648 6.00324 3.86162C4.86334 4.70676 3.92903 5.79842 3.27002 7.05513L6.43099 9.58388C6.8165 8.51523 7.52174 7.59122 8.45085 6.93746C9.37996 6.28371 10.4878 5.93193 11.6239 5.92995Z" fill="#EA4435"/>
<path d="M21.0723 10.7433V11.4564L19.4679 13.9522H11.9805V10.0302H20.3592C20.5484 10.0302 20.7297 10.1053 20.8635 10.2391C20.9972 10.3728 21.0723 10.5542 21.0723 10.7433Z" fill="#4285F4"/>
</g>
<defs>
<clipPath id="clip0_133_936">
<rect width="22.8188" height="22.8188" fill="white" transform="translate(0.2146 0.0469818)"/>
</clipPath>
</defs>
</svg>
