<svg width="454" height="121" viewBox="0 0 454 121" fill="none" xmlns="http://www.w3.org/2000/svg">
<path d="M48.5693 31.4397C48.5693 26.6091 44.6421 22.6819 39.8115 22.6819C34.9809 22.6819 31.0537 26.6091 31.0537 31.4397C31.0537 36.2703 34.9809 40.1975 39.8115 40.1975C41.9947 40.1975 43.9771 39.3945 45.5204 38.0645V38.3029C45.5204 41.5024 42.9106 44.1121 39.7111 44.1121H34.9307V47.1485H39.7111C44.5793 47.1485 48.5442 43.1837 48.5442 38.3154C48.5567 38.3029 48.5693 31.5652 48.5693 31.4397ZM39.8115 37.1611C36.6497 37.1611 34.0901 34.589 34.0901 31.4397C34.0901 28.2904 36.6622 25.7183 39.8115 25.7183C42.9608 25.7183 45.5329 28.2904 45.5329 31.4397C45.5329 31.5401 45.5204 31.653 45.5204 31.7534V31.8161C45.3196 34.8023 42.8479 37.1611 39.8115 37.1611Z" fill="black"/>
<path d="M115.281 40.1724H112.145V30.0344C112.145 27.7634 110.15 25.919 107.691 25.919C105.231 25.919 103.236 27.7634 103.236 30.0344V40.1849H100.1V30.0344C100.1 26.0947 103.5 22.8952 107.691 22.8952C111.881 22.8952 115.281 26.0947 115.281 30.0344V40.1724Z" fill="black"/>
<path d="M74.2654 34.8525C73.7886 35.6429 73.1738 36.2703 72.4085 36.7094C71.5929 37.1862 70.677 37.4246 69.6858 37.4246C68.2931 37.4246 67.0886 36.9855 66.0722 36.1197C65.0559 35.254 64.4286 34.1122 64.1651 32.7069H78.3181V32.2302C78.3181 31.0633 78.2052 30.0219 77.9668 29.106C77.7284 28.19 77.3645 27.3494 76.8877 26.5966C76.0596 25.367 75.0182 24.4009 73.751 23.7108C72.4837 23.0207 71.1036 22.6819 69.6356 22.6819C68.3934 22.6819 67.2517 22.9078 66.1977 23.372C65.1438 23.8362 64.2027 24.5263 63.3746 25.4422C62.5842 26.2829 61.9945 27.2239 61.593 28.2528C61.1915 29.2816 60.9907 30.3858 60.9907 31.5652C60.9907 32.7069 61.2166 33.8236 61.6557 34.9152C62.0949 36.0068 62.7097 36.9729 63.5001 37.801C64.3408 38.6793 65.2692 39.3317 66.2981 39.7709C67.3269 40.21 68.4687 40.4233 69.7109 40.4233C71.5553 40.4233 73.1738 39.934 74.5665 38.9428C75.4072 38.3405 76.1224 37.5626 76.7372 36.6467L74.2654 34.8525ZM66.273 26.7973C67.2517 26.0194 68.3934 25.6305 69.7234 25.6305C71.0158 25.6305 72.1324 26.0069 73.0609 26.7722C73.9894 27.5376 74.6418 28.6041 75.0182 29.9843H64.278C64.6293 28.6417 65.2943 27.5752 66.273 26.7973Z" fill="black"/>
<path d="M93.5752 34.8525C93.0985 35.6429 92.4836 36.2703 91.7183 36.7094C90.9027 37.1862 89.9868 37.4246 88.9956 37.4246C87.6029 37.4246 86.3984 36.9855 85.3821 36.1197C84.3658 35.254 83.7384 34.1122 83.4749 32.7069H97.6279V32.2302C97.6279 31.0633 97.515 30.0219 97.2766 29.106C97.0382 28.19 96.6743 27.3494 96.1975 26.5966C95.3694 25.367 94.328 24.4009 93.0608 23.7108C91.7936 23.0207 90.4134 22.6819 88.9454 22.6819C87.7032 22.6819 86.5615 22.9078 85.5075 23.372C84.4536 23.8362 83.5126 24.5263 82.6845 25.4422C81.894 26.2829 81.3043 27.2239 80.9028 28.2528C80.5013 29.2816 80.3005 30.3858 80.3005 31.5652C80.3005 32.7069 80.5264 33.8236 80.9655 34.9152C81.4047 36.0068 82.0195 36.9729 82.8099 37.801C83.6506 38.6793 84.5791 39.3317 85.6079 39.7709C86.6368 40.21 87.7785 40.4233 89.0207 40.4233C90.8651 40.4233 92.4836 39.934 93.8764 38.9428C94.717 38.3405 95.4322 37.5626 96.047 36.6467L93.5752 34.8525ZM85.5828 26.7973C86.5615 26.0194 87.7032 25.6305 89.0332 25.6305C90.3256 25.6305 91.4423 26.0069 92.3707 26.7722C93.2992 27.5376 93.9516 28.6041 94.3281 29.9843H83.5627C83.9392 28.6417 84.6041 27.5752 85.5828 26.7973Z" fill="black"/>
<path d="M55.0185 40.1724H51.9822V30.0595C51.9822 26.2578 55.0813 23.1587 58.883 23.1587H60.4639V26.1951H58.883C56.75 26.1951 55.0185 27.9265 55.0185 30.0595V40.1724Z" fill="black"/>
<path d="M108.155 52.3304C105.846 52.3304 103.801 53.4095 102.496 55.0657C101.191 53.4095 99.146 52.3304 96.8374 52.3304C92.9102 52.3304 89.7107 55.4421 89.7107 59.2814V69.1434H92.6592V59.2814C92.6592 57.0732 94.5413 55.279 96.8374 55.279C99.1335 55.279 101.003 57.0606 101.016 59.2563V59.2689V69.1308H103.964V59.2689V59.2563C103.977 57.0606 105.846 55.279 108.142 55.279C110.451 55.279 112.32 57.0732 112.32 59.2814V69.1434H115.269V59.2814C115.281 55.4546 112.082 52.3304 108.155 52.3304Z" fill="black"/>
<path d="M37.5655 69.7832C40.8026 69.7832 44.253 68.3905 44.253 64.501C44.253 61.8661 42.371 60.3228 38.1301 59.4947C34.9557 58.8674 34.3284 58.1271 34.3284 57.0606C34.3284 55.4421 36.0849 54.8774 37.6031 54.8774C39.297 54.8774 40.7901 55.6805 41.4927 56.9728L41.5052 56.9979L43.8766 55.2539C42.7223 53.4722 40.2631 52.2928 37.7161 52.2928C34.7801 52.2928 31.3547 53.5977 31.3547 57.2739C31.3547 60.7871 34.9306 61.565 36.4488 61.9038C39.9996 62.6942 41.2041 63.3968 41.2041 64.6766C41.2041 66.3077 39.9369 67.1735 37.5404 67.1735C35.9846 67.1735 34.4288 66.4583 33.4626 65.3165L31.0662 67.0857C32.6094 68.8171 34.9055 69.7832 37.5655 69.7832Z" fill="black"/>
<path d="M83.6507 69.1434H80.7021V59.3191C80.7021 55.6177 83.7134 52.619 87.4022 52.619H88.9455V55.5675H87.4022C85.332 55.5675 83.6507 57.2488 83.6507 59.3191V69.1434Z" fill="black"/>
<path d="M48.6822 62.092V55.2288H51.2292V52.2802H48.6822V47.4622H45.7336V62.092C45.7336 66.5963 49.3974 70.26 53.9017 70.26V67.3115C51.0285 67.3115 48.6822 64.9652 48.6822 62.092Z" fill="black"/>
<mask id="mask0_704_491" style="mask-type:luminance" maskUnits="userSpaceOnUse" x="53" y="48" width="26" height="26">
<path d="M66.361 73.4595C59.4225 73.4595 53.7764 67.8134 53.7764 60.8749C53.7764 53.9364 59.4225 48.2903 66.361 48.2903C73.2995 48.2903 78.9456 53.9364 78.9456 60.8749C78.9456 67.8134 73.2995 73.4595 66.361 73.4595ZM66.361 51.4019C61.1414 51.4019 56.888 55.6554 56.888 60.8749C56.888 66.0944 61.1414 70.3479 66.361 70.3479C71.5805 70.3479 75.8339 66.0944 75.8339 60.8749C75.8339 55.6554 71.5931 51.4019 66.361 51.4019Z" fill="white"/>
</mask>
<g mask="url(#mask0_704_491)">
<path d="M66.361 73.4595C59.4225 73.4595 53.7764 67.8134 53.7764 60.8749C53.7764 53.9364 59.4225 48.2903 66.361 48.2903C73.2995 48.2903 78.9456 53.9364 78.9456 60.8749C78.9456 67.8134 73.2995 73.4595 66.361 73.4595ZM66.361 51.4019C61.1414 51.4019 56.888 55.6554 56.888 60.8749C56.888 66.0944 61.1414 70.3479 66.361 70.3479C71.5805 70.3479 75.8339 66.0944 75.8339 60.8749C75.8339 55.6554 71.5931 51.4019 66.361 51.4019Z" fill="url(#paint0_linear_704_491)"/>
<path d="M61.2418 60.8749C64.8867 60.8749 67.8415 57.9201 67.8415 54.2752C67.8415 50.6303 64.8867 47.6755 61.2418 47.6755C57.5969 47.6755 54.6421 50.6303 54.6421 54.2752C54.6421 57.9201 57.5969 60.8749 61.2418 60.8749Z" fill="url(#paint1_radial_704_491)"/>
</g>
<path d="M55.5078 116.282H53.011V112.205H55.5078V112.619H53.5254V113.936H55.3949V114.35H53.5254V115.856H55.5078V116.282Z" fill="black"/>
<path d="M61.267 114.2C61.267 114.664 61.1791 115.04 60.9909 115.354C60.8027 115.668 60.5392 115.893 60.1879 116.044C59.8366 116.195 59.41 116.282 58.9207 116.282H57.7036V112.205H59.0587C59.5104 112.205 59.9119 112.28 60.2381 112.43C60.5643 112.581 60.8278 112.807 61.0035 113.108C61.1791 113.397 61.267 113.773 61.267 114.2ZM60.7274 114.225C60.7274 113.861 60.6647 113.56 60.5267 113.321C60.3887 113.083 60.2005 112.907 59.937 112.794C59.6735 112.681 59.3598 112.619 58.9834 112.619H58.2306V115.881H58.8705C59.4853 115.881 59.9495 115.743 60.2632 115.467C60.5769 115.191 60.7274 114.764 60.7274 114.225Z" fill="black"/>
<path d="M63.4626 116.282V112.205H63.9896V116.282H63.4626Z" fill="black"/>
<path d="M67.8039 116.282H67.2769V112.631H65.8591V112.217H69.2092V112.631H67.8039V116.282Z" fill="black"/>
<path d="M71.0786 116.282V112.205H71.6056V116.282H71.0786Z" fill="black"/>
<path d="M77.9294 114.237C77.9294 114.551 77.8792 114.839 77.8039 115.09C77.7161 115.354 77.5906 115.567 77.4149 115.755C77.2393 115.944 77.026 116.082 76.775 116.182C76.5241 116.282 76.223 116.333 75.8842 116.333C75.5329 116.333 75.2318 116.282 74.9683 116.182C74.7048 116.082 74.4915 115.944 74.3284 115.755C74.1527 115.567 74.0273 115.341 73.9394 115.09C73.8516 114.827 73.814 114.551 73.814 114.237C73.814 113.823 73.8892 113.459 74.0398 113.146C74.1904 112.832 74.4162 112.594 74.7299 112.418C75.0436 112.242 75.42 112.154 75.8842 112.154C76.3234 112.154 76.6998 112.242 77.0134 112.418C77.3146 112.594 77.553 112.832 77.7035 113.146C77.8541 113.459 77.9294 113.811 77.9294 114.237ZM74.3535 114.237C74.3535 114.588 74.4037 114.877 74.5166 115.141C74.6295 115.391 74.7926 115.592 75.0185 115.73C75.2443 115.868 75.5329 115.931 75.8717 115.931C76.223 115.931 76.499 115.868 76.7249 115.73C76.9507 115.592 77.1138 115.391 77.2142 115.141C77.3146 114.89 77.3773 114.588 77.3773 114.237C77.3773 113.71 77.2518 113.296 77.0134 113.008C76.775 112.719 76.3861 112.568 75.8842 112.568C75.5329 112.568 75.2443 112.631 75.0185 112.769C74.7926 112.907 74.6295 113.095 74.5166 113.346C74.4037 113.597 74.3535 113.886 74.3535 114.237Z" fill="black"/>
<path d="M83.6381 116.282H83.0358L80.5891 112.857H80.564C80.564 112.945 80.5766 113.058 80.5891 113.171C80.6017 113.284 80.6017 113.409 80.6142 113.547C80.6142 113.673 80.6268 113.811 80.6268 113.949V116.295H80.1375V112.217H80.7397L83.1738 115.63H83.1989C83.1989 115.567 83.1864 115.467 83.1864 115.354C83.1864 115.228 83.1738 115.103 83.1738 114.965C83.1738 114.827 83.1613 114.701 83.1613 114.576V112.217H83.6506V116.282H83.6381Z" fill="black"/>
<path d="M87.9794 116.282H87.4775V113.397C87.4775 113.284 87.4775 113.196 87.4775 113.108C87.4775 113.033 87.4775 112.957 87.4775 112.895C87.4775 112.832 87.49 112.757 87.49 112.694C87.4273 112.757 87.3645 112.807 87.3144 112.844C87.2642 112.882 87.1889 112.932 87.1136 112.995L86.5992 113.371L86.3357 113.058L87.5528 112.205H87.9794V116.282Z" fill="black"/>
<path d="M90.9154 113.785C91.2166 113.785 91.48 113.836 91.7059 113.924C91.9317 114.011 92.1074 114.149 92.2329 114.338C92.3583 114.513 92.4211 114.727 92.4211 114.99C92.4211 115.266 92.3583 115.504 92.2203 115.705C92.0823 115.906 91.8941 116.056 91.6432 116.169C91.3922 116.282 91.0911 116.333 90.7398 116.333C90.5014 116.333 90.2881 116.32 90.0873 116.282C89.8866 116.245 89.7235 116.195 89.5854 116.119V115.68C89.736 115.768 89.9117 115.831 90.125 115.881C90.3383 115.931 90.539 115.956 90.7398 115.956C90.9656 115.956 91.1664 115.918 91.342 115.856C91.5177 115.793 91.6432 115.693 91.7435 115.555C91.8439 115.417 91.8815 115.253 91.8815 115.04C91.8815 114.764 91.7937 114.563 91.6055 114.413C91.4173 114.262 91.1287 114.187 90.7398 114.187C90.6143 114.187 90.4763 114.2 90.3257 114.212C90.1752 114.225 90.0497 114.25 89.9493 114.275L89.6858 114.124L89.8615 112.217H92.0948V112.644H90.3006L90.1877 113.873C90.263 113.861 90.3634 113.848 90.4888 113.823C90.6268 113.798 90.7649 113.785 90.9154 113.785Z" fill="black"/>
<path d="M50.7527 99.2937H55.119V100.436H52.0199V101.678H54.7552V102.819H52.0199V105.04H50.7652V99.2937H50.7527Z" fill="black"/>
<path d="M56.7375 99.2937H61.0537V100.41H57.9797V101.577H60.6773V102.694H57.9797V103.898H61.0913V105.015H56.7375V99.2937Z" fill="black"/>
<path d="M64.8932 105.103C64.4541 105.103 64.0275 105.028 63.6135 104.877C63.1994 104.727 62.8104 104.501 62.4717 104.187L63.212 103.296C63.4754 103.51 63.7389 103.673 64.015 103.798C64.291 103.924 64.5921 103.986 64.9183 103.986C65.1818 103.986 65.3826 103.936 65.5331 103.848C65.6837 103.76 65.7464 103.622 65.7464 103.447V103.434C65.7464 103.359 65.7339 103.284 65.6963 103.221C65.6712 103.158 65.6084 103.095 65.5206 103.045C65.4328 102.995 65.3198 102.932 65.1693 102.882C65.0187 102.832 64.818 102.769 64.5796 102.707C64.291 102.631 64.0275 102.556 63.7891 102.468C63.5507 102.38 63.35 102.267 63.1869 102.142C63.0237 102.016 62.8983 101.853 62.8104 101.665C62.7226 101.477 62.6724 101.239 62.6724 100.95V100.937C62.6724 100.674 62.7226 100.436 62.823 100.235C62.9234 100.021 63.0614 99.8458 63.237 99.6952C63.4127 99.5447 63.626 99.4192 63.8644 99.3439C64.1153 99.2561 64.3788 99.2185 64.6799 99.2185C65.094 99.2185 65.483 99.2812 65.8343 99.4066C66.1856 99.5321 66.5118 99.7078 66.8004 99.9462L66.1479 100.9C65.897 100.724 65.6461 100.586 65.3951 100.486C65.1442 100.385 64.9058 100.335 64.6549 100.335C64.4039 100.335 64.2283 100.385 64.1028 100.473C63.9773 100.574 63.9146 100.686 63.9146 100.824V100.837C63.9146 100.925 63.9271 101.013 63.9648 101.075C64.0024 101.138 64.0651 101.201 64.153 101.264C64.2408 101.314 64.3788 101.364 64.5294 101.414C64.6925 101.464 64.8932 101.515 65.1442 101.59C65.4328 101.665 65.6963 101.753 65.9221 101.853C66.1479 101.954 66.3361 102.067 66.4993 102.192C66.6498 102.33 66.7753 102.481 66.8506 102.669C66.9259 102.845 66.9635 103.07 66.9635 103.321V103.334C66.9635 103.622 66.9133 103.873 66.8129 104.087C66.7126 104.313 66.562 104.488 66.3863 104.639C66.2107 104.789 65.9848 104.902 65.7213 104.978C65.483 105.065 65.2069 105.103 64.8932 105.103Z" fill="black"/>
<path d="M70.0248 100.461H68.2808V99.2937H73.0361V100.461H71.292V105.028H70.0373V100.461H70.0248Z" fill="black"/>
<path d="M74.6672 99.2937H75.9219V105.028H74.6672V99.2937Z" fill="black"/>
<path d="M77.4902 99.2937H78.8829L80.376 103.334L81.8691 99.2937H83.2242L80.903 105.065H79.7863L77.4902 99.2937Z" fill="black"/>
<path d="M86.6998 99.2561H87.8667L90.3259 105.028H89.0085L88.4815 103.748H86.0599L85.533 105.028H84.2532L86.6998 99.2561ZM88.0298 102.631L87.2644 100.774L86.4991 102.631H88.0298Z" fill="black"/>
<path d="M91.8188 99.2937H93.0735V103.886H95.9343V105.028H91.8188V99.2937Z" fill="black"/>
<path d="M57.2143 85.2913C56.7626 85.2913 56.3611 85.216 55.9846 85.0655C55.6208 84.9149 55.2946 84.7141 55.0311 84.4507C54.7676 84.1872 54.5543 83.8735 54.4163 83.5222C54.2657 83.1583 54.1904 82.7694 54.1904 82.3428V82.3302C54.1904 81.9162 54.2657 81.5398 54.4163 81.1759C54.5668 80.812 54.7801 80.4984 55.0436 80.2349C55.3071 79.9588 55.6333 79.7455 55.9972 79.595C56.3611 79.4444 56.7626 79.3566 57.2017 79.3566C57.4526 79.3566 57.691 79.3691 57.9043 79.4068C58.1176 79.4444 58.3058 79.4946 58.494 79.5573C58.6822 79.6201 58.8454 79.7079 58.9959 79.8083C59.159 79.9087 59.3096 80.0216 59.4602 80.1471L58.6697 81.1006C58.5568 81.0128 58.4564 80.925 58.3435 80.8497C58.2306 80.7744 58.1176 80.7242 58.0047 80.674C57.8918 80.6238 57.7663 80.5862 57.6283 80.5611C57.4903 80.536 57.3397 80.5235 57.1766 80.5235C56.9508 80.5235 56.7375 80.5736 56.5367 80.6615C56.336 80.7493 56.1603 80.8873 56.0097 81.0504C55.8592 81.2135 55.7463 81.4018 55.6584 81.615C55.5706 81.8283 55.533 82.0667 55.533 82.3051V82.3177C55.533 82.5812 55.5706 82.8196 55.6584 83.0454C55.7463 83.2712 55.8592 83.4595 56.0223 83.6226C56.1854 83.7857 56.3611 83.9111 56.5744 83.999C56.7877 84.0868 57.0135 84.137 57.277 84.137C57.7412 84.137 58.1427 84.0241 58.4689 83.7857V82.9827H57.2017V81.8911H59.686V84.3754C59.3974 84.6263 59.0461 84.8396 58.6321 85.0153C58.218 85.1909 57.7412 85.2913 57.2143 85.2913Z" fill="black"/>
<path d="M61.4929 79.457H62.7476V84.0492H65.6083V85.1909H61.4929V79.457Z" fill="black"/>
<path d="M69.9495 85.2913C69.5103 85.2913 69.0963 85.216 68.7324 85.0529C68.356 84.9024 68.0423 84.6891 67.7663 84.4256C67.4902 84.1621 67.2895 83.8484 67.1389 83.4971C66.9884 83.1458 66.9131 82.7568 66.9131 82.3428V82.3302C66.9131 81.9162 66.9884 81.5398 67.1389 81.1759C67.2895 80.812 67.5028 80.4984 67.7788 80.2349C68.0549 79.9714 68.3685 79.7455 68.7449 79.595C69.1214 79.4444 69.5229 79.3566 69.9745 79.3566C70.4137 79.3566 70.8277 79.4319 71.1916 79.595C71.568 79.7455 71.8817 79.9588 72.1577 80.2223C72.4337 80.4858 72.6345 80.7995 72.7851 81.1508C72.9356 81.5147 73.0109 81.8911 73.0109 82.3051V82.3177C73.0109 82.7317 72.9356 83.1081 72.7851 83.472C72.6345 83.8359 72.4212 84.1495 72.1452 84.413C71.8691 84.6765 71.5555 84.9024 71.1791 85.0529C70.8026 85.2035 70.4011 85.2913 69.9495 85.2913ZM69.9745 84.1244C70.2255 84.1244 70.4639 84.0743 70.6646 83.9864C70.8779 83.8986 71.0536 83.7606 71.2041 83.5975C71.3547 83.4344 71.4676 83.2462 71.5555 83.0329C71.6433 82.8196 71.6809 82.5812 71.6809 82.3428V82.3302C71.6809 82.0793 71.6433 81.8534 71.5555 81.6401C71.4676 81.4268 71.3547 81.2261 71.1916 81.063C71.041 80.8999 70.8528 80.7744 70.6395 80.674C70.4262 80.5736 70.2004 80.536 69.9495 80.536C69.6985 80.536 69.4601 80.5862 69.2468 80.674C69.0335 80.7619 68.8579 80.8999 68.7073 81.063C68.5567 81.2261 68.4438 81.4143 68.356 81.6276C68.2682 81.8409 68.2305 82.0793 68.2305 82.3177V82.3302C68.2305 82.5812 68.2682 82.807 68.356 83.0203C68.4438 83.2336 68.5567 83.4344 68.7198 83.5975C68.883 83.7606 69.0586 83.8861 69.2719 83.9864C69.4852 84.0743 69.7111 84.1244 69.9745 84.1244Z" fill="black"/>
<path d="M74.7425 79.457H77.4025C78.0675 79.457 78.5568 79.6201 78.8956 79.9589C79.1591 80.2223 79.2845 80.5486 79.2845 80.9375V80.9501C79.2845 81.1132 79.2594 81.2637 79.2218 81.3892C79.1842 81.5147 79.1214 81.6276 79.0587 81.728C78.9959 81.8283 78.9081 81.9162 78.8203 81.9915C78.7325 82.0667 78.6321 82.1295 78.5317 82.1922C78.8579 82.3177 79.1214 82.4933 79.3096 82.7066C79.4978 82.9199 79.5982 83.2211 79.5982 83.5975V83.61C79.5982 83.8735 79.548 84.0994 79.4476 84.3001C79.3473 84.5009 79.1967 84.664 79.0085 84.7894C78.8203 84.9149 78.5944 85.0153 78.331 85.078C78.0675 85.1407 77.7789 85.1784 77.4527 85.1784H74.73V79.457H74.7425ZM77.139 81.7782C77.415 81.7782 77.6409 81.728 77.804 81.6401C77.9671 81.5398 78.0549 81.3892 78.0549 81.1759V81.1634C78.0549 80.9752 77.9796 80.8246 77.8416 80.7242C77.7036 80.6238 77.4903 80.5737 77.2268 80.5737H75.9847V81.7907H77.139V81.7782ZM77.4652 84.0868C77.7413 84.0868 77.9671 84.0366 78.1177 83.9362C78.2682 83.8359 78.3561 83.6728 78.3561 83.4595V83.4469C78.3561 83.2587 78.2808 83.1081 78.1302 82.9952C77.9796 82.8823 77.7413 82.8321 77.415 82.8321H75.9596V84.0868H77.4652Z" fill="black"/>
<path d="M83.2367 79.4193H84.4036L86.8628 85.1909H85.5453L85.0184 83.9111H82.5968L82.0698 85.1909H80.79L83.2367 79.4193ZM84.5667 82.7945L83.8013 80.9375L83.0359 82.7945H84.5667Z" fill="black"/>
<path d="M88.356 79.457H89.6107V84.0492H92.4714V85.1909H88.356V79.457Z" fill="black"/>
<path d="M33.1869 89.0554H35.9346C36.3362 89.0554 36.7 89.1056 37.0137 89.2185C37.3274 89.3314 37.6034 89.4945 37.8167 89.6953C38.0425 89.896 38.2057 90.147 38.3311 90.4356C38.4566 90.7242 38.5068 91.0378 38.5068 91.3766V91.4017C38.5068 91.7906 38.4315 92.1294 38.2935 92.4305C38.1555 92.7191 37.9547 92.9701 37.7163 93.1708C37.4779 93.3716 37.1768 93.5221 36.8506 93.6225C36.5244 93.7229 36.173 93.7731 35.7841 93.7731H34.6549V95.7931H33.1743V89.0554H33.1869ZM35.8343 92.4431C36.2107 92.4431 36.4993 92.3427 36.7 92.1545C36.9008 91.9663 37.0137 91.7154 37.0137 91.4268V91.4017C37.0137 91.0629 36.9008 90.812 36.6875 90.6489C36.4742 90.4732 36.1856 90.3854 35.8092 90.3854H34.6674V92.4431H35.8343Z" fill="black"/>
<path d="M39.8494 89.0554H41.3299V91.7154H44.0526V89.0554H45.5331V95.7806H44.0526V93.083H41.3299V95.7806H39.8494V89.0554Z" fill="black"/>
<path d="M50.6522 95.881C50.1378 95.881 49.661 95.7931 49.2219 95.6049C48.7827 95.4167 48.4063 95.1783 48.0926 94.8647C47.779 94.551 47.528 94.1871 47.3524 93.7731C47.1767 93.359 47.0889 92.9073 47.0889 92.418V92.3929C47.0889 91.9161 47.1767 91.4644 47.3524 91.0378C47.528 90.6238 47.779 90.2474 48.0926 89.9337C48.4063 89.62 48.7827 89.3691 49.2219 89.1809C49.661 88.9927 50.1378 88.9048 50.6522 88.9048C51.1666 88.9048 51.6434 88.9927 52.0826 89.1809C52.5217 89.3691 52.8981 89.6075 53.2118 89.9211C53.5255 90.2348 53.7764 90.5987 53.9521 91.0127C54.1277 91.4268 54.2155 91.8785 54.2155 92.3553V92.3803C54.2155 92.8571 54.1277 93.3088 53.9521 93.7229C53.7764 94.1369 53.5255 94.5133 53.2118 94.827C52.8981 95.1407 52.5217 95.3916 52.0826 95.5798C51.656 95.7931 51.1792 95.881 50.6522 95.881ZM50.6773 94.5259C50.9659 94.5259 51.2419 94.4757 51.4929 94.3628C51.7438 94.2498 51.9571 94.0993 52.1328 93.9111C52.3084 93.7229 52.4464 93.497 52.5468 93.2461C52.6472 92.9952 52.6974 92.7191 52.6974 92.4305V92.4054C52.6974 92.1169 52.6472 91.8408 52.5468 91.5899C52.4464 91.339 52.3084 91.1131 52.1202 90.9124C51.932 90.7241 51.7187 90.5736 51.4678 90.4607C51.2168 90.3477 50.9408 90.2976 50.6522 90.2976C50.3511 90.2976 50.075 90.3477 49.8367 90.4607C49.5983 90.5736 49.385 90.7241 49.2093 90.9124C49.0337 91.1006 48.8956 91.3264 48.7953 91.5773C48.6949 91.8283 48.6447 92.1043 48.6447 92.3929V92.418C48.6447 92.7066 48.6949 92.9826 48.7953 93.2335C48.8956 93.4845 49.0336 93.7103 49.2219 93.9111C49.4101 94.0993 49.6234 94.2498 49.8618 94.3628C50.1001 94.4757 50.3762 94.5259 50.6773 94.5259Z" fill="black"/>
<path d="M57.365 90.4105H55.3198V89.0429H60.8907V90.4105H58.8455V95.768H57.365V90.4105Z" fill="black"/>
<path d="M65.5331 95.881C65.0186 95.881 64.5419 95.7931 64.1027 95.6049C63.6636 95.4167 63.2872 95.1783 62.9735 94.8647C62.6598 94.551 62.4089 94.1871 62.2332 93.7731C62.0576 93.359 61.9697 92.9073 61.9697 92.418V92.3929C61.9697 91.9161 62.0576 91.4644 62.2332 91.0378C62.4089 90.6238 62.6598 90.2474 62.9735 89.9337C63.2872 89.62 63.6636 89.3691 64.1027 89.1809C64.5419 88.9927 65.0186 88.9048 65.5331 88.9048C66.0475 88.9048 66.5243 88.9927 66.9634 89.1809C67.4026 89.3691 67.779 89.6075 68.0927 89.9211C68.4063 90.2348 68.6573 90.5987 68.8329 91.0127C69.0086 91.4268 69.0964 91.8785 69.0964 92.3553V92.3803C69.0964 92.8571 69.0086 93.3088 68.8329 93.7229C68.6573 94.1369 68.4063 94.5133 68.0927 94.827C67.779 95.1407 67.4026 95.3916 66.9634 95.5798C66.5368 95.7931 66.06 95.881 65.5331 95.881ZM65.5582 94.5259C65.8467 94.5259 66.1228 94.4757 66.3737 94.3628C66.6247 94.2498 66.838 94.0993 67.0136 93.9111C67.1893 93.7229 67.3273 93.497 67.4277 93.2461C67.528 92.9952 67.5782 92.7191 67.5782 92.4305V92.4054C67.5782 92.1169 67.528 91.8408 67.4277 91.5899C67.3273 91.339 67.1893 91.1131 67.0011 90.9124C66.8129 90.7241 66.5996 90.5736 66.3486 90.4607C66.0977 90.3477 65.8216 90.2976 65.5331 90.2976C65.2319 90.2976 64.9559 90.3477 64.7175 90.4607C64.4791 90.5736 64.2658 90.7241 64.0902 90.9124C63.9145 91.1006 63.7765 91.3264 63.6761 91.5773C63.5757 91.8283 63.5256 92.1043 63.5256 92.3929V92.418C63.5256 92.7066 63.5757 92.9826 63.6761 93.2335C63.7765 93.4845 63.9145 93.7103 64.1027 93.9111C64.2909 94.0993 64.5042 94.2498 64.7426 94.3628C64.981 94.4757 65.257 94.5259 65.5582 94.5259Z" fill="black"/>
<path d="M73.9142 95.881C73.3872 95.881 72.9105 95.7931 72.4839 95.6175C72.0573 95.4418 71.6809 95.2034 71.3672 94.9023C71.0535 94.5886 70.8151 94.2248 70.6395 93.8107C70.4638 93.3841 70.376 92.9324 70.376 92.4305V92.4054C70.376 91.9287 70.4638 91.477 70.6395 91.0504C70.8151 90.6363 71.0661 90.2599 71.3797 89.9462C71.6934 89.6326 72.0698 89.3816 72.4964 89.1934C72.923 89.0052 73.3998 88.9174 73.9017 88.9174C74.2028 88.9174 74.4788 88.9425 74.7172 88.9801C74.9556 89.0178 75.194 89.0805 75.4073 89.1558C75.6206 89.2311 75.8214 89.3314 75.997 89.4444C76.1727 89.5573 76.3609 89.6953 76.5365 89.8333L75.6081 90.9625C75.4826 90.8496 75.3571 90.7618 75.2191 90.674C75.0936 90.5861 74.9556 90.5234 74.8176 90.4607C74.6796 90.3979 74.529 90.3603 74.3659 90.3226C74.2028 90.285 74.0271 90.2725 73.8389 90.2725C73.5755 90.2725 73.3245 90.3226 73.0861 90.4356C72.8477 90.5485 72.647 90.6991 72.4713 90.8873C72.2957 91.0755 72.1576 91.3013 72.0573 91.5523C71.9569 91.8032 71.9067 92.0792 71.9067 92.3678V92.3929C71.9067 92.7066 71.9569 92.9826 72.0573 93.2461C72.1576 93.5096 72.2957 93.7354 72.4839 93.9236C72.6721 94.1118 72.8854 94.2624 73.1238 94.3753C73.3622 94.4882 73.6382 94.5384 73.9393 94.5384C74.4914 94.5384 74.9556 94.4004 75.332 94.1369V93.1708H73.8389V91.891H76.7624V94.8145C76.4111 95.103 76.0096 95.354 75.5328 95.5673C75.0811 95.7806 74.529 95.881 73.9142 95.881Z" fill="black"/>
<path d="M78.4564 89.0554H81.5304C82.3836 89.0554 83.036 89.2812 83.4877 89.7329C83.8767 90.1219 84.0649 90.6238 84.0649 91.2637V91.2888C84.0649 91.8283 83.9269 92.28 83.6634 92.6187C83.3999 92.9575 83.0486 93.2084 82.622 93.3716L84.2656 95.768H82.5342L81.0913 93.6225H81.0662H79.9244V95.768H78.4438V89.0554H78.4564ZM81.43 92.3176C81.7939 92.3176 82.0699 92.2298 82.2707 92.0541C82.4714 91.8785 82.5593 91.6526 82.5593 91.364V91.339C82.5593 91.0253 82.4589 90.7743 82.2456 90.6238C82.0448 90.4607 81.7563 90.3854 81.3924 90.3854H79.9244V92.3176H81.43Z" fill="black"/>
<path d="M87.9544 89.0052H89.322L92.2078 95.768H90.6646L90.0497 94.2624H87.2141L86.5742 95.768H85.0686L87.9544 89.0052ZM89.5102 92.9575L88.6194 90.7743L87.7286 92.9575H89.5102Z" fill="black"/>
<path d="M93.4751 89.0554H96.2229C96.6244 89.0554 96.9883 89.1056 97.3019 89.2185C97.6156 89.3314 97.8916 89.4945 98.1049 89.6953C98.3308 89.896 98.4939 90.147 98.6194 90.4356C98.7448 90.7242 98.795 91.0378 98.795 91.3766V91.4017C98.795 91.7906 98.7197 92.1294 98.5817 92.4305C98.4437 92.7191 98.2429 92.9701 98.0046 93.1708C97.7662 93.3716 97.465 93.5221 97.1388 93.6225C96.8126 93.7229 96.4613 93.7731 96.0723 93.7731H94.9431V95.7931H93.4751V89.0554ZM96.1351 92.4431C96.5115 92.4431 96.8 92.3427 97.0008 92.1545C97.2015 91.9663 97.3145 91.7154 97.3145 91.4268V91.4017C97.3145 91.0629 97.2016 90.812 96.9883 90.6489C96.775 90.4732 96.4864 90.3854 96.11 90.3854H94.9682V92.4431H96.1351Z" fill="black"/>
<path d="M100.137 89.0554H101.618V91.7154H104.341V89.0554H105.821V95.7806H104.341V93.083H101.618V95.7806H100.137V89.0554Z" fill="black"/>
<path d="M109.585 93.1206L107.001 89.0554H108.732L110.338 91.753L111.969 89.0554H113.651L111.066 93.0955V95.768H109.585V93.1206Z" fill="black"/>
<path d="M117.314 12.2303C112.521 9.11864 107.227 6.79745 101.605 5.45493L122.885 25.6054L117.314 12.2303Z" fill="url(#paint2_linear_704_491)"/>
<path d="M134.027 29.382L133.952 50.3731L134.052 50.6115L133.952 50.6617L133.876 72.0292L143.036 59.5951C142.697 48.4158 139.422 38.052 134.027 29.382Z" fill="url(#paint3_linear_704_491)"/>
<path d="M133.374 28.3782C129.359 22.2177 124.253 16.9605 118.356 12.9204L133.186 48.5663L133.374 28.3782Z" fill="url(#paint4_linear_704_491)"/>
<path d="M44.7426 5.45493C39.109 6.79745 33.8267 9.10609 29.0337 12.2303L23.4629 25.6054L44.7426 5.45493Z" fill="url(#paint5_linear_704_491)"/>
<path d="M12.3964 50.6491L12.296 50.5989L12.3964 50.3605L12.3211 29.382C6.91338 38.052 3.65117 48.4158 3.32495 59.5826L12.4842 72.0166L12.3964 50.6491Z" fill="url(#paint6_linear_704_491)"/>
<path d="M27.9799 12.9204C22.0828 16.948 16.9762 22.2177 12.9612 28.3782L13.1368 48.5789L27.9799 12.9204Z" fill="url(#paint7_linear_704_491)"/>
<path d="M143.061 61.1384L110.526 104.614H110.489L110.25 105.003H110.238H123.738H124.592C135.896 94.4882 143.073 78.8798 143.073 61.4521C143.061 61.3517 143.061 61.2388 143.061 61.1384Z" fill="url(#paint8_linear_704_491)"/>
<path d="M35.8718 104.614H35.8217L3.28735 61.1384C3.28735 61.2388 3.28735 61.3517 3.28735 61.4521C3.28735 78.8798 10.4642 94.4882 21.769 105.003H23.7264H36.1228L35.8718 104.614Z" fill="url(#paint9_linear_704_491)"/>
<path d="M206.636 76.5963C206.486 76.659 206.335 76.7343 206.184 76.8096C205.883 76.9601 205.57 77.1358 205.243 77.324C204.892 77.5247 204.528 77.7506 204.152 77.989C199.949 80.6866 194.729 85.329 194.729 85.329C194.729 85.329 197.652 86.2449 200.275 85.3415C200.275 85.3415 204.315 81.339 206.849 80.0843C206.862 80.0843 206.874 80.0718 206.887 80.0718C206.887 79.8836 206.9 79.7079 206.9 79.5197C206.9 79.206 206.887 78.9049 206.874 78.5912C206.849 78.1145 206.799 77.6502 206.736 77.186" fill="#087CC1"/>
<path d="M206.423 75.5298C206.41 75.5047 206.41 75.4796 206.398 75.4419C206.385 75.3918 206.372 75.3541 206.36 75.3039C206.335 75.2161 206.31 75.1408 206.297 75.053C206.26 74.9024 206.222 74.7519 206.172 74.6013C206.147 74.5135 206.122 74.4382 206.096 74.3504C206.084 74.3002 206.071 74.25 206.059 74.1998C205.996 74.0116 205.933 73.8108 205.858 73.6226C205.846 73.5975 205.846 73.585 205.833 73.5599C205.783 73.4219 205.733 73.2964 205.682 73.1584C205.632 73.0455 205.595 72.9326 205.544 72.8196C205.519 72.7443 205.482 72.6691 205.444 72.5938C203.901 69.0304 201.166 66.0694 197.64 64.3002C195.319 63.1083 192.696 62.4307 189.898 62.4307C181.241 62.4307 174.114 68.9175 173.073 77.2863C173.073 77.2989 173.073 77.3114 173.073 77.3114C173.048 77.5373 173.023 77.7506 172.998 77.9764C172.998 78.0141 172.985 78.0643 172.985 78.1019C172.972 78.2525 172.96 78.4156 172.96 78.5787C172.96 78.6791 172.947 78.7794 172.947 78.8798C172.947 78.9049 172.947 78.93 172.947 78.9425C172.935 79.1182 172.935 79.2813 172.935 79.457C172.935 88.8296 180.538 96.433 189.911 96.433C198.606 96.433 205.758 89.8961 206.761 81.477C206.41 81.6151 206.071 81.7782 205.72 81.9789C204.177 82.8572 202.797 84.0743 201.58 85.4168C199.61 87.5874 197.64 89.2436 194.867 90.0466C191.718 90.95 187.778 90.8873 184.829 89.206C184.302 88.9048 183.775 88.5284 183.324 88.1144C183.148 87.9513 182.809 87.6752 182.772 87.3992C182.646 86.4833 185.469 87.3867 185.808 87.4745C187.213 87.8384 188.619 88.3277 189.961 88.8923C191.994 89.7455 194.214 89.8584 196.222 88.9174C197.088 88.5033 197.891 87.9262 198.606 87.2361C198.756 87.0855 199.208 86.6464 199.359 86.3578C193.223 87.0981 195.231 86.1696 180.965 79.7832C178.719 78.7794 176.548 78.2776 174.491 78.1521C175.131 70.1973 181.806 63.9238 189.911 63.9238C196.636 63.9238 202.383 68.24 204.503 74.25C203.06 74.4382 201.692 74.9275 200.827 75.4043C199.196 76.3077 190.513 83.4344 190.513 83.4344L193.826 84.94C193.826 84.94 195.093 83.5724 198.255 81.1759C200.827 79.2311 202.734 77.8635 204.164 76.9225C204.503 76.6966 204.804 76.4959 205.093 76.3202C205.607 76.0066 206.059 75.7431 206.423 75.5298Z" fill="#087CC1"/>
<path d="M193.412 77.0229C188.706 80.2474 186.862 81.728 186.862 81.728C186.862 81.728 189.02 82.7819 189.698 83.1081L196.636 77.3114C196.636 77.3114 199.334 75.329 200.425 74.7519C200.425 74.7519 197.439 74.2751 193.412 77.0229Z" fill="#087CC1"/>
<path d="M186.937 74.0618C186.85 74.0994 186.774 74.1245 186.686 74.1622C186.398 74.2876 186.097 74.4005 185.808 74.5386L185.645 74.6138C185.683 75.856 185.607 78.1646 184.779 80.3353L185.971 80.9501C186.962 78.3654 186.988 75.4294 186.937 74.0618Z" fill="#087CC1"/>
<path d="M185.62 73.8234C186.046 73.6352 186.486 73.4595 186.912 73.2839C187.665 72.9702 188.393 72.6314 189.045 72.117C190.049 71.3391 190.789 70.373 191.191 69.1685C191.517 68.2023 191.793 67.2111 192.094 66.2199C192.056 66.2074 192.031 66.1948 191.994 66.1697C184.892 68.3404 185.582 73.8359 185.582 73.8359C185.595 73.8359 185.607 73.8359 185.62 73.8234Z" fill="#087CC1"/>
<path d="M184.817 73.7105C184.541 72.7569 184.014 71.8912 183.186 71.1509C182.521 70.5612 181.818 69.984 181.128 69.4069C181.103 69.4194 181.078 69.4445 181.053 69.457C180.3 74.9526 184.992 76.6465 184.992 76.6465C184.98 75.6678 185.105 74.7017 184.817 73.7105Z" fill="#087CC1"/>
<path d="M188.581 100.021C187.765 99.9211 186.937 99.896 186.109 99.9838C184.804 100.109 183.625 100.511 182.471 101.088C181.253 101.69 179.974 102.192 178.669 102.543C177.113 102.97 175.394 102.794 173.926 102.104C173.838 102.067 173.75 102.18 173.826 102.242C174.553 102.983 175.545 103.61 177.1 104.137C178.907 104.739 180.413 104.438 181.467 104.137C182.797 103.76 183.976 102.845 185.118 102.104C185.858 101.615 186.561 100.975 187.452 100.762C187.853 100.661 188.28 100.686 188.719 100.749C189.133 100.574 189.547 100.436 189.986 100.31C189.522 100.185 189.07 100.084 188.581 100.021Z" fill="#087CC1"/>
<path d="M190.287 101.213C191.881 101.841 193.261 103.083 194.503 104.225C194.654 104.363 196.071 105.743 196.373 106.094C196.41 106.132 196.46 106.132 196.498 106.094L197.489 105.103C197.527 105.065 197.527 105.003 197.489 104.978C197.1 104.614 195.055 102.794 192.897 101.577C192.358 101.276 191.805 101 191.253 100.762C190.814 100.824 190.388 100.95 189.974 101.088C190.074 101.138 190.187 101.176 190.287 101.213Z" fill="#087CC1"/>
<path d="M177.552 101.439C179.898 101.289 182.546 100.473 183.424 100.185C183.512 100.159 183.499 100.034 183.412 100.009C180.149 99.2059 178.493 97.2611 177.552 96.1695C176.523 94.9776 175.407 94.2122 174.93 93.9111C174.855 93.8609 174.767 93.9362 174.804 94.024C175.118 94.7768 176.084 96.9851 176.962 97.9888C177.577 98.704 178.418 99.1934 178.995 99.4945C179.083 99.5447 179.045 99.6827 178.945 99.6576C176.511 99.2435 175.545 99.4694 173.211 99.1934C171.316 98.9675 169.911 98.0892 169.321 97.6375C169.246 97.5748 169.146 97.6752 169.196 97.7505C169.397 98.0767 169.823 98.6413 170.664 99.4819C172.132 100.988 174.127 101.653 177.552 101.439Z" fill="#087CC1"/>
<path d="M176.272 98.6287C176.36 98.6413 176.423 98.5409 176.36 98.4782C175.394 97.5246 174.478 95.8057 173.637 93.1708C172.947 90.9625 171.53 89.206 170.927 88.5284C170.865 88.4531 170.752 88.5159 170.777 88.6163C171.015 89.4945 171.216 91.2762 171.542 93.0328C171.931 95.1281 173.826 96.8973 174.139 97.1858C173.876 96.96 172.458 95.7931 169.434 94.3879C166.799 93.1708 165.319 91.6903 164.717 91.0127C164.654 90.9375 164.528 91.0127 164.566 91.1006C164.792 91.6903 165.331 92.8195 166.511 94.3879C168.318 96.7969 170.789 97.8508 172.433 98.0014C173.725 98.1018 175.545 98.4782 176.272 98.6287Z" fill="#087CC1"/>
<path d="M167.414 92.1294C168.594 92.6438 170.225 93.7605 170.902 94.2373C170.978 94.2875 171.078 94.2122 171.028 94.1244C170.388 92.8571 169.786 90.6991 169.836 87.9638C169.886 85.7054 169.221 83.6477 168.895 82.7819C168.857 82.6941 168.732 82.7066 168.719 82.807C168.656 83.723 168.318 85.4544 168.029 87.1859C167.778 88.6665 168.217 90.0341 168.631 90.9124C169.083 91.5774 169.208 91.9412 169.208 91.9412C169.208 91.9412 168.92 91.5523 168.631 90.9124C168.129 90.1846 167.251 89.0931 165.708 87.7505C163.625 85.9187 162.897 84.1244 162.646 83.2336C162.621 83.1332 162.471 83.1583 162.471 83.2587C162.458 83.9237 162.559 85.1157 163.136 86.8848C164.102 89.7329 165.896 91.4519 167.414 92.1294Z" fill="#087CC1"/>
<path d="M168.644 90.9124C168.945 91.5523 169.221 91.9412 169.221 91.9412C169.221 91.9412 169.095 91.5774 168.644 90.9124Z" fill="#087CC1"/>
<path d="M167.088 88.014C167.151 88.0642 167.239 88.0266 167.239 87.9387C167.188 87.2486 167.138 85.0153 168.154 82.5686C169.096 80.2725 169.158 77.6879 169.146 76.797C169.146 76.7092 169.02 76.6715 168.983 76.7594C168.569 77.4871 167.452 79.4319 167.213 79.7957C166.912 80.2474 166.461 81.2888 166.235 82.2926C166.109 82.8697 166.097 83.5222 166.109 84.0617C166.109 84.1746 165.959 84.1872 165.934 84.0868C165.708 83.1834 165.407 81.9915 165.193 81.339C164.905 80.4482 164.29 79.3817 163.926 78.265C163.562 77.186 163.311 76.4457 163.198 75.7305C163.186 75.6301 163.048 75.6301 163.023 75.7305C162.747 77.0981 162.17 80.8246 163.625 83.4218C165.156 86.1821 166.611 87.5874 167.088 88.014Z" fill="#087CC1"/>
<path d="M165.344 79.319C165.444 79.6828 165.557 80.2474 165.645 80.7242C165.658 80.812 165.783 80.8246 165.821 80.7368C166.486 79.0304 168.318 76.3579 168.368 76.2826C170.162 74.0116 170.551 72.2174 170.626 71.4646C170.639 71.3767 170.513 71.3265 170.463 71.4018C170.187 71.841 169.547 72.6816 168.318 73.6226C167.101 74.5511 166.473 75.9313 166.185 76.7343C166.147 76.8347 166.009 76.8096 166.009 76.6966C166.034 75.6803 166.034 73.723 165.771 71.9664C165.545 70.4232 165.758 69.2814 165.959 68.6415C165.984 68.5411 165.858 68.4784 165.808 68.5662C165.57 68.8924 165.256 69.3316 165.03 69.6829C164.516 70.511 164.252 71.5524 164.102 72.506C163.939 73.4595 163.926 74.4507 164.114 75.3918C164.378 76.7594 164.968 78.0015 165.344 79.319Z" fill="#087CC1"/>
<path d="M166.498 74.1245C166.498 74.2123 166.599 74.2374 166.661 74.1747C166.988 73.7857 167.828 72.8322 168.995 71.8159C170.476 70.5486 172.834 69.0304 172.972 66.5587C172.972 66.4709 172.86 66.4332 172.809 66.496C172.533 66.8849 171.906 67.6503 170.752 68.4658C169.371 69.4445 168.481 70.2726 167.891 71.2262C167.841 71.314 167.703 71.2513 167.728 71.1634C167.979 70.1346 168.443 68.1647 168.581 67.5624C168.769 66.7092 169.083 65.4922 169.886 64.6766C169.949 64.6139 169.886 64.501 169.786 64.5261C169.146 64.777 167.929 65.3793 167.251 66.5587C166.297 68.2023 166.461 70.7494 166.461 71.1258C166.461 71.4395 166.486 73.4344 166.498 74.1245Z" fill="#087CC1"/>
<path d="M169.246 68.7795C170.225 67.8636 172.144 66.4332 173.035 65.1911C174.039 63.7858 175.093 62.368 175.482 61.841C175.532 61.7783 175.469 61.6779 175.382 61.703C174.892 61.8536 173.7 62.3053 171.919 63.4972C169.911 64.8398 169.246 67.8008 169.096 68.7042C169.083 68.7795 169.183 68.8422 169.246 68.7795Z" fill="#087CC1"/>
<path d="M205.934 102.142C204.466 102.832 202.747 103.008 201.191 102.581C199.873 102.217 198.606 101.728 197.389 101.126C196.222 100.548 195.055 100.147 193.75 100.021C192.935 99.9462 192.094 99.9587 191.279 100.059C190.84 100.109 190.4 100.21 189.986 100.323C190.413 100.448 190.84 100.599 191.254 100.774C191.655 100.724 192.057 100.712 192.42 100.799C193.311 101.013 194.014 101.653 194.754 102.142C195.896 102.895 197.088 103.798 198.405 104.175C199.459 104.476 200.965 104.777 202.772 104.175C204.328 103.66 205.319 103.02 206.046 102.28C206.109 102.217 206.021 102.104 205.934 102.142Z" fill="#087CC1"/>
<path d="M186.975 101.615C184.817 102.832 182.772 104.651 182.383 105.015C182.345 105.053 182.345 105.103 182.383 105.141L183.374 106.132C183.412 106.169 183.474 106.169 183.499 106.132C183.801 105.781 185.218 104.4 185.369 104.262C186.611 103.121 187.991 101.878 189.585 101.251C189.71 101.201 189.848 101.151 189.974 101.101C189.585 100.962 189.146 100.837 188.719 100.762C188.117 101 187.54 101.301 186.975 101.615Z" fill="#087CC1"/>
<path d="M188.719 100.762C189.146 100.837 189.585 100.95 189.974 101.101C190.375 100.962 190.814 100.837 191.253 100.774C190.839 100.599 190.413 100.448 189.986 100.323C189.547 100.436 189.12 100.586 188.719 100.762Z" fill="#087CC1"/>
<path d="M210.563 97.6626C209.974 98.1018 208.568 98.9926 206.674 99.2185C204.34 99.4945 203.386 99.2686 200.94 99.6827C200.839 99.6952 200.789 99.5572 200.89 99.5196C201.467 99.231 202.295 98.7291 202.922 98.0139C203.788 97.0227 204.767 94.8019 205.08 94.0491C205.118 93.9738 205.03 93.8985 204.955 93.9362C204.478 94.2373 203.361 95.0152 202.332 96.1946C201.391 97.2862 199.723 99.231 196.473 100.034C196.385 100.059 196.385 100.172 196.461 100.21C197.339 100.498 199.986 101.314 202.332 101.464C205.745 101.678 207.74 101.013 209.246 99.507C210.087 98.6664 210.513 98.1018 210.714 97.7756C210.739 97.7003 210.639 97.5999 210.563 97.6626Z" fill="#087CC1"/>
<path d="M215.143 91.0253C214.541 91.7028 213.06 93.1834 210.425 94.4004C207.389 95.8057 205.971 96.9726 205.72 97.1984C206.034 96.9098 207.928 95.1407 208.317 93.0453C208.644 91.2888 208.844 89.5071 209.083 88.6288C209.108 88.541 208.995 88.4783 208.932 88.541C208.33 89.2311 206.912 90.9876 206.222 93.1834C205.394 95.8182 204.465 97.5372 203.499 98.4907C203.437 98.5535 203.499 98.6538 203.587 98.6413C204.315 98.4782 206.134 98.1143 207.426 97.9889C209.083 97.8383 211.554 96.7843 213.349 94.3753C214.528 92.7944 215.068 91.6777 215.293 91.088C215.331 91.0127 215.218 90.95 215.143 91.0253Z" fill="#087CC1"/>
<path d="M217.376 83.2713C217.376 83.1709 217.226 83.1458 217.201 83.2462C216.95 84.137 216.222 85.9438 214.139 87.7631C212.596 89.1181 211.718 90.1972 211.216 90.9249C210.915 91.5648 210.639 91.9538 210.639 91.9538C210.639 91.9538 210.764 91.5899 211.216 90.9249C211.63 90.0466 212.056 88.679 211.818 87.1985C211.529 85.467 211.191 83.7355 211.128 82.8196C211.115 82.7192 210.99 82.7066 210.952 82.7945C210.626 83.6602 209.961 85.7054 210.011 87.9764C210.061 90.7116 209.472 92.8697 208.819 94.1369C208.782 94.2248 208.87 94.3001 208.945 94.2499C209.622 93.7731 211.253 92.6689 212.433 92.142C213.951 91.4644 215.745 89.7455 216.686 86.8973C217.276 85.1408 217.376 83.9363 217.376 83.2713Z" fill="#087CC1"/>
<path d="M211.216 90.9374C210.764 91.6024 210.639 91.9663 210.639 91.9663C210.639 91.9663 210.915 91.5899 211.216 90.9374Z" fill="#087CC1"/>
<path d="M213.938 84.0994C213.913 84.1997 213.763 84.1872 213.763 84.0743C213.788 83.5222 213.763 82.8823 213.637 82.3051C213.411 81.3014 212.96 80.26 212.659 79.8083C212.42 79.4444 211.304 77.4996 210.889 76.7719C210.839 76.6966 210.726 76.7217 210.726 76.8096C210.714 77.7004 210.777 80.2851 211.718 82.5812C212.734 85.0278 212.671 87.2737 212.634 87.9513C212.634 88.0266 212.721 88.0767 212.784 88.0266C213.261 87.6 214.716 86.1947 216.272 83.4093C217.715 80.812 217.15 77.0856 216.874 75.718C216.849 75.6176 216.711 75.6301 216.699 75.718C216.586 76.4332 216.335 77.186 215.971 78.2525C215.595 79.3691 214.992 80.4356 214.704 81.3265C214.465 82.0166 214.164 83.196 213.938 84.0994Z" fill="#087CC1"/>
<path d="M211.554 73.6603C210.325 72.7193 209.685 71.8786 209.409 71.4395C209.359 71.3642 209.233 71.4018 209.246 71.5022C209.321 72.255 209.71 74.0492 211.504 76.3202C211.554 76.4081 213.386 79.0806 214.051 80.7744C214.089 80.8622 214.202 80.8497 214.227 80.7619C214.315 80.2851 214.415 79.7205 214.528 79.3566C214.904 78.0266 215.494 76.797 215.77 75.4419C215.958 74.4884 215.946 73.5097 215.783 72.5561C215.62 71.6026 215.356 70.5612 214.854 69.7331C214.628 69.3692 214.327 68.9426 214.076 68.6164C214.014 68.5411 213.888 68.6038 213.926 68.6917C214.127 69.3316 214.34 70.4733 214.114 72.0166C213.85 73.7732 213.85 75.7305 213.876 76.7468C213.876 76.8472 213.738 76.8723 213.7 76.7845C213.399 75.9689 212.759 74.5887 211.554 73.6603Z" fill="#087CC1"/>
<path d="M211.278 67.6126C211.416 68.2149 211.881 70.1722 212.132 71.2136C212.157 71.314 212.019 71.3642 211.968 71.2763C211.366 70.3228 210.475 69.4947 209.108 68.516C207.953 67.7005 207.326 66.9351 207.05 66.5461C207 66.4709 206.887 66.5085 206.887 66.5963C207.025 69.0681 209.384 70.5737 210.864 71.8535C212.044 72.8698 212.872 73.8234 213.198 74.2123C213.248 74.2751 213.349 74.2374 213.361 74.1622C213.374 73.4595 213.411 71.4771 213.411 71.1634C213.411 70.787 213.575 68.24 212.621 66.5963C211.943 65.4295 210.726 64.8147 210.086 64.5637C209.999 64.5261 209.923 64.639 209.986 64.7143C210.777 65.5424 211.09 66.7594 211.278 67.6126Z" fill="#087CC1"/>
<path d="M206.824 65.2287C207.715 66.4709 209.635 67.9012 210.614 68.8171C210.676 68.8799 210.777 68.8171 210.764 68.7419C210.614 67.8385 209.949 64.8774 207.941 63.5349C206.159 62.3429 204.967 61.9038 204.478 61.7406C204.39 61.7156 204.328 61.8034 204.378 61.8787C204.767 62.3931 205.821 63.8234 206.824 65.2287Z" fill="#087CC1"/>
<path d="M272.106 80.7995C272.269 81.6151 272.357 82.4682 272.357 83.334C272.357 86.9224 270.902 90.1846 268.543 92.5435C266.184 94.9023 262.934 96.3578 259.333 96.3578C255.732 96.3578 252.483 94.9023 250.124 92.5435C247.765 90.1846 246.31 86.935 246.31 83.334C246.31 79.7456 247.765 76.4833 250.124 74.1245C250.914 73.3341 251.793 72.6565 252.759 72.0919V77.9262C251.542 79.3942 250.814 81.2763 250.814 83.334C250.814 85.6803 251.768 87.8133 253.311 89.3565C254.854 90.8998 256.975 91.8534 259.333 91.8534C261.68 91.8534 263.813 90.8998 265.356 89.3565C266.899 87.8133 267.853 85.6928 267.853 83.334C267.853 82.4557 267.715 81.6025 267.464 80.7995H272.106Z" fill="#EFBA60"/>
<path d="M281.215 80.7995C281.316 81.6276 281.366 82.4808 281.366 83.334C281.366 89.4193 278.894 94.9274 274.917 98.9048C270.927 102.895 265.419 105.354 259.346 105.354C253.273 105.354 247.752 102.882 243.775 98.9048C239.785 94.9148 237.326 89.4067 237.326 83.334C237.326 77.2487 239.798 71.7406 243.775 67.7632C246.259 65.2789 249.346 63.3843 252.784 62.3053V67.0857C250.588 67.9765 248.618 69.2939 246.962 70.9376C243.788 74.112 241.83 78.4909 241.83 83.3214C241.83 88.1646 243.788 92.5435 246.962 95.7053C250.136 98.8797 254.515 100.837 259.346 100.837C264.176 100.837 268.568 98.8797 271.73 95.7053C274.904 92.5309 276.861 88.152 276.861 83.3214C276.861 82.4557 276.799 81.6151 276.673 80.787H281.215V80.7995Z" fill="#CC7C4A"/>
<mask id="mask1_704_491" style="mask-type:luminance" maskUnits="userSpaceOnUse" x="257" y="55" width="20" height="32">
<path d="M275.895 55.0657C275.557 55.0657 275.23 55.0657 274.892 55.0782H274.866C263.913 55.3166 257.276 59.3316 257.276 70.7368V82.5561C257.276 82.9952 257.276 83.4469 257.276 83.8986C257.276 83.9488 257.276 83.999 257.276 84.0617C257.276 85.1909 258.192 86.1194 259.333 86.1194C260.463 86.1194 261.391 85.2035 261.391 84.0617V84.0366V76.5461C261.378 75.7556 261.378 74.9652 261.391 74.1872V74.1747C261.542 67.5875 263.085 61.3642 270.889 61.3391C270.952 61.3391 270.989 61.3642 271.002 61.3893C271.015 61.4144 271.015 61.4521 271.002 61.5023C270.989 62.4684 270.851 63.3216 270.613 64.0995V64.112C269.383 69.1057 263.449 69.5323 263.449 73.7105V75.3667C266.272 72.5812 269.735 72.2048 272.395 70.1095C274.841 68.1772 276.447 65.4922 276.447 57.4496C276.422 56.22 276.372 55.0657 276.372 55.0657H276.033C275.996 55.0782 275.946 55.0657 275.895 55.0657Z" fill="white"/>
</mask>
<g mask="url(#mask1_704_491)">
<path d="M241.742 70.5988L266.849 45.4923L291.955 70.5988L266.849 95.6927L241.742 70.5988Z" fill="url(#paint10_linear_704_491)"/>
</g>
<path d="M295.28 80.6113C296.184 80.9626 297.162 81.1383 298.229 81.1383C299.358 81.1383 300.362 80.9375 301.253 80.5235C302.131 80.1094 302.871 79.5573 303.473 78.8422C304.076 78.127 304.515 77.2989 304.791 76.3704C305.079 75.4419 305.192 74.4382 305.155 73.3968H298.342V75.6427H302.307C302.194 76.0693 302.018 76.4457 301.792 76.8096C301.566 77.1609 301.29 77.4746 300.964 77.7506C300.638 78.0266 300.249 78.2399 299.81 78.3905C299.371 78.541 298.869 78.6163 298.304 78.6163C297.451 78.6163 296.686 78.4156 296.008 78.0266C295.33 77.6377 294.791 77.073 294.402 76.3579C294.013 75.6427 293.812 74.8146 293.812 73.861C293.812 72.8949 294.013 72.0668 294.415 71.3767C294.816 70.6741 295.356 70.1471 296.046 69.7707C296.736 69.3943 297.489 69.2061 298.317 69.2061C299.195 69.2061 299.948 69.3943 300.563 69.7707C301.177 70.1471 301.654 70.6364 301.993 71.2387L304.402 69.8334C303.975 69.1935 303.473 68.6289 302.896 68.1647C302.307 67.7005 301.642 67.3366 300.889 67.0731C300.136 66.8096 299.283 66.6842 298.329 66.6842C297.263 66.6842 296.272 66.8598 295.368 67.1986C294.465 67.5373 293.674 68.0267 292.997 68.654C292.332 69.2814 291.805 70.0467 291.428 70.9376C291.052 71.8284 290.864 72.8071 290.864 73.8736C290.864 74.9401 291.039 75.9187 291.403 76.8096C291.767 77.7004 292.282 78.4783 292.947 79.1182C293.599 79.7455 294.377 80.2474 295.28 80.6113Z" fill="#1B4875"/>
<path d="M313.549 73.1458C313.298 73.4721 312.997 73.8359 312.645 74.2123L306.372 80.7619H317.476V78.1772H311.692L315.28 74.7769C315.857 74.25 316.322 73.6603 316.685 73.0204C317.037 72.3805 317.212 71.6904 317.212 70.9501C317.212 70.4482 317.112 69.9464 316.911 69.4445C316.711 68.9426 316.397 68.4909 315.983 68.0769C315.569 67.6628 315.054 67.324 314.427 67.0731C313.8 66.8222 313.072 66.6842 312.244 66.6842C311.127 66.6842 310.186 66.9225 309.408 67.3868C308.643 67.851 308.053 68.4784 307.664 69.2688C307.275 70.0593 307.074 70.9501 307.074 71.9288H309.835C309.835 71.3767 309.935 70.8874 310.123 70.4733C310.312 70.0467 310.588 69.7205 310.926 69.4947C311.278 69.2688 311.692 69.1434 312.181 69.1434C312.52 69.1434 312.821 69.1935 313.084 69.3065C313.348 69.4194 313.574 69.57 313.749 69.7456C313.938 69.9338 314.076 70.1346 314.164 70.373C314.251 70.6114 314.302 70.8497 314.302 71.1007C314.302 71.452 314.239 71.8033 314.101 72.1295C313.988 72.4934 313.8 72.8196 313.549 73.1458Z" fill="#1B4875"/>
<path d="M327.338 75.7682C327.2 76.3453 327.012 76.8347 326.761 77.2487C326.51 77.6628 326.209 77.9764 325.87 78.2023C325.531 78.4281 325.142 78.541 324.703 78.541C324.276 78.541 323.9 78.4281 323.561 78.2023C323.222 77.9764 322.921 77.6628 322.67 77.2487C322.419 76.8347 322.231 76.3453 322.093 75.7682C321.968 75.191 321.892 74.5636 321.892 73.861C321.892 73.1584 321.955 72.531 322.093 71.9539C322.231 71.3767 322.419 70.8874 322.67 70.4733C322.921 70.0593 323.222 69.7456 323.561 69.5198C323.9 69.2939 324.289 69.181 324.703 69.181C325.142 69.181 325.531 69.2939 325.87 69.5198C326.209 69.7456 326.51 70.0593 326.761 70.4733C327.012 70.8874 327.2 71.3767 327.338 71.9539C327.463 72.531 327.538 73.1584 327.538 73.861C327.538 74.5636 327.476 75.191 327.338 75.7682ZM327.651 67.5875C326.823 66.9978 325.845 66.7092 324.715 66.7092C323.624 66.7092 322.658 66.9978 321.83 67.5875C320.989 68.1772 320.349 68.9928 319.872 70.0593C319.408 71.1258 319.17 72.393 319.17 73.8485C319.17 75.3039 319.408 76.5712 319.872 77.6377C320.337 78.7042 320.989 79.5322 321.83 80.1094C322.67 80.6991 323.624 80.9877 324.715 80.9877C325.845 80.9877 326.823 80.6991 327.651 80.1094C328.48 79.5197 329.119 78.7042 329.584 77.6377C330.048 76.5712 330.274 75.3039 330.274 73.8485C330.274 72.393 330.048 71.1258 329.584 70.0593C329.132 69.0053 328.48 68.1772 327.651 67.5875Z" fill="#1B4875"/>
<path d="M345.192 73.3842V75.6301H349.157C349.044 76.0567 348.868 76.4332 348.643 76.797C348.417 77.1483 348.141 77.462 347.814 77.738C347.488 78.0141 347.099 78.2274 346.66 78.3779C346.221 78.5285 345.719 78.6038 345.154 78.6038C344.301 78.6038 343.536 78.403 342.858 78.0141C342.181 77.6251 341.641 77.0605 341.252 76.3453C340.863 75.6301 340.663 74.802 340.663 73.8485C340.663 72.8824 340.863 72.0543 341.265 71.3642C341.666 70.6615 342.206 70.1346 342.896 69.7582C343.586 69.3818 344.339 69.1935 345.167 69.1935C346.045 69.1935 346.798 69.3818 347.413 69.7582C348.028 70.1346 348.505 70.6239 348.843 71.2262L351.252 69.8209C350.826 69.181 350.324 68.6164 349.747 68.1522C349.169 67.6879 348.492 67.3241 347.739 67.0606C346.986 66.7971 346.133 66.6716 345.18 66.6716C344.113 66.6716 343.122 66.8473 342.218 67.186C341.315 67.5248 340.525 68.0141 339.847 68.6415C339.182 69.2688 338.655 70.0342 338.279 70.925C337.902 71.8159 337.714 72.7945 337.714 73.861C337.714 74.9275 337.89 75.9062 338.254 76.797C338.617 77.6878 339.132 78.4658 339.797 79.1057C340.462 79.7456 341.24 80.2474 342.143 80.6113C343.047 80.9626 344.025 81.1383 345.092 81.1383C346.221 81.1383 347.225 80.9375 348.116 80.5235C348.994 80.1094 349.734 79.5573 350.336 78.8422C350.939 78.127 351.378 77.2989 351.654 76.3704C351.942 75.4419 352.055 74.4382 352.018 73.3968H345.192V73.3842Z" fill="#1B4875"/>
<path d="M362.645 78.3026H357.137V66.9476H354.314V80.7619H362.645V78.3026Z" fill="#1B4875"/>
<path d="M373.937 76.2073C373.574 76.8848 373.072 77.4244 372.432 77.8259C371.792 78.2148 371.039 78.4156 370.186 78.4156C369.333 78.4156 368.58 78.2148 367.94 77.8259C367.3 77.4369 366.786 76.8974 366.422 76.2073C366.058 75.5172 365.87 74.7393 365.87 73.861C365.87 72.9827 366.058 72.1923 366.422 71.5147C366.786 70.8247 367.3 70.2851 367.94 69.8962C368.58 69.5072 369.333 69.3065 370.186 69.3065C371.052 69.3065 371.817 69.5072 372.457 69.8962C373.097 70.2851 373.599 70.8247 373.963 71.5147C374.314 72.1923 374.489 72.9827 374.489 73.861C374.489 74.7393 374.301 75.5172 373.937 76.2073ZM375.405 68.6917C374.74 68.0518 373.963 67.5499 373.084 67.1986C372.206 66.8473 371.24 66.6716 370.186 66.6716C369.144 66.6716 368.178 66.8473 367.3 67.1986C366.409 67.5499 365.644 68.0392 364.979 68.6917C364.326 69.3316 363.812 70.0969 363.436 70.9752C363.072 71.8535 362.884 72.8196 362.884 73.861C362.884 74.9024 363.059 75.8685 363.411 76.7468C363.762 77.6377 364.276 78.403 364.929 79.068C365.581 79.7205 366.359 80.2349 367.25 80.5987C368.141 80.9626 369.119 81.1383 370.186 81.1383C371.252 81.1383 372.231 80.9626 373.122 80.5987C374.013 80.2349 374.778 79.733 375.431 79.068C376.083 78.4156 376.585 77.6377 376.949 76.7468C377.313 75.856 377.488 74.8899 377.488 73.861C377.488 72.8071 377.313 71.841 376.949 70.9752C376.572 70.0969 376.07 69.3316 375.405 68.6917Z" fill="#274271"/>
<path d="M386.497 77.6502C386.284 77.9513 385.982 78.1772 385.593 78.3152C385.217 78.4532 384.79 78.5285 384.314 78.5285H382.494V74.5762H384.891C385.029 74.5887 385.167 74.6138 385.292 74.6389C385.593 74.7142 385.857 74.8271 386.095 74.9903C386.321 75.1534 386.497 75.3541 386.622 75.6051C386.748 75.8434 386.811 76.1446 386.811 76.4833C386.811 76.9601 386.71 77.3491 386.497 77.6502ZM382.494 69.2061H384.013C384.627 69.2061 385.117 69.3441 385.481 69.6201C385.844 69.8962 386.02 70.2977 386.02 70.8247C386.02 71.1634 385.932 71.4646 385.769 71.7155C385.606 71.9664 385.368 72.1546 385.066 72.2927C384.765 72.4181 384.414 72.4934 384 72.4934H382.482V69.2061H382.494ZM389.295 75.0781C389.006 74.5888 388.63 74.1872 388.141 73.8861C387.752 73.6477 387.338 73.447 386.873 73.309V73.2964C387.488 73.0455 387.977 72.6942 388.341 72.2299C388.73 71.728 388.931 71.1258 388.931 70.4357C388.931 69.6452 388.73 68.9928 388.341 68.4784C387.952 67.9639 387.4 67.575 386.698 67.3241C385.995 67.0731 385.192 66.9351 384.276 66.9351H379.684V80.7493H384.577C385.606 80.7493 386.509 80.6113 387.275 80.3353C388.053 80.0592 388.655 79.6326 389.082 79.0555C389.508 78.4783 389.721 77.738 389.721 76.8221C389.721 76.1571 389.571 75.5674 389.295 75.0781Z" fill="#1B4875"/>
<path d="M397.35 71.4269L399.069 75.3918H395.631L397.35 71.4269ZM399.709 77.6251L401.164 80.7619H404.364L397.363 66.1446L390.361 80.7619H393.536L394.979 77.6251H399.709Z" fill="#1B4875"/>
<path d="M414.188 78.3026H408.68V66.9476H405.857V80.7619H414.188V78.3026Z" fill="#1B4875"/>
<path d="M294.465 86.9099H291.642V100.724H299.973V98.2649H294.465V86.9099Z" fill="#1B4875"/>
<path d="M305.983 95.354L307.714 91.3891L309.433 95.354H305.983ZM300.701 100.724H303.875L305.318 97.5873H310.061L311.516 100.724H314.716L307.714 86.1069L300.701 100.724Z" fill="#1B4875"/>
<path d="M326.033 95.4794L316.209 86.2198V100.724H318.931V92.167L328.756 101.414V86.9099H326.033V95.4794Z" fill="#1B4875"/>
<path d="M340.449 95.7806C340.224 96.3201 339.897 96.7718 339.496 97.1357C339.094 97.487 338.618 97.7505 338.078 97.9136C337.539 98.0767 336.961 98.1645 336.359 98.1645H334.64V89.482H336.359C336.961 89.482 337.539 89.5698 338.078 89.7329C338.618 89.896 339.094 90.1595 339.496 90.5109C339.897 90.8622 340.224 91.3139 340.449 91.8659C340.675 92.418 340.801 93.0704 340.801 93.8358C340.801 94.5761 340.688 95.2411 340.449 95.7806ZM340.261 87.7631C339.182 87.1984 337.915 86.9099 336.46 86.9099H334.64H333.574H331.754V100.724H333.574H334.64H336.46C337.902 100.724 339.17 100.436 340.261 99.8709C341.353 99.3063 342.193 98.5033 342.796 97.4744C343.398 96.4456 343.699 95.216 343.699 93.8107C343.699 92.4054 343.398 91.1884 342.796 90.147C342.181 89.1307 341.34 88.3277 340.261 87.7631Z" fill="#1B4875"/>
<path d="M354.665 86.9099H351.804V100.724H354.665V86.9099Z" fill="#1B4875"/>
<path d="M367.476 95.4794L357.651 86.2198V100.724H360.374V92.167L370.198 101.414V86.9099H367.476V95.4794Z" fill="#1B4875"/>
<path d="M376.058 86.9099H373.197V100.724H376.058V86.9099Z" fill="#1B4875"/>
<path d="M377.664 89.4569H381.365V100.724H384.188V89.4569H387.927V86.9099H377.664V89.4569Z" fill="#1B4875"/>
<path d="M392.381 86.9099H389.521V100.724H392.381V86.9099Z" fill="#1B4875"/>
<path d="M399.157 95.354L400.888 91.3891L402.607 95.354H399.157ZM393.887 100.724H397.061L398.504 97.5873H403.247L404.702 100.724H407.902L400.901 86.1069L393.887 100.724Z" fill="#1B4875"/>
<path d="M406.635 89.4569H410.336V100.724H413.159V89.4569H416.886V86.9099H406.635V89.4569Z" fill="#1B4875"/>
<path d="M421.352 86.9099H418.492V100.724H421.352V86.9099Z" fill="#1B4875"/>
<path d="M429.859 95.9061L426.108 86.9099H422.845L429.859 101.54L436.86 86.9099H433.586L429.859 95.9061Z" fill="#1B4875"/>
<path d="M441.089 86.9099H440.173H438.366V100.724H440.173H441.089H447.137V98.3402H441.089V94.5635H446.748V92.2172H441.089V89.2938H447.137V86.9099H441.089Z" fill="#1B4875"/>
<path d="M227.376 61.4897V105.944" stroke="#087CC1" stroke-width="0.5"/>
<path d="M165.725 41V29.64H167.165V41H165.725ZM176.905 41H175.497V36.328C175.497 35.4427 175.359 34.7973 175.081 34.392C174.815 33.976 174.404 33.768 173.849 33.768C173.465 33.768 173.081 33.864 172.697 34.056C172.324 34.248 171.988 34.5093 171.689 34.84C171.401 35.16 171.193 35.5333 171.065 35.96V41H169.657V32.648H170.937V34.44C171.161 34.0453 171.449 33.704 171.801 33.416C172.153 33.128 172.553 32.904 173.001 32.744C173.449 32.584 173.919 32.504 174.409 32.504C174.889 32.504 175.289 32.5947 175.609 32.776C175.94 32.9467 176.196 33.192 176.377 33.512C176.569 33.8213 176.703 34.1893 176.777 34.616C176.863 35.0427 176.905 35.5067 176.905 36.008V41ZM186.322 29.64H187.538L192.178 41H190.642L189.298 37.672H184.53L183.202 41H181.666L186.322 29.64ZM188.978 36.552L186.93 31.304L184.818 36.552H188.978ZM196.209 41.16C195.516 41.16 194.865 41.048 194.257 40.824C193.649 40.5893 193.126 40.2427 192.689 39.784L193.233 38.792C193.713 39.24 194.193 39.56 194.673 39.752C195.153 39.944 195.644 40.04 196.145 40.04C196.721 40.04 197.19 39.9333 197.553 39.72C197.916 39.496 198.097 39.1707 198.097 38.744C198.097 38.4347 198.001 38.2053 197.809 38.056C197.628 37.9067 197.366 37.784 197.025 37.688C196.684 37.5813 196.278 37.464 195.809 37.336C195.233 37.1653 194.748 36.984 194.353 36.792C193.958 36.6 193.66 36.36 193.457 36.072C193.254 35.784 193.153 35.4213 193.153 34.984C193.153 34.4507 193.292 34.0027 193.569 33.64C193.846 33.2667 194.225 32.984 194.705 32.792C195.196 32.6 195.75 32.504 196.369 32.504C196.988 32.504 197.548 32.6 198.049 32.792C198.55 32.984 198.982 33.2667 199.345 33.64L198.705 34.616C198.374 34.2747 198.012 34.024 197.617 33.864C197.222 33.6933 196.78 33.608 196.289 33.608C196.001 33.608 195.718 33.6453 195.441 33.72C195.164 33.784 194.934 33.9067 194.753 34.088C194.572 34.2587 194.481 34.504 194.481 34.824C194.481 35.0907 194.55 35.304 194.689 35.464C194.838 35.6133 195.052 35.7413 195.329 35.848C195.617 35.9547 195.964 36.072 196.369 36.2C196.998 36.3813 197.542 36.5627 198.001 36.744C198.47 36.9253 198.833 37.16 199.089 37.448C199.345 37.736 199.473 38.136 199.473 38.648C199.473 39.4373 199.174 40.056 198.577 40.504C197.98 40.9413 197.19 41.16 196.209 41.16ZM204.021 41.16C203.328 41.16 202.677 41.048 202.069 40.824C201.461 40.5893 200.939 40.2427 200.501 39.784L201.045 38.792C201.525 39.24 202.005 39.56 202.485 39.752C202.965 39.944 203.456 40.04 203.957 40.04C204.533 40.04 205.003 39.9333 205.365 39.72C205.728 39.496 205.909 39.1707 205.909 38.744C205.909 38.4347 205.813 38.2053 205.621 38.056C205.44 37.9067 205.179 37.784 204.837 37.688C204.496 37.5813 204.091 37.464 203.621 37.336C203.045 37.1653 202.56 36.984 202.165 36.792C201.771 36.6 201.472 36.36 201.269 36.072C201.067 35.784 200.965 35.4213 200.965 34.984C200.965 34.4507 201.104 34.0027 201.381 33.64C201.659 33.2667 202.037 32.984 202.517 32.792C203.008 32.6 203.563 32.504 204.181 32.504C204.8 32.504 205.36 32.6 205.861 32.792C206.363 32.984 206.795 33.2667 207.157 33.64L206.517 34.616C206.187 34.2747 205.824 34.024 205.429 33.864C205.035 33.6933 204.592 33.608 204.101 33.608C203.813 33.608 203.531 33.6453 203.253 33.72C202.976 33.784 202.747 33.9067 202.565 34.088C202.384 34.2587 202.293 34.504 202.293 34.824C202.293 35.0907 202.363 35.304 202.501 35.464C202.651 35.6133 202.864 35.7413 203.141 35.848C203.429 35.9547 203.776 36.072 204.181 36.2C204.811 36.3813 205.355 36.5627 205.813 36.744C206.283 36.9253 206.645 37.16 206.901 37.448C207.157 37.736 207.285 38.136 207.285 38.648C207.285 39.4373 206.987 40.056 206.389 40.504C205.792 40.9413 205.003 41.16 204.021 41.16ZM212.618 41.16C211.989 41.16 211.418 41.048 210.906 40.824C210.394 40.5893 209.951 40.2747 209.578 39.88C209.205 39.4747 208.917 39.0107 208.714 38.488C208.511 37.9653 208.41 37.416 208.41 36.84C208.41 36.2533 208.511 35.6987 208.714 35.176C208.917 34.6533 209.205 34.1947 209.578 33.8C209.951 33.3947 210.394 33.08 210.906 32.856C211.429 32.6213 212.005 32.504 212.634 32.504C213.253 32.504 213.818 32.6213 214.33 32.856C214.842 33.08 215.285 33.3947 215.658 33.8C216.042 34.1947 216.335 34.6533 216.538 35.176C216.741 35.6987 216.842 36.2533 216.842 36.84C216.842 37.416 216.741 37.9653 216.538 38.488C216.335 39.0107 216.047 39.4747 215.674 39.88C215.301 40.2747 214.853 40.5893 214.33 40.824C213.818 41.048 213.247 41.16 212.618 41.16ZM209.85 36.856C209.85 37.432 209.973 37.9547 210.218 38.424C210.474 38.8933 210.81 39.2667 211.226 39.544C211.642 39.8107 212.106 39.944 212.618 39.944C213.13 39.944 213.594 39.8053 214.01 39.528C214.437 39.2507 214.773 38.8773 215.018 38.408C215.274 37.928 215.402 37.4 215.402 36.824C215.402 36.248 215.274 35.7253 215.018 35.256C214.773 34.7867 214.437 34.4133 214.01 34.136C213.594 33.8587 213.13 33.72 212.618 33.72C212.106 33.72 211.642 33.864 211.226 34.152C210.81 34.4293 210.474 34.8027 210.218 35.272C209.973 35.7413 209.85 36.2693 209.85 36.856ZM222.244 41.16C221.615 41.16 221.039 41.048 220.516 40.824C220.004 40.5893 219.556 40.2693 219.172 39.864C218.799 39.4587 218.505 38.9947 218.292 38.472C218.089 37.9493 217.988 37.3947 217.988 36.808C217.988 36.0187 218.164 35.2987 218.516 34.648C218.868 33.9973 219.364 33.48 220.004 33.096C220.644 32.7013 221.385 32.504 222.228 32.504C223.049 32.504 223.764 32.6907 224.372 33.064C224.991 33.4267 225.449 33.9173 225.748 34.536L224.372 34.968C224.159 34.5733 223.86 34.2693 223.476 34.056C223.092 33.832 222.665 33.72 222.196 33.72C221.684 33.72 221.215 33.8533 220.788 34.12C220.372 34.3867 220.041 34.7547 219.796 35.224C219.551 35.6827 219.428 36.2107 219.428 36.808C219.428 37.3947 219.551 37.928 219.796 38.408C220.052 38.8773 220.388 39.2507 220.804 39.528C221.231 39.8053 221.7 39.944 222.212 39.944C222.543 39.944 222.857 39.8853 223.156 39.768C223.465 39.6507 223.732 39.496 223.956 39.304C224.191 39.1013 224.351 38.8827 224.436 38.648L225.812 39.064C225.641 39.4693 225.38 39.832 225.028 40.152C224.687 40.4613 224.276 40.7067 223.796 40.888C223.327 41.0693 222.809 41.16 222.244 41.16ZM227.407 41V32.648H228.815V41H227.407ZM227.407 31.08V29.32H228.815V31.08H227.407ZM230.439 38.584C230.439 38.0507 230.588 37.592 230.887 37.208C231.196 36.8133 231.618 36.5093 232.151 36.296C232.684 36.0827 233.303 35.976 234.007 35.976C234.38 35.976 234.775 36.008 235.191 36.072C235.607 36.1253 235.975 36.2107 236.295 36.328V35.72C236.295 35.08 236.103 34.5787 235.719 34.216C235.335 33.8427 234.791 33.656 234.087 33.656C233.628 33.656 233.186 33.7413 232.759 33.912C232.343 34.072 231.9 34.3067 231.431 34.616L230.919 33.624C231.463 33.2507 232.007 32.9733 232.551 32.792C233.095 32.6 233.66 32.504 234.247 32.504C235.314 32.504 236.156 32.8027 236.775 33.4C237.394 33.9867 237.703 34.808 237.703 35.864V39.4C237.703 39.5707 237.735 39.6987 237.799 39.784C237.874 39.8587 237.991 39.9013 238.151 39.912V41C238.012 41.0213 237.89 41.0373 237.783 41.048C237.687 41.0587 237.607 41.064 237.543 41.064C237.212 41.064 236.962 40.9733 236.791 40.792C236.631 40.6107 236.54 40.4187 236.519 40.216L236.487 39.688C236.124 40.1573 235.65 40.52 235.063 40.776C234.476 41.032 233.895 41.16 233.319 41.16C232.764 41.16 232.268 41.048 231.831 40.824C231.394 40.5893 231.052 40.28 230.807 39.896C230.562 39.5013 230.439 39.064 230.439 38.584ZM235.879 39.176C236.007 39.0267 236.108 38.8773 236.183 38.728C236.258 38.568 236.295 38.4347 236.295 38.328V37.288C235.964 37.16 235.618 37.064 235.255 37C234.892 36.9253 234.535 36.888 234.183 36.888C233.468 36.888 232.887 37.032 232.439 37.32C232.002 37.5973 231.783 37.9813 231.783 38.472C231.783 38.7387 231.852 39 231.991 39.256C232.14 39.5013 232.354 39.704 232.631 39.864C232.919 40.024 233.271 40.104 233.687 40.104C234.124 40.104 234.54 40.0187 234.935 39.848C235.33 39.6667 235.644 39.4427 235.879 39.176ZM244.212 40.584C244.095 40.6373 243.935 40.7067 243.732 40.792C243.529 40.8773 243.295 40.952 243.028 41.016C242.761 41.08 242.479 41.112 242.18 41.112C241.839 41.112 241.524 41.0533 241.236 40.936C240.948 40.808 240.719 40.616 240.548 40.36C240.377 40.0933 240.292 39.7627 240.292 39.368V33.752H239.156V32.648H240.292V29.864H241.7V32.648H243.572V33.752H241.7V38.936C241.721 39.2347 241.823 39.4587 242.004 39.608C242.185 39.7467 242.399 39.816 242.644 39.816C242.921 39.816 243.177 39.768 243.412 39.672C243.647 39.576 243.801 39.5067 243.876 39.464L244.212 40.584ZM245.517 41V32.648H246.925V41H245.517ZM245.517 31.08V29.32H246.925V31.08H245.517ZM252.852 41.16C252.223 41.16 251.652 41.048 251.14 40.824C250.628 40.5893 250.186 40.2747 249.812 39.88C249.439 39.4747 249.151 39.0107 248.948 38.488C248.746 37.9653 248.644 37.416 248.644 36.84C248.644 36.2533 248.746 35.6987 248.948 35.176C249.151 34.6533 249.439 34.1947 249.812 33.8C250.186 33.3947 250.628 33.08 251.14 32.856C251.663 32.6213 252.239 32.504 252.868 32.504C253.487 32.504 254.052 32.6213 254.564 32.856C255.076 33.08 255.519 33.3947 255.892 33.8C256.276 34.1947 256.57 34.6533 256.772 35.176C256.975 35.6987 257.076 36.2533 257.076 36.84C257.076 37.416 256.975 37.9653 256.772 38.488C256.57 39.0107 256.282 39.4747 255.908 39.88C255.535 40.2747 255.087 40.5893 254.564 40.824C254.052 41.048 253.482 41.16 252.852 41.16ZM250.084 36.856C250.084 37.432 250.207 37.9547 250.452 38.424C250.708 38.8933 251.044 39.2667 251.46 39.544C251.876 39.8107 252.34 39.944 252.852 39.944C253.364 39.944 253.828 39.8053 254.244 39.528C254.671 39.2507 255.007 38.8773 255.252 38.408C255.508 37.928 255.636 37.4 255.636 36.824C255.636 36.248 255.508 35.7253 255.252 35.256C255.007 34.7867 254.671 34.4133 254.244 34.136C253.828 33.8587 253.364 33.72 252.852 33.72C252.34 33.72 251.876 33.864 251.46 34.152C251.044 34.4293 250.708 34.8027 250.452 35.272C250.207 35.7413 250.084 36.2693 250.084 36.856ZM266.03 41H264.622V36.328C264.622 35.4427 264.484 34.7973 264.206 34.392C263.94 33.976 263.529 33.768 262.974 33.768C262.59 33.768 262.206 33.864 261.822 34.056C261.449 34.248 261.113 34.5093 260.814 34.84C260.526 35.16 260.318 35.5333 260.19 35.96V41H258.782V32.648H260.062V34.44C260.286 34.0453 260.574 33.704 260.926 33.416C261.278 33.128 261.678 32.904 262.126 32.744C262.574 32.584 263.044 32.504 263.534 32.504C264.014 32.504 264.414 32.5947 264.734 32.776C265.065 32.9467 265.321 33.192 265.502 33.512C265.694 33.8213 265.828 34.1893 265.902 34.616C265.988 35.0427 266.03 35.5067 266.03 36.008V41ZM276.088 29.704H277.448L278.952 33.656L280.472 29.704H281.832L279.864 34.648L281.816 39.336L285.656 29.64H287.224L282.472 41H281.224L278.968 35.64L276.696 41H275.448L270.712 29.64H272.264L276.12 39.336L278.056 34.648L276.088 29.704ZM288.486 41V32.648H289.894V41H288.486ZM288.486 31.08V29.32H289.894V31.08H288.486ZM296.493 40.584C296.376 40.6373 296.216 40.7067 296.013 40.792C295.81 40.8773 295.576 40.952 295.309 41.016C295.042 41.08 294.76 41.112 294.461 41.112C294.12 41.112 293.805 41.0533 293.517 40.936C293.229 40.808 293 40.616 292.829 40.36C292.658 40.0933 292.573 39.7627 292.573 39.368V33.752H291.437V32.648H292.573V29.864H293.981V32.648H295.853V33.752H293.981V38.936C294.002 39.2347 294.104 39.4587 294.285 39.608C294.466 39.7467 294.68 39.816 294.925 39.816C295.202 39.816 295.458 39.768 295.693 39.672C295.928 39.576 296.082 39.5067 296.157 39.464L296.493 40.584ZM305.046 41H303.638V36.328C303.638 35.4747 303.483 34.8347 303.174 34.408C302.875 33.9813 302.443 33.768 301.878 33.768C301.515 33.768 301.147 33.864 300.774 34.056C300.411 34.248 300.091 34.5093 299.814 34.84C299.537 35.16 299.334 35.5333 299.206 35.96V41H297.798V29.32H299.206V34.44C299.537 33.8427 299.985 33.3733 300.55 33.032C301.126 32.68 301.745 32.504 302.406 32.504C302.907 32.504 303.323 32.5947 303.654 32.776C303.995 32.9467 304.267 33.192 304.47 33.512C304.673 33.832 304.817 34.2053 304.902 34.632C304.998 35.048 305.046 35.5067 305.046 36.008V41Z" fill="#878787"/>
<defs>
<linearGradient id="paint0_linear_704_491" x1="75.3134" y1="69.3873" x2="59.2041" y2="54.0677" gradientUnits="userSpaceOnUse">
<stop offset="0.7714" stop-color="#38B34A"/>
<stop offset="1" stop-color="#8CC540"/>
</linearGradient>
<radialGradient id="paint1_radial_704_491" cx="0" cy="0" r="1" gradientUnits="userSpaceOnUse" gradientTransform="translate(61.2377 54.2776) scale(6.59958)">
<stop offset="0.2318" stop-color="#D7DE27"/>
<stop offset="1" stop-color="#8CC540" stop-opacity="0"/>
</radialGradient>
<linearGradient id="paint2_linear_704_491" x1="112.239" y1="26.6062" x2="112.239" y2="94.9618" gradientUnits="userSpaceOnUse">
<stop stop-color="#0E90D0"/>
<stop offset="1" stop-color="#38B34A"/>
</linearGradient>
<linearGradient id="paint3_linear_704_491" x1="138.442" y1="26.6062" x2="138.442" y2="94.9618" gradientUnits="userSpaceOnUse">
<stop stop-color="#0E90D0"/>
<stop offset="1" stop-color="#38B34A"/>
</linearGradient>
<linearGradient id="paint4_linear_704_491" x1="125.873" y1="26.6062" x2="125.873" y2="94.9618" gradientUnits="userSpaceOnUse">
<stop stop-color="#0E90D0"/>
<stop offset="1" stop-color="#38B34A"/>
</linearGradient>
<linearGradient id="paint5_linear_704_491" x1="34.1069" y1="26.6062" x2="34.1069" y2="94.9618" gradientUnits="userSpaceOnUse">
<stop stop-color="#0E90D0"/>
<stop offset="1" stop-color="#38B34A"/>
</linearGradient>
<linearGradient id="paint6_linear_704_491" x1="7.90397" y1="26.6062" x2="7.90397" y2="94.9618" gradientUnits="userSpaceOnUse">
<stop stop-color="#0E90D0"/>
<stop offset="1" stop-color="#38B34A"/>
</linearGradient>
<linearGradient id="paint7_linear_704_491" x1="20.4738" y1="26.6062" x2="20.4738" y2="94.9618" gradientUnits="userSpaceOnUse">
<stop stop-color="#0E90D0"/>
<stop offset="1" stop-color="#38B34A"/>
</linearGradient>
<linearGradient id="paint8_linear_704_491" x1="126.648" y1="26.6062" x2="126.648" y2="94.9618" gradientUnits="userSpaceOnUse">
<stop stop-color="#0E90D0"/>
<stop offset="1" stop-color="#38B34A"/>
</linearGradient>
<linearGradient id="paint9_linear_704_491" x1="19.7" y1="26.6062" x2="19.7" y2="94.9618" gradientUnits="userSpaceOnUse">
<stop stop-color="#0E90D0"/>
<stop offset="1" stop-color="#38B34A"/>
</linearGradient>
<linearGradient id="paint10_linear_704_491" x1="254.246" y1="83.1027" x2="279.356" y2="57.9923" gradientUnits="userSpaceOnUse">
<stop stop-color="#4E9E45"/>
<stop offset="0.2267" stop-color="#4E9E45"/>
<stop offset="0.9225" stop-color="#BDD231"/>
<stop offset="1" stop-color="#BDD231"/>
</linearGradient>
</defs>
</svg>
