<?xml version="1.0" encoding="UTF-8"?>
<svg id="Layer_1" xmlns="http://www.w3.org/2000/svg" xmlns:xlink="http://www.w3.org/1999/xlink" version="1.1" viewBox="0 0 453.54 255.12">
  <!-- Generator: Adobe Illustrator 29.1.0, SVG Export Plug-In . SVG Version: 2.1.0 Build 142)  -->
  <defs>
    <style>
      .st0, .st1 {
        fill: none;
      }

      .st1 {
        stroke: #087cc1;
        stroke-width: .5px;
      }

      .st2 {
        fill: url(#linear-gradient2);
      }

      .st3 {
        fill: url(#linear-gradient1);
      }

      .st4 {
        fill: url(#linear-gradient9);
      }

      .st5 {
        fill: url(#linear-gradient3);
      }

      .st6 {
        fill: url(#linear-gradient6);
      }

      .st7 {
        fill: url(#linear-gradient8);
      }

      .st8 {
        fill: url(#linear-gradient7);
      }

      .st9 {
        fill: url(#linear-gradient5);
      }

      .st10 {
        fill: url(#linear-gradient4);
      }

      .st11 {
        fill: #231f20;
      }

      .st12 {
        fill: #1b4875;
      }

      .st13 {
        fill: url(#radial-gradient);
      }

      .st14 {
        fill: url(#linear-gradient);
      }

      .st15 {
        fill: #274271;
      }

      .st16 {
        fill: #cc7c4a;
      }

      .st17 {
        clip-path: url(#clippath-1);
      }

      .st18 {
        fill: #efba60;
      }

      .st19 {
        fill: #087cc1;
      }

      .st20 {
        clip-path: url(#clippath);
      }
    </style>
    <clipPath id="clippath">
      <path id="SVGID" class="st0" d="M100.17,140.29c-5.53,0-10.03-4.5-10.03-10.03s4.5-10.03,10.03-10.03,10.03,4.5,10.03,10.03-4.5,10.03-10.03,10.03ZM100.17,122.71c-4.16,0-7.55,3.39-7.55,7.55s3.39,7.55,7.55,7.55,7.55-3.39,7.55-7.55-3.39-7.55-7.55-7.55Z"/>
    </clipPath>
    <linearGradient id="linear-gradient" x1="107.3" y1="137.04" x2="94.46" y2="124.83" gradientUnits="userSpaceOnUse">
      <stop offset=".77" stop-color="#38b34a"/>
      <stop offset="1" stop-color="#8cc540"/>
    </linearGradient>
    <radialGradient id="radial-gradient" cx="96.08" cy="125" fx="96.08" fy="125" r="5.26" gradientUnits="userSpaceOnUse">
      <stop offset=".23" stop-color="#d7de27"/>
      <stop offset="1" stop-color="#8cc540" stop-opacity="0"/>
    </radialGradient>
    <linearGradient id="linear-gradient1" x1="136.73" y1="102.94" x2="136.73" y2="157.42" gradientUnits="userSpaceOnUse">
      <stop offset="0" stop-color="#0e90d0"/>
      <stop offset="1" stop-color="#38b34a"/>
    </linearGradient>
    <linearGradient id="linear-gradient2" x1="157.61" x2="157.61" y2="157.42" xlink:href="#linear-gradient1"/>
    <linearGradient id="linear-gradient3" x1="147.6" y1="102.94" x2="147.6" y2="157.42" xlink:href="#linear-gradient1"/>
    <linearGradient id="linear-gradient4" x1="74.46" y1="102.94" x2="74.46" y2="157.42" xlink:href="#linear-gradient1"/>
    <linearGradient id="linear-gradient5" x1="53.58" y1="102.94" x2="53.58" y2="157.42" xlink:href="#linear-gradient1"/>
    <linearGradient id="linear-gradient6" x1="63.59" y1="102.94" x2="63.59" y2="157.42" xlink:href="#linear-gradient1"/>
    <linearGradient id="linear-gradient7" x1="148.21" y1="102.94" x2="148.21" y2="157.42" xlink:href="#linear-gradient1"/>
    <linearGradient id="linear-gradient8" x1="62.98" y1="102.94" x2="62.98" y2="157.42" xlink:href="#linear-gradient1"/>
    <clipPath id="clippath-1">
      <path class="st0" d="M267.16,125.63c-.27,0-.53,0-.8,0h-.02c-8.73.19-14.02,3.39-14.02,12.48v9.42c0,.35,0,.71,0,1.07,0,.04,0,.08,0,.13,0,.9.73,1.64,1.64,1.64s1.64-.73,1.64-1.64v-.02s0-5.97,0-5.97c-.01-.63-.01-1.26,0-1.88h0s0,0,0,0c.12-5.25,1.35-10.21,7.57-10.23.05,0,.08.02.09.04,0,.02,0,.05,0,.09h0c-.01.77-.12,1.45-.31,2.07h0c-.98,3.99-5.71,4.32-5.71,7.66v1.32c2.25-2.22,5.01-2.52,7.13-4.19,1.95-1.54,3.23-3.68,3.23-10.09-.02-.98-.06-1.9-.06-1.9h-.26s-.07,0-.11,0Z"/>
    </clipPath>
    <linearGradient id="linear-gradient9" x1="-65.12" y1="864.28" x2="-64.85" y2="864.28" gradientTransform="translate(6880.69 88192.73) scale(101.88 -101.88)" gradientUnits="userSpaceOnUse">
      <stop offset="0" stop-color="#4e9e45"/>
      <stop offset=".23" stop-color="#4e9e45"/>
      <stop offset=".92" stop-color="#bdd231"/>
      <stop offset="1" stop-color="#bdd231"/>
    </linearGradient>
  </defs>
  <g>
    <g>
      <path class="st11" d="M85.99,106.79c0-3.85-3.13-6.98-6.98-6.98s-6.98,3.13-6.98,6.98,3.13,6.98,6.98,6.98c1.74,0,3.32-.64,4.55-1.7v.19c0,2.55-2.08,4.63-4.63,4.63h-3.81v2.42h3.81c3.88,0,7.04-3.16,7.04-7.04,0,0,.02-5.37.02-5.47ZM79.01,111.36c-2.52,0-4.56-2.05-4.56-4.56s2.05-4.56,4.56-4.56,4.56,2.05,4.56,4.56c0,.08,0,.17-.01.25h0v.05c-.16,2.37-2.13,4.26-4.55,4.26Z"/>
      <path class="st11" d="M139.16,113.76h-2.5v-8.09c0-1.81-1.59-3.28-3.55-3.28s-3.55,1.47-3.55,3.28v8.09h-2.5v-8.09c0-3.14,2.71-5.69,6.05-5.69s6.05,2.55,6.05,5.69v8.09Z"/>
      <path class="st11" d="M106.47,109.52c-.38.63-.87,1.13-1.48,1.48-.65.38-1.38.57-2.17.57-1.11,0-2.07-.35-2.88-1.04-.81-.69-1.31-1.6-1.52-2.72h11.28v-.38c0-.93-.09-1.76-.28-2.49-.19-.73-.48-1.4-.86-2-.66-.98-1.49-1.75-2.5-2.3-1.01-.55-2.11-.82-3.28-.82-.99,0-1.9.18-2.74.55-.84.37-1.59.92-2.25,1.65-.63.67-1.1,1.42-1.42,2.24-.32.82-.48,1.7-.48,2.64s.18,1.8.53,2.67c.35.87.84,1.64,1.47,2.3.67.7,1.41,1.22,2.23,1.57.82.35,1.73.52,2.72.52,1.47,0,2.76-.39,3.87-1.18.67-.48,1.24-1.1,1.73-1.83l-1.95-1.44ZM100.09,103.1c.78-.62,1.69-.93,2.75-.93s1.92.3,2.66.91c.74.61,1.26,1.46,1.56,2.56h-8.56c.29-1.07.83-1.92,1.6-2.54Z"/>
      <path class="st11" d="M121.85,109.52c-.38.63-.87,1.13-1.48,1.48-.65.38-1.38.57-2.17.57-1.11,0-2.07-.35-2.88-1.04-.81-.69-1.31-1.6-1.52-2.72h11.28v-.38c0-.93-.09-1.76-.28-2.49-.19-.73-.48-1.4-.86-2-.66-.98-1.49-1.75-2.5-2.3-1.01-.55-2.11-.82-3.28-.82-.99,0-1.9.18-2.74.55-.84.37-1.59.92-2.25,1.65-.63.67-1.1,1.42-1.42,2.24s-.48,1.7-.48,2.64.18,1.8.53,2.67c.35.87.84,1.64,1.47,2.3.67.7,1.41,1.22,2.23,1.57s1.73.52,2.72.52c1.47,0,2.76-.39,3.87-1.18.67-.48,1.24-1.1,1.73-1.83l-1.95-1.44ZM115.48,103.1c.78-.62,1.69-.93,2.75-.93s1.92.3,2.66.91c.74.61,1.26,1.46,1.56,2.56h-8.56c.29-1.07.83-1.92,1.6-2.54Z"/>
      <path class="st11" d="M91.13,113.76h-2.42v-8.06c0-3.03,2.47-5.5,5.5-5.5h1.26v2.42h-1.26c-1.7,0-3.08,1.38-3.08,3.08v8.06Z"/>
      <path class="st11" d="M133.48,123.45c-1.84,0-3.47.86-4.51,2.18-1.04-1.32-2.67-2.18-4.51-2.18-3.13,0-5.68,2.48-5.68,5.54v7.86h2.35v-7.86c0-1.76,1.5-3.19,3.33-3.19s3.32,1.42,3.33,3.17c0,0,0,0,0,.01v7.86h2.35v-7.86s0,0,0-.01c0-1.75,1.5-3.17,3.33-3.17s3.33,1.43,3.33,3.19v7.86h2.35v-7.86c0-3.05-2.55-5.54-5.68-5.54Z"/>
      <path class="st11" d="M77.22,137.35c2.58,0,5.33-1.11,5.33-4.21,0-2.1-1.5-3.33-4.88-3.99-2.53-.5-3.03-1.09-3.03-1.94,0-1.29,1.4-1.74,2.61-1.74,1.35,0,2.54.64,3.1,1.67v.02s1.9-1.39,1.9-1.39c-.92-1.42-2.88-2.36-4.91-2.36-2.34,0-5.07,1.04-5.07,3.97s2.85,3.42,4.06,3.69c2.83.63,3.79,1.19,3.79,2.21,0,1.3-1.01,1.99-2.92,1.99-1.24,0-2.48-.57-3.25-1.48l-1.91,1.41c1.23,1.4,3.07,2.17,5.19,2.17Z"/>
      <path class="st11" d="M113.94,136.85h-2.35v-7.83c0-2.95,2.4-5.34,5.34-5.34h1.23v2.35h-1.23c-1.65,0-2.99,1.34-2.99,2.99v7.83Z"/>
      <path class="st11" d="M86.08,131.22v-5.47h2.03v-2.35h-2.03v-3.84h-2.35v11.66c0,3.59,2.92,6.51,6.51,6.51v-2.35c-2.29,0-4.16-1.87-4.16-4.16Z"/>
      <g class="st20">
        <g>
          <path class="st14" d="M100.17,140.29c-5.53,0-10.03-4.5-10.03-10.03s4.5-10.03,10.03-10.03,10.03,4.5,10.03,10.03-4.5,10.03-10.03,10.03ZM100.17,122.71c-4.16,0-7.55,3.39-7.55,7.55s3.39,7.55,7.55,7.55,7.55-3.39,7.55-7.55-3.39-7.55-7.55-7.55Z"/>
          <circle class="st13" cx="96.08" cy="125" r="5.26"/>
        </g>
      </g>
    </g>
    <g>
      <path class="st11" d="M91.75,172.98h-1.32v1.1h1.47v.33h-1.9v-3.06h1.83v.33h-1.39v.97h1.32v.33Z"/>
      <path class="st11" d="M93.42,171.39c.27-.04.58-.06.93-.06.63,0,1.07.13,1.37.38.3.25.48.6.48,1.1s-.17.91-.49,1.19c-.32.29-.84.44-1.5.44-.31,0-.57-.01-.79-.04v-3.01ZM93.85,174.1c.11.02.27.02.44.02.93,0,1.44-.47,1.44-1.3,0-.72-.45-1.18-1.37-1.18-.23,0-.4.02-.51.04v2.42Z"/>
      <path class="st11" d="M98.15,171.35v3.06h-.44v-3.06h.44Z"/>
      <path class="st11" d="M100.5,171.69h-1.03v-.34h2.5v.34h-1.03v2.73h-.44v-2.73Z"/>
      <path class="st11" d="M103.74,171.35v3.06h-.44v-3.06h.44Z"/>
      <path class="st11" d="M108.35,172.85c0,1.06-.71,1.61-1.57,1.61s-1.52-.63-1.52-1.55c0-.97.67-1.61,1.57-1.61s1.52.64,1.52,1.55ZM105.72,172.9c0,.65.39,1.24,1.08,1.24s1.08-.58,1.08-1.27c0-.61-.35-1.25-1.08-1.25s-1.08.6-1.08,1.28Z"/>
      <path class="st11" d="M109.87,174.41v-3.06h.48l1.08,1.55c.25.36.45.68.61,1h0c-.04-.41-.05-.79-.05-1.26v-1.28h.41v3.06h-.44l-1.07-1.56c-.24-.34-.46-.69-.63-1.02h-.02c.03.39.04.76.04,1.27v1.31h-.41Z"/>
      <path class="st11" d="M115.88,171.83h0l-.57.28-.09-.3.71-.35h.38v2.96h-.43v-2.58Z"/>
      <path class="st11" d="M119.22,171.74c-.09,0-.21,0-.33.02-.69.1-1.06.56-1.13,1.05h.02c.16-.19.43-.34.79-.34.58,0,.98.38.98.96,0,.54-.41,1.04-1.08,1.04s-1.15-.49-1.15-1.26c0-.58.23-1.04.55-1.33.27-.24.63-.39,1.04-.44.13-.02.24-.02.32-.02v.33ZM119.09,173.44c0-.42-.27-.68-.67-.68-.27,0-.51.15-.63.36-.03.05-.05.1-.05.18.01.49.26.85.72.85.38,0,.64-.29.64-.71Z"/>
    </g>
    <g>
      <g>
        <path class="st11" d="M87.49,160.88h3.48v.91h-2.47v.99h2.18v.91h-2.18v1.77h-1v-4.57Z"/>
        <path class="st11" d="M92.26,160.88h3.44v.89h-2.45v.93h2.15v.89h-2.15v.96h2.48v.89h-3.47v-4.57Z"/>
        <path class="st11" d="M98.75,165.51c-.35,0-.69-.06-1.02-.18s-.64-.3-.91-.55l.59-.71c.21.17.42.3.64.4s.46.15.72.15c.21,0,.37-.04.49-.11s.17-.18.17-.32h0c0-.08-.01-.14-.04-.19-.02-.05-.07-.1-.14-.14-.07-.04-.16-.09-.28-.13s-.28-.09-.47-.14c-.23-.06-.44-.12-.63-.19-.19-.07-.35-.16-.48-.26-.13-.1-.23-.23-.3-.38-.07-.15-.11-.34-.11-.57h0c0-.22.04-.41.12-.58.08-.17.19-.31.33-.43.14-.12.31-.22.5-.28.2-.07.41-.1.65-.1.33,0,.64.05.92.15.28.1.54.24.77.43l-.52.76c-.2-.14-.4-.25-.6-.33s-.39-.12-.59-.12-.34.04-.44.11c-.1.08-.15.17-.15.28h0c0,.09.01.15.04.21.03.05.08.1.15.15.07.04.18.08.3.12.13.04.29.08.49.14.23.06.44.13.62.21.18.08.33.17.46.27.12.11.22.23.28.38.06.14.09.32.09.52h0c0,.24-.04.44-.12.62-.08.18-.2.32-.34.44s-.32.21-.53.27c-.2.06-.43.09-.68.09Z"/>
        <path class="st11" d="M102.85,161.8h-1.39v-.93h3.79v.93h-1.39v3.64h-1v-3.64Z"/>
        <path class="st11" d="M106.55,160.88h1v4.57h-1v-4.57Z"/>
        <path class="st11" d="M108.79,160.88h1.11l1.19,3.22,1.19-3.22h1.08l-1.85,4.6h-.89l-1.85-4.6Z"/>
        <path class="st11" d="M116.13,160.84h.93l1.96,4.6h-1.05l-.42-1.02h-1.93l-.42,1.02h-1.02l1.96-4.6ZM117.19,163.53l-.61-1.48-.61,1.48h1.21Z"/>
        <path class="st11" d="M120.21,160.88h1v3.66h2.28v.91h-3.28v-4.57Z"/>
      </g>
      <g>
        <path class="st11" d="M92.63,149.71c-.36,0-.68-.06-.98-.18-.29-.12-.55-.28-.76-.49-.21-.21-.38-.46-.49-.74-.12-.29-.18-.6-.18-.94h0c0-.34.06-.65.18-.93.12-.29.29-.54.5-.75.21-.22.47-.39.76-.51.29-.12.61-.19.96-.19.2,0,.39.01.56.04.17.03.32.07.47.12s.28.12.4.2c.13.08.25.17.37.27l-.63.76c-.09-.07-.17-.14-.26-.2-.09-.06-.18-.1-.27-.14-.09-.04-.19-.07-.3-.09-.11-.02-.23-.03-.36-.03-.18,0-.35.04-.51.11s-.3.18-.42.31c-.12.13-.21.28-.28.45-.07.17-.1.36-.1.55h0c0,.22.03.42.1.59.07.18.16.33.29.46s.27.23.44.3c.17.07.35.11.56.11.37,0,.69-.09.95-.28v-.66h-1.01v-.87h1.98v1.98c-.23.2-.51.37-.84.51s-.69.21-1.11.21Z"/>
        <path class="st11" d="M96.04,145.07h1v3.66h2.28v.91h-3.28v-4.57Z"/>
        <path class="st11" d="M102.79,149.71c-.35,0-.68-.06-.97-.19-.3-.12-.55-.29-.77-.5-.22-.21-.38-.46-.5-.74s-.18-.59-.18-.92h0c0-.34.06-.65.18-.93.12-.29.29-.54.51-.75s.47-.39.77-.51c.3-.12.62-.19.98-.19s.68.06.97.19c.3.12.55.29.77.5s.38.46.5.74c.12.29.18.59.18.92h0c0,.34-.06.65-.18.93-.12.29-.29.54-.51.75s-.47.39-.77.51c-.3.12-.62.19-.98.19ZM102.8,148.79c.2,0,.39-.04.55-.11.17-.07.31-.18.43-.31.12-.13.21-.28.28-.45.07-.17.1-.36.1-.55h0c0-.21-.03-.39-.1-.57-.07-.17-.16-.33-.29-.46-.12-.13-.27-.23-.44-.31-.17-.08-.35-.11-.55-.11s-.39.04-.56.11c-.17.07-.31.18-.43.31-.12.13-.21.28-.28.45-.07.17-.1.36-.1.55h0c0,.21.03.39.1.57.07.17.16.33.29.46s.27.23.44.31c.17.08.35.11.56.11Z"/>
        <path class="st11" d="M106.6,145.07h2.12c.53,0,.92.13,1.19.4.21.21.31.47.31.78h0c0,.14-.02.26-.05.36-.03.1-.08.19-.13.27-.05.08-.12.15-.19.21-.07.06-.15.11-.23.16.26.1.47.24.62.41.15.17.23.41.23.71h0c0,.22-.04.4-.12.56-.08.16-.2.29-.35.39-.15.1-.33.18-.54.23-.21.05-.44.08-.7.08h-2.17v-4.57ZM108.51,146.91c.22,0,.4-.04.53-.11.13-.08.2-.2.2-.37h0c0-.17-.06-.28-.17-.36-.11-.08-.28-.12-.49-.12h-.99v.97h.93ZM108.78,148.75c.22,0,.4-.04.52-.12s.19-.21.19-.38h0c0-.17-.06-.29-.18-.38-.12-.09-.31-.13-.57-.13h-1.16v1h1.19Z"/>
        <path class="st11" d="M113.37,145.03h.93l1.96,4.6h-1.05l-.42-1.02h-1.93l-.42,1.02h-1.02l1.96-4.6ZM114.43,147.72l-.61-1.48-.61,1.48h1.21Z"/>
        <path class="st11" d="M117.45,145.07h1v3.66h2.28v.91h-3.28v-4.57Z"/>
        <path class="st11" d="M73.62,152.71h2.19c.32,0,.61.04.86.13.25.09.47.22.64.38.18.16.31.36.41.59s.14.48.14.75v.02c0,.31-.06.58-.17.82-.11.23-.27.43-.46.59s-.43.28-.69.36-.54.12-.85.12h-.9v1.61h-1.18v-5.36ZM75.74,155.41c.3,0,.53-.08.69-.23s.25-.35.25-.58v-.02c0-.27-.09-.47-.26-.6-.17-.14-.4-.21-.7-.21h-.91v1.64h.93Z"/>
        <path class="st11" d="M78.94,152.71h1.18v2.12h2.17v-2.12h1.18v5.36h-1.18v-2.15h-2.17v2.15h-1.18v-5.36Z"/>
        <path class="st11" d="M87.55,158.16c-.41,0-.79-.07-1.14-.22-.35-.15-.65-.34-.9-.59s-.45-.54-.59-.87c-.14-.33-.21-.69-.21-1.08v-.02c0-.38.07-.74.21-1.08.14-.33.34-.63.59-.88s.55-.45.9-.6c.35-.15.73-.22,1.14-.22s.79.07,1.14.22c.35.15.65.34.9.59.25.25.45.54.59.87.14.33.21.69.21,1.07v.02c0,.38-.07.74-.21,1.07-.14.33-.34.63-.59.88-.25.25-.55.45-.9.6-.35.15-.73.22-1.14.22ZM87.57,157.07c.23,0,.45-.04.65-.13.2-.09.37-.21.51-.36.14-.15.25-.33.33-.53.08-.2.12-.42.12-.65v-.02c0-.23-.04-.45-.12-.65s-.19-.38-.34-.54c-.15-.15-.32-.27-.52-.36-.2-.09-.42-.13-.65-.13s-.46.04-.65.13-.36.21-.5.36c-.14.15-.25.33-.33.53-.08.2-.12.42-.12.65v.02c0,.23.04.45.12.65s.19.38.34.54c.15.15.32.27.51.36s.41.13.65.13Z"/>
        <path class="st11" d="M92.9,153.8h-1.63v-1.09h4.44v1.09h-1.63v4.27h-1.18v-4.27Z"/>
        <path class="st11" d="M99.41,158.16c-.41,0-.79-.07-1.14-.22-.35-.15-.65-.34-.9-.59s-.45-.54-.59-.87c-.14-.33-.21-.69-.21-1.08v-.02c0-.38.07-.74.21-1.08.14-.33.34-.63.59-.88s.55-.45.9-.6c.35-.15.73-.22,1.14-.22s.79.07,1.14.22c.35.15.65.34.9.59.25.25.45.54.59.87.14.33.21.69.21,1.07v.02c0,.38-.07.74-.21,1.07-.14.33-.34.63-.59.88-.25.25-.55.45-.9.6-.35.15-.73.22-1.14.22ZM99.42,157.07c.23,0,.45-.04.65-.13.2-.09.37-.21.51-.36.14-.15.25-.33.33-.53.08-.2.12-.42.12-.65v-.02c0-.23-.04-.45-.12-.65s-.19-.38-.34-.54c-.15-.15-.32-.27-.52-.36-.2-.09-.42-.13-.65-.13s-.46.04-.65.13-.36.21-.5.36c-.14.15-.25.33-.33.53-.08.2-.12.42-.12.65v.02c0,.23.04.45.12.65s.19.38.34.54c.15.15.32.27.51.36s.41.13.65.13Z"/>
        <path class="st11" d="M106.09,158.16c-.42,0-.8-.07-1.14-.21s-.64-.33-.89-.57c-.25-.25-.44-.54-.58-.87-.14-.34-.21-.7-.21-1.1v-.02c0-.38.07-.74.21-1.08.14-.33.34-.63.59-.88s.55-.45.89-.6.72-.22,1.12-.22c.24,0,.46.02.65.05s.38.08.55.14c.17.06.33.14.47.23s.29.2.43.31l-.74.9c-.1-.09-.2-.16-.31-.23-.1-.07-.21-.12-.32-.17-.11-.05-.23-.08-.36-.11-.13-.03-.27-.04-.42-.04-.21,0-.41.04-.6.13-.19.09-.35.21-.49.36-.14.15-.25.33-.33.53-.08.2-.12.42-.12.65v.02c0,.25.04.47.12.68.08.21.19.39.34.54.15.15.32.27.51.36s.41.13.65.13c.44,0,.81-.11,1.11-.32v-.77h-1.19v-1.02h2.33v2.33c-.28.23-.6.43-.98.6-.38.17-.81.25-1.3.25Z"/>
        <path class="st11" d="M109.71,152.71h2.45c.68,0,1.2.18,1.56.54.31.31.46.71.46,1.22v.02c0,.43-.11.79-.32,1.06-.21.27-.49.47-.83.6l1.31,1.91h-1.38l-1.15-1.71h-.93v1.71h-1.18v-5.36ZM112.08,155.31c.29,0,.51-.07.67-.21.16-.14.23-.32.23-.55v-.02c0-.25-.08-.45-.25-.57-.16-.13-.39-.19-.68-.19h-1.17v1.54h1.19Z"/>
        <path class="st11" d="M117.27,152.67h1.09l2.3,5.39h-1.23l-.49-1.2h-2.26l-.49,1.2h-1.2l2.3-5.39ZM118.51,155.83l-.71-1.74-.71,1.74h1.42Z"/>
        <path class="st11" d="M121.68,152.71h2.19c.32,0,.61.04.86.13.25.09.47.22.64.38.18.16.31.36.41.59s.14.48.14.75v.02c0,.31-.06.58-.17.82-.11.23-.27.43-.46.59s-.43.28-.69.36-.54.12-.85.12h-.9v1.61h-1.18v-5.36ZM123.79,155.41c.3,0,.53-.08.69-.23s.25-.35.25-.58v-.02c0-.27-.09-.47-.26-.6-.17-.14-.4-.21-.7-.21h-.91v1.64h.93Z"/>
        <path class="st11" d="M126.99,152.71h1.18v2.12h2.17v-2.12h1.18v5.36h-1.18v-2.15h-2.17v2.15h-1.18v-5.36Z"/>
        <path class="st11" d="M134.51,155.96l-2.06-3.24h1.38l1.28,2.15,1.3-2.15h1.34l-2.06,3.22v2.13h-1.18v-2.11Z"/>
      </g>
    </g>
    <path class="st3" d="M140.78,91.48c-3.82-2.48-8.04-4.33-12.52-5.4l16.96,16.06-4.44-10.66Z"/>
    <path class="st2" d="M154.09,105.15l-.06,16.73.08.19-.08.04-.06,17.03,7.3-9.91c-.26-8.9-2.86-17.16-7.17-24.07Z"/>
    <path class="st5" d="M153.58,104.35c-3.2-4.91-7.27-9.1-11.97-12.32l11.82,28.41.14-16.1Z"/>
    <path class="st10" d="M82.94,86.09c-4.49,1.07-8.7,2.91-12.52,5.4l-4.44,10.66,16.96-16.06Z"/>
    <path class="st9" d="M57.16,122.1l-.08-.04.08-.19-.06-16.73c-4.31,6.91-6.91,15.17-7.17,24.07l7.3,9.91-.06-17.03Z"/>
    <path class="st6" d="M69.58,92.04c-4.7,3.21-8.77,7.41-11.97,12.32l.14,16.1,11.82-28.41Z"/>
    <g>
      <path class="st8" d="M161.29,130.47l-25.93,34.65h-.03l-.19.31h-.01,11.44c9.01-8.38,14.73-20.82,14.73-34.71,0-.08,0-.17,0-.25Z"/>
      <path class="st7" d="M75.87,165.11h-.04l-25.93-34.65c0,.08,0,.17,0,.25,0,13.89,5.72,26.33,14.73,34.71h11.44l-.19-.31Z"/>
    </g>
  </g>
  <g>
    <g>
      <path class="st19" d="M211.97,142.78c-.12.05-.24.11-.36.17-.24.12-.49.26-.75.41-.28.16-.57.34-.87.53-3.35,2.15-7.51,5.85-7.51,5.85,0,0,2.33.73,4.42,0,0,0,3.22-3.19,5.24-4.19,0,0,.02,0,.03-.01,0-.15.01-.29.01-.44,0-.25,0-.49-.02-.74-.02-.38-.06-.75-.11-1.12"/>
      <path class="st19" d="M211.8,141.94s-.01-.04-.02-.07c0-.04-.02-.07-.03-.11-.02-.07-.04-.13-.05-.2-.03-.12-.06-.24-.1-.36-.02-.07-.04-.13-.06-.2-.01-.04-.02-.08-.03-.12-.05-.15-.1-.31-.16-.46,0-.02-.01-.03-.02-.05-.04-.11-.08-.21-.12-.32-.04-.09-.07-.18-.11-.27-.02-.06-.05-.12-.08-.18-1.23-2.84-3.41-5.2-6.22-6.61-1.85-.95-3.94-1.49-6.17-1.49-6.9,0-12.58,5.17-13.41,11.84,0,0,0,.02,0,.02-.02.18-.04.35-.05.53,0,.03,0,.07-.01.1,0,.12-.02.25-.02.38,0,.08,0,.16-.01.24,0,.02,0,.04,0,.05h0c0,.14,0,.27,0,.41,0,7.47,6.06,13.53,13.53,13.53,6.93,0,12.63-5.21,13.43-11.92-.28.11-.55.24-.83.4-1.23.7-2.33,1.67-3.3,2.74-1.57,1.73-3.14,3.05-5.35,3.69-2.51.72-5.65.67-8-.67-.42-.24-.84-.54-1.2-.87-.14-.13-.41-.35-.44-.57-.1-.73,2.15-.01,2.42.06,1.12.29,2.24.68,3.31,1.13,1.62.68,3.39.77,4.99.02.69-.33,1.33-.79,1.9-1.34.12-.12.48-.47.6-.7-4.89.59-3.29-.15-14.66-5.24-1.79-.8-3.52-1.2-5.16-1.3.51-6.34,5.83-11.34,12.29-11.34,5.36,0,9.94,3.44,11.63,8.23-1.15.15-2.24.54-2.93.92-1.3.72-8.22,6.4-8.22,6.4l2.64,1.2s1.01-1.09,3.53-3c2.05-1.55,3.57-2.64,4.71-3.39.27-.18.51-.34.74-.48.42-.27.78-.48,1.07-.65"/>
      <path class="st19" d="M201.43,143.12c-3.75,2.57-5.22,3.75-5.22,3.75,0,0,1.72.84,2.26,1.1l5.53-4.62s2.15-1.58,3.02-2.04c0,0-2.38-.38-5.58,1.81"/>
      <path class="st19" d="M196.26,140.77c-.07.03-.13.05-.2.08-.23.1-.47.19-.7.3l-.13.06c.03.99-.03,2.83-.69,4.56l.95.49c.78-2.06.81-4.4.77-5.49"/>
      <path class="st19" d="M195.21,140.58c.34-.15.69-.29,1.03-.43.6-.25,1.18-.52,1.7-.93.8-.62,1.39-1.39,1.71-2.35.26-.77.48-1.56.72-2.35-.03-.01-.05-.02-.08-.04-5.66,1.73-5.11,6.11-5.11,6.11,0,0,.02,0,.03-.01"/>
      <path class="st19" d="M194.58,140.49c-.22-.76-.64-1.45-1.3-2.04-.53-.47-1.09-.93-1.64-1.39-.02.01-.04.03-.06.04-.6,4.38,3.14,5.73,3.14,5.73-.01-.78.09-1.55-.14-2.34"/>
      <path class="st19" d="M197.58,161.46c-.65-.08-1.31-.1-1.97-.03-1.04.1-1.98.42-2.9.88-.97.48-1.99.88-3.03,1.16-1.24.34-2.61.2-3.78-.35-.07-.03-.14.06-.08.11.58.59,1.37,1.09,2.61,1.51,1.44.48,2.64.24,3.48,0,1.06-.3,2-1.03,2.91-1.62.59-.39,1.15-.9,1.86-1.07.32-.08.66-.06,1.01,0,.33-.14.66-.25,1.01-.35-.36-.1-.73-.19-1.11-.23"/>
      <path class="st19" d="M198.93,162.4c1.27.5,2.37,1.49,3.36,2.4.12.11,1.25,1.21,1.49,1.49.03.03.07.03.1,0l.79-.79s.03-.08,0-.1c-.31-.29-1.94-1.74-3.66-2.71-.43-.24-.87-.46-1.31-.65-.35.05-.69.15-1.02.26.09.03.17.06.25.09"/>
      <path class="st19" d="M188.78,162.59c1.87-.12,3.98-.77,4.68-1,.07-.02.06-.12,0-.14-2.6-.64-3.92-2.19-4.67-3.06-.82-.95-1.71-1.56-2.09-1.8-.06-.04-.13.02-.1.09.25.6,1.02,2.36,1.72,3.16.49.57,1.16.96,1.62,1.2.07.04.04.15-.04.13-1.94-.33-2.71-.15-4.57-.37-1.51-.18-2.63-.88-3.1-1.24-.06-.05-.14.03-.1.09.16.26.5.71,1.17,1.38,1.2,1.2,2.79,1.73,5.51,1.56"/>
      <path class="st19" d="M187.77,160.35c.07.01.12-.07.07-.12-.77-.76-1.5-2.13-2.17-4.23-.55-1.76-1.68-3.16-2.16-3.7-.05-.06-.14,0-.12.07.19.7.35,2.12.61,3.52.31,1.67,1.82,3.08,2.07,3.31-.21-.18-1.34-1.11-3.75-2.23-2.1-.97-3.28-2.15-3.76-2.69-.05-.06-.15,0-.12.07.18.47.61,1.37,1.55,2.62,1.44,1.92,3.41,2.76,4.72,2.88,1.03.09,2.48.39,3.06.52"/>
      <path class="st19" d="M180.71,155.17c.94.41,2.24,1.3,2.78,1.68.06.04.14-.02.1-.09-.51-1.01-.99-2.73-.95-4.91.04-1.8-.49-3.44-.75-4.13-.03-.07-.13-.06-.14.02-.05.73-.32,2.11-.55,3.49-.2,1.18.15,2.27.48,2.97.36.53.46.82.46.82,0,0-.23-.31-.46-.82-.4-.58-1.1-1.45-2.33-2.52-1.66-1.46-2.24-2.89-2.44-3.6-.02-.08-.14-.06-.14.02,0,.53.07,1.48.53,2.89.75,2.28,2.18,3.65,3.39,4.18"/>
      <path class="st19" d="M181.69,154.2c.24.51.46.82.46.82,0,0-.1-.29-.46-.82"/>
      <path class="st19" d="M180.44,151.89s.12,0,.12-.06c-.04-.55-.08-2.33.73-4.28.75-1.83.8-3.89.79-4.6,0-.07-.1-.1-.13-.03-.33.58-1.22,2.13-1.41,2.42-.24.36-.6,1.19-.78,1.99-.1.46-.11.98-.1,1.41,0,.09-.12.1-.14.02-.18-.72-.42-1.67-.59-2.2-.23-.71-.72-1.56-1.01-2.45-.29-.86-.49-1.45-.58-2.02-.01-.08-.12-.08-.14,0-.22,1.09-.68,4.06.48,6.13,1.24,2.22,2.4,3.35,2.78,3.68"/>
      <path class="st19" d="M179.06,144.96c.08.29.17.74.24,1.12.01.07.11.08.14.01.53-1.36,1.99-3.49,2.03-3.55,0,0,0,0,0,0,1.43-1.81,1.74-3.24,1.8-3.84,0-.07-.09-.11-.13-.05-.22.35-.73,1.02-1.71,1.77-.97.74-1.47,1.84-1.7,2.48-.03.08-.14.06-.14-.03.02-.81.02-2.37-.19-3.77-.18-1.23,0-2.14.15-2.65.02-.08-.08-.13-.12-.06-.19.26-.44.61-.62.89-.41.66-.62,1.49-.74,2.25-.13.76-.14,1.55.01,2.3.22,1.08.69,2.06.99,3.11"/>
      <path class="st19" d="M179.98,140.82c0,.07.08.09.13.04.26-.31.93-1.07,1.86-1.88,1.18-1.01,3.06-2.22,3.17-4.19,0-.07-.09-.1-.13-.05-.22.31-.72.92-1.64,1.57-1.1.78-1.81,1.44-2.28,2.2-.04.07-.15.02-.13-.05.2-.82.57-2.39.68-2.87.15-.68.4-1.65,1.04-2.3.05-.05,0-.14-.08-.12-.51.2-1.48.68-2.02,1.62-.76,1.31-.63,3.34-.63,3.64,0,.24.03,1.83.04,2.39"/>
      <path class="st19" d="M182.16,136.56c.78-.73,2.31-1.87,3.02-2.86.8-1.12,1.64-2.25,1.95-2.67.04-.05-.01-.13-.08-.11-.39.12-1.34.48-2.76,1.43-1.6,1.07-2.13,3.43-2.25,4.15-.01.07.07.11.12.06"/>
      <path class="st19" d="M211.41,163.14c-1.17.55-2.54.69-3.78.35-1.05-.29-2.06-.68-3.03-1.16-.93-.46-1.86-.78-2.9-.88-.65-.06-1.32-.05-1.97.03-.35.04-.7.12-1.03.21.34.1.68.22,1.01.36.32-.04.64-.05.93.02.71.17,1.27.68,1.86,1.07.91.6,1.86,1.32,2.91,1.62.84.24,2.04.48,3.48,0,1.24-.41,2.03-.92,2.61-1.51.06-.06,0-.15-.08-.11"/>
      <path class="st19" d="M196.29,162.73c-1.72.97-3.35,2.42-3.66,2.71-.03.03-.03.07,0,.1l.79.79s.08.03.1,0c.24-.28,1.37-1.38,1.49-1.49.99-.91,2.09-1.9,3.36-2.4.1-.04.21-.08.31-.12-.31-.11-.66-.21-1-.27-.47.2-.93.43-1.39.68"/>
      <path class="st19" d="M197.68,162.04c.34.06.69.15,1,.27.32-.11.67-.21,1.02-.26-.33-.14-.67-.26-1.01-.36-.34.1-.68.21-1.01.35"/>
      <path class="st19" d="M215.1,159.57c-.47.35-1.59,1.06-3.1,1.24-1.86.22-2.62.04-4.57.37-.08.01-.12-.1-.04-.13.46-.23,1.12-.63,1.62-1.2.69-.79,1.47-2.56,1.72-3.16.03-.06-.04-.12-.1-.09-.38.24-1.27.86-2.09,1.8-.75.87-2.08,2.42-4.67,3.06-.07.02-.07.11,0,.14.7.23,2.81.88,4.68,1,2.72.17,4.31-.36,5.51-1.56.67-.67,1.01-1.12,1.17-1.38.04-.07-.04-.14-.1-.09"/>
      <path class="st19" d="M218.75,154.28c-.48.54-1.66,1.72-3.76,2.69-2.42,1.12-3.55,2.05-3.75,2.23.25-.23,1.76-1.64,2.07-3.31.26-1.4.42-2.82.61-3.52.02-.07-.07-.12-.12-.07-.48.55-1.61,1.95-2.16,3.7-.66,2.1-1.4,3.47-2.17,4.23-.05.05,0,.13.07.12.58-.13,2.03-.42,3.06-.52,1.32-.12,3.29-.96,4.72-2.88.94-1.26,1.37-2.15,1.55-2.62.03-.07-.07-.13-.12-.07"/>
      <path class="st19" d="M220.52,148.11c0-.08-.12-.1-.14-.02-.2.71-.78,2.15-2.44,3.6-1.23,1.08-1.93,1.94-2.33,2.52-.24.51-.46.82-.46.82,0,0,.1-.29.46-.82.33-.7.67-1.79.48-2.97-.23-1.38-.5-2.76-.55-3.49,0-.08-.11-.09-.14-.02-.26.69-.79,2.32-.75,4.13.04,2.18-.43,3.9-.95,4.91-.03.07.04.13.1.09.54-.38,1.84-1.26,2.78-1.68,1.21-.54,2.64-1.91,3.39-4.18.46-1.41.54-2.37.53-2.89"/>
      <path class="st19" d="M215.62,154.22c-.36.53-.46.82-.46.82,0,0,.23-.31.46-.82"/>
      <path class="st19" d="M217.78,148.77c-.02.08-.14.07-.14-.02.02-.44,0-.95-.1-1.41-.18-.8-.54-1.63-.78-1.99-.19-.29-1.08-1.84-1.41-2.42-.04-.06-.13-.04-.13.03,0,.71.04,2.77.79,4.6.81,1.95.76,3.74.73,4.28,0,.06.07.1.12.06.38-.34,1.54-1.46,2.78-3.68,1.15-2.07.7-5.04.48-6.13-.02-.08-.13-.07-.14,0-.09.57-.29,1.17-.58,2.02-.3.89-.78,1.74-1.01,2.45-.17.53-.41,1.47-.59,2.2"/>
      <path class="st19" d="M215.88,140.44c-.98-.75-1.49-1.42-1.71-1.77-.04-.06-.14-.03-.13.05.06.6.37,2.03,1.8,3.84,0,0,0,0,0,0,.04.07,1.5,2.2,2.03,3.55.03.07.12.06.14-.01.07-.38.15-.83.24-1.12.3-1.06.77-2.04.99-3.12.15-.76.14-1.54.01-2.3-.13-.76-.34-1.59-.74-2.25-.18-.29-.42-.63-.62-.89-.05-.06-.15-.01-.12.06.16.51.33,1.42.15,2.65-.21,1.4-.21,2.96-.19,3.77,0,.08-.11.1-.14.03-.23-.64-.74-1.75-1.7-2.48"/>
      <path class="st19" d="M215.67,135.62c.11.48.48,2.04.68,2.87.02.08-.09.12-.13.05-.48-.76-1.19-1.42-2.28-2.2-.92-.65-1.42-1.26-1.64-1.57-.04-.06-.13-.03-.13.04.11,1.97,1.99,3.17,3.17,4.19.94.81,1.6,1.57,1.86,1.88.04.05.12.02.13-.04.01-.56.04-2.14.04-2.39,0-.3.13-2.33-.63-3.64-.54-.93-1.51-1.42-2.02-1.62-.07-.03-.13.06-.08.12.64.65.89,1.63,1.04,2.3"/>
      <path class="st19" d="M212.12,133.72c.71.99,2.24,2.13,3.02,2.86.05.05.13,0,.12-.06-.12-.72-.65-3.08-2.25-4.15-1.42-.95-2.37-1.3-2.76-1.43-.07-.02-.12.05-.08.11.31.42,1.15,1.55,1.95,2.67"/>
      <path class="st18" d="M264.14,146.14c.13.65.2,1.33.2,2.02,0,2.86-1.16,5.46-3.04,7.34-1.88,1.88-4.47,3.04-7.34,3.04s-5.46-1.16-7.34-3.04c-1.88-1.88-3.04-4.47-3.04-7.34s1.16-5.46,3.04-7.34c.63-.63,1.33-1.17,2.1-1.62v4.65c-.97,1.17-1.55,2.67-1.55,4.31,0,1.87.76,3.57,1.99,4.8,1.23,1.23,2.92,1.99,4.8,1.99s3.57-.76,4.8-1.99c1.23-1.23,1.99-2.92,1.99-4.8,0-.7-.11-1.38-.31-2.02h3.7Z"/>
      <path class="st16" d="M271.41,146.14c.08.66.12,1.34.12,2.02,0,4.85-1.97,9.24-5.14,12.41-3.18,3.18-7.57,5.14-12.41,5.14s-9.24-1.97-12.41-5.14c-3.18-3.18-5.14-7.57-5.14-12.41s1.97-9.24,5.14-12.41c1.98-1.98,4.44-3.49,7.18-4.35v3.81c-1.75.71-3.32,1.76-4.64,3.07-2.53,2.53-4.09,6.02-4.09,9.87s1.56,7.35,4.09,9.87c2.53,2.53,6.02,4.09,9.87,4.09s7.35-1.56,9.87-4.09c2.53-2.53,4.09-6.02,4.09-9.87,0-.69-.05-1.36-.15-2.02h3.62Z"/>
    </g>
    <g class="st17">
      <rect class="st4" x="245.81" y="123.85" width="28.3" height="28.3" transform="translate(-21.44 224.24) rotate(-45)"/>
    </g>
    <g>
      <path class="st12" d="M282.62,145.98c.72.28,1.5.42,2.35.42.9,0,1.7-.16,2.41-.49.7-.33,1.29-.77,1.77-1.34.48-.57.83-1.23,1.05-1.97.23-.74.32-1.54.29-2.37h-5.43v1.79h3.16c-.09.34-.23.64-.41.93-.18.28-.4.53-.66.75-.26.22-.57.39-.92.51-.35.12-.75.18-1.2.18-.68,0-1.29-.16-1.83-.47-.54-.31-.97-.76-1.28-1.33-.31-.57-.47-1.23-.47-1.99s.16-1.43.48-1.98c.32-.56.75-.98,1.3-1.28.55-.3,1.15-.45,1.81-.45.7,0,1.3.15,1.79.45.49.3.87.69,1.14,1.17l1.92-1.12c-.34-.51-.74-.96-1.2-1.33-.47-.37-1-.66-1.6-.87-.6-.21-1.28-.31-2.04-.31-.85,0-1.64.14-2.36.41-.72.27-1.35.66-1.89,1.16-.53.5-.95,1.11-1.25,1.82-.3.71-.45,1.49-.45,2.34s.14,1.63.43,2.34c.29.71.7,1.33,1.23,1.84.53.51,1.15.91,1.87,1.2"/>
      <path class="st12" d="M297.17,140.04c-.2.26-.44.55-.72.85l-5,5.22h8.85v-2.06h-4.61l2.86-2.71c.46-.42.83-.89,1.12-1.4.28-.51.42-1.06.42-1.65,0-.4-.08-.8-.24-1.2-.16-.4-.41-.76-.74-1.09-.33-.33-.74-.6-1.24-.8-.5-.2-1.08-.31-1.74-.31-.89,0-1.64.19-2.26.56-.61.37-1.08.87-1.39,1.5-.31.63-.47,1.34-.47,2.12h2.2c0-.44.08-.83.23-1.16.15-.34.37-.6.64-.78.28-.18.61-.28,1-.28.27,0,.51.04.72.13.21.09.39.21.53.35.15.15.26.31.33.5.07.19.11.38.11.58,0,.28-.05.56-.16.82-.1.26-.26.52-.46.79"/>
      <path class="st12" d="M308.17,142.12c-.1.46-.26.85-.46,1.18-.2.33-.44.58-.71.76-.27.18-.58.27-.93.27s-.64-.09-.91-.27c-.27-.18-.51-.43-.71-.76-.2-.33-.35-.72-.46-1.18-.1-.46-.16-.96-.16-1.52s.05-1.06.16-1.52c.1-.46.26-.85.46-1.18.2-.33.44-.58.71-.76.27-.18.58-.27.91-.27s.66.09.93.27c.27.18.51.43.71.76.2.33.35.72.46,1.18.1.46.16.96.16,1.52s-.05,1.06-.16,1.52M308.42,135.61c-.66-.47-1.44-.7-2.34-.7s-1.64.23-2.3.7c-.67.47-1.18,1.12-1.56,1.97-.37.85-.56,1.86-.56,3.02s.19,2.17.56,3.02c.37.85.89,1.51,1.56,1.97.67.47,1.43.7,2.3.7s1.68-.23,2.34-.7c.66-.47,1.17-1.12,1.54-1.97.37-.85.55-1.86.55-3.02s-.18-2.17-.55-3.02c-.37-.85-.88-1.51-1.54-1.97"/>
      <path class="st12" d="M322.4,140.23v1.79h3.16c-.09.34-.23.64-.41.93-.18.28-.4.53-.66.75-.26.22-.57.39-.92.51-.35.12-.75.18-1.2.18-.68,0-1.29-.16-1.83-.47-.54-.31-.97-.76-1.28-1.33-.31-.57-.47-1.23-.47-1.99s.16-1.43.48-1.98c.32-.56.75-.98,1.3-1.28.55-.3,1.15-.45,1.81-.45.7,0,1.3.15,1.79.45.49.3.87.69,1.14,1.17l1.92-1.12c-.34-.51-.74-.96-1.2-1.33s-1-.66-1.6-.87c-.6-.21-1.28-.31-2.04-.31-.85,0-1.64.14-2.36.41-.72.27-1.35.66-1.89,1.16-.53.5-.95,1.11-1.25,1.82-.3.71-.45,1.49-.45,2.34s.14,1.63.43,2.34c.29.71.7,1.33,1.23,1.84.53.51,1.15.91,1.87,1.2.72.28,1.5.42,2.35.42.9,0,1.7-.16,2.41-.49.7-.33,1.29-.77,1.77-1.34.48-.57.83-1.23,1.05-1.97.23-.74.32-1.54.29-2.37h-5.43Z"/>
    </g>
    <polygon class="st12" points="336.3 144.14 331.92 144.14 331.92 135.1 329.67 135.1 329.67 146.11 336.3 146.11 336.3 144.14"/>
    <g>
      <path class="st15" d="M345.31,142.47c-.29.54-.69.97-1.2,1.29-.51.31-1.11.47-1.79.47s-1.28-.16-1.79-.47c-.51-.31-.92-.74-1.21-1.29-.29-.55-.44-1.17-.44-1.87s.15-1.33.44-1.87c.29-.55.7-.98,1.21-1.29.51-.31,1.11-.47,1.79-.47s1.3.16,1.81.47c.51.31.91.74,1.2,1.29.28.54.42,1.17.42,1.87s-.14,1.33-.43,1.87M346.47,136.48c-.53-.51-1.15-.91-1.85-1.19-.7-.28-1.47-.42-2.31-.42s-1.6.14-2.3.42c-.71.28-1.32.67-1.85,1.19-.52.51-.93,1.12-1.23,1.82-.29.7-.44,1.47-.44,2.3s.14,1.6.42,2.3c.28.71.69,1.32,1.21,1.85.52.52,1.14.93,1.85,1.22.71.29,1.49.43,2.34.43s1.63-.14,2.34-.43c.71-.29,1.32-.69,1.84-1.22.52-.52.92-1.14,1.21-1.85.29-.71.43-1.48.43-2.3s-.14-1.61-.43-2.3c-.29-.7-.7-1.3-1.23-1.82"/>
      <path class="st12" d="M355.31,143.62c-.17.24-.41.42-.72.53-.3.11-.64.17-1.02.17h-1.45v-3.15h1.91c.11.01.22.03.32.05.24.06.45.15.64.28.18.13.32.29.42.49.1.19.15.43.15.7,0,.38-.09.69-.26.93M352.13,136.89h1.21c.49,0,.88.11,1.17.33.29.22.43.54.43.96,0,.27-.07.51-.2.71-.13.2-.32.35-.56.46-.24.1-.52.16-.85.16h-1.21v-2.61ZM357.54,141.58c-.23-.39-.53-.71-.92-.95-.31-.19-.64-.35-1.01-.46h0c.49-.21.88-.49,1.17-.86.31-.4.47-.88.47-1.43,0-.63-.16-1.15-.47-1.56-.31-.41-.75-.72-1.31-.92-.56-.2-1.2-.31-1.93-.31h-3.66v11.01h3.9c.82,0,1.54-.11,2.15-.33.62-.22,1.1-.56,1.44-1.02.34-.46.51-1.05.51-1.78,0-.55-.11-1.01-.34-1.4"/>
    </g>
    <path class="st12" d="M363.97,138.67l1.37,3.16h-2.74l1.38-3.16ZM365.84,143.61l1.16,2.5h2.55l-5.58-11.65-5.58,11.65h2.53l1.15-2.5h3.78Z"/>
    <polygon class="st12" points="377.38 144.14 373 144.14 373 135.1 370.75 135.1 370.75 146.11 377.38 146.11 377.38 144.14"/>
    <polygon class="st12" points="281.96 151.01 279.72 151.01 279.72 162.02 286.35 162.02 286.35 160.05 281.96 160.05 281.96 151.01"/>
    <path class="st12" d="M291.14,157.74l1.38-3.16,1.37,3.16h-2.74ZM286.93,162.02h2.53l1.15-2.5h3.78l1.16,2.5h2.55l-5.58-11.65-5.58,11.65Z"/>
    <polygon class="st12" points="307.13 157.83 299.3 150.46 299.3 162.02 301.47 162.02 301.47 155.19 309.3 162.57 309.3 151.01 307.13 151.01 307.13 157.83"/>
    <path class="st12" d="M318.62,158.08c-.18.43-.44.79-.76,1.08-.32.28-.7.49-1.13.62-.43.13-.89.2-1.37.2h-1.37v-6.92h1.37c.48,0,.94.07,1.37.2s.81.34,1.13.62c.32.28.58.64.76,1.08.18.44.28.96.28,1.57s-.09,1.13-.28,1.56M318.46,151.68c-.86-.45-1.87-.68-3.03-.68h-3.74v11.01h3.74c1.15,0,2.16-.23,3.03-.68.87-.45,1.54-1.09,2.02-1.91.48-.82.72-1.8.72-2.92s-.24-2.09-.72-2.92c-.48-.82-1.16-1.46-2.02-1.91"/>
    <rect class="st12" x="327.67" y="151.01" width="2.28" height="11.01"/>
    <polygon class="st12" points="340.16 157.83 332.32 150.46 332.32 162.02 334.5 162.02 334.5 155.19 342.33 162.57 342.33 151.01 340.16 151.01 340.16 157.83"/>
    <rect class="st12" x="344.72" y="151.01" width="2.28" height="11.01"/>
    <polygon class="st12" points="348.27 153.04 351.23 153.04 351.23 162.02 353.48 162.02 353.48 153.04 356.45 153.04 356.45 151.01 348.27 151.01 348.27 153.04"/>
    <rect class="st12" x="357.73" y="151.01" width="2.28" height="11.01"/>
    <path class="st12" d="M365.41,157.74l1.38-3.16,1.37,3.16h-2.74ZM361.2,162.02h2.53l1.15-2.5h3.78l1.16,2.5h2.55l-5.58-11.65-5.58,11.65Z"/>
    <polygon class="st12" points="371.36 153.04 374.32 153.04 374.32 162.02 376.57 162.02 376.57 153.04 379.54 153.04 379.54 151.01 371.36 151.01 371.36 153.04"/>
    <rect class="st12" x="380.81" y="151.01" width="2.28" height="11.01"/>
    <polygon class="st12" points="389.87 158.18 386.88 151.01 384.29 151.01 389.87 162.66 395.46 151.01 392.85 151.01 389.87 158.18"/>
    <polygon class="st12" points="398.82 151.01 398.1 151.01 396.65 151.01 396.65 162.02 398.1 162.02 398.82 162.02 403.65 162.02 403.65 160.11 398.82 160.11 398.82 157.11 403.34 157.11 403.34 155.24 398.82 155.24 398.82 152.91 403.65 152.91 403.65 151.01 398.82 151.01"/>
    <line class="st1" x1="228.5" y1="130.75" x2="228.5" y2="166.18"/>
  </g>
</svg>