<svg width="20" height="18" viewBox="0 0 20 18" fill="none" xmlns="http://www.w3.org/2000/svg">
<path fill-rule="evenodd" clip-rule="evenodd" d="M19.5329 17.7572H15.2158V11.5148C15.2158 9.88088 14.5406 8.76545 13.0556 8.76545C11.9198 8.76545 11.2881 9.51817 10.9941 10.2436C10.8839 10.504 10.9011 10.8667 10.9011 11.2294V17.7572H6.62428C6.62428 17.7572 6.67941 6.69945 6.62428 5.6943H10.9011V7.58748C11.1538 6.75971 12.5204 5.57832 14.7013 5.57832C17.4071 5.57832 19.5329 7.31345 19.5329 11.0498V17.7572ZM2.2992 4.18545H2.27164C0.893499 4.18545 0 3.2633 0 2.09443C0 0.902806 0.919909 0 2.32562 0C3.73017 0 4.59381 0.900543 4.62137 2.09102C4.62137 3.2599 3.73017 4.18545 2.2992 4.18545ZM0.492674 5.6943H4.29981V17.7572H0.492674V5.6943Z" fill="#007EBB"/>
</svg>
