<?xml version="1.0" encoding="utf-8"?>
<!-- Generator: Adobe Illustrator 27.0.0, SVG Export Plug-In . SVG Version: 6.00 Build 0)  -->
<svg version="1.1" id="Layer_1" xmlns="http://www.w3.org/2000/svg" xmlns:xlink="http://www.w3.org/1999/xlink" x="0px" y="0px"
	 viewBox="0 0 836.31 804.99" style="enable-background:new 0 0 836.31 804.99;" xml:space="preserve">
<style type="text/css">
	.st0{fill:#FFFFFF;}
</style>
<path class="st0" d="M812.15,774.56c-9.57,0-19.15,0.01-28.72,0.01c-15.58,0.11-31.17,0.28-46.75,0.3
	c-16.74,0.01-33.49-0.12-50.23-0.2c-2,0.01-4,0.02-6,0.04c-26.33,0.41-52.66,0.41-78.99,0c-2,0.41-4,0.38-6-0.03c-2.33,0-4.66,0-7,0
	c-4.75,0.06-9.5,0.12-14.25,0.19c-2.36,0.04-3.57-0.57-2.05-3.13c1.16-1.96,2.15-4.01,3.21-6.02c0.83-5.27,0.74-10.56,0.27-15.85
	c-1.11-4.01-1.93-8.13-4.12-11.73c-0.91-1.49-0.66-2.6,0.03-4.11c3.17-6.95,2.06-10-5-13.13c-2.04-0.9-1.24-2.07-1.01-3.17
	c0.98-4.72,2.1-9.42,3.16-14.12c0.27-1.29,0.53-2.58,0.8-3.88c0.13-1.05,0.25-2.11,0.38-3.16c0.22-0.95,0.43-1.89,0.65-2.84
	c1.61-10,3.21-20,4.82-29.99c0.8-7,1.59-13.99,2.39-20.99c0.73-8.31,1.47-16.62,2.2-24.94c0.21-3.02,0.43-6.04,0.64-9.06
	c0.09-2.39,0.18-4.77,0.27-7.16c0.08-1.63,0.16-3.25,0.23-4.88c-0.3-1.34-0.38-2.67,0.21-3.96c0.08-2.67,0.17-5.34,0.25-8
	c0.03-1.67,0.05-3.34,0.08-5.01c0-6.66,0.01-13.32,0.01-19.98c-0.02-2.34-0.04-4.67-0.06-7.01c-0.02-1-0.03-2-0.05-2.99
	c-0.04-1.67-0.08-3.33-0.12-5l-0.19-5.01c-0.55-1.29-0.44-2.61-0.19-3.94c-0.49-1.7-0.58-3.41-0.1-5.13c0.2-1.33,0.39-2.67,0.59-4
	c0.14-2,0.28-4,0.42-5.99c0.14-0.97,0.29-1.94,0.43-2.92c0.46-5.66,0.91-11.33,1.37-16.99c0.84-14.33,1.69-28.66,2.53-43
	c0.05-1.34,0.1-2.67,0.15-4.01c0.04-1.33,0.07-2.67,0.11-4c0.07-12.76,0.14-25.52,0.21-38.27c-0.29-1.58-0.54-3.15,0.17-4.71
	c3.1,1.93,6.13,3.81,9.17,5.7c0,0,0.38,0.16,0.38,0.16c1.42,0.09,2.82,0.22,3.99,1.16c5.38,0.37,10.73,0.52,15.88-1.53
	c1.04-0.5,2.08-1.01,3.12-1.51c0.88-0.68,1.77-1.35,2.65-2.03c1.36-1.73,2.72-3.45,4.08-5.18l-0.01-0.01
	c1.31-3.28,2.63-6.57,3.94-9.85c0.18-0.97,0.35-1.94,0.53-2.91c0.15-1.04,0.31-2.08,0.46-3.12c1.08-14.6,0.69-29.17-1.06-43.7
	c-2.9-2.29-0.89-5.86-2.27-8.74c-1.16-2.42-0.73-5.61-1-8.45c-1.07-3.32-3.06-6.58-0.61-10.11c0.92-4.01,1.83-8.02,2.75-12.03
	c0.19-1.62,0.38-3.23,0.57-4.85c0-1,0-2,0.01-3c-0.77-5-1.53-10-2.3-15.01c-0.88-2.13-1.69-4.3-2.67-6.38
	c-1.18-2.5-2.84-4.91,2.19-4.65c2.15,0.11,1.84-2.03,1.68-3.43c-0.43-3.78-1.03-7.54-1.57-11.3c-0.65-2.35-1.29-4.71-1.94-7.06
	c-4.14-10.11-8.32-20.16-16.96-27.57c-1.23-1.05-2.32-3.23-1.06-5.31c-0.67-0.09-1.08-0.83-1.37-1.69c-0.87-2.61-1.61-5.26-2.4-7.89
	c-2.37-6.53-4.74-13.05-7.11-19.58c-0.9-1.93-1.8-3.87-2.71-5.8c-2.34-2.94-4.67-5.87-7.01-8.81c-0.97-0.66-1.95-1.32-2.92-1.98
	c-4-1.97-8.12-2.44-12.38-0.93c-0.4,0.25-0.8,0.5-1.2,0.76c-4.08,20.07-4.98,40.23-1.35,60.44c0.64,3.59-0.54,4.45-3.82,4.93
	c-3.62,0.53-6.72-1.66-10.3-1.19c-1.5,0.2-1.15-1.74-1.17-2.78c-0.2-17.46,0.09-34.92,1-52.35c0.3-5.74,2.86-7.77,8.57-7.53
	c2.47,0.1,4.48-1.02,6.56-2.05c0.3-0.37,0.6-0.75,0.9-1.12c1.16-2.99-0.84-4.84-3.04-4.98c-5.56-0.34-4.31-3.46-3.36-6.71
	c-0.41-2.66-0.82-5.32-1.23-7.99c-1.79-3.31-3.57-6.61-5.36-9.92c-0.84-1.59-1.47-3.24-1.44-5.07c-0.12-0.67-0.25-1.34-0.37-2
	c-1.12-2.23-0.98-4.62-0.92-7.01c-0.52-1.63-0.75-3.28-0.28-4.97c-0.43-2.69-0.55-5.37,0.12-8.04c0.15-5.33,0.3-10.66,0.46-16
	c0-0.99,0-1.99,0-2.98c-0.44-5-0.89-10-1.33-15l-1.14-4.49c-3.62-9.47-8.76-17.75-17.96-22.82c-0.99-0.44-1.98-0.88-2.96-1.33
	c-1.32-0.31-2.64-0.63-3.96-0.94c-3.76-0.88-7.44,1.01-11.19,0.29c-8.15-4.23-16.32-2.94-24.51-0.12c-1.34,0.64-2.68,1.28-4.02,1.92
	c-9.3,5.87-14.59,14.74-18.45,24.68c-0.73,3.31-1.46,6.62-2.19,9.93c-0.29,3.96-0.58,7.93-0.87,11.9c0.01,0.99,0.02,1.98,0.03,2.97
	c0.36,5.34,0.72,10.68,1.08,16.02l0.82,6.83c0.02,4.19-1.29,8.14-2.29,12.14c-0.12,0.67-0.23,1.34-0.35,2.01
	c-0.32,3.33-0.65,6.67-0.97,10c0.16,2.68,0.32,5.36,0.48,8.05c1.39,6.72,3.15,13.32,7.78,18.67c6.63,7.66,14.82,11.12,24.95,8.63
	c2.12-0.52,6.05-0.98,1.6-4.26c-1.35-0.99-0.47-2.01-0.07-3.08c2.64-7.14,5.35-14.15,4.71-22.13c-0.38-4.81,3.52-7.65,7.51-9.71
	c3.47-1.8,6.57-3.97,8.36-7.57c0.63-1.26,1.8-2.53,0.6-4.05c-0.89-0.47-1.3,0.18-1.62,0.71c-7.26,12.02-19.54,13.63-29.65,3.83
	c-4.14-4.01-6.99-8.86-8.82-14.32c-2.66-7.92-4.35-16.07-5.13-24.37c-0.85-8.98,2.02-13.6,10.37-17.23
	c5.02-2.19,10.54-3.24,15.15-6.36c1.65-1.12,2.89-0.2,4.13,0.48c5.72,3.14,11.02,6.85,15.18,11.99c4.31,5.31,6.65,10.77,6.06,18.21
	c-1.09,13.74-0.07,27.62-1.75,41.39c-1.29,10.57-3.85,20.65-10.98,28.93c-2.07,2.41-1.41,3.72,1.04,4.93
	c5.23,2.59,10.47,2.94,15.88,0.45c1.39-0.64,2.49-2.3,4.4-1.66c-1.56,11.81-10.03,21.64-20.99,24.39c-3.75,0.94-6.7,0.67-6.59-4.31
	c0.01-0.32-0.14-0.65-0.19-0.98c-2.11-12.94-2.11-12.97-15.08-12.71c-13.5,0.27-26.87,2.01-40.27,3.45c-0.63,0.1-1.25,0.2-1.88,0.3
	c-3.23,0.58-7.05,2.49-9.5,1.37c-2.29-1.04-0.9-5.64-1.58-8.62c-0.77-3.35-1.11-6.81-1.64-10.21c-0.71-2.68-1.41-5.36-2.12-8.04
	c-3.31-7.64-8.94-12.95-16.48-16.31c-0.31-0.1-0.63-0.19-0.94-0.29c-3.57-1.13-7.14-2.26-10.72-3.38c-0.41-0.11-0.82-0.23-1.22-0.34
	c0,0-0.42,0.03-0.41,0.03c-3.16-0.34-6.4-0.43-9.06-2.57c0,0-0.03-0.03-0.03-0.03c-1.11,0.96-2,0.05-2.95-0.34
	c-2.37-0.21-4.38-2.33-6.98-1.28c-0.38,0.08-0.76,0.16-1.15,0.23c0.09-0.41,0.17-0.82,0.25-1.22c-0.21-0.62-0.24-1.4-0.65-1.83
	c-4.72-4.94-5.22-10.92-0.87-15.97c6.11-7.09,10.93-14.95,14.88-23.38c1.08-2.3,2.09-3.85,5.12-3.21c3.34,0.7,5.61-1.42,7.47-3.92
	c2.59-3.47,4.32-7.41,6.14-11.3c0.66-2.99,0.76-5.99,0.28-9.01c-6.27-3.36-5.83-8.27-3.27-13.75c0.48-1.02,0.59-2.22,0.86-3.34
	c0.14-0.63,0.29-1.27,0.43-1.9c0.22-1.66,0.44-3.32,0.66-4.98c0.12-5.34,0.25-10.68,0.37-16.01c-1.58-5.63-4.65-9.42-11.1-9.25
	c-0.7,0.02-1.65-0.46-2.11-1.02c-4.38-5.32-10.55-7.13-16.82-8.77c-0.66-0.05-1.33-0.09-1.99-0.14c-7.43-0.32-14.68,1.31-22.01,2.04
	c-2.26,0.81-4.58,1.22-6.99,1.01c-1.64,0.49-3.28,0.85-4.99,0.38c-1.63,0.13-3.26,0.26-4.9,0.38c-2.24,0.31-4.29,1.07-6.07,2.51
	c-0.82,1.36-1.64,2.73-2.46,4.09c-0.97,2.99-2.24,5.93-1.74,9.19c0.2,1.3-0.37,2.2-1.22,3.09c-6.95,7.32-6.4,15.17-1.62,23.33
	c0.75,1.29,1.38,2.65,2.02,4.01c0.12,0.26,0.02,0.64,0.02,1.14c-4.14,0.58-8.51,1.26-9.23,6.5c-1.05,7.66,0.28,14.69,6.91,19.64
	c1.68,1.26,3.83,1.95,5.83,2.69c1.31,0.49,2.62,0.73,2.35,2.56c0,0.51,0,1.02-0.01,1.53l-0.07,4.11c0,1.66-0.01,3.33-0.01,4.99
	c0.73,13.56-6.7,23.93-19.78,27.54c-4.95,1.37-10.56-0.18-15.05,3.54c-0.57,0.47-2.41-0.67-3.68-0.98
	c-7.24-1.77-13.84-1.17-18.92,5.11c-0.49,0.6-1.14,1.4-1.81,1.49c-5.75,0.79-10.4,4.17-15.5,6.48c-1.29,0.81-2.58,1.62-3.87,2.42
	c-7.66,5.44-15.07,11.19-22.2,17.31c-0.24,0.23-0.48,0.47-0.72,0.7c-2.81,2.9-5.62,5.81-8.43,8.71c-0.01,0.4-0.21,0.62-0.6,0.68
	c-1.02,2.41-6.1,4.96,0.34,7.11c1.05,0.35,0.24,1.44-0.31,1.98c-9.34,9.17-18.67,18.35-28.1,27.43c-1.02,0.98-2.64,1.34-3.98,1.99
	c-0.67,0.37-1.35,0.73-2.02,1.1c-3.05,2.26-6.1,4.53-8.45,7.56c-2.45,7.41-0.77,12.68,6.07,18.39c6.92,5.78,15.04,8.5,23.96,8.63
	c3.54,0.05,4.14,1.12,3.24,4.42c-3.4,12.6-3.68,25.33-0.69,38.06c0.42,1.79,0.39,3.05-1.21,4.35c-5.98,4.83-8.39,11.62-8.9,18.91
	c-1.19,17.18-0.39,34.32,2.88,51.25c1.59,8.23,5.62,15.25,14.05,18.05c12.04,3.99,24.39,5.3,36.75,1.3
	c2.31-0.75,2.93-0.59,2.93,1.81c0,0.65,0.71,1.66,1.33,1.9c5.35,2.02,4.69,6.4,4.54,10.75c-1.28,36.48-1.28,72.95,1.12,109.39
	c1.67,25.31,1.62,50.62-0.74,75.88c-3.21,34.35-5.64,68.74-4.85,103.27c0.27,11.77-0.63,23.68,3.6,35.29
	c-3.23,0.52-6.99,0.51-6.63,5.02c0.67,8.59,7.07,10.73,15.11,11.78c-7.23,4.99-13.23,9.96-18.33,15.9
	c-3.48,4.05-7.36,8.2-7.82,13.64c-0.33,3.95-1.76,4.36-5.06,4.35c-41.82-0.14-83.64-0.06-125.46-0.25
	c-36.19-0.17-72.39-0.35-108.58-0.52c-0.08,0.77-0.16,1.54-0.26,2.31c82.81,0.54,165.59,0.98,248.43,0.75
	c-0.45-1.91-1.02-2.18-1.7-2.32c-5.74-1.19-6.69-2.61-3.88-7.49c6.39-11.07,15.12-19.98,26.95-25.08
	c5.12-2.21,10.93-2.24,17.77-0.97c-5,3.37-9.29,4.72-13.46,6.32c-7.25,2.77-13.87,6.5-18.95,12.54c-3.2,3.81-3.89,8.03-1.63,12.55
	c2.18,4.36,5.46,6.94,10.65,6.81c7.16-0.18,14.42-0.86,21.47,0.02c8.34,1.04,11.93-3.42,14.5-9.9c1.1-2.77,1.91-5.68,2.52-8.6
	c1.2-5.76,0.68-11.27-3.16-16.09c-3.39-4.26-3.34-4.57,1.93-5.57c2-0.38,3.12-1.15,2.96-3.18c-0.29-3.84,2.25-7.71-0.11-11.49
	c-0.17-0.28-0.97-0.33-1.42-0.24c-5.17,1.01-5.15-1.77-4.51-5.64c4.29-25.75,7.02-51.7,9.26-77.69c1.2-13.93,1.81-27.92,2.92-41.86
	c1.07-13.45-0.19-27.05,2.07-40.38c3.48-20.51,7.43-40.95,11.27-61.4c0.39-2.06-0.18-4.43,1.51-6.71c0.46,0.96,0.85,1.37,0.83,1.77
	c-0.84,14.7,2.66,29.04,3.67,43.58c1.43,20.46,3.06,40.89-0.85,61.26c-1.1,5.72-2.48,11.36-2.87,17.21
	c-1.75,26.14-1.89,52.27,0.16,78.39c0.83,10.58,1.31,21.24,3.78,31.64c11.99-1.61,24.02-2.83,36.13-3.14
	c-11.93,2.18-23.91,3.79-36.07,3.24c-2.48,4.71-2.23,10.25-0.57,14.4c1.22,3.05,1.2,5.33,0.79,8.07
	c-1.11,7.47-1.23,14.91,0.25,22.36c0.49,2.45,1.5,3.69,4.09,4.13c22.41,3.83,44.91,5.79,67.64,3.8c3.04-0.27,5.88-1.17,8.32-3.06
	c6.21-4.82,5.32-12.53-1.96-15.38c-3.07-1.2-6.41-1.75-9.67-2.41c-6.23-1.25-11.61-4.14-16.07-8.56c-4.1-4.05-7.43-8.95-13.4-11.35
	c4.93-0.64,4.88-3.73,4.73-7.25c-0.09-2.21-1.39-5.12,0.7-6.6c2.2-1.56,1.79-3.18,1.68-5.15c-0.68-12.47-1.06-24.96-0.91-37.45
	c0.42-34.87,4.33-69.41,9.12-103.92c4.46-32.21,5.51-64.7,6.46-97.16c0.33-11.42,0.31-22.87,0.69-34.26
	c0.63-18.6,1.35-37.18,1.28-55.8c-0.01-1.5-0.27-2.04-1.83-2.01c-4.48,0.1-9.12-0.67-13.42,0.24c-12.51,2.64-25.27,2.24-37.87,3.67
	c-7.39,0.83-14.95,0.17-22.43,0.17c-10.15,0-20.31,0.26-30.44-0.08c-9.76-0.33-19.43-2.28-29.28-1.82c-2.31,0.11-3.8-1.46-3.81-4.21
	c-0.01-2.4,1.41-3.99,2.38-5.89c1.43-2.79,3.5-6.4,0.71-8.61c-2.32-1.84-2.01-3.43-1.88-5.43c1.2-18.28,3.15-36.49,5.12-54.7
	c0.6-5.54,2.06-10.48,5.5-15.15c12.88-17.5,21.6-37.05,26.63-58.14c1.27-5.3,2.9-8.82,9.02-8.82c2.61,0,5.97-1.95,4.92-4.36
	c-2-4.61,0.11-6.09,3.51-7.64c0.5-0.23,0.83-1.02,1.07-1.62c1.48-3.68-3.91-4.87-3.29-6.73c0.75-2.26,4.53-3.43,2.85-6.99
	c-0.07-0.15-0.16-0.3-0.27-0.42c-1.1-1.18-0.67-2.28-0.16-3.64c2.63-6.96-0.08-12.59-7.32-14.62c-2.74-0.77-3.89-1.76-3.64-4.71
	c0.53-6.29,1.37-12.61-0.19-18.89c-0.25-1-0.31-2.05,1.07-2.32c2.81-0.56,2.16-2.39,1.58-4.21c-0.25-0.77-0.7-1.67,0.23-2.21
	c1.22-0.72,1.74,0.38,2.3,1.14c1.57,2.15,3.04,4.37,4.68,6.47c16.15,20.69,38.03,19.85,52.18-1.99c2.26-3.49,4.25-7.16,6.71-10.5
	c1.67-2.26,3.18-5.79,6.94-4.4c8.01,2.96,16.46,4.14,24.6,6.57c10.9,3.25,17.7,10.23,20.04,21.36c1.03,4.88,1.54,9.87,2.6,14.74
	c0.67,3.05-0.67,4.18-3.26,4.94c-4.37,1.29-8.86,1.41-13.35,1.6c-4.67,0.2-9.32,0.37-13.7,2.32c-7.86,3.5-10.5,9.79-7.61,17.63
	c5.48,14.83,10.28,29.88,14.71,45.06c0.59,2.03,2.11,4.64-2.46,3.99c-2.74-0.39-3.99,1.98-4.52,4.44c-0.61,2.8-1.05,5.9,0.04,8.4
	c4.31,9.92,2.96,20.24,3.31,30.56c0.37,10.93,6.31,19.2,16.45,23.76c9.04,4.06,17.19,1.72,24.5-4.47c1.61-2.68,3.7-5.12,4.38-8.27
	c1.1-5.1,1.06-5.11,8.05-5.87c-0.45,1.64-2.04,1.98-3.13,2.83c-1.56,1.2-2.13,2.29-0.62,4.05c1.51,1.76,1.53,3.94,0.85,6.11
	c-0.97,3.45-2.2,6.86-2.84,10.37c-1.2,6.56,1.73,10.31,8.37,10.77c5.48,0.38,10.99,0.37,16.48,0.6c1.14,0.05,2.73-0.51,3.23,2.59
	c-7.46,0-14.69-0.11-21.91,0.03c-8.42,0.16-6.85-1.01-7.9,7.17c-3.04,23.79-5.79,47.61-7.77,71.53
	c-4.61,55.63-0.93,110.4,15.3,164.14c11.82,39.14,27.34,76.8,43.44,114.28c0.54,1.26,4.53,4.45-1.33,4.65
	c-1.57,0.05-0.58,2.17-0.15,3.37c1.73,4.86,3.38,9.75,5.23,14.57c0.82,2.15,0.63,3.46-1.37,5.03
	c-12.57,9.84-22.56,22.71-36.36,31.15c-0.83,0.51-1.53,1.31-2.11,2.11c-2.07,2.86-3.09,6.03-1.33,9.35c1.6,3.02,4.29,4.47,7.8,4.18
	c2.46-0.21,5-0.47,7.37-0.45c8.22,0.09,16.77-5.13,24.71,1.37c1.14,0.93,3.18,0.88,4.82,1.06c6.31,0.7,12.63,0.44,18.96,0.47
	c14.79,0.07,29.29-2.89,44.26-2.41c35.96,1.15,71.98,0.4,107.97,0.46c14.82,0.03,29.64,0.17,44.46,0.27
	c17.94-0.16,35.87-0.38,53.81-0.45c9.78-0.04,19.56-0.05,29.34-0.06C812.4,776.27,812.26,775.42,812.15,774.56z M275.68,738.37
	c-3.23-0.41-5.98-1.99-7.58-4.96c-0.93-1.72-2.09-4.05-0.1-5.36c1.65-1.09,4.29-1.27,5.85,0.69c3.45,4.33,7.75,7.44,12.65,10.34
	C282.89,738.86,279.26,738.82,275.68,738.37z M314.96,754.41c0.65,7.8-1.88,14.7-6.28,21.03c-1.17,1.68-2.74,2.17-4.72,2.13
	c-4.32-0.09-8.64-0.03-12.96-0.03v0.13c-4.15,0-8.31-0.09-12.46,0.03c-4,0.11-6.65-1.88-8.37-5.19c-1.85-3.56-1.55-6.97,1.1-10.19
	c4.47-5.41,10.28-8.86,16.65-11.43c5.23-2.11,10.69-3.75,15.41-6.93c2.22-1.49,4.01-0.93,5.89,0.4
	C312.69,746.82,314.61,750.24,314.96,754.41z M315.97,727.52c1.7,0.28,1.12,1.71,1.07,2.8c-0.36,7.7-3.25,9.43-10.68,6.16
	c-1.96-0.87-3.46-0.27-5.19,0.39c-7.19,2.77-20.56-2.36-24.05-9.4c6.44,0,12.74,0.04,19.04-0.02c1.74-0.02,3.06,0.61,4.56,1.47
	c3.75,2.13,7.78,5.52,11.06-0.92C312.49,726.62,314.56,727.29,315.97,727.52z M392.9,747.33c5.7,7.23,13.36,11.36,22.54,12.61
	c1.65,0.22,3.31,0.53,4.87,1.07c3.01,1.05,6.26,2.16,6.27,6.13c0.01,4.06-2.6,6.25-6.16,7.56c-3.84,1.41-7.87,1.31-11.85,1.5
	c-4.32,0.21-8.66,0.05-12.99,0.05c-14.51-0.17-28.91-1.58-43.26-3.77c-3.52-0.54-5.19-1.96-5.58-5.54
	c-0.79-7.19-0.58-14.28,0.74-21.39c0.42-2.27,1.33-3.66,3.83-3.69c6.7-0.09,13.19-1.76,19.8-2.57
	C379.75,738.2,387.18,740.07,392.9,747.33z M383.48,734.09c-9.15,1.68-18.34,3.08-27.52,4.59c-1.14,0.19-2.28,0.44-3.43,0.59
	c-5.85,0.74-7.01-0.28-6.98-6.62c-0.85-3.76,0.76-5.12,5.25-5.09c10.48,0.07,20.87-1.35,31.21-3.07c1.53-0.25,4.24-1.75,3.89,1.47
	C385.61,728.71,389,733.07,383.48,734.09z M279.14,392.26c3.42,1.15,6.94,0.23,10.37,0.82c0.99,0.02,1.98,0.05,2.97,0.07
	c4.67,0.25,9.35,0.5,14.02,0.75c2.66,0.06,5.32,0.13,7.98,0.19c24.05,0.13,48.07-0.58,72.02-2.91c2-0.1,4.01-0.2,6.01-0.3
	c0.55-0.75,1.24-0.74,1.99-0.36c1.32-0.13,2.64-0.26,3.97-0.39c6.93-0.59,7.02-0.59,6.88,6.03c-0.32,14.88-0.75,29.76-1.14,44.64
	c-0.04,2.32-0.08,4.65-0.12,6.97c0.24,6.35-0.03,12.69-0.63,19.01c-0.11,4.66-0.23,9.32-0.34,13.98c-0.01,0.72-0.02,1.44-0.03,2.17
	c-0.31,10.96-0.28,21.93-1.47,32.85c-0.19,4.38-0.39,8.76-0.58,13.14c0.17,1.65,0.15,3.28-0.47,4.85
	c-0.62,17.11-2.01,34.14-5.19,50.99c-0.05,4.41-0.72,8.73-1.74,13c-1.37,12.99-2.75,25.99-4.12,38.98l-0.26,3.99
	c-0.02,0.67-0.05,1.34-0.07,2.02c-0.13,1.67-0.27,3.34-0.4,5.01c-0.11,1.33-0.21,2.65-0.32,3.98c-0.13,3.33-0.25,6.66-0.38,9.98
	c-0.04,1.05-0.08,2.11-0.12,3.16c-0.18,4.95-0.35,9.9-0.53,14.85c0.01,5.67,0.03,11.33,0.04,17l0.64,14.83
	c0.07,0.32,0.14,0.65,0.22,0.97c1.13,4.75-0.56,6.2-5.56,6.42c-11.14,0.5-22.25,1.8-33.35,2.98c-2.83,0.3-3.92-0.4-3.98-3.29
	c-0.07-3.31-0.54-6.62-0.83-9.92c-0.32-3.33-0.64-6.66-0.96-9.99c-0.16-1.99-0.32-3.99-0.48-5.98c-0.08-0.62-0.15-1.24-0.23-1.86
	c-0.04-0.72-0.08-1.45-0.12-2.17c-0.14-2.66-0.28-5.33-0.42-7.99c-0.48-1.31-0.53-2.64-0.15-3.98c-0.73-3.96-0.62-7.94-0.47-11.93
	c-0.03-4.03-0.06-8.05-0.08-12.08c0.01-1.66,0.01-3.32,0.01-4.98c-0.23-7.02-0.3-14.03,0.79-21c0.02-0.67,0.03-1.33,0.05-2
	c-0.21-3.36-0.17-6.7,0.66-9.99c-0.07-2.76-0.08-5.51,0.89-8.15c5.04-21.08,4.48-42.44,3.18-63.84c-0.08-0.64-0.15-1.28-0.23-1.92
	c-0.65-7.01-1.31-14.03-1.96-21.04c-1.05-7.64-1.79-15.31-1.64-23.04c-0.03-0.67-0.06-1.33-0.08-2c-0.75-4.66-0.7-9.34-0.22-14.02
	c0.04-0.66,0.08-1.31,0.13-1.97c-0.13-4.71,0-9.4,1.15-14.01c-0.54-4.35,2.2-8.51,0.52-12.99c-3.01,6.74-3.1,14.16-4.93,21.16
	c-0.22,0.94-0.44,1.89-0.65,2.83c-1.46,8.37-2.92,16.74-4.38,25.1l-0.85,4.14c-3.06,17.14-6.16,34.28-9.16,51.43
	c-0.71,4.08-1.11,8.21-1.66,12.31c0.08,6.34,0.29,12.69-0.61,19c-0.13,3-0.27,5.99-0.4,8.99c-0.02,0.67-0.05,1.35-0.07,2.02
	c-0.39,19.98-2.3,39.86-4.2,59.73c-1.96,20.55-4.8,40.99-7.73,61.41c-0.46,3.21-0.91,5.42-5.27,5.27c-4.26-0.14-6.49-1.14-6.9-5.64
	c-0.54-5.94,0.82-11.6,2.07-17.26c4.49-20.29,10.96-40.11,14.77-60.57c1.58-8.52,2.77-17.08,2.53-25.79
	c-0.26-9.52-2.92-17.86-10.37-24.47c-7.04-6.24-7.27-9.83-2.19-17.73c5.75-8.96,11.69-17.82,16.15-27.53
	c6.4-13.94,8.43-27.99,0.36-42.09c-3.15-5.5-7.8-9.45-13.16-12.65c-1.65-0.79-3.29-1.58-4.94-2.37
	c-15.55-4.42-20.94-16.41-22.51-30.87c-2.32-21.36-2.57-42.86-3.72-64.3C277.04,391.85,278.22,391.95,279.14,392.26z M276.02,392.2
	l0.32,0.17l-0.35,0.09L276.02,392.2z M275,396.87c0.67,19.97,1.52,39.94,3.34,59.84c0.52,5.65,1.6,11.2,3.77,16.49
	c2.96,7.23,7.62,12.82,15,15.88c1.69,0.7,3.24,1.75,4.96,2.35c19.18,6.67,26.08,26.12,20.29,44.99
	c-3.75,12.24-10.95,22.73-17.71,33.42c-1.42,2.25-2.89,4.49-4.07,6.87c-2.4,4.83-2.21,10,1.93,13.32
	c14.86,11.93,13.72,27.75,11.39,43.9c-2.91,20.14-9.22,39.51-13.91,59.25c-2.33,9.8-6.01,19.52-3.5,29.92
	c0.54,2.24-1.09,2-2.37,2.01c-5.66,0.04-11.33-0.06-16.98,0.1c-2.31,0.06-3.26-1.09-3.96-2.97c-1.72-4.57-2.5-9.31-2.67-14.17
	c-1.27-36.5-0.41-72.93,3.38-109.26c3.45-33.06,3.31-66.13,1.22-99.27C272.97,465.32,273.09,431.09,275,396.87z M385.73,112.74
	c-8.8,12.25-18.87,10.27-28.04,1.33c-6.65-6.49-10.27-15.18-13.86-23.48c-1.58-3.65-2.25-8.79,0.77-13.22
	c1.97-2.89,1.88-6.66,1.88-10.17c0.01-5.98-0.23-11.98,0.09-17.95c0.39-7.57,3.69-10.98,11.19-12.38c6.58-1.23,13.23-1.24,21.01-1.3
	c4.19,0.25,9.52,0.34,14.8,0.93c8.97,1,12.49,5.06,12.63,14.05C406.54,73.65,399.12,94.09,385.73,112.74z M415.52,73.8
	c-0.99,5.45-3.62,11.07-8.13,15.75c-1.23,1.28-3.06,1.94-4.55,0.95c-1.92-1.26,0.11-2.61,0.56-3.79c1.96-5.12,4.03-10.19,6.19-15.23
	c0.64-1.49,0.25-4.32,2.55-4.05C414.8,67.75,415.46,70.33,415.52,73.8z M332.59,50.24c-2.67-5.53-1.46-10.72,2.5-15.27
	c1.87-2.15,2.94-4.15,2.71-7.41c-0.49-6.96,4.09-11.53,10.97-11.69c8.87-0.21,17.45-2.45,26.21-3.41
	c10.14-1.1,19.68-0.08,26.93,8.23c1.05,1.21,2.22,1.23,3.55,1.23c5.29,0,8.09,3.08,8.56,7.93c1.1,11.55-1.31,22.66-5.62,33.62
	c0-1.83-0.01-3.65,0-5.48c0.01-1.99-0.02-3.99,0.07-5.98c0.5-11.59-4.66-17.4-16.21-18.1c-9.97-0.6-19.94-1.14-29.92-0.13
	c-14.9,1.51-19.03,6.28-18.48,23.41c0.17,5.42,0.79,10.84-1.29,16.32C340.34,65.24,336.26,57.83,332.59,50.24z M336.96,86.85
	c-5.89-1.9-9.69-8.08-9.6-16.54c-0.15-3.06,0.74-6.09,5.03-6.63c2.3-0.29,4.19,0.17,4.96,2.92c1.61,5.78,2.8,11.6,3.38,17.58
	C341.06,87.61,339.59,87.69,336.96,86.85z M307.15,139.28l-0.02,0.37l-0.3-0.2L307.15,139.28z M298.37,161.99
	c-0.64-2.04,0.12-2.8,2.33-3.19c10.62-1.86,11.72-0.96,11.29,10.12c-0.05,1.16-0.16,2.31-0.24,3.47
	c-0.73,10.07-0.73,10.07-11.52,12.23C301.15,176.89,300.69,169.35,298.37,161.99z M285.61,197.53c5.13-11.17,7.45-23.05,8.68-35.2
	c0.13-1.31,0.23-2.63,0.47-5.38c1.97,8.18,4.07,14.87,3.59,22.02c-0.26,3.8-0.4,7.51-3.54,10.49c-1.99,1.88-1.86,4.88-2.42,7.47
	c-1.26,5.78-5.47,7.7-10.87,5.1c-0.41-0.2-1.19-0.41-1.36-0.22c-3.14,3.43-7.2,1.19-10.91,1.62c6.37-1.23,11.27-4.58,15.15-11.08
	c0.11,4.04-2.09,5.93-3.13,8.5C284.61,201.62,284.89,199.08,285.61,197.53z M296.9,152.65c2.39-2.54,5.05-2.27,7.89-0.67
	c-1.48,3.2-4.68,2.37-6.87,3.58c-0.63,0.35-1.4,0.14-1.46-0.66C296.41,154.15,296.45,153.13,296.9,152.65z M287.14,137.03
	c4.31-2.81,9.56-3.99,13.72-1.58c3.72,2.16,4.92,7.21,5.42,11.76c0.24,2.19-1.17,1.9-2.56,1.58c-3.21-0.75-6.19-0.29-9.28,2.5
	c-0.9-5.5-3.03-9.13-7.32-10.99C284.13,139.02,285.66,137.99,287.14,137.03z M231.39,177.92c12.92-14.37,27.6-26.47,45.21-34.67
	c5.27-2.45,9.22-0.36,11.66,5.42c1.19,2.82,1.37,5.81,1.31,8.84c-0.76,10.14-2.51,20.13-5.65,29.81c-1.4,4.32-3.84,8.13-7.72,10.77
	c-4.83,3.3-9.89,3.2-14.86,0.2c-9.66-5.84-19.39-11.56-29.17-17.18C230.44,180.13,229.92,179.56,231.39,177.92z M220.75,197.29
	c3.36-3.23,6.78-6.43,9.84-9.93c2.24-2.56,3.91-2.53,6.57-0.52c7.74,5.85,14.76,12.86,24.53,15.79
	c-17.13-0.13-33.98,0.64-50.39,5.69c-0.33-0.46-0.66-0.93-0.99-1.39C213.8,203.71,217.34,200.56,220.75,197.29z M210.14,207.99
	c0.1,0.11,0.2,0.22,0.3,0.34c-0.12,0.1-0.24,0.27-0.35,0.27c-0.11,0-0.22-0.19-0.33-0.29C209.88,208.21,210,208.11,210.14,207.99z
	 M219.62,247.83c-10.34-0.05-19.71-2.81-27.07-10.45c-5.99-6.21-5.65-11.79,0.73-16.79c0.25-0.18,0.58-0.58,0.73-0.52
	c0.61,0.25,0.45,0.76,0.24,1.23c-3.15,8.6-0.64,14.59,7.84,18.57c4.09,1.92,8.54,2.59,12.92,3.53c2.69,0.58,5.47,1.06,7.58,2.91
	C222.04,248.29,220.68,247.83,219.62,247.83z M264.58,383.03c-2.12,1.39-4.41,2.41-6.92,2.69c-9.18,1.03-18.27,0.56-27.24-1.76
	c-8.02-2.07-13.2-7.32-14.88-15.23c-3.98-18.67-5.28-37.55-2.88-56.57c0.44-3.49,1.78-6.8,3.97-9.59c1.55-1.98,2.59-5.34,6.44-3.08
	c0.59,0.35,2.07-0.79,3.13-1.26c4.41-1.96,8.84-3.86,13.57-4.93c14.05-3.15,23.77,4.69,23.45,19.01c-0.11,4.66-0.52,9.31-0.81,13.96
	c-0.29,4.65-0.59,9.31-0.88,13.96c0.01,0,0.03,0,0.04,0c-0.65,9.97-1.32,19.94-1.95,29.9c-0.13,1.99-0.58,4.14,2.77,3.89
	c1.4-0.1,3.98-1.57,4.15,0.77C266.72,377.52,267.8,380.92,264.58,383.03z M272.53,310.86c-1.13,11.58-2.41,23.14-3.51,34.72
	c-0.69,7.28-1.28,14.57-1.65,21.87c-0.14,2.67-0.97,4.25-3.72,3.98c-2.82-0.27-1.46-2.54-1.38-3.9c0.95-16.43,2.01-32.85,3.02-49.27
	c0.13-2.16,0.2-4.32,0.27-6.48c0.28-8.43-2.3-15.37-11.44-19.93c4.62-0.61,8.08-0.95,11.49-1.56c2.49-0.45,2.36,1.29,2.45,2.67
	c0.24,3.65,0.12,7.33,0.55,10.95c0.19,1.61-1.61,5.35,3.22,3.84C273.25,307.31,272.64,309.77,272.53,310.86z M274.41,297.7
	c-0.28,2.13-0.5,4.26-3.86,5.64c0-4.97,0.01-9.26,0-13.55c0-1.79-0.05-3.55-2.72-2.6c-7.4,2.63-15.14,1.73-22.75,2.09
	c-6.86,0.32-13.66,0.83-19.99,3.65c-2.38,1.06-2.9,0.12-3.27-1.77c-2.57-12.96-2.15-25.79,1.53-38.51c0.45-1.57,1-2.62,2.87-2.86
	c13.83-1.75,26.53-7.4,39.65-11.62c4.91-1.58,9.93-2.7,15.01-3.65c3.5-0.65,4.28,0.1,3.62,3.68c-3.01,16.18-5.79,32.41-8.6,48.63
	C275.28,290.43,274.88,294.07,274.41,297.7z M323.06,193.61c-3.19-2.04-6.32-4.17-9.58-6.1c-1.48-0.88-3.54-1.31-4.33,0.65
	c-0.93,2.29,1.36,2.75,2.86,3.08c4.28,0.95,7.47,3.16,9.85,7.53c-4.6-0.73-8.65-1.49-12.73-1.97c-1.9-0.22-4.62-0.55-4.85,2.11
	c-0.25,2.9,2.73,2.5,4.48,2.63c3.64,0.27,7.31,0.03,10.97,0.1c1.25,0.02,2.95-0.2,3.13,1.63c0.15,1.55-1.14,2.19-2.46,2.72
	c-4.38,1.77-8.93,0.33-13.36,0.81c-2.05,0.22-5.71-1.07-5.64,1.97c0.05,2.19,3.65,1.04,5.64,1.1c4.62,0.13,9.35-0.94,13.71,1.5
	c1.14,0.64,2.66,1.13,2.49,2.76c-0.16,1.51-1.59,2-2.82,2.48c-4.42,1.74-8.9-0.64-13.33,0.15c-1.85,0.33-5.09-0.76-5.14,1.51
	c-0.06,2.45,3.17,1.38,4.96,1.58c2.3,0.26,4.67-0.04,6.98,0.16c2.36,0.2,4.36,1.58,4.57,3.89c0.24,2.77-2.38,2.77-4.29,2.91
	c-6.08,0.45-12.11,1.23-17.87,3.3c-1.44,0.51-3.48,0.09-4.29,2.4c3.67,1.81,7.13,0.08,10.52-0.66c2.88-0.63,3.56,0.03,2.88,2.88
	c-5.16,21.77-14.06,41.81-27.55,60.72c-0.8-3.85,0.26-6.74,0.65-9.67c0.42-3.13,0.81-6.28,1.38-9.39
	c2.44-13.43,4.8-26.87,7.51-40.25c0.88-4.32-0.64-4.78-4.31-4.31c-10.16,1.31-19.75,4.56-29.32,7.97
	c-7.37,2.63-14.74,5.25-22.45,6.74c-2.58,0.5-4.8,1.6-6.92-1.98c-1.56-2.64-5.85-2.75-9.08-3.51c-2.41-0.57-4.86-0.94-7.26-1.55
	c-7.51-1.91-13.24-6.59-13-11.45c0.35-7.2,5.05-12.06,11.07-14.87c13.53-6.31,28.16-7.82,42.9-7.87c7.54-0.03,15.02,0.76,22.56,1.95
	c5.36,0.85,11.77,0.47,17.27-2.25c3.58-1.77,5.69-4.53,6.01-8.55c0.45-5.66,3.63-8.63,9.1-9.58c2.94-0.51,5.8-1.56,8.75-2.02
	C318.76,183.94,322.99,187.6,323.06,193.61z M311.49,154.24c-1.2-1.04-2.97-2.14-2.81-3.85c0.3-3.3-0.93-6.39-1.19-10.59
	c4.24,4.15,5.08,8.85,6.14,13.36C314.03,154.89,312.55,155.16,311.49,154.24z M311.35,139.96c-0.55-1.86-4.27-2.3-2.36-4.63
	c0.94-1.15,2.82-2.51,4.81-1.96c0.76,0.21,1.13,1.29,0.49,2.09C313.21,136.83,311.68,137.9,311.35,139.96z M313.95,144.44
	c1.57,1.59,2.7,3.37,2.6,5.52C314.43,148.5,314.49,146.37,313.95,144.44z M341.59,169.02c-9.59-3.51-15.78-10.8-21.08-19.03
	c-1.8-2.79-3.37-5.73-5.07-8.59c-0.71-1.2-1.41-2.42,0.05-3.5c1.82-1.36,2.27,0.62,2.93,1.47c4.18,5.42,8.5,10.7,13.9,14.95
	c9.81,7.71,20.61,11.33,33.09,7.71c0.56-0.16,1.2-0.02,1.98-0.02C362.02,170.25,352.08,172.85,341.59,169.02z M381.63,140.17
	c-6.36,16.93-18.97,25.9-38.02,18.21c-10.45-4.22-17.35-12.59-23.89-21.28c-1.68-2.23-0.93-3.54,1.57-4.38
	c14.53-4.82,21.36-14.19,21.58-29.53c0.03-1.97,0-3.94,0-5.9c0.4-0.08,0.79-0.16,1.19-0.25c2.15,3.86,4.16,7.82,6.49,11.57
	c6.07,9.77,13.85,16.59,26.46,14.57c2.49-0.4,1.74,1.33,1.54,2.52c-0.7,4.09-0.84,7.98,2.96,10.85
	C382.95,137.64,382.07,139,381.63,140.17z M571.96,745.2c1.23,4.19,1.78,8.47,1.64,12.83c-0.05,1.58,0.37,3.4-1.85,4.33
	c-0.83-8.99-3.73-16.9-12.63-22.4c1.59-0.3,2.4-0.44,3.22-0.6C569.41,737.94,569.92,738.24,571.96,745.2z M546.67,735.86
	c-4.38-0.07-5.9-1.95-6.16-6.05c6.05-1.13,12.18-0.79,18.26-0.92c3.2-0.07,5.23,2.73,7.05,5.02c1.72,2.16-0.65,2.37-1.91,2.68
	C558.09,738.02,552.41,735.95,546.67,735.86z M550.58,739.19c-2.45,0.37-3.97,3.6-6.76,2.34c-0.53-0.24-0.71-2.95-0.4-3.1
	C545.76,737.36,548.14,738.23,550.58,739.19z M535.65,759.37c-8.61,6.29-18.53,9.28-29.07,11.41c2.74-6.12,15.38-14.31,35.21-23
	C542.21,753.34,539.33,756.68,535.65,759.37z M566.18,723.33c1.86,0,3.32,0.86,3.93,2.51c0.95,2.56,0.9,5.14-1.15,7.6
	c-1.5-1.43-2.83-2.88-4.36-4.1c-1.7-1.36-1.13-2.94-0.71-4.52C564.19,723.73,565.07,723.33,566.18,723.33z M578.67,527.64
	c-0.61,5.67-0.14,11.32,0.05,16.97c1.93,58.04-3.24,115.44-15.31,172.25c-0.89,4.2-2.75,4.9-6.16,3.45
	c-5.56-2.36-9.3-5.94-11.31-12.19c-6.8-21.17-2.36-42.91-4.05-64.32c-0.58-7.29-0.19-14.65-0.28-21.98
	c-0.07-5.8-0.43-11.48-1.66-17.27c-2.46-11.59-0.86-23.25,2.05-34.6c1.89-7.39,6.59-12.95,13.54-16.48
	c2.67-1.36,5.33-2.78,7.78-4.48c8.06-5.57,8.37-14.11,0.93-20.52c-3.52-3.03-7.71-4.7-12.08-5.73
	c-14.59-3.46-21.84-13.5-25.36-27.26c-2.7-10.54-2.76-21.46-4.94-32.07c-1.59-7.69-3.49-15.22-8.84-21.38
	c-1.68-1.94-2.31-4.27-2.36-7.03c-0.11-5.64-1.75-10.66-4.77-15.84c-11.16-19.11-9.05-38.69,0.73-57.62
	c3.69-7.14,11.19-10.1,18.62-12.52c11.61-3.77,23.76-2.47,35.63-3.88c0.48-0.06,0.99,0.09,1.49,0.17
	c10.95,1.64,12.38,3.39,11.65,14.24c-0.07,1-0.15,1.99-0.22,2.99c-0.36,13.85,0.85,27.34,9.17,39.15c1.27,1.8,1.2,3.75,1.22,5.74
	C584.7,447.59,582.94,487.68,578.67,527.64z M534.84,703.21c3.29-0.17,5.57-1.49,6.67,1.47c1.37,3.68,3.2,7.46-1.97,10.66
	C539.94,710.79,539.14,706.83,534.84,703.21z M534.09,544.8c-0.03-3.26-0.22-5.25,4.48-4.18c5.92,1.34,12.12,1.97,18.29,1.28
	c2.25-0.25,5.48-0.1,5.78-2.78c0.33-3-2.99-3.06-5.15-3.52c-7.08-1.51-14.25-2.1-21.17,0.49c-2.91,1.09-3.1-0.7-3.67-2.37
	c-7.91-23.38-14.05-47.21-18.09-71.57c-0.56-3.39-1.14-6.78-1.78-10.61c-2.23,2.82-1.49,5.45-1.07,7.97
	c4.18,25.35,10.1,50.28,18.72,74.49c1.99,5.6,1.34,11.16,1.43,16.7c0.36,20.32,0.24,40.65,0.28,60.98c0,0.73-0.15,1.46-0.23,2.19
	c-0.29,0.01-0.58,0.02-0.86,0.03c-1.82-5.94-3.58-11.9-5.46-17.83c-5.33-16.85-11.85-33.24-19.45-49.19
	c-1.63-3.43-2.21-6.65-1.7-10.52c3.64-27.29,5.12-54.72,4.92-82.25c-0.01-1.91,0.42-3.72,1.58-5.83c2.44-4.48,2.79-1.54,3.69,0.25
	c4.44,8.8,5.69,18.38,6.74,28.01c0.96,8.78,2.06,17.53,5.16,25.89c4.01,10.79,10.9,18.52,22.36,21.68c4,1.1,8.01,2.33,11.58,4.57
	c8.91,5.58,9.43,14.71,0.02,19.03c-17.07,7.81-23.32,21.13-23.47,38.81c-0.07,8.14-2.11,16.37,1.97,24.15
	c0.22,0.41,0.19,0.98,0.19,1.47c0.01,14.65,0.01,29.3,0.01,43.88c-3.37-16.02-5.22-32.2-4.87-48.73
	C534.77,586.46,534.27,565.62,534.09,544.8z M539.99,537.78c6.19-1.34,12.31-1.25,18.3,1.06
	C552.09,539.71,545.94,540.3,539.99,537.78z M540.48,698.76c0.14,0.82-0.11,1.67-1.26,1.62c-1.25-0.06-1.74-0.78-1.56-1.96
	c0.4-2.6,0.83-5.2,1.38-8.58C540.85,693.22,540.01,696.09,540.48,698.76z M534.89,694.08v-47.31
	C537.89,656.25,538.35,685.59,534.89,694.08z M566.12,343.34c2.97-0.98,5.76-1.9,8.64-2.84c0.5,2.03,0.38,3.95-0.27,6.2
	C571.72,345.58,569.02,344.5,566.12,343.34z M576.89,352.82c5.54,6.56,8.72,29.34,6.42,43.6
	C577.22,389.74,574.89,374.26,576.89,352.82z M592.05,407.48c-6.26-3.64-6.17-9.12-5.23-15.33c3.93,10,11.38,15.77,22.02,18.21
	C603.59,412.78,598.98,411.51,592.05,407.48z M626.02,337.31c0.03,8.83,0.01,17.66,0.01,26.49c0.53,9.82,1.91,19.64,0.57,29.45
	c-1.58,11.49-10.12,16.91-21.25,13.48c-11.11-3.42-15.9-11.89-17.8-22.57c-1.72-9.69-0.16-19.27,1.35-28.81
	c1.2-7.58,2.38-15.16,1.91-22.86c-0.17-2.72,0.7-3.4,3.37-3.19c8.47,0.67,16.96,1.44,25.44,1.46
	C624.64,330.77,626,333.12,626.02,337.31z M610.2,227.95c9.1,10.12,13.11,21.61,15.13,33.98c0.55,3.39,2.31,7.3-4.34,7.01
	c-3.09-0.14-0.82,2.74-0.19,3.99c6.38,12.6,7.97,25.78,3.89,39.24c-1.66,5.47-2.64,10.51,0.22,16.6
	c-9.45-0.54-18.15-0.91-26.83-1.55c-9.51-0.71-9.48-0.81-9.5,8.54c-0.02,8.81-1.68,17.39-3.83,26.1
	c-2.06-7.5-10.09-12.81-7.33-21.88c0.37-1.22,0.04-2.59,0.85-3.81c2.2-3.31,2.03-6.82,1-10.54c-1.46-5.3,0-10.25,3-14.61
	c1.98-2.88,4.66-4.2,8.62-2.86c7.51,2.54,15.03,2.61,22.08-1.88c9.24-5.89,11.06-14.91,4.83-23.85c-1.81-2.6-3.17-5.35-2.98-8.74
	c0.85-14.89-0.93-29.49-5.21-43.78C609.53,229.65,609.78,229.3,610.2,227.95z M610.84,280.53c3.68,1.5,4.13,2.09,4.34,5.77
	c0.5,8.72-5.24,16.03-14.46,18.22c-2.4,0.57-4.9,0.7-7.35,1.03C611.41,294.98,612.06,294.08,610.84,280.53z M617.63,286.39
	c3.84,10.6-2.99,19.34-14.48,20.27C611.74,303.15,617.1,297.2,617.63,286.39z M570.42,228.92c-2.79-17.28-2.46-34.52,0.4-51.74
	c1.05-6.32,4.14-7.93,10.02-5.23c4.24,1.95,7.3,5.18,9.46,9.27c6.02,11.41,9.19,23.89,13.56,35.92c2.04,5.63,2.41,11.11,1.24,17.04
	c-2.01,10.17-1.63,20.45,0.52,30.72c1.53-10.42-0.87-21.15,2.37-32.19c3.33,11.85,4.68,23.26,4.69,34.86c0,1.67,0.01,3.34-0.15,4.99
	c-0.14,1.4,0.54,3.52-0.88,4.01c-1.92,0.66-2.08-1.5-2.63-2.82c-0.17-0.42-0.7-1.08-0.93-1.03c-8.12,1.71-13.76-4.93-20.99-6.25
	c-2.91-0.53-5.62-2.29-8.53-2.74c-6.65-1.01-9.03-5.39-9.85-11.29c-0.68-4.94-1.78-9.77-4.34-14.18
	C571.52,236.27,571.61,236.25,570.42,228.92z M555.44,240.24c0.71-2.21,4.67-2.63,6.6-0.59c1.88,1.98,2.64,4.56,3.23,7.15
	c0.96,4.28,1.8,8.58,2.7,12.9C558.78,258.75,552.6,249.09,555.44,240.24z M563.73,165.23c1.44-0.04,3.59,0.09,3.57,1.59
	c-0.03,2.18-2.38,2.19-4.19,2.46c-1.28-0.35-3.51,0.12-3.33-1.84C559.96,165.69,562.05,165.28,563.73,165.23z M517.41,178.35
	c-1.68-0.7-3.08-1.19-1.31-3.43c8.11-10.29,10.23-22.56,11.14-35.13c0.4-5.62,1.38-11.27,0.31-16.91c-0.59-3.1,1.69-3.86,3.68-4.93
	c5.52-2.95,8.58-8.65,7.57-14.36c-0.75-4.22-2.91-7.24-7.63-6.88c-2.2,0.17-2.88-0.78-3.56-2.47c-4.43-11-13.2-17.66-23.21-23.07
	c-1.4-0.76-2.71-1.14-4.17-0.08c-4.39,3.2-9.66,4.4-14.6,6.34c-10.35,4.06-14.24,10.43-12.7,21.43c1.36,9.73,2.88,19.47,7.22,28.43
	c4.8,9.88,12.09,16.6,23.68,17.65c-4.03,9.3-0.87,20.18-7.28,28.63c-4.88-2.19-4.41-7.44-6.06-11.9c-2.47,5.66-0.92,10,5.91,17.75
	c-6.03,2.88-15.48,0.07-21.09-6.45c-6.33-7.34-8.34-16.15-8.13-25.56c0.09-3.81,0.25-7.75,1.24-11.39
	c2.56-9.4,1.69-18.73,0.71-28.19c-1.21-11.68-0.81-23.32,3.48-34.47c5.04-13.12,13.59-22.37,28.09-24.82
	c0.98-0.17,1.98-0.31,2.97-0.31c2.96,0,7.01-0.61,8.33,1.72c1.21,2.15-3.04,3.13-4.55,4.97c-2.04,2.49-3.78,5.04-4.64,8.16
	c-0.32,1.15-0.86,2.55,0.18,3.25c1.26,0.84,2.08-0.57,2.76-1.44c1.75-2.22,3.5-4.45,5.08-6.79c4.97-7.33,11.84-9.55,20.15-6.17
	c9.84,4.01,15.4,11.87,18.5,21.62c3.29,10.34,3.01,21.01,2.42,31.69c-0.44,7.98-0.78,15.96,0.38,23.93
	c0.77,5.3,1.82,10.42,5.03,14.95c2.23,3.14,3.53,6.79,3.84,10.69c0.76,9.51-6.45,15.71-15.59,13.23c-1.92-0.52-2.65-0.1-3.44,1.54
	c-1.05,2.18-1.4,4.76-3.46,6.65c-0.04-0.67-0.07-1.13-0.1-1.6c-0.1-1.57,1.07-3.87-0.61-4.54c-2.04-0.82-2.24,1.89-3.16,3.07
	C530.48,178.68,523.41,180.85,517.41,178.35z M529.61,102.91c0.13-1.4-1.52-3.25,1.06-3.82c2.15-0.48,3.84,0.38,4.98,2.34
	c2.49,4.25,0.4,10.4-5.64,14.43C531.67,110.9,529.23,107.03,529.61,102.91z M551.22,175.61c-3.02,2.92-6.69,4.83-11.78,5.97
	c1.05-2.35,2.14-3.92,2.45-5.62c1.07-5.91,5.22-5.34,9.21-4.3C554.14,172.45,552.32,174.54,551.22,175.61z M535.22,177.51
	c0.02,0.09-0.19,0.21-0.3,0.32c-0.1-0.22-0.24-0.43-0.29-0.66c-0.02-0.08,0.19-0.21,0.3-0.31
	C535.04,177.06,535.18,177.28,535.22,177.51z M515.48,204.24c8.5-1.4,14.76-8.09,19.42-15.44c1.9-3,4.02-4.84,7.56-5.65
	c2.96-0.68,5.69-2.36,9.04-3.82c-0.04,25.78-3.58,51.35,4.06,76.7c-4.91-0.02-8.78-2.49-12.97-2.78
	c-9.66-0.66-18.04-2.78-20.98-13.68c-0.31-1.13-1.54-2.43-2.66-2.87c-8.22-3.23-8.91-10.14-9.03-17.51
	c-0.03-1.54-1.16-3.04-1.29-4.6C508.21,209.47,507.84,205.5,515.48,204.24z M504.12,209.69c1.46,11.65,3.19,23.27,5.04,34.87
	c0.53,3.34-0.53,3.97-3.62,3.73c-3.97-0.31-7.98-0.07-11.97-0.07l0-0.28c-4.16,0-8.37,0.4-12.47-0.09
	c-6.24-0.74-9.33,4.42-13.87,6.8c-1.51,0.79-1.48,3.19-0.24,4.48c2.04,2.12,3.3,5.43,5.46,6.68c10.75,6.26,20.27,15.49,33.91,15.41
	c2.49-0.02,5.21,0.32,7.41-0.56c4.87-1.94,6.09,0.44,7.36,4.47c2.98,9.47,3.18,9.49-6.65,11.17c-10.01,1.7-20.05,3.17-30.06,4.87
	c-2.1,0.36-3.21,0.22-4.11-2.11c-3.21-8.33-9.68-13.79-17.14-18.15c-4.31-2.52-8.71-4.89-13.22-7.03c-4.84-2.3-8.71-5.55-11.51-10.1
	c-0.22-0.36-0.68-0.67-1.09-0.82c-12.91-4.56-17.39-21.22-8.48-31.69c2.18-2.56,4.82-4.71,7.81-6.13
	c19.76-9.36,39.94-17.38,61.98-19.62C502.23,205.17,503.65,205.96,504.12,209.69z M443.31,283.91c1.3-1.09,2.4-1.69,3.84-0.28
	c1.25,1.22,1.37,2.44,0.68,4.04c-2.74,6.26-17.88,12.82-24.23,10.38c-3.46-1.33-5.35-3.84-6.79-7.36
	c-2.26-5.51-5.03-9.92,1.13-15.45c3.24-2.91,9.48-8.54,16.4-8.34c-3.8,2.78-8.57,3.23-11.33,6.88c-0.58,0.78-1.8,1.42-1.24,2.45
	c0.69,1.29,2.07,0.7,3.11,0.37c3.54-1.12,6.6-3.05,9.33-5.58c1.06-0.99,2.58-2.5,3.79-0.97c1.32,1.67-0.44,3.23-1.76,3.96
	c-4.23,2.32-8.46,4.62-12.11,7.81c-0.83,0.72-2.29,1.45-1.51,2.75c0.74,1.23,2.11,0.49,3.17,0.08c3.93-1.49,7.47-3.61,10.46-6.6
	c0.93-0.93,1.68-2.11,3.13-2.31c1.54-0.22,3.09-0.29,3.79,1.49c0.86,2.18-0.78,2.38-2.27,2.85c-5.47,1.73-9.06,6.16-13.41,9.56
	C432.73,287.19,438.84,287.64,443.31,283.91z M424.66,193.5c-7.09,1.88-14.18,3.77-21.27,5.65c-0.13-0.47-0.25-0.93-0.38-1.4
	C409.08,192.08,416.98,193,424.66,193.5z M402.16,198.95c0.1,0.01,0.19,0.19,0.29,0.3c-0.11,0.09-0.23,0.26-0.33,0.25
	c-0.1-0.01-0.19-0.19-0.29-0.3C401.94,199.11,402.06,198.94,402.16,198.95z M399.76,204.64c-0.69-2.82,2.55-2.45,4.23-2.97
	c27.03-8.31,54.7-12.98,82.93-14.73c3.83,0,7.66-0.12,11.48,0.07c1.33,0.07,3.61-1.36,3.84,1.51c0.23,2.91-1.92,2.96-3.99,3.17
	c-5.63,0.55-11.26,1.16-16.89,1.75c-25.84,2.73-51.46,6.88-77.02,11.47C402.83,205.18,400.36,207.06,399.76,204.64z M401.71,212.19
	c-1.09-3.04-0.82-4.19,2.66-4.84c31.1-5.81,62.38-10.26,93.85-13.44c4.91-0.5,3.68,2.71,4.3,5.17c0.79,3.15-0.47,3.93-3.47,4.16
	c-21.61,1.64-41.27,9.84-60.82,18.35c-2.12,0.92-4.1,2.22-6,3.56c-10.35,7.3-13.09,17.93-7.71,29.39c1.56,3.33,3.75,6.24,6.58,9.51
	c-2.43,1.04-4.25,1.79-6.04,2.6c-5.56,2.53-5.6,2.55-7.1-3.13C413.37,246.16,407.79,229.09,401.71,212.19z M408.47,265.34
	c0.13-1.47,0.37-3.19,2.17-3.48c1.84-0.29,2.82,1.34,3.01,2.71c0.7,5.1,3.15,10.59-2.72,14.99
	C408.39,274.9,408.03,270.18,408.47,265.34z M451.91,314.95c-0.53,1.89-1.53,3.46-3.09,4.66c-1.13,1.98-2.84,3.26-4.97,3.99
	c-2.49,1.85-5.32,2.44-8.35,2.26c-0.68,0.39-1.35,0.41-2.02-0.04c-2.23,0.19-4.25-0.47-6.17-1.52c-3.06-0.94-5.64-2.58-7.58-5.17
	c-2.11-1.54-3.67-3.49-4.49-6c-1.43-1.46-1.84-3.35-2.17-5.26c-1.11-2.67-1.59-5.43-1.3-8.32c-0.49-3.66,0.24-7.15,1.81-10.99
	c1.11,7.57,5.96,11.15,12.54,12.95c1.75-0.16,3.5-0.33,5.25-0.49c1.29-0.61,2.58-1.2,4.13-0.99c0.07,1.57,0.14,3.13,0.22,4.69
	c3.26,5.72,9.47,6.17,14.75,8.29C452.11,312.8,452.95,313.18,451.91,314.95z M449.38,308.26c-4.55,0.87-11.16-3.91-12.22-8.3
	c-0.37-1.52,0.84-1.51,1.52-2c3.1-2.23,6.47-4.15,9.29-6.69c3.81-3.43,3.8-7.09-0.18-10.05c-2.33-1.74-1.88-4.02-2.63-6.08
	c-0.17-0.32-0.34-0.64-0.51-0.96c0.34,0.15,0.67,0.29,1.01,0.44c7.05,2.99,13.8,6.55,20.16,10.83c2.91,1.96,5.53,4.28,7.82,6.94
	c6.81,7.91,6.26,9.41-3.79,11.42C463,305.18,456.24,306.95,449.38,308.26z M466.29,339.82c-5.56-0.18-7.7-2.85-6.72-8.08
	c1.14-6.07,5.07-11.72,2.09-18.39c-0.54-1.22,1.8-2.14,3.04-2.9c7.09-4.36,15.07-6.07,23.1-7.47c11.65-2.03,23.32-3.96,35.01-5.71
	c3.52-0.53,4.64-1.62,3.15-5.16c-1.68-3.98-3.08-8.1-4.25-12.27c-0.86-3.08-2.15-3.22-5.03-2.34c-9,2.74-17.67,1.54-25.79-3.18
	c5.54,0.63,11.07,1.21,16.65,1.23c1.44,0.01,3.37,0.23,3.48-1.86c0.08-1.62-1.67-1.86-2.87-2.29c-6.12-2.21-12.5-1.73-18.81-1.57
	c-4.32,0.11-8-1.26-12.49-3.81c5.36-1.13,9.71,0.05,14.04,0.07c5,0.02,9.99-0.01,14.99-0.14c1.38-0.03,3.54,0.28,3.44-1.82
	c-0.07-1.59-2.07-1.41-3.32-1.41c-6.83,0-13.66,0.12-20.48,0.17c-4.97,0.03-9.85-0.54-14.26-3.05c-1.25-0.71-3.02-1.66-2.19-3.37
	c0.61-1.24,2.55-0.85,3.64-0.44c10.83,4.07,22.41,1.74,33.45,4.04c1.44,0.3,3.97,0.96,4.32-1.06c0.43-2.51-2.38-2.31-3.98-2.7
	c-3.75-0.93-7.62-0.74-11.44-0.52c-6.4,0.36-12.59-1.1-18.84-1.98c-0.84-0.12-1.63-0.38-1.93-1.62c2.69-2.18,6.11-1.98,9.27-2
	c7.83-0.04,15.65,0.27,23.48,0.51c5.26,0.16,7.06-1.74,6.48-7.13c-0.26-2.44-0.64-4.87-1.02-7.66c5.77,1.72,8.71,5.87,10.26,10.61
	c1.75,5.37,4.58,7.14,10.3,7.61c10.08,0.83,20.01,3.34,29.17,7.96c3.44,1.74,7.22,0.95,10.7,2.13c9.62,3.27,19.27,6.45,28.59,10.54
	c8.06,3.54,10.01,14.45,3.74,20.8c-3.66,3.7-8.92,4.38-13.14,6.89c-5.47,3.25-9.53,0.14-14.02-1.74
	c-8.21-3.44-15.08-9.11-22.63-13.66c-6.62-3.99-13.49-7.3-21.31-7.99c-2.02-0.18-4.29-1.02-6.77,1.53
	c20.06,6.01,37.4,16.84,56.43,25.71c-4.49,3.09-6.06,7.74-7.64,13.5c-2-5.97-3.41-11.05-6.45-15.39c-0.72-1.03-1.28-2.85-2.83-2.19
	c-1.32,0.56-0.95,2.33-0.87,3.63c0.32,4.94,3.41,8.56,6,12.42c3.64,5.43,3.78,13.52,0.12,17.72c-2.45,2.82-5.32,4.92-9.39,4.94
	C530.6,341.12,498.44,340.87,466.29,339.82z M519.2,344.27h-29.33c0-0.35,0-0.7,0-1.04h29.32
	C519.2,343.57,519.2,343.92,519.2,344.27z M504.94,692.55c-15.32-35.83-29.95-71.89-40.79-109.41
	c-13.09-45.3-17.66-91.42-15.26-138.39c1.56-30.64,5.24-61.06,8.85-91.49c0.51-4.34,1.99-5.68,6.42-5.62
	c18.94,0.26,37.88,0.11,57.46,0.11c-16.43,5.44-22.03,18.24-24.27,33.39c-2.29,15.49-0.89,30.09,8.81,43.31
	c2.42,3.3,3.43,8.17,0.75,12.52c-0.86,1.4-0.42,2.92-0.36,4.39c1.19,32.54-0.28,64.95-4.86,97.2c-0.49,3.45,0.85,6.16,2.19,9.01
	c11.49,24.49,20.65,49.78,26.99,76.11c1.6,6.63,1.01,13.24,1.09,19.87c0.22,18.32-0.3,36.66,1,54.96c0.17,2.31-0.71,2.94-2.64,3.23
	c-1.81,0.27-3.58,0.78-5.39,1.06c-4.71,0.73-10.17,4.22-13.81,1.93C507.81,702.65,506.77,696.81,504.94,692.55z M509.91,717.25
	c-2.4-6.52-2.4-6.54,4.27-7.56c6.4-0.98,12.81-1.89,19.21-2.84c2.53-0.35,3.21,1.45,3.53,3.28c0.62,3.44,0.28,6.7-3.1,8.73
	c-3.59,2.16-7.65,3.18-11.59,4.47C513.23,726.28,513.23,726.26,509.91,717.25z M500.89,771.8c-7.98,1.24-16,2.13-24.06,2.66
	c-2.65,0.17-4.44-0.82-5.62-3.02c-1.26-2.37-0.48-4.55,1.03-6.49c0.7-0.91,1.52-1.82,2.47-2.43c10.79-6.81,19.54-15.97,28.66-24.7
	c5.33-5.11,11.15-9.02,18.64-10.83c8.58-2.08,16.69-5.73,22.97-13.42c3.99,5.12,8.46,8.96,14.83,9.84c0.84,0.12,1.78,0.29,1.51,1.44
	c-0.44,1.89-1.8,1.07-2.75,0.65c-5.54-2.44-11.24-2.94-17.07-1.44c-7.43,1.91-9.4,6.59-5.78,13.3c0.56,1.04,1.25,1.63,2.32,1.31
	c2.39-0.7,2.78,0.81,3.23,2.55c0.51,1.98,0.38,3.5-1.7,4.58c-6.2,3.2-12.47,6.3-18.47,9.84c-6.69,3.94-13.83,7.48-17.77,14.77
	C502.77,771.46,501.88,771.64,500.89,771.8z M538.99,736.45c-2.18-2.29-2.18-4.44-2.47-7.44
	C538.14,731.55,539.34,733.3,538.99,736.45z M562.06,774.28c-15.17,1.85-30.38,3.48-45.71,2.41c-3.26-0.23-6.57-0.51-10.42-3.23
	c10.31-2.22,19.33-4.84,27.5-9.73c6.23-3.73,11.09-8.22,11.09-16.42c0-4.61,8.86-7.46,13.94-4.78c5.54,2.92,8.33,7.88,9.89,13.69
	c0.83,3.07,1.03,6.21,1.03,9.38C569.39,772.24,568.71,773.47,562.06,774.28z"/>
<path class="st0" d="M428.99,192.32c0.65,0.09,0.65,0.12,0,0.05c-0.17-0.02-0.32-0.09-0.49-0.14
	C428.66,192.27,428.82,192.29,428.99,192.32z"/>
<polygon class="st0" points="312.84,142.38 313.01,142.53 313.04,142.26 "/>
<g>
	
		<rect x="377.27" y="356.4" transform="matrix(0.1114 -0.9938 0.9938 0.1114 7.9625 724.7078)" class="st0" width="63.87" height="3"/>
</g>
</svg>
