<svg width="25" height="21" viewBox="0 0 25 21" fill="none" xmlns="http://www.w3.org/2000/svg">
<path d="M16.3679 1.00422V1H17.4463L17.8404 1.08013C18.1031 1.13216 18.3416 1.20033 18.5559 1.28468C18.7702 1.36903 18.9776 1.46745 19.1781 1.57991C19.3786 1.69237 19.5604 1.80696 19.7236 1.92364C19.8853 2.03893 20.0305 2.16124 20.1591 2.29057C20.2863 2.42131 20.4847 2.45505 20.7543 2.39179C21.0239 2.32852 21.3142 2.24065 21.6253 2.12819C21.9364 2.01573 22.2441 1.8892 22.5482 1.74861C22.8524 1.60802 23.0377 1.51876 23.1041 1.4808C23.1691 1.44145 23.2036 1.42036 23.2078 1.41754L23.2119 1.41121L23.2326 1.40067L23.2534 1.39012L23.2741 1.37958L23.2949 1.36903L23.299 1.36271L23.3052 1.35849L23.3115 1.35427L23.3156 1.34795L23.3363 1.34162L23.3571 1.3374L23.353 1.36903L23.3467 1.40067L23.3363 1.4323L23.326 1.46393L23.3156 1.48502L23.3052 1.5061L23.2949 1.53774C23.288 1.55882 23.281 1.58693 23.2741 1.62209C23.2672 1.65724 23.2015 1.79781 23.0771 2.04384C22.9527 2.28987 22.7971 2.5394 22.6105 2.79245C22.4238 3.04551 22.2565 3.23669 22.1086 3.36604C21.9593 3.49678 21.8604 3.58815 21.812 3.64018C21.7636 3.69359 21.7049 3.74279 21.6357 3.78779L21.532 3.85738L21.5113 3.86792L21.4905 3.87847L21.4864 3.88479L21.4802 3.88901L21.4739 3.89323L21.4698 3.89956L21.4491 3.9101L21.4283 3.92064L21.4242 3.92697L21.4179 3.93119L21.4117 3.93541L21.4076 3.94173L21.4034 3.94806L21.3972 3.95228L21.391 3.95649L21.3868 3.96282H21.4905L22.0712 3.83629C22.4584 3.75194 22.8282 3.65003 23.1808 3.53052L23.7408 3.34073L23.803 3.31964L23.8341 3.3091L23.8548 3.29856L23.8756 3.28801L23.8963 3.27747L23.917 3.26693L23.9585 3.2606L24 3.25638V3.29856L23.9896 3.30277L23.9793 3.3091L23.9751 3.31543L23.9689 3.31964L23.9627 3.32386L23.9585 3.33019L23.9544 3.33651L23.9482 3.34073L23.9419 3.34495L23.9378 3.35128L23.9337 3.3576L23.9274 3.36182L23.917 3.38291L23.9067 3.404L23.9004 3.40821C23.8977 3.41243 23.8099 3.53191 23.6371 3.7667C23.4642 4.00289 23.3709 4.12237 23.3571 4.12519C23.3433 4.12941 23.3239 4.1505 23.299 4.18846C23.2755 4.22781 23.1289 4.38457 22.8593 4.65871C22.5897 4.93285 22.3257 5.17675 22.0671 5.39045C21.8072 5.60555 21.6758 5.86984 21.6731 6.18335C21.6689 6.49545 21.653 6.84833 21.6253 7.24195C21.5977 7.6356 21.5458 8.06085 21.4698 8.51776C21.3938 8.97466 21.2762 9.49131 21.1172 10.0677C20.9582 10.6441 20.7647 11.2064 20.5365 11.7547C20.3084 12.303 20.0699 12.795 19.821 13.2309C19.5721 13.6667 19.344 14.0357 19.1366 14.338C18.9292 14.6402 18.7184 14.9249 18.5041 15.192C18.2898 15.4591 18.0188 15.76 17.6911 16.0946C17.362 16.4277 17.1823 16.6105 17.1519 16.6428C17.1201 16.6738 16.9846 16.7891 16.7454 16.9887C16.5076 17.1897 16.2518 17.3907 15.978 17.5918C15.7056 17.7914 15.4554 17.958 15.2272 18.0916C14.9991 18.2251 14.724 18.3776 14.4018 18.5492C14.081 18.7221 13.734 18.8824 13.3607 19.03C12.9874 19.1776 12.5933 19.3146 12.1785 19.4412C11.7638 19.5677 11.3628 19.6661 10.9757 19.7364C10.5885 19.8067 10.1495 19.8665 9.6587 19.9156L8.92245 19.9895V20H7.57439V19.9895L7.39811 19.9789C7.2806 19.9719 7.18381 19.9648 7.10775 19.9578C7.03172 19.9508 6.74481 19.9121 6.24707 19.8418C5.74932 19.7716 5.35874 19.7013 5.07529 19.631C4.79187 19.5607 4.37015 19.4271 3.81019 19.2303C3.25023 19.0335 2.77115 18.8345 2.37295 18.6335C1.97614 18.4339 1.72727 18.3074 1.62633 18.2539C1.52678 18.2019 1.41479 18.1373 1.29035 18.0599L1.1037 17.944L1.09957 17.9376L1.09333 17.9334L1.08711 17.9292L1.08296 17.9229L1.06222 17.9123L1.04148 17.9018L1.03735 17.8954L1.03111 17.8912L1.02489 17.887L1.02074 17.8807L1.01661 17.8744L1.01037 17.8701H1V17.828L1.02074 17.8322L1.04148 17.8385L1.13481 17.8491C1.19702 17.8561 1.3664 17.8666 1.64292 17.8807C1.91946 17.8948 2.21326 17.8948 2.52435 17.8807C2.83544 17.8666 3.15346 17.835 3.47836 17.7858C3.80328 17.7366 4.18696 17.6522 4.6294 17.5327C5.07185 17.4132 5.47834 17.2713 5.84889 17.1068C6.21805 16.9409 6.48074 16.8172 6.63699 16.7356C6.79183 16.6555 7.02826 16.5065 7.34626 16.2886L7.82326 15.9617L7.82741 15.9554L7.83363 15.9512L7.83988 15.9469L7.844 15.9406L7.84815 15.9343L7.85437 15.9301L7.86062 15.9259L7.86474 15.9195L7.88548 15.9132L7.90622 15.909L7.91037 15.8879L7.91659 15.8668L7.92283 15.8626L7.92696 15.8563L7.76105 15.8457C7.65044 15.8387 7.54328 15.8317 7.43959 15.8246C7.33589 15.8176 7.17344 15.786 6.95221 15.7297C6.731 15.6735 6.4925 15.5892 6.2367 15.4767C5.98092 15.3642 5.73205 15.2307 5.49008 15.076C5.24814 14.9214 5.07322 14.7927 4.96537 14.6901C4.85892 14.5889 4.72065 14.4455 4.55059 14.2599C4.38191 14.073 4.23535 13.8811 4.11091 13.6842C3.98647 13.4874 3.86758 13.2604 3.75421 13.0031L3.58206 12.6193L3.57169 12.5877L3.56132 12.556L3.55509 12.535L3.55095 12.5139L3.58206 12.5181L3.61316 12.5244L3.8413 12.556C3.9934 12.5771 4.2319 12.5842 4.55681 12.5771C4.88173 12.5701 5.1064 12.556 5.23084 12.535C5.35528 12.5139 5.43133 12.4998 5.45897 12.4928L5.50045 12.4822L5.5523 12.4717L5.60415 12.4612L5.6083 12.4548L5.61452 12.4506L5.62076 12.4464L5.62489 12.4401L5.58341 12.4295L5.54193 12.419L5.50045 12.4084L5.45897 12.3979L5.41749 12.3873C5.38985 12.3803 5.34146 12.3663 5.27232 12.3452C5.20319 12.3241 5.01654 12.2468 4.71235 12.1132C4.40819 11.9797 4.16622 11.8496 3.98647 11.7231C3.80628 11.5962 3.63447 11.4574 3.47214 11.3077C3.31037 11.1558 3.13272 10.9604 2.93913 10.7214C2.74557 10.4824 2.57275 10.2048 2.42065 9.88846C2.26857 9.57214 2.1545 9.26989 2.07845 8.98169C2.0027 8.69518 1.95273 8.40226 1.92915 8.10655L1.89179 7.66371L1.91253 7.66792L1.93327 7.67425L1.95401 7.68479L1.97475 7.69534L1.99549 7.70588L2.01623 7.71643L2.33769 7.86404C2.55201 7.96246 2.81816 8.04681 3.13616 8.11709C3.45418 8.18738 3.64427 8.22605 3.70649 8.23307L3.79982 8.24362H3.98647L3.98235 8.23729L3.9761 8.23307L3.96988 8.22886L3.96573 8.22253L3.96161 8.2162L3.95537 8.21199L3.94914 8.20777L3.945 8.20144L3.92426 8.1909L3.90352 8.18036L3.89939 8.17403L3.89315 8.16981L3.88692 8.16559L3.88278 8.15927L3.86204 8.14872L3.8413 8.13818L3.83717 8.13185C3.83302 8.12903 3.77356 8.08405 3.65879 7.99689C3.54541 7.90832 3.42651 7.79375 3.30207 7.65316C3.17764 7.51257 3.0532 7.36496 2.92876 7.21032C2.8041 7.05533 2.69306 6.88951 2.59693 6.71476C2.50016 6.53904 2.39784 6.31549 2.28999 6.04417C2.18354 5.77425 2.10265 5.50222 2.04734 5.22808C1.99205 4.95394 1.96094 4.68332 1.95401 4.4162C1.94711 4.14909 1.95401 3.92064 1.97475 3.73085C1.99549 3.54107 2.03697 3.32667 2.09919 3.08768C2.16141 2.84869 2.25129 2.59564 2.3688 2.32852L2.54509 1.92786L2.55546 1.89623L2.56582 1.86459L2.57207 1.86038L2.57619 1.85405L2.58034 1.84772L2.58656 1.84351L2.59281 1.84772L2.59693 1.85405L2.60108 1.86038L2.6073 1.86459L2.61355 1.86881L2.61767 1.87514L2.62182 1.88147L2.62804 1.88568L2.63841 1.90677L2.64878 1.92786L2.65503 1.93208L2.65915 1.9384L2.93913 2.25472C3.12579 2.46559 3.34702 2.70108 3.6028 2.96115C3.8586 3.22123 4.00031 3.35619 4.02795 3.36604C4.05562 3.37728 4.09017 3.40961 4.13165 3.46304C4.17313 3.51506 4.3114 3.63948 4.54644 3.83629C4.7815 4.0331 5.08913 4.26157 5.46934 4.52164C5.84958 4.78172 6.27127 5.03829 6.73445 5.29134C7.19764 5.54439 7.69538 5.77284 8.22768 5.97669C8.76 6.18055 9.13331 6.3141 9.34761 6.37736C9.56193 6.44062 9.92831 6.52145 10.4468 6.61987C10.9653 6.71828 11.3559 6.78155 11.6186 6.80966C11.8813 6.83777 12.061 6.85394 12.1578 6.85816L12.303 6.86238L12.2988 6.83074L12.2926 6.79911L12.2511 6.53552C12.2235 6.35979 12.2096 6.11376 12.2096 5.79745C12.2096 5.48113 12.2339 5.18943 12.2822 4.92231C12.3306 4.65519 12.4032 4.38457 12.5 4.11043C12.5968 3.83629 12.6915 3.61626 12.7841 3.45039C12.8782 3.2859 13.0012 3.09822 13.1533 2.88735C13.3054 2.67647 13.5024 2.45857 13.7444 2.23363C13.9863 2.00869 14.2628 1.80835 14.5739 1.63263C14.885 1.45691 15.1719 1.32334 15.4346 1.23196C15.6973 1.14059 15.9186 1.08083 16.0983 1.05272C16.278 1.02461 16.3679 1.00844 16.3679 1.00422Z" fill="#5DA8DC" stroke="#5DA8DC" stroke-width="0.0270392"/>
</svg>
