<?xml version="1.0" encoding="utf-8"?>
<!-- Generator: Adobe Illustrator 27.0.0, SVG Export Plug-In . SVG Version: 6.00 Build 0)  -->
<svg version="1.1" id="Layer_1" xmlns="http://www.w3.org/2000/svg" xmlns:xlink="http://www.w3.org/1999/xlink" x="0px" y="0px"
	 viewBox="0 0 935 602.5" style="enable-background:new 0 0 935 602.5;" xml:space="preserve">
<style type="text/css">
	.st0{fill:#FFFFFF;}
</style>
<g>
	<g>
		<path class="st0" d="M0,315.15c1.25,0.05,2.87,0.11,4.85,0.16c1.98,0.06,3.95,0.08,5.91,0.08c2.61,0,5.1-0.03,7.46-0.08
			c2.36-0.05,4.04-0.08,5.01-0.08c6.09,0,10.64,1.2,13.66,3.59c3.02,2.39,4.52,5.46,4.52,9.21c0,1.9-0.45,3.79-1.35,5.67
			c-0.9,1.88-2.35,3.56-4.36,5.06c-2.01,1.49-4.68,2.68-7.99,3.55v0.16c4.57,0.49,8.15,1.47,10.76,2.93
			c2.61,1.47,4.46,3.22,5.54,5.26c1.09,2.04,1.63,4.17,1.63,6.4c0,3.21-0.82,5.99-2.45,8.36c-1.63,2.36-3.98,4.2-7.05,5.5
			c-3.07,1.3-6.75,1.96-11.05,1.96c-1.2,0-3-0.04-5.42-0.12c-2.42-0.08-5.34-0.12-8.76-0.12c-2.07,0-4.09,0.01-6.07,0.04
			c-1.98,0.03-3.6,0.1-4.85,0.2v-1.63c1.85-0.11,3.23-0.33,4.16-0.65c0.92-0.33,1.53-0.98,1.83-1.96c0.3-0.98,0.45-2.44,0.45-4.4
			v-40.44c0-2.01-0.15-3.49-0.45-4.44c-0.3-0.95-0.93-1.6-1.88-1.96c-0.95-0.35-2.32-0.56-4.12-0.61V315.15z M21.52,316.78
			c-2.34,0-3.87,0.46-4.61,1.39s-1.1,2.8-1.1,5.62v40.44c0,1.9,0.16,3.34,0.49,4.32c0.33,0.98,0.91,1.63,1.75,1.96
			c0.84,0.33,2.08,0.49,3.71,0.49c4.89,0,8.44-1.24,10.64-3.71c2.2-2.47,3.3-5.99,3.3-10.56c0-4.19-1.1-7.42-3.3-9.7
			c-2.2-2.28-5.83-3.42-10.88-3.42h-7.91v-1.39h7.01c2.99,0,5.3-0.61,6.93-1.83c1.63-1.22,2.74-2.85,3.34-4.89
			c0.6-2.04,0.9-4.23,0.9-6.56c0-4.02-0.79-7.05-2.36-9.09C27.85,317.8,25.22,316.78,21.52,316.78z"/>
		<path class="st0" d="M79.49,329.66c4.78,0,8.53,1.44,11.25,4.32c2.72,2.88,4.08,7.45,4.08,13.7H66.69l-0.16-1.55h19.65
			c0.05-2.66-0.16-5.12-0.65-7.38c-0.49-2.25-1.25-4.06-2.28-5.42c-1.03-1.36-2.39-2.04-4.08-2.04c-2.34,0-4.36,1.24-6.07,3.71
			c-1.71,2.48-2.76,6.43-3.14,11.86l0.24,0.41c-0.05,0.76-0.11,1.59-0.16,2.49c-0.05,0.9-0.08,1.78-0.08,2.65
			c0,3.75,0.57,6.9,1.71,9.46c1.14,2.55,2.64,4.47,4.48,5.75c1.85,1.28,3.72,1.92,5.63,1.92c1.47,0,2.89-0.23,4.28-0.69
			c1.39-0.46,2.7-1.25,3.95-2.36c1.25-1.11,2.36-2.65,3.34-4.61l1.63,0.65c-0.65,1.85-1.66,3.67-3.02,5.46
			c-1.36,1.79-3.1,3.25-5.22,4.36c-2.12,1.11-4.59,1.67-7.42,1.67c-3.8,0-7.12-0.86-9.95-2.57c-2.83-1.71-5-4.17-6.52-7.38
			c-1.52-3.21-2.28-7.01-2.28-11.41c0-4.84,0.79-8.97,2.36-12.39c1.58-3.42,3.79-6.04,6.64-7.87
			C72.43,330.57,75.74,329.66,79.49,329.66z"/>
		<path class="st0" d="M120.09,373.44c-2.28,0-4.24-0.44-5.87-1.3c-1.63-0.87-2.85-2.07-3.67-3.59s-1.22-3.26-1.22-5.22
			c0-2.39,0.54-4.33,1.63-5.83c1.09-1.49,2.49-2.7,4.2-3.63c1.71-0.92,3.53-1.7,5.46-2.32c1.93-0.62,3.75-1.22,5.46-1.79
			c1.71-0.57,3.12-1.24,4.24-2c1.11-0.76,1.67-1.77,1.67-3.02v-5.54c0-1.96-0.31-3.52-0.94-4.69c-0.63-1.17-1.47-2-2.53-2.49
			c-1.06-0.49-2.32-0.73-3.79-0.73c-1.25,0-2.58,0.18-3.99,0.53c-1.41,0.35-2.53,1.05-3.34,2.08c1.2,0.33,2.19,0.97,2.98,1.92
			c0.79,0.95,1.18,2.13,1.18,3.55c0,1.52-0.5,2.72-1.51,3.59c-1.01,0.87-2.27,1.3-3.79,1.3c-1.69,0-2.93-0.53-3.75-1.59
			c-0.82-1.06-1.22-2.3-1.22-3.71c0-1.47,0.37-2.66,1.1-3.59c0.73-0.92,1.7-1.79,2.89-2.61c1.3-0.87,2.98-1.6,5.01-2.2
			c2.04-0.6,4.31-0.9,6.81-0.9c2.34,0,4.36,0.26,6.07,0.77c1.71,0.52,3.14,1.35,4.28,2.49c1.36,1.25,2.25,2.81,2.69,4.69
			c0.43,1.88,0.65,4.15,0.65,6.81v22.5c0,1.36,0.18,2.32,0.53,2.89c0.35,0.57,0.94,0.86,1.75,0.86c0.54,0,1.07-0.13,1.59-0.41
			c0.52-0.27,1.13-0.68,1.83-1.22l0.82,1.39c-1.14,0.92-2.3,1.66-3.47,2.2c-1.17,0.54-2.65,0.82-4.44,0.82
			c-1.74,0-3.15-0.27-4.24-0.82c-1.09-0.54-1.89-1.33-2.4-2.36c-0.52-1.03-0.77-2.31-0.77-3.83c-1.41,2.28-3.1,4.02-5.05,5.22
			C124.98,372.84,122.69,373.44,120.09,373.44z M124,369.53c1.52,0,2.95-0.44,4.28-1.3c1.33-0.87,2.57-2.17,3.71-3.91v-16.22
			c-0.6,0.87-1.47,1.62-2.61,2.24c-1.14,0.63-2.36,1.26-3.67,1.92c-1.3,0.65-2.54,1.4-3.71,2.24c-1.17,0.84-2.13,1.92-2.89,3.22
			c-0.76,1.3-1.14,2.96-1.14,4.97c0,2.12,0.54,3.79,1.63,5.01C120.68,368.92,122.15,369.53,124,369.53z"/>
		<path class="st0" d="M196.15,329.91v34.16c0,2.45,0.42,4.25,1.26,5.42c0.84,1.17,2.38,1.75,4.61,1.75v1.71
			c-1.69-0.16-3.37-0.24-5.05-0.24c-1.79,0-3.51,0.08-5.14,0.24s-3.13,0.46-4.48,0.9v-8.89c-1.36,3.26-3.25,5.58-5.67,6.97
			c-2.42,1.39-4.96,2.08-7.62,2.08c-2.01,0-3.72-0.29-5.14-0.86c-1.41-0.57-2.58-1.32-3.51-2.24c-0.98-1.09-1.66-2.49-2.04-4.2
			c-0.38-1.71-0.57-3.87-0.57-6.48v-20.54c0-2.45-0.41-4.25-1.22-5.42c-0.82-1.17-2.36-1.75-4.65-1.75v-1.71
			c1.74,0.16,3.42,0.24,5.05,0.24c1.79,0,3.51-0.09,5.14-0.29c1.63-0.19,3.12-0.48,4.48-0.86v32.61c0,1.58,0.11,3.02,0.33,4.32
			c0.22,1.3,0.73,2.34,1.55,3.1c0.82,0.76,2.12,1.14,3.91,1.14c1.9,0,3.6-0.57,5.1-1.71c1.49-1.14,2.68-2.69,3.55-4.65
			c0.87-1.96,1.31-4.16,1.31-6.6v-18.42c0-2.45-0.41-4.25-1.22-5.42c-0.82-1.17-2.36-1.75-4.65-1.75v-1.71
			c1.74,0.16,3.42,0.24,5.06,0.24c1.79,0,3.51-0.09,5.14-0.29C193.29,330.57,194.79,330.29,196.15,329.91z"/>
		<path class="st0" d="M228.35,317.35v13.53h11.25v1.63h-11.25v32.04c0,2.23,0.41,3.8,1.22,4.73c0.82,0.93,1.98,1.39,3.51,1.39
			c1.41,0,2.68-0.57,3.79-1.71c1.11-1.14,2.08-3.07,2.89-5.79l1.55,0.57c-0.65,2.88-1.81,5.31-3.46,7.3
			c-1.66,1.98-4.09,2.98-7.3,2.98c-1.85,0-3.4-0.23-4.65-0.69c-1.25-0.46-2.34-1.13-3.26-2c-1.2-1.25-2.01-2.74-2.45-4.48
			c-0.44-1.74-0.65-4.05-0.65-6.93v-27.39h-7.5v-1.63h7.5v-11.9c1.68-0.05,3.26-0.2,4.73-0.45
			C225.74,318.29,227.1,317.9,228.35,317.35z"/>
		<path class="st0" d="M265.69,329.91v35.38c0,2.28,0.45,3.83,1.35,4.65c0.9,0.82,2.4,1.22,4.52,1.22v1.71
			c-0.92-0.05-2.35-0.12-4.28-0.2c-1.93-0.08-3.9-0.12-5.91-0.12c-1.9,0-3.86,0.04-5.87,0.12c-2.01,0.08-3.51,0.15-4.48,0.2v-1.71
			c2.12,0,3.63-0.41,4.52-1.22c0.9-0.81,1.34-2.36,1.34-4.65v-25.6c0-2.45-0.41-4.25-1.22-5.42c-0.82-1.17-2.36-1.75-4.65-1.75
			v-1.71c1.74,0.16,3.42,0.24,5.05,0.24c1.85,0,3.57-0.09,5.18-0.29C262.85,330.57,264.33,330.29,265.69,329.91z M260.8,310.26
			c1.68,0,3.1,0.53,4.24,1.59c1.14,1.06,1.71,2.38,1.71,3.95c0,1.58-0.57,2.89-1.71,3.95c-1.14,1.06-2.55,1.59-4.24,1.59
			c-1.69,0-3.1-0.53-4.24-1.59c-1.14-1.06-1.71-2.38-1.71-3.95c0-1.58,0.57-2.89,1.71-3.95C257.7,310.79,259.11,310.26,260.8,310.26
			z"/>
		<path class="st0" d="M304.25,309.12c1.63,0,3.07,0.22,4.32,0.65c1.25,0.44,2.36,1.01,3.34,1.71c0.76,0.65,1.39,1.44,1.88,2.36
			c0.49,0.92,0.73,1.93,0.73,3.02c0,1.36-0.45,2.5-1.35,3.42c-0.9,0.93-2.05,1.39-3.47,1.39c-1.41,0-2.61-0.43-3.59-1.3
			c-0.98-0.87-1.47-2.06-1.47-3.59c0-1.25,0.34-2.28,1.02-3.1c0.68-0.82,1.62-1.39,2.81-1.71c-0.16-0.44-0.54-0.8-1.14-1.1
			c-0.6-0.3-1.41-0.45-2.45-0.45c-1.2,0-2.21,0.25-3.06,0.73c-0.84,0.49-1.51,1.14-2,1.96c-0.6,1.03-0.99,2.57-1.18,4.61
			c-0.19,2.04-0.29,5.15-0.29,9.33v3.83h8.72v1.63h-8.72v31.96c0,2.66,0.75,4.44,2.24,5.34c1.49,0.9,3.52,1.35,6.07,1.35v1.71
			c-1.3-0.05-3.14-0.12-5.5-0.2c-2.36-0.08-4.88-0.12-7.54-0.12c-1.9,0-3.79,0.04-5.67,0.12c-1.88,0.08-3.3,0.15-4.28,0.2v-1.71
			c2.12,0,3.63-0.41,4.52-1.22c0.9-0.81,1.34-2.36,1.34-4.65v-32.77h-6.2v-1.63h6.2c0-3.21,0.15-5.88,0.45-8.03
			c0.3-2.15,0.77-3.99,1.43-5.54c0.65-1.55,1.52-2.92,2.61-4.12c1.14-1.19,2.59-2.17,4.36-2.93
			C300.18,309.5,302.13,309.12,304.25,309.12z"/>
		<path class="st0" d="M357.65,329.91v34.16c0,2.45,0.42,4.25,1.26,5.42c0.84,1.17,2.38,1.75,4.61,1.75v1.71
			c-1.69-0.16-3.37-0.24-5.05-0.24c-1.79,0-3.51,0.08-5.14,0.24s-3.13,0.46-4.48,0.9v-8.89c-1.36,3.26-3.25,5.58-5.67,6.97
			c-2.42,1.39-4.96,2.08-7.62,2.08c-2.01,0-3.72-0.29-5.14-0.86c-1.41-0.57-2.58-1.32-3.51-2.24c-0.98-1.09-1.66-2.49-2.04-4.2
			c-0.38-1.71-0.57-3.87-0.57-6.48v-20.54c0-2.45-0.41-4.25-1.22-5.42c-0.82-1.17-2.36-1.75-4.65-1.75v-1.71
			c1.74,0.16,3.42,0.24,5.05,0.24c1.79,0,3.51-0.09,5.14-0.29c1.63-0.19,3.12-0.48,4.48-0.86v32.61c0,1.58,0.11,3.02,0.33,4.32
			c0.22,1.3,0.73,2.34,1.55,3.1c0.82,0.76,2.12,1.14,3.91,1.14c1.9,0,3.6-0.57,5.1-1.71c1.49-1.14,2.68-2.69,3.55-4.65
			c0.87-1.96,1.31-4.16,1.31-6.6v-18.42c0-2.45-0.41-4.25-1.22-5.42c-0.82-1.17-2.36-1.75-4.65-1.75v-1.71
			c1.74,0.16,3.42,0.24,5.06,0.24c1.79,0,3.51-0.09,5.14-0.29C354.79,330.57,356.29,330.29,357.65,329.91z"/>
		<path class="st0" d="M389.77,308.95v56.33c0,2.28,0.45,3.83,1.35,4.65c0.9,0.82,2.4,1.22,4.52,1.22v1.71
			c-0.92-0.05-2.36-0.12-4.32-0.2c-1.96-0.08-3.91-0.12-5.87-0.12c-1.96,0-3.93,0.04-5.91,0.12c-1.98,0.08-3.47,0.15-4.44,0.2v-1.71
			c2.12,0,3.63-0.41,4.52-1.22c0.9-0.81,1.34-2.36,1.34-4.65v-46.55c0-2.45-0.41-4.25-1.22-5.42s-2.36-1.75-4.65-1.75v-1.71
			c1.74,0.16,3.42,0.25,5.05,0.25c1.79,0,3.51-0.09,5.14-0.29C386.91,309.62,388.41,309.33,389.77,308.95z"/>
		<path class="st0" d="M459.14,315.15v1.63c-1.85,0.05-3.25,0.26-4.2,0.61c-0.95,0.35-1.59,1.01-1.92,1.96
			c-0.33,0.95-0.49,2.43-0.49,4.44v40.76c0,1.85,0.15,3.23,0.45,4.16c0.3,0.92,0.9,1.54,1.79,1.83c0.9,0.3,2.19,0.45,3.87,0.45h5.3
			c2.34,0,4.31-0.33,5.91-0.98c1.6-0.65,2.95-1.63,4.04-2.93c1.09-1.3,1.93-2.99,2.53-5.05c0.6-2.07,1.06-4.48,1.39-7.26h1.88
			c-0.16,1.74-0.25,4.02-0.25,6.85c0,1.09,0.04,2.68,0.12,4.77c0.08,2.09,0.23,4.25,0.45,6.48c-2.77-0.11-5.9-0.17-9.38-0.2
			c-3.48-0.03-6.58-0.04-9.29-0.04c-1.25,0-2.85,0-4.81,0c-1.96,0-4.06,0.01-6.32,0.04c-2.26,0.03-4.54,0.05-6.85,0.08
			c-2.31,0.03-4.52,0.07-6.64,0.12v-1.63c1.85-0.11,3.23-0.33,4.16-0.65c0.92-0.33,1.53-0.98,1.83-1.96c0.3-0.98,0.45-2.44,0.45-4.4
			v-40.44c0-2.01-0.15-3.49-0.45-4.44c-0.3-0.95-0.93-1.6-1.88-1.96c-0.95-0.35-2.32-0.56-4.12-0.61v-1.63
			c1.25,0.05,2.87,0.11,4.85,0.16c1.98,0.06,4.12,0.08,6.4,0.08c2.07,0,4.12-0.03,6.16-0.08
			C456.17,315.26,457.84,315.2,459.14,315.15z"/>
		<path class="st0" d="M503.98,373.44c-2.28,0-4.24-0.44-5.87-1.3s-2.85-2.07-3.67-3.59s-1.22-3.26-1.22-5.22
			c0-2.39,0.54-4.33,1.63-5.83c1.09-1.49,2.49-2.7,4.2-3.63c1.71-0.92,3.53-1.7,5.46-2.32c1.93-0.62,3.75-1.22,5.46-1.79
			s3.12-1.24,4.24-2c1.11-0.76,1.67-1.77,1.67-3.02v-5.54c0-1.96-0.31-3.52-0.94-4.69c-0.62-1.17-1.47-2-2.53-2.49
			c-1.06-0.49-2.32-0.73-3.79-0.73c-1.25,0-2.58,0.18-3.99,0.53c-1.41,0.35-2.53,1.05-3.34,2.08c1.2,0.33,2.19,0.97,2.98,1.92
			c0.79,0.95,1.18,2.13,1.18,3.55c0,1.52-0.5,2.72-1.51,3.59c-1.01,0.87-2.27,1.3-3.79,1.3c-1.69,0-2.93-0.53-3.75-1.59
			c-0.82-1.06-1.22-2.3-1.22-3.71c0-1.47,0.37-2.66,1.1-3.59c0.73-0.92,1.7-1.79,2.89-2.61c1.3-0.87,2.98-1.6,5.01-2.2
			c2.04-0.6,4.31-0.9,6.81-0.9c2.34,0,4.36,0.26,6.08,0.77c1.71,0.52,3.14,1.35,4.28,2.49c1.36,1.25,2.25,2.81,2.69,4.69
			c0.43,1.88,0.65,4.15,0.65,6.81v22.5c0,1.36,0.18,2.32,0.53,2.89c0.35,0.57,0.94,0.86,1.75,0.86c0.54,0,1.07-0.13,1.59-0.41
			c0.52-0.27,1.13-0.68,1.83-1.22l0.82,1.39c-1.14,0.92-2.3,1.66-3.47,2.2c-1.17,0.54-2.65,0.82-4.44,0.82
			c-1.74,0-3.15-0.27-4.24-0.82c-1.09-0.54-1.89-1.33-2.4-2.36c-0.52-1.03-0.78-2.31-0.78-3.83c-1.41,2.28-3.1,4.02-5.05,5.22
			C508.87,372.84,506.59,373.44,503.98,373.44z M507.9,369.53c1.52,0,2.95-0.44,4.28-1.3c1.33-0.87,2.57-2.17,3.71-3.91v-16.22
			c-0.6,0.87-1.47,1.62-2.61,2.24c-1.14,0.63-2.36,1.26-3.67,1.92c-1.3,0.65-2.54,1.4-3.71,2.24c-1.17,0.84-2.13,1.92-2.89,3.22
			c-0.76,1.3-1.14,2.96-1.14,4.97c0,2.12,0.54,3.79,1.63,5.01C504.58,368.92,506.05,369.53,507.9,369.53z"/>
		<path class="st0" d="M570.18,329.66c2.17,0,3.95,0.29,5.34,0.86c1.39,0.57,2.54,1.35,3.47,2.32c0.98,1.03,1.67,2.36,2.08,3.99
			c0.41,1.63,0.61,3.83,0.61,6.6v21.85c0,2.28,0.45,3.83,1.34,4.65c0.9,0.82,2.41,1.22,4.53,1.22v1.71
			c-0.93-0.05-2.36-0.12-4.32-0.2c-1.96-0.08-3.89-0.12-5.79-0.12c-1.85,0-3.68,0.04-5.5,0.12c-1.82,0.08-3.19,0.15-4.12,0.2v-1.71
			c1.85,0,3.15-0.41,3.91-1.22c0.76-0.81,1.14-2.36,1.14-4.65v-24.13c0-1.57-0.14-3-0.41-4.28c-0.27-1.28-0.84-2.31-1.71-3.1
			c-0.87-0.79-2.17-1.18-3.91-1.18c-2.01,0-3.79,0.57-5.34,1.71c-1.55,1.14-2.77,2.71-3.67,4.69c-0.9,1.98-1.35,4.2-1.35,6.65v19.65
			c0,2.28,0.39,3.83,1.18,4.65c0.79,0.82,2.08,1.22,3.87,1.22v1.71c-0.87-0.05-2.19-0.12-3.95-0.2c-1.77-0.08-3.6-0.12-5.5-0.12
			c-1.85,0-3.78,0.04-5.79,0.12c-2.01,0.08-3.51,0.15-4.48,0.2v-1.71c2.12,0,3.63-0.41,4.53-1.22c0.9-0.81,1.34-2.36,1.34-4.65
			v-25.6c0-2.45-0.41-4.25-1.22-5.42c-0.81-1.17-2.36-1.75-4.65-1.75v-1.71c1.74,0.16,3.42,0.24,5.05,0.24
			c1.85,0,3.57-0.09,5.18-0.29c1.6-0.19,3.08-0.48,4.44-0.86v8.89c1.41-3.37,3.35-5.73,5.83-7.09
			C564.79,330.34,567.41,329.66,570.18,329.66z"/>
		<path class="st0" d="M618.93,329.66c2.39,0,4.58,0.52,6.56,1.55c1.98,1.03,3.38,2.77,4.2,5.22l-0.98,0.9
			c-0.76-1.96-1.88-3.38-3.34-4.28c-1.47-0.9-3.13-1.35-4.97-1.35c-3.1,0-5.63,1.65-7.58,4.93c-1.96,3.29-2.91,8.36-2.85,15.21
			c0,4.51,0.38,8.19,1.14,11.05c0.76,2.85,1.89,4.96,3.38,6.32c1.49,1.36,3.3,2.04,5.42,2.04c2.12,0,4.04-0.9,5.75-2.69
			c1.71-1.79,2.73-4.37,3.06-7.75l0.73,1.71c-0.54,3.7-1.85,6.54-3.91,8.52c-2.07,1.98-4.84,2.98-8.32,2.98
			c-3.32,0-6.24-0.8-8.76-2.41c-2.53-1.6-4.47-4.05-5.83-7.34c-1.36-3.29-2.04-7.43-2.04-12.43c0-4.95,0.83-9.06,2.49-12.35
			c1.66-3.29,3.87-5.75,6.64-7.38C612.49,330.48,615.56,329.66,618.93,329.66z M637.27,308.95v55.03c0,2.45,0.42,4.25,1.26,5.42
			c0.84,1.17,2.38,1.75,4.61,1.75v1.71c-1.68-0.16-3.37-0.24-5.05-0.24c-1.85,0-3.58,0.08-5.18,0.24c-1.6,0.16-3.09,0.46-4.44,0.9
			v-55.03c0-2.45-0.42-4.25-1.26-5.42c-0.84-1.17-2.38-1.75-4.61-1.75v-1.71c1.74,0.16,3.42,0.25,5.06,0.25
			c1.79,0,3.5-0.09,5.14-0.29C634.42,309.62,635.92,309.33,637.27,308.95z"/>
		<path class="st0" d="M670.29,329.66c2.17,0,4.06,0.34,5.67,1.02c1.6,0.68,2.76,1.29,3.47,1.83c1.79,1.41,2.91,0.49,3.34-2.77h1.79
			c-0.11,1.52-0.19,3.36-0.24,5.5c-0.06,2.15-0.08,4.99-0.08,8.52h-1.79c-0.33-2.01-0.88-3.97-1.67-5.87
			c-0.79-1.9-1.93-3.48-3.42-4.73c-1.5-1.25-3.44-1.88-5.83-1.88c-1.79,0-3.29,0.5-4.48,1.51c-1.2,1.01-1.79,2.49-1.79,4.44
			c0,1.63,0.49,3.05,1.47,4.24c0.98,1.2,2.24,2.31,3.79,3.34c1.55,1.03,3.22,2.15,5.01,3.34c2.01,1.36,3.82,2.7,5.42,4.04
			c1.6,1.33,2.88,2.81,3.83,4.44s1.43,3.53,1.43,5.71c0,2.5-0.67,4.62-2,6.36c-1.33,1.74-3.09,3.06-5.26,3.95
			c-2.17,0.9-4.57,1.35-7.17,1.35c-1.3,0-2.53-0.12-3.67-0.37c-1.14-0.24-2.2-0.56-3.18-0.94c-0.6-0.33-1.18-0.67-1.75-1.02
			c-0.57-0.35-1.13-0.69-1.67-1.02c-0.54-0.38-1.03-0.33-1.47,0.16c-0.44,0.49-0.76,1.36-0.98,2.61h-1.79
			c0.11-1.74,0.19-3.86,0.25-6.36c0.05-2.5,0.08-5.82,0.08-9.95h1.79c0.38,2.99,0.95,5.62,1.71,7.91c0.76,2.28,1.89,4.06,3.38,5.34
			c1.49,1.28,3.55,1.92,6.15,1.92c1.03,0,2.07-0.23,3.1-0.69c1.03-0.46,1.89-1.21,2.57-2.24c0.68-1.03,1.02-2.42,1.02-4.16
			c0-2.39-0.83-4.36-2.49-5.91c-1.66-1.55-3.79-3.19-6.4-4.93c-1.85-1.3-3.6-2.6-5.26-3.87c-1.66-1.28-3-2.72-4.04-4.32
			c-1.03-1.6-1.55-3.52-1.55-5.75c0-2.45,0.58-4.46,1.75-6.03c1.17-1.58,2.73-2.76,4.69-3.55
			C665.97,330.06,668.06,329.66,670.29,329.66z"/>
		<path class="st0" d="M720.84,329.66c1.85,0,3.61,0.23,5.3,0.69c1.68,0.46,3.15,1.1,4.4,1.92c1.3,0.82,2.3,1.79,2.98,2.93
			c0.68,1.14,1.02,2.39,1.02,3.75c0,1.63-0.46,2.91-1.39,3.83c-0.92,0.92-2.12,1.39-3.59,1.39c-1.47,0-2.69-0.41-3.67-1.22
			c-0.98-0.82-1.47-1.98-1.47-3.51c0-1.41,0.41-2.57,1.22-3.47c0.82-0.9,1.77-1.48,2.85-1.75c-0.49-0.82-1.35-1.51-2.57-2.08
			c-1.22-0.57-2.54-0.86-3.95-0.86c-1.47,0-2.87,0.38-4.2,1.14c-1.33,0.76-2.51,1.93-3.55,3.5c-1.03,1.58-1.86,3.62-2.49,6.11
			c-0.63,2.5-0.94,5.52-0.94,9.05c0,4.57,0.53,8.19,1.59,10.88c1.06,2.69,2.46,4.61,4.2,5.75c1.74,1.14,3.61,1.71,5.62,1.71
			c1.3,0,2.65-0.25,4.04-0.73c1.39-0.49,2.72-1.3,4-2.45c1.28-1.14,2.41-2.69,3.38-4.65l1.55,0.57c-0.6,1.79-1.54,3.62-2.81,5.46
			c-1.28,1.85-2.95,3.37-5.01,4.57c-2.07,1.2-4.59,1.79-7.58,1.79c-3.42,0-6.52-0.84-9.29-2.53c-2.77-1.68-4.97-4.14-6.6-7.38
			c-1.63-3.23-2.45-7.19-2.45-11.86c0-4.57,0.83-8.55,2.49-11.94c1.66-3.4,3.95-6.02,6.89-7.87
			C713.74,330.59,717.09,329.66,720.84,329.66z"/>
		<path class="st0" d="M759.64,373.44c-2.28,0-4.24-0.44-5.87-1.3s-2.85-2.07-3.67-3.59s-1.22-3.26-1.22-5.22
			c0-2.39,0.54-4.33,1.63-5.83c1.09-1.49,2.49-2.7,4.2-3.63c1.71-0.92,3.53-1.7,5.46-2.32c1.93-0.62,3.75-1.22,5.46-1.79
			s3.12-1.24,4.24-2c1.11-0.76,1.67-1.77,1.67-3.02v-5.54c0-1.96-0.31-3.52-0.94-4.69s-1.47-2-2.53-2.49
			c-1.06-0.49-2.32-0.73-3.79-0.73c-1.25,0-2.58,0.18-3.99,0.53c-1.41,0.35-2.53,1.05-3.34,2.08c1.2,0.33,2.19,0.97,2.98,1.92
			c0.79,0.95,1.18,2.13,1.18,3.55c0,1.52-0.5,2.72-1.51,3.59c-1.01,0.87-2.27,1.3-3.79,1.3c-1.69,0-2.93-0.53-3.75-1.59
			c-0.82-1.06-1.22-2.3-1.22-3.71c0-1.47,0.37-2.66,1.1-3.59c0.73-0.92,1.7-1.79,2.89-2.61c1.3-0.87,2.98-1.6,5.01-2.2
			c2.04-0.6,4.31-0.9,6.81-0.9c2.34,0,4.36,0.26,6.08,0.77c1.71,0.52,3.14,1.35,4.28,2.49c1.36,1.25,2.25,2.81,2.69,4.69
			c0.43,1.88,0.65,4.15,0.65,6.81v22.5c0,1.36,0.18,2.32,0.53,2.89c0.35,0.57,0.94,0.86,1.75,0.86c0.54,0,1.07-0.13,1.59-0.41
			c0.52-0.27,1.13-0.68,1.83-1.22l0.82,1.39c-1.14,0.92-2.3,1.66-3.47,2.2c-1.17,0.54-2.65,0.82-4.44,0.82
			c-1.74,0-3.15-0.27-4.24-0.82s-1.89-1.33-2.4-2.36c-0.52-1.03-0.78-2.31-0.78-3.83c-1.41,2.28-3.1,4.02-5.05,5.22
			C764.53,372.84,762.25,373.44,759.64,373.44z M763.56,369.53c1.52,0,2.95-0.44,4.28-1.3c1.33-0.87,2.57-2.17,3.71-3.91v-16.22
			c-0.6,0.87-1.47,1.62-2.61,2.24c-1.14,0.63-2.36,1.26-3.67,1.92s-2.54,1.4-3.71,2.24c-1.17,0.84-2.13,1.92-2.89,3.22
			c-0.76,1.3-1.14,2.96-1.14,4.97c0,2.12,0.54,3.79,1.63,5.01C760.24,368.92,761.71,369.53,763.56,369.53z"/>
		<path class="st0" d="M811.65,329.91v49.98c0,2.39,0.68,3.99,2.04,4.81s3.23,1.22,5.63,1.22v1.71c-1.25-0.05-2.99-0.12-5.22-0.2
			c-2.23-0.08-4.62-0.12-7.17-0.12c-1.79,0-3.56,0.04-5.3,0.12c-1.74,0.08-3.07,0.15-4,0.2v-1.71c1.9,0,3.25-0.37,4.04-1.1
			c0.79-0.73,1.18-2.11,1.18-4.12v-41.01c0-2.45-0.41-4.25-1.22-5.42c-0.82-1.17-2.36-1.75-4.65-1.75v-1.71
			c1.74,0.16,3.43,0.24,5.06,0.24c1.79,0,3.5-0.09,5.14-0.29C808.8,330.57,810.3,330.29,811.65,329.91z M824.62,329.66
			c2.83,0,5.37,0.77,7.62,2.32c2.25,1.55,4.04,3.82,5.34,6.81c1.3,2.99,1.96,6.71,1.96,11.17c0,3.26-0.38,6.35-1.14,9.25
			c-0.76,2.91-1.92,5.46-3.47,7.66c-1.55,2.2-3.49,3.94-5.83,5.22c-2.34,1.28-5.11,1.92-8.32,1.92c-2.39,0-4.5-0.52-6.32-1.55
			c-1.82-1.03-3.11-2.34-3.87-3.91l0.82-1.14c0.71,1.36,1.7,2.47,2.98,3.34c1.28,0.87,2.87,1.3,4.77,1.3c2.83,0,5.04-0.91,6.65-2.73
			c1.6-1.82,2.73-4.29,3.38-7.42c0.65-3.12,0.98-6.67,0.98-10.64c0-4.46-0.33-8.06-0.98-10.8c-0.65-2.74-1.63-4.76-2.93-6.03
			c-1.31-1.28-2.88-1.92-4.73-1.92c-2.45,0-4.66,0.98-6.64,2.93c-1.98,1.96-3.19,4.89-3.63,8.8l-0.82-1.71
			c0.71-4.08,2.35-7.24,4.93-9.5C817.95,330.79,821.03,329.66,824.62,329.66z"/>
		<path class="st0" d="M873.7,329.66c4.78,0,8.53,1.44,11.25,4.32c2.72,2.88,4.08,7.45,4.08,13.7H860.9l-0.16-1.55h19.65
			c0.05-2.66-0.16-5.12-0.65-7.38c-0.49-2.25-1.25-4.06-2.28-5.42c-1.03-1.36-2.39-2.04-4.07-2.04c-2.34,0-4.36,1.24-6.07,3.71
			c-1.71,2.48-2.76,6.43-3.14,11.86l0.24,0.41c-0.05,0.76-0.11,1.59-0.16,2.49c-0.06,0.9-0.08,1.78-0.08,2.65
			c0,3.75,0.57,6.9,1.71,9.46c1.14,2.55,2.63,4.47,4.48,5.75c1.85,1.28,3.72,1.92,5.63,1.92c1.47,0,2.89-0.23,4.28-0.69
			c1.39-0.46,2.7-1.25,3.95-2.36c1.25-1.11,2.36-2.65,3.34-4.61l1.63,0.65c-0.65,1.85-1.66,3.67-3.02,5.46
			c-1.36,1.79-3.1,3.25-5.22,4.36c-2.12,1.11-4.59,1.67-7.42,1.67c-3.8,0-7.12-0.86-9.94-2.57c-2.83-1.71-5-4.17-6.52-7.38
			c-1.52-3.21-2.28-7.01-2.28-11.41c0-4.84,0.79-8.97,2.36-12.39c1.58-3.42,3.79-6.04,6.64-7.87
			C866.64,330.57,869.94,329.66,873.7,329.66z"/>
		<path class="st0" d="M917.96,329.66c2.17,0,4.06,0.34,5.67,1.02c1.6,0.68,2.76,1.29,3.46,1.83c1.79,1.41,2.91,0.49,3.34-2.77h1.79
			c-0.11,1.52-0.19,3.36-0.25,5.5c-0.05,2.15-0.08,4.99-0.08,8.52h-1.79c-0.33-2.01-0.88-3.97-1.67-5.87
			c-0.79-1.9-1.93-3.48-3.42-4.73c-1.5-1.25-3.44-1.88-5.83-1.88c-1.79,0-3.29,0.5-4.48,1.51c-1.2,1.01-1.79,2.49-1.79,4.44
			c0,1.63,0.49,3.05,1.47,4.24c0.98,1.2,2.24,2.31,3.79,3.34c1.55,1.03,3.22,2.15,5.01,3.34c2.01,1.36,3.82,2.7,5.42,4.04
			c1.6,1.33,2.88,2.81,3.83,4.44c0.95,1.63,1.43,3.53,1.43,5.71c0,2.5-0.67,4.62-2,6.36c-1.33,1.74-3.09,3.06-5.26,3.95
			c-2.17,0.9-4.57,1.35-7.17,1.35c-1.3,0-2.53-0.12-3.67-0.37c-1.14-0.24-2.2-0.56-3.18-0.94c-0.6-0.33-1.18-0.67-1.75-1.02
			c-0.57-0.35-1.13-0.69-1.67-1.02c-0.54-0.38-1.03-0.33-1.47,0.16c-0.44,0.49-0.76,1.36-0.98,2.61h-1.79
			c0.11-1.74,0.19-3.86,0.24-6.36c0.05-2.5,0.08-5.82,0.08-9.95h1.79c0.38,2.99,0.95,5.62,1.71,7.91c0.76,2.28,1.89,4.06,3.38,5.34
			c1.49,1.28,3.55,1.92,6.15,1.92c1.03,0,2.06-0.23,3.1-0.69c1.03-0.46,1.89-1.21,2.57-2.24c0.68-1.03,1.02-2.42,1.02-4.16
			c0-2.39-0.83-4.36-2.49-5.91c-1.66-1.55-3.79-3.19-6.4-4.93c-1.85-1.3-3.6-2.6-5.26-3.87c-1.66-1.28-3-2.72-4.04-4.32
			c-1.03-1.6-1.55-3.52-1.55-5.75c0-2.45,0.58-4.46,1.75-6.03c1.17-1.58,2.73-2.76,4.69-3.55
			C913.64,330.06,915.73,329.66,917.96,329.66z"/>
	</g>
	<g>
		<g>
			<polygon class="st0" points="470.52,602.21 426.11,571.46 382.1,601.82 335.61,571.36 291.46,600.47 285.62,591.62 
				335.59,558.67 381.95,589.04 426.13,558.57 470.75,589.47 518.74,558.73 565.73,588.48 610.35,558.67 658.96,591.66 653,600.44 
				610.31,571.46 565.89,601.13 518.77,571.3 			"/>
		</g>
		<g>
			<polygon class="st0" points="470.52,575.32 426.11,544.57 382.1,574.93 335.61,544.47 291.46,573.59 285.62,564.73 
				335.59,531.78 381.95,562.15 426.13,531.68 470.75,562.58 518.74,531.84 565.73,561.59 610.35,531.78 658.96,564.77 653,573.55 
				610.31,544.57 565.89,574.24 518.77,544.41 			"/>
		</g>
		<g>
			<polygon class="st0" points="470.52,546.35 426.11,515.6 382.1,545.96 335.61,515.5 291.46,544.62 285.62,535.76 335.59,502.81 
				381.95,533.18 426.13,502.71 470.75,533.61 518.74,502.87 565.73,532.63 610.35,502.81 658.96,535.8 653,544.58 610.31,515.6 
				565.89,545.27 518.77,515.44 			"/>
		</g>
	</g>
	<g>
		<g>
			<g>
				<circle class="st0" cx="296.15" cy="484.34" r="7.61"/>
			</g>
			<g>
				<circle class="st0" cx="340.55" cy="484.34" r="7.61"/>
			</g>
			<g>
				<circle class="st0" cx="384.95" cy="484.34" r="7.61"/>
			</g>
			<g>
				<circle class="st0" cx="429.35" cy="484.34" r="7.61"/>
			</g>
			<g>
				<circle class="st0" cx="473.75" cy="484.34" r="7.61"/>
			</g>
			<g>
				<circle class="st0" cx="518.15" cy="484.34" r="7.61"/>
			</g>
			<g>
				<circle class="st0" cx="562.55" cy="484.34" r="7.61"/>
			</g>
			<g>
				<circle class="st0" cx="606.95" cy="484.34" r="7.61"/>
			</g>
			<g>
				<circle class="st0" cx="651.35" cy="484.34" r="7.61"/>
			</g>
		</g>
		<g>
			<g>
				<circle class="st0" cx="318.35" cy="456.64" r="7.61"/>
			</g>
			<g>
				<circle class="st0" cx="362.75" cy="456.64" r="7.61"/>
			</g>
			<g>
				<circle class="st0" cx="407.15" cy="456.64" r="7.61"/>
			</g>
			<g>
				<circle class="st0" cx="451.55" cy="456.64" r="7.61"/>
			</g>
			<g>
				<circle class="st0" cx="495.95" cy="456.64" r="7.61"/>
			</g>
			<g>
				<circle class="st0" cx="540.35" cy="456.64" r="7.61"/>
			</g>
			<g>
				<circle class="st0" cx="584.75" cy="456.64" r="7.61"/>
			</g>
			<g>
				<circle class="st0" cx="629.15" cy="456.64" r="7.61"/>
			</g>
		</g>
		<g>
			<g>
				<circle class="st0" cx="296.15" cy="428.94" r="7.61"/>
			</g>
			<g>
				<circle class="st0" cx="340.55" cy="428.94" r="7.61"/>
			</g>
			<g>
				<circle class="st0" cx="384.95" cy="428.94" r="7.61"/>
			</g>
			<g>
				<circle class="st0" cx="429.35" cy="428.94" r="7.61"/>
			</g>
			<g>
				<circle class="st0" cx="473.75" cy="428.94" r="7.61"/>
			</g>
			<g>
				<circle class="st0" cx="518.15" cy="428.94" r="7.61"/>
			</g>
			<g>
				<circle class="st0" cx="562.55" cy="428.94" r="7.61"/>
			</g>
			<g>
				<circle class="st0" cx="606.95" cy="428.94" r="7.61"/>
			</g>
			<g>
				<circle class="st0" cx="651.35" cy="428.94" r="7.61"/>
			</g>
		</g>
	</g>
	<g>
		<g>
			<polygon class="st0" points="292.81,29.38 287.78,23.22 316.21,0 344.09,23.24 339,29.35 316.16,10.31 			"/>
		</g>
		<g>
			<polygon class="st0" points="292.81,46.38 287.78,40.22 316.21,17 344.09,40.24 339,46.35 316.16,27.31 			"/>
		</g>
		<g>
			<polygon class="st0" points="292.81,63.38 287.78,57.22 316.21,34 344.09,57.24 339,63.35 316.16,44.31 			"/>
		</g>
		<g>
			<polygon class="st0" points="292.81,80.38 287.78,74.22 316.21,51 344.09,74.24 339,80.35 316.16,61.31 			"/>
		</g>
		<g>
			<polygon class="st0" points="371.42,29.38 366.39,23.22 394.82,0 422.7,23.24 417.61,29.35 394.77,10.31 			"/>
		</g>
		<g>
			<polygon class="st0" points="371.42,46.38 366.39,40.22 394.82,17 422.7,40.24 417.61,46.35 394.77,27.31 			"/>
		</g>
		<g>
			<polygon class="st0" points="371.42,63.38 366.39,57.22 394.82,34 422.7,57.24 417.61,63.35 394.77,44.31 			"/>
		</g>
		<g>
			<polygon class="st0" points="371.42,80.38 366.39,74.22 394.82,51 422.7,74.24 417.61,80.35 394.77,61.31 			"/>
		</g>
		<g>
			<polygon class="st0" points="450.03,29.38 445,23.22 473.43,0 501.31,23.24 496.22,29.35 473.38,10.31 			"/>
		</g>
		<g>
			<polygon class="st0" points="450.03,46.38 445,40.22 473.43,17 501.31,40.24 496.22,46.35 473.38,27.31 			"/>
		</g>
		<g>
			<polygon class="st0" points="450.03,63.38 445,57.22 473.43,34 501.31,57.24 496.22,63.35 473.38,44.31 			"/>
		</g>
		<g>
			<polygon class="st0" points="450.03,80.38 445,74.22 473.43,51 501.31,74.24 496.22,80.35 473.38,61.31 			"/>
		</g>
		<g>
			<polygon class="st0" points="528.63,29.38 523.6,23.22 552.04,0 579.92,23.24 574.82,29.35 551.98,10.31 			"/>
		</g>
		<g>
			<polygon class="st0" points="528.63,46.38 523.6,40.22 552.04,17 579.92,40.24 574.82,46.35 551.98,27.31 			"/>
		</g>
		<g>
			<polygon class="st0" points="528.63,63.38 523.6,57.22 552.04,34 579.92,57.24 574.82,63.35 551.98,44.31 			"/>
		</g>
		<g>
			<polygon class="st0" points="528.63,80.38 523.6,74.22 552.04,51 579.92,74.24 574.82,80.35 551.98,61.31 			"/>
		</g>
		<g>
			<polygon class="st0" points="607.24,29.38 602.21,23.22 630.64,0 658.52,23.24 653.43,29.35 630.59,10.31 			"/>
		</g>
		<g>
			<polygon class="st0" points="607.24,46.38 602.21,40.22 630.64,17 658.52,40.24 653.43,46.35 630.59,27.31 			"/>
		</g>
		<g>
			<polygon class="st0" points="607.24,63.38 602.21,57.22 630.64,34 658.52,57.24 653.43,63.35 630.59,44.31 			"/>
		</g>
		<g>
			<polygon class="st0" points="607.24,80.38 602.21,74.22 630.64,51 658.52,74.24 653.43,80.35 630.59,61.31 			"/>
		</g>
	</g>
	<g>
		<g>
			<g>
				<rect x="289.1" y="161.81" class="st0" width="366.33" height="10.6"/>
			</g>
			<g>
				<rect x="289.1" y="128.15" class="st0" width="366.33" height="10.6"/>
			</g>
		</g>
		<g>
			<rect x="289.1" y="94.49" class="st0" width="366.33" height="10.6"/>
		</g>
	</g>
	<g>
		<g>
			<path class="st0" d="M553.04,273.43c-18.6,0-31.5-8.48-32.3-9.02c-1.05-0.69-26.71-17.19-52.93-0.06
				c-29.16,19.05-62.82,0.99-64.24,0.21l-0.34-0.2c-1-0.64-25.25-15.76-53.28,0.19c-34.05,19.38-63.12,0.62-64.34-0.19l5.85-8.84
				l-2.93,4.42l2.91-4.43c1.01,0.66,25.01,15.9,53.26-0.18c32.62-18.56,61.07-1.88,64.08-0.01c2.04,1.06,30.21,15.18,53.23,0.15
				c32.18-21.02,63.32-0.74,64.63,0.13c1,0.67,24.75,16.01,53.23-0.2c1.33-0.77,34.01-19.24,78.2-0.26l-4.18,9.74
				c-39.1-16.79-67.56-0.96-68.75-0.28C573.53,271.22,562.54,273.43,553.04,273.43z"/>
		</g>
		<g>
			<path class="st0" d="M553.04,242.56c-18.6,0-31.5-8.48-32.3-9.02c-1.05-0.69-26.71-17.19-52.93-0.06
				c-29.16,19.04-62.82,0.99-64.24,0.21l-0.34-0.2c-1-0.64-25.25-15.76-53.28,0.19c-34.05,19.38-63.12,0.62-64.34-0.19l5.85-8.84
				l-2.93,4.42l2.91-4.43c1.01,0.66,25.01,15.9,53.26-0.18c32.62-18.56,61.07-1.88,64.08-0.01c2.04,1.06,30.21,15.18,53.23,0.15
				c32.18-21.02,63.32-0.74,64.63,0.13c1,0.67,24.75,16.01,53.23-0.2c1.33-0.77,34.01-19.24,78.2-0.26l-4.18,9.74
				c-39.1-16.79-67.56-0.96-68.75-0.28C573.53,240.35,562.54,242.56,553.04,242.56z"/>
		</g>
		<g>
			<path class="st0" d="M553.04,211.7c-18.6,0-31.5-8.48-32.3-9.02c-1.05-0.69-26.71-17.19-52.93-0.06
				c-29.16,19.04-62.82,0.99-64.24,0.21l-0.34-0.2c-1-0.64-25.25-15.76-53.28,0.19c-34.05,19.38-63.12,0.62-64.34-0.19l5.85-8.84
				l-2.93,4.42l2.91-4.43c1.01,0.66,25.01,15.9,53.26-0.18c32.62-18.56,61.07-1.88,64.08-0.01c2.04,1.06,30.21,15.18,53.23,0.15
				c32.18-21.02,63.32-0.74,64.63,0.13c1,0.66,24.75,16.01,53.23-0.2c1.33-0.77,34.01-19.24,78.2-0.26l-4.18,9.74
				c-39.1-16.79-67.56-0.96-68.75-0.28C573.53,209.48,562.54,211.69,553.04,211.7z"/>
		</g>
	</g>
</g>
</svg>
